<svg xmlns="http://www.w3.org/2000/svg" xmlns:xlink="http://www.w3.org/1999/xlink" viewBox="0 0 370.46 328.93"><defs><style>.cls-1{fill:#9ac9ec;}.cls-2{fill:#fff;}.cls-3{fill:url(#radial-gradient);}.cls-4{fill:url(#radial-gradient-2);}.cls-5{fill:#f9dbbd;}.cls-6{fill:#f8bbcf;}.cls-7{fill:#ef4681;}.cls-8{fill:#ffc836;}.cls-9{fill:#f9f9f8;}</style><radialGradient id="radial-gradient" cx="150.775" cy="235.477" r="100.473" gradientTransform="translate(1092.681 84.702) rotate(90) scale(1 4)" gradientUnits="userSpaceOnUse"><stop offset="0" stop-color="#ef4681"/><stop offset="0.06" stop-color="#f16596"/><stop offset="0.127" stop-color="#f380a7"/><stop offset="0.205" stop-color="#f596b6"/><stop offset="0.295" stop-color="#f6a7c1"/><stop offset="0.407" stop-color="#f7b2c9"/><stop offset="0.564" stop-color="#f8b9ce"/><stop offset="1" stop-color="#f8bbcf"/></radialGradient><radialGradient id="radial-gradient-2" cx="-4764.277" cy="6711.073" r="99.572" gradientTransform="translate(1385.609 8285.386) rotate(135)" gradientUnits="userSpaceOnUse"><stop offset="0" stop-color="#dfba95"/><stop offset="1" stop-color="#f9dbbd"/></radialGradient></defs><title>Asset 14</title><g id="Layer_2" data-name="Layer 2"><g id="Layer_1-2" data-name="Layer 1"><circle class="cls-1" cx="191.938" cy="166.833" r="162.097"/><path class="cls-2" d="M30.585,182.361a162.1,162.1,0,0,0,322.706,0Z"/><path class="cls-3" d="M266.449,226.98a3.361,3.361,0,0,1,1.161-6.116c10.342-2.079,17.136-5.946,17.562-10.889.766-8.879-19.3-17.862-44.824-20.063s-46.831,3.212-47.6,12.091a5.79,5.79,0,0,0,.057,1.353c-6.422-.952-13.046-1.732-19.828-2.317-62.928-5.427-115.471,7.921-117.36,29.814l0,.032a3.468,3.468,0,0,1-3.439,3.171c-19.985.1-35.158,5.109-35.8,12.575-.766,8.88,19.3,17.862,44.824,20.063a124.07,124.07,0,0,0,18.748.246,85.08,85.08,0,0,1,29.586,3.136,293.628,293.628,0,0,0,56.607,10.246c62.927,5.428,115.471-7.92,117.36-29.813C284.2,242.415,277.877,234.286,266.449,226.98Z"/><polygon class="cls-4" points="168.197 137.156 0 50.62 78.309 227.044 168.197 137.156"/><rect class="cls-5" x="49.283" y="162.472" width="135.739" height="25.837" rx="12.919" transform="translate(324.012 216.57) rotate(135)"/><path class="cls-6" d="M71.772,225.538a7.589,7.589,0,0,0-.012,10.721l.058.058c6.553,6.554,16.994,7.075,25.137,1.882,15.076,2.425,27.04,5.417,108.655,2,32.32-1.354,6.306-51.726-19.2-77.231-.452-.452-.918-.88-1.379-1.317,4.251-10.279,2.618-22.023-5.155-29.8l-.076-.077a10.286,10.286,0,0,0-14.464.2Z"/><circle class="cls-7" cx="122.395" cy="224.571" r="3.577"/><circle class="cls-7" cx="123.804" cy="202.556" r="2.622"/><circle class="cls-7" cx="112.767" cy="214.944" r="3.577"/><path class="cls-8" d="M302.332,0A68.129,68.129,0,1,0,370.46,68.128,68.128,68.128,0,0,0,302.332,0Z"/><circle class="cls-9" cx="302.332" cy="99.572" r="10.481"/><path class="cls-9" d="M302.332,83.85h0a7.42,7.42,0,0,0,7.363-6.5l4.7-37.565a7.42,7.42,0,0,0-7.363-8.341h-9.392a7.42,7.42,0,0,0-7.363,8.341l4.7,37.565A7.42,7.42,0,0,0,302.332,83.85Z"/><path class="cls-6" d="M99.781,285.429a81.943,81.943,0,0,0-17.993.311,162.555,162.555,0,0,0,30.755,22.434c10.828-.944,18.484-4.152,18.867-8.588C131.95,293.321,117.79,286.982,99.781,285.429Z"/><path class="cls-5" d="M84.679,189.9l4.707-4.707L78.8,174.6l8.74-8.74,10.588,10.588,4.706-4.706L92.244,161.158l8.4-8.4,10.588,10.588,4.706-4.706-10.588-10.589,8.74-8.74L124.683,149.9l4.706-4.706L118.8,134.6l11.125-11.125-4.707-4.706L114.094,129.9l-8.74-8.741,10.783-10.783-6.215-3.2-9.274,9.274-8.74-8.74,6.472-6.472-6.215-3.2L87.2,103,76.673,92.473l1.588-1.589-6.215-3.2-.08.079-.248-.248L51.864,77.3,43.237,85.93l-9.991-9.99L28.54,80.646l9.991,9.99-8.4,8.4-9.991-9.99L18,91.182l4.11,9.258,3.306,3.307-1.273,1.273,2.893,6.519,3.087-3.086L40.7,119.029l-7.16,7.16L45.8,153.812l1.394-1.4,8.74,8.741-4.76,4.76,2.893,6.519,6.574-6.573,8.74,8.74-8.74,8.74-3.115-3.115,7.512,16.925,5.855,5.855L75.6,198.3,65.351,188.051l8.74-8.741Zm2.859-33.448-8.741-8.74,8.4-8.4,8.741,8.74Zm-13.783-30.59,8.74,8.74-8.4,8.4-8.74-8.74Zm-13.11,3.7L50.116,119.029l8.4-8.4,10.529,10.529Zm48.743,5.043-8.74,8.74-8.74-8.74,8.74-8.74ZM95.942,121.154,87.2,129.9l-8.74-8.741,8.74-8.74ZM71.966,97.179,82.5,107.708l-8.74,8.74L63.226,105.919ZM56.684,81.9,67.26,92.473l-8.74,8.74L47.943,90.636ZM34.833,103.747l8.4-8.4,10.576,10.576-8.4,8.4Zm1.836,28.729,8.74-8.74,10.529,10.529-8.74,8.74ZM51.9,147.711l8.741-8.74,8.74,8.74-8.74,8.74Zm13.447,13.447,8.74-8.741,8.74,8.741-8.74,8.74Z"/></g></g></svg>