<svg xmlns="http://www.w3.org/2000/svg" fill="none" viewBox="0 0 16 16">
  <path fill="#000" d="M14 1H2a1 1 0 00-1 1v9a1 1 0 001 1h4.022c.031.343.094.678.185 1H6v2h1.257c.314.38.677.716 1.08 1H3.5a.5.5 0 010-1H5v-2H2a2 2 0 01-2-2V2a2 2 0 012-2h12a2 2 0 012 2v6.337a5.533 5.533 0 00-1-1.08V2a1 1 0 00-1-1z"/>
  <path fill="#000" d="M10.07 15.138l-.35.357a4.535 4.535 0 01-.874-.482l.119-.396a2 2 0 00-1.454-2.52l-.484-.115a4.25 4.25 0 010-.964l.484-.115a2 2 0 001.454-2.52l-.119-.396c.27-.19.563-.353.874-.482l.35.357a2 2 0 002.86 0l.35-.357c.311.13.604.292.874.482l-.119.396a2 2 0 001.454 2.52l.484.115a4.256 4.256 0 010 .964l-.484.115a2 2 0 00-1.454 2.52l.119.396c-.27.19-.563.353-.874.482l-.35-.357a2 2 0 00-2.86 0zM11.5 10.5a1 1 0 100 2 1 1 0 000-2z"/>
</svg>
