<svg xmlns="http://www.w3.org/2000/svg" fill="none" viewBox="0 0 16 16">
  <g clip-path="url(#clip0)">
    <path fill="#000" fill-rule="evenodd" d="M0 9a2 2 0 002 2h12a2 2 0 002-2V7a2 2 0 00-2-2H6.998v1H14a1 1 0 011 1v2a1 1 0 01-1 1H2a1 1 0 01-1-1H0z" clip-rule="evenodd"/>
    <path fill="#000" d="M13 7.75a.75.75 0 11-1.5 0 .75.75 0 011.5 0z"/>
    <path fill="#000" fill-rule="evenodd" d="M2.997 1a1 1 0 00-1 1v1.5h-1V2a2 2 0 114 0v1.5h-1V2a1 1 0 00-1-1z" clip-rule="evenodd"/>
    <path fill="#000" fill-rule="evenodd" d="M-.002 7.5v-4a.498.498 0 01.5-.5h5a.498.498 0 01.5.5v4a.497.497 0 01-.5.5h-5a.498.498 0 01-.5-.5zm4-2a1 1 0 11-2 0 1 1 0 012 0z" clip-rule="evenodd"/>
  </g>
  <defs>
    <clipPath id="clip0">
      <path fill="#fff" d="M0 0h16v16H0z"/>
    </clipPath>
  </defs>
</svg>
