<svg  viewBox="0 0 16 16" fill="none" xmlns="http://www.w3.org/2000/svg">
<path d="M2 13.0332V3.2168C2 3.06641 2.02962 2.92513 2.08887 2.79297C2.14811 2.65625 2.22559 2.54004 2.32129 2.44434C2.42155 2.34408 2.53776 2.2666 2.66992 2.21191C2.80664 2.15267 2.9502 2.12305 3.10059 2.12305C3.31022 2.12305 3.50846 2.18457 3.69531 2.30762L11.1396 7.20898C11.2946 7.30924 11.4154 7.44141 11.502 7.60547C11.5885 7.76497 11.6318 7.93815 11.6318 8.125C11.6318 8.31185 11.5885 8.4873 11.502 8.65137C11.4154 8.81087 11.2946 8.94076 11.1396 9.04102L3.69531 13.9424C3.60417 14.0016 3.50618 14.0472 3.40137 14.0791C3.30111 14.111 3.19629 14.127 3.08691 14.127C2.93652 14.127 2.79525 14.0973 2.66309 14.0381C2.53548 13.9788 2.42155 13.9014 2.32129 13.8057C2.22103 13.7054 2.14128 13.5892 2.08203 13.457C2.02734 13.3249 2 13.1836 2 13.0332ZM10.7568 8.125C10.7568 8.08854 10.7477 8.05436 10.7295 8.02246C10.7158 7.99056 10.693 7.96322 10.6611 7.94043L3.2168 3.03223C3.20312 3.02311 3.18262 3.01628 3.15527 3.01172C3.13249 3.0026 3.11198 2.99805 3.09375 2.99805C3.03451 2.99805 2.9821 3.02083 2.93652 3.06641C2.89551 3.10742 2.875 3.15755 2.875 3.2168V13.0332C2.875 13.097 2.89551 13.1494 2.93652 13.1904C2.9821 13.2314 3.03678 13.252 3.10059 13.252C3.13704 13.252 3.1735 13.2406 3.20996 13.2178L10.6611 8.30957C10.693 8.28678 10.7158 8.25944 10.7295 8.22754C10.7477 8.19564 10.7568 8.16146 10.7568 8.125Z" fill="black"/>
<path d="M13.375 2.4375V13.8125C13.375 13.931 13.4183 14.0335 13.5049 14.1201C13.5915 14.2067 13.694 14.25 13.8125 14.25C13.931 14.25 14.0335 14.2067 14.1201 14.1201C14.2067 14.0335 14.25 13.931 14.25 13.8125V2.4375C14.25 2.31901 14.2067 2.21647 14.1201 2.12988C14.0335 2.04329 13.931 2 13.8125 2C13.694 2 13.5915 2.04329 13.5049 2.12988C13.4183 2.21647 13.375 2.31901 13.375 2.4375Z" fill="black"/>
</svg>
