<svg xmlns="http://www.w3.org/2000/svg" fill="none" viewBox="0 0 16 16">
  <path fill="#000" fill-rule="evenodd" d="M5 1a2 2 0 00-2 2 2 2 0 00-2 2v7a3 3 0 003 3h7a2 2 0 002-2 2 2 0 002-2V3a2 2 0 00-2-2H5zm7 12H5a2 2 0 01-2-2V4a1 1 0 00-1 1v7a2 2 0 002 2h7a1 1 0 001-1zM4 3a1 1 0 011-1h8a1 1 0 011 1v8a1 1 0 01-1 1H5a1 1 0 01-1-1V3z" clip-rule="evenodd"/>
  <path fill="#000" fill-rule="evenodd" d="M7 4.5a.5.5 0 01.5-.5h4a.5.5 0 01.5.5v4a.5.5 0 01-1 0V5.707L6.854 9.854a.5.5 0 01-.708-.708L10.293 5H7.5a.5.5 0 01-.5-.5z" clip-rule="evenodd"/>
</svg>
