<svg xmlns="http://www.w3.org/2000/svg" fill="none" viewBox="0 0 16 16">
  <path fill="#000" d="M1 2.5A1.5 1.5 0 012.5 1h8A1.5 1.5 0 0112 2.5v5A1.5 1.5 0 0110.5 9h-8A1.5 1.5 0 011 7.5v-5zM2.5 2a.5.5 0 00-.5.5v5a.5.5 0 00.5.5h8a.5.5 0 00.5-.5v-5a.5.5 0 00-.5-.5h-8zM7.5 10.5a.5.5 0 01.5.5v1.5a.5.5 0 01-1 0V11a.5.5 0 01.5-.5zM0 14.5a.5.5 0 01.5-.5h4a.5.5 0 010 1h-4a.5.5 0 01-.5-.5zM10 14.5a.5.5 0 01.5-.5h4a.5.5 0 010 1h-4a.5.5 0 01-.5-.5z"/>
  <path fill="#000" d="M6 13a1 1 0 011-1h1a1 1 0 011 1h1a1 1 0 011 1v1a1 1 0 01-1 1H5a1 1 0 01-1-1v-1a1 1 0 011-1h1zm2 0H7v.5a.5.5 0 01-.5.5H5v1h5v-1H8.5a.5.5 0 01-.5-.5V13zM3.085 10A1.5 1.5 0 004.5 11h7A2.5 2.5 0 0014 8.5v-4a1.5 1.5 0 00-1-1.415V8.5a1.5 1.5 0 01-1.5 1.5H3.085z"/>
</svg>
