<svg xmlns="http://www.w3.org/2000/svg" fill="none" viewBox="0 0 16 16">
  <path fill="#000" d="M0 5a3 3 0 013-3h10a3 3 0 013 3v6a3 3 0 01-3 3H3a3 3 0 01-3-3V5zm3-2a2 2 0 00-2 2v6a2 2 0 002 2h10a2 2 0 002-2V5a2 2 0 00-2-2H3z"/>
  <path fill="#000" d="M2.363 4.02a.5.5 0 01.618.343l2 7a.5.5 0 01-.962.274l-2-7a.5.5 0 01.344-.618zm3 0a.5.5 0 01.618.343l2 7a.5.5 0 01-.962.274l-2-7a.5.5 0 01.344-.618zM11 11.25a.75.75 0 11-1.5 0 .75.75 0 011.5 0zM13.5 11.25a.75.75 0 11-1.5 0 .75.75 0 011.5 0z"/>
</svg>
