<svg xmlns="http://www.w3.org/2000/svg" fill="none" viewBox="0 0 16 16">
  <path stroke="#000" d="M9 2.5H3A2.5 2.5 0 00.5 5v6A2.5 2.5 0 003 13.5h6m3-11h1A2.5 2.5 0 0115.5 5v6a2.5 2.5 0 01-2.5 2.5h-1"/>
  <path stroke="#000" stroke-linecap="round" d="M8.5.5h2m2 0h-2m-2 15h2m2 0h-2m0-15v15"/>
  <path fill="#000" fill-rule="evenodd" d="M5.5 4a.5.5 0 01.455.292l2.75 6a.5.5 0 11-.91.416L7.127 9.25H3.873l-.668 1.458a.5.5 0 11-.91-.416l2.75-6A.501.501 0 015.5 4zm0 1.7L4.331 8.25H6.67L5.5 5.7z" clip-rule="evenodd"/>
</svg>
