<svg xmlns="http://www.w3.org/2000/svg" fill="none" viewBox="0 0 16 16">
  <g clip-path="url(#clip0_3639_1977)">
    <path fill="#000" d="M1 13.5a.5.5 0 01.5-.5h13a.5.5 0 010 1h-13a.5.5 0 01-.5-.5zM8.209 1.1a.25.25 0 00-.418 0L2.183 9.614a.25.25 0 00.21.387h11.215a.25.25 0 00.208-.387L8.21 1.1zM6.956.55a1.25 1.25 0 012.088 0l5.607 8.512A1.25 1.25 0 0113.609 11H2.392a1.25 1.25 0 01-1.044-1.938L6.956.551z"/>
  </g>
  <defs>
    <clipPath id="clip0_3639_1977">
      <path fill="#fff" d="M0 0h16v16H0z"/>
    </clipPath>
  </defs>
</svg>
