<svg xmlns="http://www.w3.org/2000/svg" fill="none" viewBox="0 0 16 16">
  <g clip-path="url(#clip0_5823_275)">
    <path fill="#000" d="M3.146 9.146a.5.5 0 01.708 0l3 3a.5.5 0 01-.708.708L4 10.707V15.5a.5.5 0 01-1 0v-4.793L.854 12.854a.5.5 0 01-.708-.708l3-3zM3.854 6.854a.5.5 0 01-.708 0l-3-3a.5.5 0 11.708-.708L3 5.293V.5a.5.5 0 011 0v4.793l2.146-2.147a.5.5 0 11.708.708l-3 3zM9 3.5a.5.5 0 01.5-.5h6a.5.5 0 010 1h-6a.5.5 0 01-.5-.5zm0 3a.5.5 0 01.5-.5h6a.5.5 0 010 1h-6a.5.5 0 01-.5-.5zm0 3a.5.5 0 01.5-.5h6a.5.5 0 010 1h-6a.5.5 0 01-.5-.5zm0 3a.5.5 0 01.5-.5h6a.5.5 0 010 1h-6a.5.5 0 01-.5-.5z"/>
  </g>
  <defs>
    <clipPath id="clip0_5823_275">
      <path fill="#fff" d="M0 0h16v16H0z"/>
    </clipPath>
  </defs>
</svg>
