<svg xmlns="http://www.w3.org/2000/svg" fill="none" viewBox="0 0 16 16">
  <path fill="#000" d="M1 4.5A2.5 2.5 0 013.5 2h3a.5.5 0 010 1h-3A1.5 1.5 0 002 4.5v8A1.5 1.5 0 003.5 14h8a1.5 1.5 0 001.5-1.5v-1a.5.5 0 011 0v1a2.5 2.5 0 01-2.5 2.5h-8A2.5 2.5 0 011 12.5v-8z"/>
  <path fill="#000" d="M10.952 10.838l4.497-4.423.058-.065a.587.587 0 00-.058-.767l-4.497-4.421-.062-.053a.562.562 0 00-.89.469v2.13l-.224.015c-3.561.283-5.648 2.535-6.148 6.622a.574.574 0 00.957.486A9.617 9.617 0 019 8.466a7.67 7.67 0 01.742-.117L10 8.326v2.095l.005.083a.56.56 0 00.947.334zM9.85 4.72L11 4.643V2.61l3.446 3.388L11 9.39V7.231l-1.356.122h-.008a9.722 9.722 0 00-4.827 2.002 6.487 6.487 0 011.477-3.068A5.2 5.2 0 019.849 4.72z"/>
</svg>
