<svg xmlns="http://www.w3.org/2000/svg" fill="none" viewBox="0 0 16 16">
  <g clip-path="url(#clip0_3639_388)">
    <path fill="#000" d="M15.854.146a.5.5 0 010 .708l-5.5 5.5a.5.5 0 01-.708-.708l5.5-5.5a.5.5 0 01.708 0z"/>
    <path fill="#000" d="M7.25 5.5a3.249 3.249 0 00-2.834 1.657.5.5 0 01-.178.183L1.306 9.1l5.595 5.594 1.759-2.932a.5.5 0 01.183-.178A3.25 3.25 0 007.25 5.5zM3.614 6.549a4.25 4.25 0 115.838 5.837l-2.023 3.371a.5.5 0 01-.783.097l-6.5-6.5a.5.5 0 01.097-.783L3.614 6.55z"/>
    <path fill="#000" d="M8.646 12.354l-5-5 .708-.708 5 5-.708.708z"/>
  </g>
  <defs>
    <clipPath id="clip0_3639_388">
      <path fill="#fff" d="M0 0h16v16H0z"/>
    </clipPath>
  </defs>
</svg>
