<svg xmlns="http://www.w3.org/2000/svg" fill="none" viewBox="0 0 16 16">
  <path fill="#000" d="M2.5 1A2.5 2.5 0 000 3.5v9A2.5 2.5 0 002.5 15h3.55a2.512 2.512 0 01-.05-.5V14H2.5A1.5 1.5 0 011 12.5V5h4.894a2.5 2.5 0 001.387-.42l.87-.58H13.5A1.5 1.5 0 0115 5.5v.55c.37.075.71.231 1 .45v-1A2.5 2.5 0 0013.5 3H8.25L7.5 2a2.5 2.5 0 00-2-1h-3zM1 3.5A1.5 1.5 0 012.5 2h3a1.5 1.5 0 011.2.6l.583.777-.557.371A1.5 1.5 0 015.894 4H1v-.5z"/>
  <path fill="#000" d="M7 8.5A1.5 1.5 0 018.5 7h6A1.5 1.5 0 0116 8.5v6a1.5 1.5 0 01-1.5 1.5h-6A1.5 1.5 0 017 14.5v-6zm7.398 1.102a.562.562 0 00-.796 0L10.5 12.704l-1.102-1.102a.562.562 0 10-.796.796l1.5 1.5c.22.22.576.22.796 0l3.5-3.5a.562.562 0 000-.796z"/>
</svg>
