<svg xmlns="http://www.w3.org/2000/svg" fill="none" viewBox="0 0 16 16">
  <g clip-path="url(#clip0_3779_39573)">
    <path fill="#000" d="M4 1a3 3 0 00-3 3v8a3 3 0 003 3h1.901l.25-1H4a2 2 0 01-2-2V5h12v.757a3.07 3.07 0 011 .095V4a3 3 0 00-3-3H4zM2 4a2 2 0 012-2h8a2 2 0 012 2H2z"/>
    <path fill="#000" d="M11.535 7.155a1 1 0 00-1.372 1.391c.231-.235.478-.488.741-.76l-.002-.001.633-.63zm-2.99 3.007a1 1 0 00-1.393 1.369c.194-.202.45-.451.795-.786.176-.17.374-.363.598-.583zM5 9a1 1 0 100-2 1 1 0 000 2zm1 2a1 1 0 11-2 0 1 1 0 012 0zm2.556-2.169A1 1 0 117.444 7.17 1 1 0 018.556 8.83zM15.425 10.19l-.175.175-2.579-2.579.253-.252a1.823 1.823 0 012.544-.033A1.763 1.763 0 0116 8.855a1.996 1.996 0 01-.574 1.334zM7.903 12.555l3.883-3.884 2.579 2.579-3.884 3.884a.696.696 0 01-.323.183l-2.69.672a.35.35 0 01-.421-.422l.673-2.689a.696.696 0 01.183-.323z"/>
  </g>
  <defs>
    <clipPath id="clip0_3779_39573">
      <path fill="#fff" d="M0 0h16v16H0z"/>
    </clipPath>
  </defs>
</svg>
