<svg xmlns="http://www.w3.org/2000/svg" fill="none" viewBox="0 0 16 16">
  <path fill="#000" d="M3.5 2h1.585A1.5 1.5 0 006.5 3h3a1.5 1.5 0 001.415-1H12.5a.5.5 0 01.5.5v4a.5.5 0 001 0v-4A1.5 1.5 0 0012.5 1h-1.585A1.5 1.5 0 009.5 0h-3a1.5 1.5 0 00-1.415 1H3.5A1.5 1.5 0 002 2.5v12A1.5 1.5 0 003.5 16h3a.5.5 0 000-1h-3a.5.5 0 01-.5-.5v-12a.5.5 0 01.5-.5zm3 0a.5.5 0 010-1h3a.5.5 0 010 1h-3z"/>
  <path fill="#000" d="M9.5 8A1.5 1.5 0 008 9.5v5A1.5 1.5 0 009.5 16h5a1.5 1.5 0 001.5-1.5v-5A1.5 1.5 0 0014.5 8h-5zm1 2h3a.5.5 0 01.5.5v3a.5.5 0 01-1 0v-1.616l-2.058 2.058a.625.625 0 11-.884-.884L12.116 11H10.5a.5.5 0 010-1z"/>
</svg>
