<svg xmlns="http://www.w3.org/2000/svg" fill="none" viewBox="0 0 16 16">
  <path fill="#000" d="M1 2.5A1.5 1.5 0 012.5 1h2A1.5 1.5 0 016 2.5v1A1.5 1.5 0 014.5 5h-2A1.5 1.5 0 011 3.5v-1zM2.5 2a.5.5 0 00-.5.5v1a.5.5 0 00.5.5h2a.5.5 0 00.5-.5v-1a.5.5 0 00-.5-.5h-2zM1 7.5A1.5 1.5 0 012.5 6h2A1.5 1.5 0 016 7.5v1A1.5 1.5 0 014.5 10h-2A1.5 1.5 0 011 8.5v-1zM2.5 7a.5.5 0 00-.5.5v1a.5.5 0 00.5.5h2a.5.5 0 00.5-.5v-1a.5.5 0 00-.5-.5h-2zM1 12.5A1.5 1.5 0 012.5 11h2A1.5 1.5 0 016 12.5v1A1.5 1.5 0 014.5 15h-2A1.5 1.5 0 011 13.5v-1zm1.5-.5a.5.5 0 00-.5.5v1a.5.5 0 00.5.5h2a.5.5 0 00.5-.5v-1a.5.5 0 00-.5-.5h-2zM8 12.5a.5.5 0 01.5-.5h6a.5.5 0 010 1h-6a.5.5 0 01-.5-.5zM8 7.5a.5.5 0 01.5-.5h6a.5.5 0 010 1h-6a.5.5 0 01-.5-.5zM8 2.5a.5.5 0 01.5-.5h6a.5.5 0 010 1h-6a.5.5 0 01-.5-.5z"/>
</svg>
