<svg xmlns="http://www.w3.org/2000/svg" fill="none" viewBox="0 0 16 16">
  <path fill="#000" d="M6.5 6a.5.5 0 01.5.5v5a.5.5 0 01-1 0v-5a.5.5 0 01.5-.5zM9.5 6a.5.5 0 01.5.5v5a.5.5 0 01-1 0v-5a.5.5 0 01.5-.5z"/>
  <path fill="#000" d="M15 2a.5.5 0 010 1h-.554L13.15 14.23A2 2 0 0111.163 16H4.837a2 2 0 01-1.987-1.77L1.553 3H1a.5.5 0 01-.492-.41L.5 2.5A.5.5 0 011 2h14zm-1.562 1H2.561l1.283 11.115a1 1 0 00.993.885h6.326a1 1 0 00.993-.885L13.438 3z"/>
  <path fill="#000" d="M8 1a1.5 1.5 0 00-1.5 1.5h-1a2.5 2.5 0 015 0h-1A1.5 1.5 0 008 1z"/>
</svg>
