<svg xmlns="http://www.w3.org/2000/svg" fill="none" viewBox="0 0 16 16">
  <g clip-path="url(#clip0_3827_154)">
    <path fill="#000" d="M2.5 0a.5.5 0 01.5.5V5h4.5a.5.5 0 010 1h-5a.5.5 0 01-.5-.5v-5a.5.5 0 01.5-.5z"/>
    <path fill="#000" d="M8.516.226A5 5 0 0113.2 8.842l-8.378 7.04a.5.5 0 11-.643-.765l8.379-7.041.002-.002A4 4 0 007.44 1.926L2.948 5.67a.5.5 0 01-.64-.768L6.8 1.157A5.002 5.002 0 018.516.226z"/>
  </g>
  <defs>
    <clipPath id="clip0_3827_154">
      <path fill="#fff" d="M0 0h16v16H0z"/>
    </clipPath>
  </defs>
</svg>
