<svg xmlns="http://www.w3.org/2000/svg" fill="none" viewBox="0 0 16 16">
  <path fill="#000" d="M14.756 7.07A.5.5 0 0115 7.5v7a.5.5 0 01-.5.5h-13a.5.5 0 01-.237-.94l13-7a.5.5 0 01.493.01zM3.483 14H14V8.337L3.483 14zM9.146 1.146a.5.5 0 01.708 0l2 2a.5.5 0 010 .708l-2 2a.5.5 0 11-.708-.708L10.293 4H5.5c-1.007 0-1.9.307-2.528.779C2.342 5.25 2 5.864 2 6.5c0 .636.342 1.25.972 1.721C3.6 8.693 4.493 9 5.5 9a.5.5 0 010 1c-1.202 0-2.31-.365-3.128-.979C1.553 8.407 1 7.521 1 6.5s.553-1.907 1.372-2.521C3.19 3.365 4.298 3 5.5 3h4.793L9.146 1.854a.5.5 0 010-.708z"/>
</svg>
