<svg xmlns="http://www.w3.org/2000/svg" fill="none" viewBox="0 0 16 16">
  <path fill="#000" fill-rule="evenodd" d="M0 3.5A2.5 2.5 0 012.5 1h3a2.5 2.5 0 012 1l.75 1h4.25a2.5 2.5 0 012.499 2.416c.545.421.863 1.115.76 1.86l-.044.313a5.78 5.78 0 00-.968-.835 1 1 0 00-.97-.754h-.595a5.75 5.75 0 00-1.682-.25A5.75 5.75 0 009.818 6H4.223a1 1 0 00-.98.798l-1.447 7.027c.21.112.45.175.704.175h3.82c.172.355.38.69.618 1H2.5A2.5 2.5 0 010 12.5v-9zm13.916 1.505A1.5 1.5 0 0012.5 4H7.75L6.7 2.6A1.5 1.5 0 005.5 2h-3A1.5 1.5 0 001 3.5v9c0 .062.004.122.01.182l1.254-6.085A2 2 0 014.223 5h9.554c.047 0 .093.002.14.005zM11.5 7a4.5 4.5 0 110 9 4.5 4.5 0 010-9zm-.354 6.146a.5.5 0 00.708.708l2-2a.5.5 0 000-.708l-2-2a.5.5 0 00-.708.708L12.293 11H9.5a.5.5 0 000 1h2.793l-1.147 1.146z" clip-rule="evenodd"/>
</svg>
