<svg width="16" height="16" viewBox="0 0 16 16" fill="none" xmlns="http://www.w3.org/2000/svg">
<path d="M3.1027 14.9057C3.1027 14.8067 3.11312 14.7181 3.13397 14.64L4.32986 10.0049H3.07144C2.92553 10.0049 2.78744 9.97623 2.65717 9.91891C2.5269 9.86159 2.41487 9.78603 2.32107 9.69223C2.22727 9.59844 2.14911 9.4838 2.08658 9.34831C2.02405 9.21283 1.99539 9.07474 2.0006 8.93405C2.0006 8.84025 2.01363 8.74646 2.03968 8.65266L4.23607 0.734734C4.29339 0.515877 4.41324 0.338707 4.59562 0.203224C4.778 0.0677414 4.98122 0 5.20529 0H10.622C10.7627 0 10.893 0.0260544 11.0128 0.0781632C11.1327 0.130272 11.2369 0.203224 11.3255 0.29702C11.4141 0.390816 11.487 0.497639 11.5443 0.617489C11.6016 0.737339 11.6277 0.867611 11.6225 1.0083C11.6225 1.12294 11.6042 1.23237 11.5678 1.33659L10.2781 5.00244H12.8184C12.9643 5.00244 13.0998 5.0311 13.2248 5.08842C13.3499 5.14574 13.4645 5.2239 13.5687 5.32291C13.673 5.42192 13.7511 5.53395 13.8032 5.65901C13.8553 5.78407 13.884 5.92216 13.8892 6.07328C13.8892 6.3703 13.7902 6.62042 13.5922 6.82364L4.97862 15.6717C4.8744 15.7759 4.75716 15.8567 4.62688 15.914C4.49661 15.9713 4.35331 16 4.19699 16C4.04587 16 3.90518 15.9713 3.77491 15.914C3.64463 15.8567 3.52999 15.7785 3.43099 15.6795C3.33198 15.5805 3.25121 15.4633 3.18868 15.3278C3.12615 15.1923 3.09749 15.0516 3.1027 14.9057Z" fill="url(#paint0_linear_1909_318143)"/>
<path d="M3.1027 14.9057C3.1027 14.8067 3.11312 14.7181 3.13397 14.64L4.32986 10.0049H3.07144C2.92553 10.0049 2.78744 9.97623 2.65717 9.91891C2.5269 9.86159 2.41487 9.78603 2.32107 9.69223C2.22727 9.59844 2.14911 9.4838 2.08658 9.34831C2.02405 9.21283 1.99539 9.07474 2.0006 8.93405C2.0006 8.84025 2.01363 8.74646 2.03968 8.65266L4.23607 0.734734C4.29339 0.515877 4.41324 0.338707 4.59562 0.203224C4.778 0.0677414 4.98122 0 5.20529 0H10.622C10.7627 0 10.893 0.0260544 11.0128 0.0781632C11.1327 0.130272 11.2369 0.203224 11.3255 0.29702C11.4141 0.390816 11.487 0.497639 11.5443 0.617489C11.6016 0.737339 11.6277 0.867611 11.6225 1.0083C11.6225 1.12294 11.6042 1.23237 11.5678 1.33659L10.2781 5.00244H12.8184C12.9643 5.00244 13.0998 5.0311 13.2248 5.08842C13.3499 5.14574 13.4645 5.2239 13.5687 5.32291C13.673 5.42192 13.7511 5.53395 13.8032 5.65901C13.8553 5.78407 13.884 5.92216 13.8892 6.07328C13.8892 6.3703 13.7902 6.62042 13.5922 6.82364L4.97862 15.6717C4.8744 15.7759 4.75716 15.8567 4.62688 15.914C4.49661 15.9713 4.35331 16 4.19699 16C4.04587 16 3.90518 15.9713 3.77491 15.914C3.64463 15.8567 3.52999 15.7785 3.43099 15.6795C3.33198 15.5805 3.25121 15.4633 3.18868 15.3278C3.12615 15.1923 3.09749 15.0516 3.1027 14.9057ZM12.8965 6.07328C12.8965 6.05243 12.8887 6.0368 12.8731 6.02638C12.8575 6.01596 12.8392 6.00814 12.8184 6.00293H9.57461C9.43913 6.00293 9.32188 5.95603 9.22288 5.86224C9.12387 5.76844 9.07437 5.6512 9.07437 5.5105C9.07437 5.48445 9.07697 5.45579 9.08218 5.42452C9.08739 5.39326 9.09521 5.3646 9.10563 5.33854L10.622 1.00049H5.20529C5.18445 1.07344 5.13755 1.24019 5.0646 1.50073C4.99165 1.76128 4.90306 2.08175 4.79884 2.46214C4.69463 2.84253 4.57477 3.26722 4.43929 3.7362C4.30381 4.20518 4.17354 4.67676 4.04848 5.15095C3.92342 5.62514 3.79314 6.08631 3.65766 6.53444C3.52218 6.98258 3.41275 7.38381 3.32938 7.73815C3.246 8.09249 3.16784 8.37649 3.09489 8.59013C3.02193 8.80378 2.99067 8.91842 3.00109 8.93405C3.00109 8.98095 3.02454 9.0044 3.07144 9.0044H4.9708C5.1115 9.0044 5.22874 9.05129 5.32254 9.14509C5.41633 9.23889 5.46584 9.35874 5.47105 9.50464C5.47105 9.53591 5.46584 9.57759 5.45541 9.6297L4.10319 14.8901V14.9135C4.10319 14.9709 4.13706 14.9995 4.2048 14.9995C4.22565 14.9995 4.24388 14.9917 4.25952 14.9761L12.8731 6.12799C12.8887 6.11236 12.8965 6.09412 12.8965 6.07328Z" fill="#FFBD22"/>
<defs>
<linearGradient id="paint0_linear_1909_318143" x1="7.94461" y1="0" x2="7.94461" y2="16" gradientUnits="userSpaceOnUse">
<stop stop-color="#FFF3B1"/>
<stop offset="1" stop-color="#FFCF23"/>
</linearGradient>
</defs>
</svg>
