<svg xmlns="http://www.w3.org/2000/svg" fill="none" viewBox="0 0 16 16">
  <g clip-path="url(#clip0_3782_41841)">
    <path fill="#E0DFDF" d="M13.441.442c.568-.475 1.42-.64 2.068-.052.295.268.465.611.48.997.013.372-.12.732-.328 1.056l-.008.012-1.324 1.939a47.794 47.794 0 01-7.407 8.494l-.671-.741a46.793 46.793 0 007.252-8.317l1.32-1.933c.133-.208.17-.367.166-.474-.003-.094-.039-.19-.152-.293-.169-.153-.445-.18-.755.08l-.005.004-1.534 1.257a45.916 45.916 0 00-7.83 8.229l-.804-.594a46.918 46.918 0 018-8.409L13.441.442z"/>
    <path fill="#4CC2FF" d="M2.902 10.504A2.96 2.96 0 014.606 10c.437.03 1.03.208 1.523.648.508.456.871 1.16.871 2.158 0 1.356-.91 2.166-1.854 2.61-.94.442-2.018.583-2.652.583-.676 0-1.702-.166-2.146-.307a.5.5 0 01-.17-.859c.2-.168.39-.323.555-.457l.272-.223c.218-.181.363-.314.471-.443.186-.22.298-.47.38-1.092.01-1.024.457-1.707 1.046-2.115zm.57.821c-.33.228-.616.617-.616 1.327a.502.502 0 01-.004.063c-.093.735-.246 1.206-.61 1.64a4.649 4.649 0 01-.608.577c.3.04.611.068.86.068.528 0 1.453-.124 2.226-.487.768-.361 1.28-.898 1.28-1.706 0-.734-.256-1.16-.538-1.413A1.61 1.61 0 004.55 11a1.964 1.964 0 00-1.078.325z"/>
  </g>
  <defs>
    <clipPath id="clip0_3782_41841">
      <path fill="#fff" d="M0 0h16v16H0z"/>
    </clipPath>
  </defs>
</svg>
