<svg xmlns="http://www.w3.org/2000/svg" fill="none" viewBox="0 0 16 16">
  <g clip-path="url(#clip0)">
    <path fill="#E0DFDF" fill-rule="evenodd" d="M0 2.542C0 1.69.69 1 1.542 1h12.916A1.542 1.542 0 0115.5 3.678l-5.014 4.596A1.5 1.5 0 0010 9.38v6.12a.5.5 0 01-.777.416l-3-2A.5.5 0 016 13.5V9.38a1.5 1.5 0 00-.486-1.106L.5 3.678A1.542 1.542 0 010 2.542zM1.542 2a.542.542 0 00-.366.941l5.013 4.596A2.5 2.5 0 017 9.38v3.852l2 1.334V9.38c0-.701.294-1.37.81-1.843l5.014-4.596A.542.542 0 0014.458 2H1.542z" clip-rule="evenodd"/>
  </g>
  <defs>
    <clipPath id="clip0">
      <path fill="#fff" d="M0 0h16v16H0z"/>
    </clipPath>
  </defs>
</svg>
