<svg xmlns="http://www.w3.org/2000/svg" fill="none" viewBox="0 0 16 16">
  <path fill="#E0DFDF" d="M6.5 2a4.5 4.5 0 013.19 7.674c.124.354.213.724.263 1.107l.067-.054 4.126 4.127a.5.5 0 00.708-.708l-4.127-4.127a5.5 5.5 0 10-9.68-2.8c.294-.238.614-.446.954-.62L2 6.5A4.5 4.5 0 016.5 2z"/>
  <path fill="#4CC2FF" d="M3.07 15.138l-.35.357a4.535 4.535 0 01-.874-.482l.119-.396a2 2 0 00-1.454-2.52l-.484-.115a4.252 4.252 0 010-.964l.484-.115a2 2 0 001.454-2.52l-.119-.396c.27-.19.563-.353.874-.482l.35.357a2 2 0 002.86 0l.35-.357c.311.13.604.292.874.482l-.119.396a2 2 0 001.454 2.52l.484.115a4.25 4.25 0 010 .964l-.484.115a2 2 0 00-1.454 2.52l.119.396c-.27.19-.563.353-.874.482l-.35-.357a2 2 0 00-2.86 0zM4.5 10.5a1 1 0 100 2 1 1 0 000-2z"/>
</svg>
