<svg xmlns="http://www.w3.org/2000/svg" fill="none" viewBox="0 0 16 16">
  <path fill="#E0DFDF" d="M1.244 7.07A.5.5 0 001 7.5v7a.5.5 0 00.5.5h13a.5.5 0 00.237-.94l-13-7a.5.5 0 00-.493.01zM12.517 14H2V8.337L12.517 14z"/>
  <path fill="#4CC2FF" d="M6.854 1.146a.5.5 0 00-.708 0l-2 2a.5.5 0 000 .708l2 2a.5.5 0 10.708-.708L5.707 4H10.5c1.007 0 1.9.307 2.528.779.63.472.972 1.085.972 1.721 0 .636-.342 1.25-.972 1.721C12.4 8.693 11.507 9 10.5 9a.5.5 0 000 1c1.202 0 2.31-.365 3.128-.979C14.447 8.407 15 7.521 15 6.5s-.553-1.907-1.372-2.521C12.81 3.365 11.702 3 10.5 3H5.707l1.147-1.146a.5.5 0 000-.708z"/>
</svg>
