<svg xmlns="http://www.w3.org/2000/svg" fill="none" viewBox="0 0 16 16">
  <path fill="#E0DFDF" fill-rule="evenodd" d="M2 1a2 2 0 00-2 2v10a2 2 0 002 2h4.938a5.751 5.751 0 01-.618-1H2a1 1 0 01-1-1V3a1 1 0 011-1h3.75a1 1 0 01.8.4L7.6 3.8l.15.2H14a1 1 0 011 1v1.938c.372.285.708.615 1 .982V5a2 2 0 00-2-2H8.25l-.9-1.2a2 2 0 00-1.6-.8H2z" clip-rule="evenodd"/>
  <path fill="#E0DFDF" fill-rule="evenodd" d="M8.277 3.916l-1.122.748A2 2 0 016.045 5H.5V4h5.546a1 1 0 00.555-.168l1.122-.748.554.832z" clip-rule="evenodd"/>
  <path fill="#4CC2FF" d="M16 11.5a4.5 4.5 0 11-9 0 4.5 4.5 0 019 0z"/>
  <path fill="#000" fill-rule="evenodd" d="M11.5 9a.5.5 0 01.5.5V11h1.5a.5.5 0 010 1H12v1.5a.5.5 0 01-1 0V12H9.5a.5.5 0 010-1H11V9.5a.5.5 0 01.5-.5z" clip-rule="evenodd"/>
</svg>
