<svg xmlns="http://www.w3.org/2000/svg" fill="none" viewBox="0 0 16 16">
  <path fill="#4CC2FF" d="M5.5 9.5h-2a1 1 0 00-1 1v2a1 1 0 001 1h2a1 1 0 001-1v-2a1 1 0 00-1-1zM12.5 2.5h-2a1 1 0 00-1 1v2a1 1 0 001 1h2a1 1 0 001-1v-2a1 1 0 00-1-1z"/>
  <path fill="#4CC2FF" d="M9 3.5A1.5 1.5 0 0110.5 2h2A1.5 1.5 0 0114 3.5v2A1.5 1.5 0 0112.5 7h-2A1.5 1.5 0 019 5.5v-2zm1.5-.5a.5.5 0 00-.5.5v2a.5.5 0 00.5.5h2a.5.5 0 00.5-.5v-2a.5.5 0 00-.5-.5h-2zM2 10.5A1.5 1.5 0 013.5 9h2A1.5 1.5 0 017 10.5v2A1.5 1.5 0 015.5 14h-2A1.5 1.5 0 012 12.5v-2zm1.5-.5a.5.5 0 00-.5.5v2a.5.5 0 00.5.5h2a.5.5 0 00.5-.5v-2a.5.5 0 00-.5-.5h-2z"/>
  <path fill="#E0DFDF" d="M1 2.5A1.5 1.5 0 012.5 1h2A1.5 1.5 0 016 2.5v2A1.5 1.5 0 014.5 6h-2A1.5 1.5 0 011 4.5v-2zM2.5 2a.5.5 0 00-.5.5v2a.5.5 0 00.5.5h2a.5.5 0 00.5-.5v-2a.5.5 0 00-.5-.5h-2zm7.5 9.5a1.5 1.5 0 011.5-1.5h2a1.5 1.5 0 011.5 1.5v2a1.5 1.5 0 01-1.5 1.5h-2a1.5 1.5 0 01-1.5-1.5v-2zm1.5-.5a.5.5 0 00-.5.5v2a.5.5 0 00.5.5h2a.5.5 0 00.5-.5v-2a.5.5 0 00-.5-.5h-2zM0 8.25C0 7.56.56 7 1.25 7h.25a.5.5 0 010 1h-.25a.25.25 0 00-.25.25v.25a.5.5 0 01-1 0v-.25zm3-.75a.5.5 0 01.5-.5h2a.5.5 0 010 1h-2a.5.5 0 01-.5-.5zm4 0a.5.5 0 01.5-.5h.25C8.44 7 9 7.56 9 8.25v.25a.5.5 0 01-1 0v-.25A.25.25 0 007.75 8H7.5a.5.5 0 01-.5-.5zM.5 10a.5.5 0 01.5.5v2a.5.5 0 01-1 0v-2a.5.5 0 01.5-.5zm8 0a.5.5 0 01.5.5v2a.5.5 0 01-1 0v-2a.5.5 0 01.5-.5zm-8 4a.5.5 0 01.5.5v.25c0 .138.112.25.25.25h.25a.5.5 0 010 1h-.25C.56 16 0 15.44 0 14.75v-.25a.5.5 0 01.5-.5zm8 0a.5.5 0 01.5.5v.25C9 15.44 8.44 16 7.75 16H7.5a.5.5 0 010-1h.25a.25.25 0 00.25-.25v-.25a.5.5 0 01.5-.5zM3 15.5a.5.5 0 01.5-.5h2a.5.5 0 010 1h-2a.5.5 0 01-.5-.5zM7 1.25C7 .56 7.56 0 8.25 0h.25a.5.5 0 010 1h-.25a.25.25 0 00-.25.25v.25a.5.5 0 01-1 0v-.25zm3-.75a.5.5 0 01.5-.5h2a.5.5 0 010 1h-2a.5.5 0 01-.5-.5zm4 0a.5.5 0 01.5-.5h.25C15.44 0 16 .56 16 1.25v.25a.5.5 0 01-1 0v-.25a.25.25 0 00-.25-.25h-.25a.5.5 0 01-.5-.5zM7.5 3a.5.5 0 01.5.5v2a.5.5 0 01-1 0v-2a.5.5 0 01.5-.5zm8 0a.5.5 0 01.5.5v2a.5.5 0 01-1 0v-2a.5.5 0 01.5-.5zm0 4a.5.5 0 01.5.5v.25C16 8.44 15.44 9 14.75 9h-.25a.5.5 0 010-1h.25a.25.25 0 00.25-.25V7.5a.5.5 0 01.5-.5zM10 8.5a.5.5 0 01.5-.5h2a.5.5 0 010 1h-2a.5.5 0 01-.5-.5z"/>
</svg>
