<svg viewBox="0 0 13 15" fill="none" xmlns="http://www.w3.org/2000/svg">
<path d="M3.67676 11.9316C3.67676 11.4987 3.69954 11.068 3.74512 10.6396C3.79525 10.2067 3.87728 9.7806 3.99121 9.36133C3.86361 9.36589 3.736 9.37044 3.6084 9.375C3.48535 9.375 3.36003 9.375 3.23242 9.375C2.90885 9.375 2.59896 9.32031 2.30273 9.21094C2.01107 9.10156 1.75358 8.94889 1.53027 8.75293C1.31152 8.55241 1.13607 8.31543 1.00391 8.04199C0.876302 7.764 0.8125 7.45638 0.8125 7.11914C0.8125 6.97331 0.826172 6.82747 0.853516 6.68164L1.40039 3.62598C1.47786 3.19303 1.6237 2.79427 1.83789 2.42969C2.05664 2.06055 2.32324 1.74382 2.6377 1.47949C2.95671 1.21061 3.31445 1.00098 3.71094 0.850586C4.10742 0.700195 4.52669 0.625 4.96875 0.625C5.12826 0.625 5.28776 0.636393 5.44727 0.65918C5.60677 0.681966 5.764 0.713867 5.91895 0.754883L10.4238 1.99902C10.6061 2.04915 10.777 2.12435 10.9365 2.22461C11.096 2.32487 11.2373 2.44336 11.3604 2.58008C11.488 2.71224 11.5951 2.86263 11.6816 3.03125C11.7682 3.19531 11.8298 3.37077 11.8662 3.55762L12.1533 4.99316C12.1761 5.12077 12.1875 5.24154 12.1875 5.35547C12.1875 5.59701 12.1442 5.82487 12.0576 6.03906C11.971 6.2487 11.8548 6.44238 11.709 6.62012C11.5632 6.79785 11.3945 6.95508 11.2031 7.0918C11.0163 7.22852 10.818 7.34245 10.6084 7.43359C10.4854 7.48828 10.3691 7.54525 10.2598 7.60449C10.1504 7.66374 10.0433 7.73893 9.93848 7.83008C9.60579 8.12174 9.31185 8.41797 9.05664 8.71875C8.80143 9.01953 8.56901 9.33171 8.35938 9.65527C8.14974 9.97884 7.95378 10.3161 7.77148 10.667C7.58919 11.0179 7.40234 11.387 7.21094 11.7744C7.05143 12.1025 6.91016 12.4352 6.78711 12.7725C6.66862 13.1097 6.54329 13.4492 6.41113 13.791C6.31543 14.0371 6.16732 14.2376 5.9668 14.3926C5.76628 14.5475 5.5293 14.625 5.25586 14.625C5.0918 14.625 4.94596 14.5954 4.81836 14.5361C4.69531 14.4769 4.57454 14.388 4.45605 14.2695C4.29199 14.1055 4.15755 13.9346 4.05273 13.7568C3.95247 13.5745 3.87272 13.3854 3.81348 13.1895C3.75879 12.9935 3.72233 12.7907 3.7041 12.5811C3.68587 12.3714 3.67676 12.1549 3.67676 11.9316ZM11.3125 5.35547C11.3125 5.29167 11.3057 5.22786 11.292 5.16406L11.0117 3.72852C10.9707 3.51432 10.875 3.32747 10.7246 3.16797C10.5788 3.00846 10.401 2.89909 10.1914 2.83984L5.68652 1.5957C5.56803 1.55924 5.44727 1.53418 5.32422 1.52051C5.20573 1.50684 5.08496 1.5 4.96191 1.5C4.62923 1.5 4.3125 1.55924 4.01172 1.67773C3.71094 1.79167 3.43978 1.95117 3.19824 2.15625C2.96126 2.35677 2.76074 2.59603 2.59668 2.87402C2.43262 3.15202 2.32096 3.45508 2.26172 3.7832L1.71484 6.83887C1.70573 6.88444 1.69889 6.93001 1.69434 6.97559C1.68978 7.02116 1.6875 7.06673 1.6875 7.1123C1.6875 7.32194 1.72852 7.51335 1.81055 7.68652C1.89258 7.85514 2.00195 8.00098 2.13867 8.12402C2.27995 8.24251 2.44173 8.33594 2.62402 8.4043C2.80632 8.4681 2.99772 8.5 3.19824 8.5C3.3304 8.5 3.46029 8.49772 3.58789 8.49316C3.71549 8.48861 3.84538 8.48633 3.97754 8.48633C4.10059 8.48633 4.21452 8.50911 4.31934 8.55469C4.42871 8.5957 4.52214 8.65723 4.59961 8.73926C4.68164 8.81673 4.74544 8.90788 4.79102 9.0127C4.84115 9.11751 4.86621 9.23145 4.86621 9.35449C4.86621 9.39095 4.86165 9.42513 4.85254 9.45703C4.84798 9.48438 4.8457 9.51628 4.8457 9.55273C4.83659 9.57552 4.82975 9.60059 4.8252 9.62793C4.8252 9.65072 4.82064 9.6735 4.81152 9.69629C4.72949 10.0654 4.66569 10.4323 4.62012 10.7969C4.57454 11.1615 4.55176 11.5329 4.55176 11.9111C4.55176 12.0706 4.55632 12.2301 4.56543 12.3896C4.57454 12.5492 4.59733 12.7041 4.63379 12.8545C4.6748 13.0003 4.72949 13.1439 4.79785 13.2852C4.87077 13.4219 4.96875 13.5495 5.0918 13.668C5.11458 13.6908 5.13737 13.7113 5.16016 13.7295C5.1875 13.7432 5.2194 13.75 5.25586 13.75C5.33333 13.75 5.39941 13.7249 5.4541 13.6748C5.50879 13.6247 5.55208 13.5677 5.58398 13.5039C5.63411 13.3991 5.67513 13.292 5.70703 13.1826C5.73893 13.0687 5.77311 12.9593 5.80957 12.8545C6.00098 12.3031 6.22656 11.7653 6.48633 11.2412C6.74609 10.7126 7.01953 10.193 7.30664 9.68262C7.58008 9.19954 7.88542 8.75293 8.22266 8.34277C8.5599 7.93262 8.93587 7.54525 9.35059 7.18066C9.49642 7.05306 9.64453 6.94824 9.79492 6.86621C9.94987 6.77962 10.1139 6.69759 10.2871 6.62012C10.4147 6.56543 10.54 6.49707 10.6631 6.41504C10.7861 6.33301 10.8955 6.23958 10.9912 6.13477C11.0869 6.02539 11.1644 5.9069 11.2236 5.7793C11.2829 5.64714 11.3125 5.50586 11.3125 5.35547Z" fill="#4CC2FF"/>
<path d="M11.3125 5.35547C11.3125 5.29167 11.3057 5.22786 11.292 5.16406L11.0117 3.72852C10.9707 3.51432 10.875 3.32747 10.7246 3.16797C10.5788 3.00846 10.401 2.89909 10.1914 2.83984L5.68652 1.5957C5.56803 1.55924 5.44727 1.53418 5.32422 1.52051C5.20573 1.50684 5.08496 1.5 4.96191 1.5C4.62923 1.5 4.3125 1.55924 4.01172 1.67773C3.71094 1.79167 3.43978 1.95117 3.19824 2.15625C2.96126 2.35677 2.76074 2.59603 2.59668 2.87402C2.43262 3.15202 2.32096 3.45508 2.26172 3.7832L1.71484 6.83887C1.70573 6.88444 1.69889 6.93001 1.69434 6.97559C1.68978 7.02116 1.6875 7.06673 1.6875 7.1123C1.6875 7.32194 1.72852 7.51335 1.81055 7.68652C1.89258 7.85514 2.00195 8.00098 2.13867 8.12402C2.27995 8.24251 2.44173 8.33594 2.62402 8.4043C2.80632 8.4681 2.99772 8.5 3.19824 8.5C3.3304 8.5 3.46029 8.49772 3.58789 8.49316C3.71549 8.48861 3.84538 8.48633 3.97754 8.48633C4.10059 8.48633 4.21452 8.50911 4.31934 8.55469C4.42871 8.5957 4.52214 8.65723 4.59961 8.73926C4.68164 8.81673 4.74544 8.90788 4.79102 9.0127C4.84115 9.11751 4.86621 9.23145 4.86621 9.35449C4.86621 9.39095 4.86165 9.42513 4.85254 9.45703C4.84798 9.48438 4.8457 9.51628 4.8457 9.55273C4.83659 9.57552 4.82975 9.60059 4.8252 9.62793C4.8252 9.65072 4.82064 9.6735 4.81152 9.69629C4.72949 10.0654 4.66569 10.4323 4.62012 10.7969C4.57454 11.1615 4.55176 11.5329 4.55176 11.9111C4.55176 12.0706 4.55632 12.2301 4.56543 12.3896C4.57454 12.5492 4.59733 12.7041 4.63379 12.8545C4.6748 13.0003 4.72949 13.1439 4.79785 13.2852C4.87077 13.4219 4.96875 13.5495 5.0918 13.668C5.11458 13.6908 5.13737 13.7113 5.16016 13.7295C5.1875 13.7432 5.2194 13.75 5.25586 13.75C5.33333 13.75 5.39941 13.7249 5.4541 13.6748C5.50879 13.6247 5.55208 13.5677 5.58398 13.5039C5.63411 13.3991 5.67513 13.292 5.70703 13.1826C5.73893 13.0687 5.77311 12.9593 5.80957 12.8545C6.00098 12.3031 6.22656 11.7653 6.48633 11.2412C6.74609 10.7126 7.01953 10.193 7.30664 9.68262C7.58008 9.19954 7.88542 8.75293 8.22266 8.34277C8.5599 7.93262 8.93587 7.54525 9.35059 7.18066C9.49642 7.05306 9.64453 6.94824 9.79492 6.86621C9.94987 6.77962 10.1139 6.69759 10.2871 6.62012C10.4147 6.56543 10.54 6.49707 10.6631 6.41504C10.7861 6.33301 10.8955 6.23958 10.9912 6.13477C11.0869 6.02539 11.1644 5.9069 11.2236 5.7793C11.2829 5.64714 11.3125 5.50586 11.3125 5.35547Z" fill="#404040"/>
</svg>
