<svg xmlns="http://www.w3.org/2000/svg" fill="none" viewBox="0 0 16 16">
  <g clip-path="url(#clip0_8442_119744)">
    <path fill="#E0DFDF" d="M8.003 16c-.436 0-.87-.036-1.3-.107a1 1 0 01-.818-.824l-.266-1.513a.932.932 0 00-.453-.639.943.943 0 00-.387-.125.902.902 0 00-.4.051l-1.472.527a1 1 0 01-1.114-.308 8.214 8.214 0 01-1.28-2.243 1.006 1.006 0 01.3-1.121l1.184-.984a.941.941 0 000-1.431L.803 6.271a1 1 0 01-.294-1.125 8.21 8.21 0 011.309-2.222 1.008 1.008 0 011.123-.3l1.44.531a.91.91 0 00.4.05.966.966 0 00.388-.123.933.933 0 00.455-.646L5.897.905A1 1 0 016.73.092c.42-.06.843-.09 1.267-.092.435-.001.87.032 1.3.1.207.037.397.136.545.286a.978.978 0 01.273.539l.269 1.521a.95.95 0 00.843.764.959.959 0 00.4-.051l1.47-.528a1 1 0 011.116.306 8.185 8.185 0 011.278 2.244 1.007 1.007 0 01-.307 1.124l-1.178.981a.932.932 0 00-.33.719.935.935 0 00.332.722l1.189 1a1 1 0 01.295 1.126 8.177 8.177 0 01-1.31 2.227 1.01 1.01 0 01-1.117.3 52.11 52.11 0 01-.975-.363 2.01 2.01 0 00-.782-.226.94.94 0 00-.886.626c-.028.079-.068.3-.175.89l-.143.79a1 1 0 01-.83.814A9.221 9.221 0 018.004 16zm-3.306-4.211a1.983 1.983 0 01.972.259 1.943 1.943 0 01.94 1.333l.263 1.523c.748.124 1.51.129 2.26.015l.137-.792a7.54 7.54 0 01.218-1.049 1.94 1.94 0 011.827-1.289 2.86 2.86 0 011.139.293c.23.087.536.2.957.355.49-.58.88-1.237 1.155-1.944h-.006L13.36 9.48a1.946 1.946 0 01-.505-2.293 1.9 1.9 0 01.508-.667l1.183-.986a6.989 6.989 0 00-1.11-1.967l-1.474.531A1.943 1.943 0 019.4 2.62l-.264-1.525A6.675 6.675 0 008.002 1a8.138 8.138 0 00-1.124.082l-.274 1.537A1.942 1.942 0 014.04 4.098l-1.443-.533a7.013 7.013 0 00-1.154 1.944l1.2 1.012a1.94 1.94 0 01.506 2.295 1.934 1.934 0 01-.5.664l-1.187.987a7.024 7.024 0 001.11 1.967l1.474-.531a1.95 1.95 0 01.65-.114z"/>
    <path stroke="#4CC2FF" stroke-linejoin="round" d="M8 10.5a2.5 2.5 0 110-5 2.5 2.5 0 010 5z"/>
  </g>
  <defs>
    <clipPath id="clip0_8442_119744">
      <path fill="#fff" d="M0 0h16v16H0z"/>
    </clipPath>
  </defs>
</svg>
