<svg xmlns="http://www.w3.org/2000/svg" fill="none" viewBox="0 0 16 16">
  <g clip-path="url(#clip0_5150_85438)">
    <path fill="#E0DFDF" d="M9.68 7H14a1 1 0 011 1v2a1 1 0 01-1 1H2a1 1 0 01-1-1v-.938a5.784 5.784 0 01-1-.982V10a2 2 0 002 2h12a2 2 0 002-2V8a2 2 0 00-2-2h-3.948c-.093.347-.219.682-.373 1z"/>
    <path fill="#E0DFDF" d="M13 8.75a.75.75 0 11-1.5 0 .75.75 0 011.5 0z"/>
    <path fill="#4CC2FF" d="M0 4.5a4.5 4.5 0 119 0 4.5 4.5 0 01-9 0z"/>
    <path fill="#000" d="M6.898 4.898a.563.563 0 01-.796 0L4.5 3.295 2.898 4.898a.563.563 0 01-.796-.796l2-2c.22-.22.576-.22.796 0l2 2c.22.22.22.576 0 .796z"/>
    <path fill="#000" d="M4.5 7a.5.5 0 01-.5-.5v-4a.5.5 0 011 0v4a.5.5 0 01-.5.5z"/>
  </g>
  <defs>
    <clipPath id="clip0_5150_85438">
      <path fill="#fff" d="M0 0h16v16H0z"/>
    </clipPath>
  </defs>
</svg>
