<svg xmlns="http://www.w3.org/2000/svg" fill="none" viewBox="0 0 16 16">
  <g clip-path="url(#clip0_5150_84248)">
    <path fill="#E0DFDF" d="M0 4a2 2 0 012-2l1 1H2a1 1 0 00-1 1v2a1 1 0 001 1h5l1 1v2a1 1 0 011 1h1a1 1 0 011 1h1l1 1h-2a1 1 0 01-1 1H5a1 1 0 01-1-1H.5a.5.5 0 010-1H4a1 1 0 011-1h1a1 1 0 011-1V8H2a2 2 0 01-2-2V4zm5 9h5v-1H8.5a.5.5 0 01-.5-.5V11H7v.5a.5.5 0 01-.5.5H5v1zM13 7H9.121l1 1H13a2 2 0 002-2V4a2 2 0 00-2-2H4.121l1 1H13a1 1 0 011 1v2a1 1 0 01-1 1z"/>
    <path fill="#E0DFDF" d="M11.25 5.5a.75.75 0 100-1.5.75.75 0 000 1.5z"/>
    <path fill="#4CC2FF" d="M.146.146a.5.5 0 01.708 0l15 15a.5.5 0 01-.708.708l-15-15a.5.5 0 010-.708z"/>
  </g>
  <defs>
    <clipPath id="clip0_5150_84248">
      <path fill="#fff" d="M0 0h16v16H0z"/>
    </clipPath>
  </defs>
</svg>
