<svg xmlns="http://www.w3.org/2000/svg" fill="none" viewBox="0 0 16 16">
  <path fill="#E0DFDF" fill-rule="evenodd" d="M2 2a1 1 0 00-1 1v10a1 1 0 001 1h12a1 1 0 001-1V5a1 1 0 00-1-1H7.75l-1.2-1.6a1 1 0 00-.8-.4H2zM.586 1.586A2 2 0 012 1h3.75a2 2 0 011.6.8l.9 1.2H14a2 2 0 012 2v8a2 2 0 01-2 2H2a2 2 0 01-2-2V3a2 2 0 01.586-1.414z" clip-rule="evenodd"/>
  <path fill="#E0DFDF" fill-rule="evenodd" d="M8.277 3.916l-1.122.748A2 2 0 016.045 5H.5V4h5.546a1 1 0 00.555-.168l1.122-.748.554.832z" clip-rule="evenodd"/>
  <path fill="#4CC2FF" fill-rule="evenodd" d="M10 4a1 1 0 011-1h1a1 1 0 011 1v2a1 1 0 01-1 1v3h.5a.5.5 0 010 1H12v3.5a.5.5 0 01-1 0V13h-.5a.5.5 0 010-1h.5V9h-.5a.5.5 0 010-1h.5V7a1 1 0 01-1-1V4zm2 0h-1v2h1V4z" clip-rule="evenodd"/>
</svg>
