<svg xmlns="http://www.w3.org/2000/svg" fill="none" viewBox="0 0 16 16">
  <path fill="#E0DFDF" fill-rule="evenodd" d="M.002 6.915A2.035 2.035 0 000 7v2a2 2 0 002 2h12a2 2 0 002-2V7a2 2 0 00-2-2H5.915a1.498 1.498 0 010 1H14a1 1 0 011 1v2a1 1 0 01-1 1H2a1 1 0 01-1-1V7.5a.94.94 0 00-.053-.36C.932 7.105.92 7.095.915 7.09.894 7.072.777 7 .5 7c-.175 0-.342-.03-.498-.085z" clip-rule="evenodd"/>
  <circle cx="12.25" cy="7.75" r=".75" fill="#E0DFDF"/>
  <path fill="#4CC2FF" stroke="#4CC2FF" stroke-linecap="round" stroke-linejoin="round" d="M2.5 3.5c0 1.5-1 2-2 2 1 0 2 .5 2 2 0-1.5 1-2 2-2-1 0-2-.5-2-2zM5.5 1.5c0 .8-.667 1-1 1 .8 0 1 .667 1 1 0-.8.667-1 1-1-.8 0-1-.667-1-1z"/>
</svg>
