<svg xmlns="http://www.w3.org/2000/svg" fill="none" viewBox="0 0 16 16">
  <path fill="#E0DFDF" d="M3.5 2a.5.5 0 00-.5.5v12a.5.5 0 00.5.5h3a.5.5 0 010 1h-3A1.5 1.5 0 012 14.5v-12A1.5 1.5 0 013.5 1h2a.5.5 0 010 1h-2zm6.5-.5a.5.5 0 01.5-.5h2A1.5 1.5 0 0114 2.5v4a.5.5 0 01-1 0v-4a.5.5 0 00-.5-.5h-2a.5.5 0 01-.5-.5z"/>
  <path fill="#E0DFDF" d="M5 1.5A1.5 1.5 0 016.5 0h3a1.5 1.5 0 010 3h-3A1.5 1.5 0 015 1.5zM6.5 1a.5.5 0 000 1h3a.5.5 0 000-1h-3z"/>
  <path fill="#4CC2FF" d="M8 9.5A1.5 1.5 0 019.5 8h5A1.5 1.5 0 0116 9.5v5a1.5 1.5 0 01-1.5 1.5h-5A1.5 1.5 0 018 14.5v-5z"/>
  <path fill="#000" d="M10.5 10a.5.5 0 000 1h1.616l-2.058 2.058a.625.625 0 10.884.884L13 11.884V13.5a.5.5 0 001 0v-3a.5.5 0 00-.5-.5h-3z"/>
</svg>
