<svg xmlns="http://www.w3.org/2000/svg" fill="none" viewBox="0 0 16 16">
  <g clip-path="url(#clip0_3779_37148)">
    <path fill="#E0DFDF" d="M2 9a1 1 0 00-1 1v2a1 1 0 001 1h12a1 1 0 001-1v-2a1 1 0 00-1-1h-3.5V8H14a2 2 0 012 2v2a2 2 0 01-2 2H2a2 2 0 01-2-2v-2a2 2 0 012-2h3.5v1H2z"/>
    <path fill="#E0DFDF" d="M13 10.75a.75.75 0 11-1.5 0 .75.75 0 011.5 0z"/>
    <path fill="#4CC2FF" d="M5.854.146a.5.5 0 010 .708L4.707 2H8a4 4 0 11-4 4 .5.5 0 011 0 3 3 0 103-3H4.707l1.147 1.146a.5.5 0 11-.708.708l-2-2a.5.5 0 010-.708l2-2a.5.5 0 01.708 0z"/>
  </g>
  <defs>
    <clipPath id="clip0_3779_37148">
      <path fill="#fff" d="M0 0h16v16H0z"/>
    </clipPath>
  </defs>
</svg>
