<svg xmlns="http://www.w3.org/2000/svg" fill="none" viewBox="0 0 16 16">
  <path fill="#E0DFDF" d="M2 10v3a3 3 0 003 3h8a3 3 0 003-3V5a3 3 0 00-3-3h-3v1h3a2 2 0 012 2v8c0 .37-.101.718-.277 1.016L10.237 9.53a1.757 1.757 0 00-.283-.23A1 1 0 019 10H7.293l-4.016 4.016A1.99 1.99 0 013 13v-3H2zm1.984 4.723l4.486-4.486a.75.75 0 011.06 0l4.486 4.486A1.991 1.991 0 0113 15H5c-.37 0-.718-.101-1.016-.277z"/>
  <path fill="#E0DFDF" d="M10 6.5a1.5 1.5 0 103 0 1.5 1.5 0 00-3 0zm1.5-.5a.5.5 0 110 1 .5.5 0 010-1z"/>
  <g>
    <path fill="#4CC2FF" d="M9 .5a.5.5 0 00-1 0v8a.5.5 0 001 0v-8zM5.985 4.104L.805.119A.5.5 0 000 .515v7.97a.5.5 0 00.805.396l5.18-3.985a.5.5 0 000-.792z"/>
  </g>
</svg>
