<svg xmlns="http://www.w3.org/2000/svg" fill="none" viewBox="0 0 16 16">
  <g clip-path="url(#clip0_3827_923)">
    <path fill="#4CC2FF" d="M13.5 0a.5.5 0 01.5.5v5a.5.5 0 01-.5.5h-5a.5.5 0 010-1H13V.5a.5.5 0 01.5-.5z"/>
    <path fill="#4CC2FF" d="M7.188 1.18a4.001 4.001 0 011.371.746l4.493 3.744a.5.5 0 00.64-.768L9.2 1.157A5 5 0 002.8 8.842h.001l8.377 7.04a.5.5 0 10.644-.765l-8.38-7.041-.001-.002A4 4 0 017.188 1.18z"/>
  </g>
  <defs>
    <clipPath id="clip0_3827_923">
      <path fill="#fff" d="M0 0h16v16H0z"/>
    </clipPath>
  </defs>
</svg>
