<svg xmlns="http://www.w3.org/2000/svg" fill="none" viewBox="0 0 16 16">
  <path fill="#E0DFDF" d="M0 3.5A2.5 2.5 0 012.5 1h3a2.5 2.5 0 012 1l.75 1h4.25a2.5 2.5 0 012.499 2.416c.545.421.863 1.115.76 1.86l-.774 5.568A2.5 2.5 0 0112.509 15H2.5A2.5 2.5 0 010 12.5v-9zm13.916 1.505A1.5 1.5 0 0012.5 4H7.75L6.7 2.6A1.5 1.5 0 005.5 2h-3A1.5 1.5 0 001 3.5v9c0 .062.004.122.01.182l1.254-6.085A2 2 0 014.223 5h9.554c.047 0 .093.002.14.005zm-12.12 8.82c.21.112.45.175.704.175h10.009a1.5 1.5 0 001.485-1.294l.774-5.568A1 1 0 0013.778 6H4.222a1 1 0 00-.98.798l-1.447 7.027z"/>
</svg>
