<svg width="auto" height="auto" viewBox="0 0 92 55" preserveAspectRatio="xMidYMid meet" fill="none" xmlns="http://www.w3.org/2000/svg">
<path d="M49.7131 29.4302L32.4652 29.4302" stroke="#E1DFDD" stroke-width="2" stroke-miterlimit="10" stroke-linecap="round" stroke-linejoin="round" stroke-dasharray="4.4 4.4"/>
<path d="M63.6459 44.1487L55.8091 44.1249C54.5025 44.121 53.4471 42.9166 53.4519 41.435L53.5277 17.8404C53.5325 16.3587 54.5955 15.1608 55.9022 15.1648L63.74 15.1885" stroke="#E1DFDD" stroke-width="2" stroke-miterlimit="10" stroke-linecap="round" stroke-linejoin="round" stroke-dasharray="4 4"/>
<path d="M35.8189 30.1427C35.8189 39.9511 27.8005 47.9023 17.9094 47.9023C8.01832 47.9023 0 39.9511 0 30.1427C0 20.3344 8.01832 12.3832 17.9094 12.3832C23.2441 12.3832 28.034 14.6961 31.315 18.3658C34.1173 21.5002 35.8189 25.6245 35.8189 30.1427Z" fill="#9AC9EC"/>
<path d="M17.9103 47.9159C23.9083 47.9159 29.2136 44.9892 32.4639 40.5005C30.7255 33.338 29.8735 26.9089 29.4592 22.7094C29.458 22.6966 29.4439 22.6858 29.4404 22.6733C28.6886 16.2277 23.7453 11.197 17.6721 11.0972C11.1083 10.9894 5.70194 16.6791 5.45092 23.8636C5.44695 23.8734 5.43278 23.8832 5.43083 23.893C5.3414 27.6171 4.1247 33.3748 2.52783 39.2517C5.65436 44.4401 11.372 47.9159 17.9103 47.9159Z" fill="#3A312E"/>
<path d="M10.8403 29.343C10.8534 28.4707 10.1796 27.7535 9.33537 27.741C8.4911 27.7285 7.79606 28.4255 7.78295 29.2979C7.76984 30.1702 8.44363 30.8874 9.2879 30.8999C10.1322 30.9124 10.8272 30.2154 10.8403 29.343Z" fill="#FDB813"/>
<path d="M17.9095 47.9157C23.121 47.9157 27.8108 45.7066 31.0836 42.1833C27.8809 40.4298 24.3375 38.9914 20.6798 37.994C20.8451 38.4059 20.9994 38.8164 21.1436 39.2243C19.991 38.8683 18.7655 38.6763 17.4946 38.6763C15.5769 38.6763 13.7693 39.1255 12.153 39.9042C11.9734 39.8906 11.7938 39.8771 11.6107 39.8771C9.11178 39.8771 6.92252 41.1722 5.67346 43.1185C8.87545 46.092 13.1765 47.9157 17.9095 47.9157Z" fill="#B4B0AB"/>
<path d="M10.7915 39.8866C10.8136 39.9031 10.8358 39.9085 10.8579 39.9195C10.9133 39.9415 10.9686 39.9634 11.0241 39.9854C11.2012 40.0568 11.3839 40.1226 11.5833 40.1831C12.591 40.507 13.8258 40.7431 15.21 40.8585H15.2156C16.2399 40.9462 17.3307 40.9682 18.4769 40.9133C19.6176 40.864 20.7028 40.7431 21.705 40.562C22.303 40.4522 22.8734 40.3258 23.4049 40.1831C24.1303 39.9909 24.7836 39.7658 25.354 39.5132C24.9554 39.3595 24.5511 39.2167 24.1525 39.074C23.859 38.9696 23.56 38.8708 23.2665 38.7719C22.1868 38.3106 21.5833 37.6518 21.2456 37.0642C21.1016 37.0423 20.9631 37.0204 20.8192 36.9984C20.7804 36.9984 20.7472 36.9929 20.7085 36.9874C20.5147 36.9654 20.3264 36.9434 20.1326 36.9269H20.1271C19.3518 36.8611 18.56 36.8446 17.7517 36.8831C17.2091 36.905 16.6775 36.9544 16.1515 37.0313H16.146C15.9965 37.0478 15.8469 37.0697 15.6974 37.0972C15.6143 37.1082 15.5368 37.1246 15.4593 37.1357V37.3333C15.4593 38.2173 14.8446 38.986 13.9754 39.1837L10.7915 39.8866Z" fill="#BF8F68"/>
<path d="M20.8198 29.968H15.4596V39.2492H20.8198V29.968Z" fill="#BF8F68"/>
<path d="M20.8164 29.9667H15.4583V39.2526H20.8164V29.9667Z" fill="url(#paint0_radial)"/>
<path d="M16.4809 34.0916C20.9028 34.0916 24.4875 29.7876 24.4875 24.4784C24.4875 19.1692 20.9028 14.8652 16.4809 14.8652C12.059 14.8652 8.47437 19.1692 8.47437 24.4784C8.47437 29.7876 12.059 34.0916 16.4809 34.0916Z" fill="#BF8F68"/>
<path d="M20.3317 24.347C20.342 23.6601 20.0164 23.0983 19.6044 23.0923C19.1925 23.0862 18.8501 23.6381 18.8398 24.3249C18.8295 25.0118 19.1551 25.5735 19.5671 25.5796C19.979 25.5857 20.3214 25.0338 20.3317 24.347Z" fill="#3A312E"/>
<path d="M16.5316 19.2905L16.3403 22.4766C16.1972 24.1066 15.3352 25.222 14.6852 25.8437C14.3216 26.1915 14.1472 27.0367 14.5788 27.545C14.8134 27.8212 15.842 28.4307 15.842 29.1859L15.7453 32.1337L9.69257 32.1781L9.98324 19.0934L16.5316 19.2905Z" fill="url(#paint1_radial)"/>
<path d="M15.4856 29.7901C15.8133 29.9236 16.0567 29.9612 16.2907 29.9595C16.5235 29.951 16.7595 29.9195 17.0067 29.846C17.2548 29.7829 17.5081 29.6828 17.7566 29.5747C18.0037 29.4535 18.2319 29.3478 18.4543 29.1564L18.5383 29.0841C18.636 29 18.784 29.0104 18.8688 29.1073C18.8967 29.1391 18.9144 29.1773 18.922 29.2159C19.0182 29.7148 18.7512 30.1638 18.4595 30.4654C18.1577 30.7812 17.7733 30.9921 17.3492 31.1096C16.9258 31.2144 16.443 31.2261 16.0009 31.0402C15.5583 30.8669 15.2036 30.4867 15.1077 30.0697C15.0762 29.9327 15.1626 29.7963 15.3008 29.765C15.3545 29.7529 15.408 29.7584 15.4553 29.7777L15.4856 29.7901Z" fill="#9B643D"/>
<path d="M8.47437 16.6127C8.47437 16.6127 10.191 17.4685 12.328 16.2578C14.1479 15.2268 15.621 16.8898 16.4809 18.1427C18.3293 20.8359 21.4423 23.2184 24.5048 22.8202C26.6955 22.5353 27.259 15.4397 20.8167 13.1405C14.0797 10.7363 8.47437 16.6127 8.47437 16.6127Z" fill="#3A312E"/>
<path d="M21.4421 27.5318H24.5046C25.809 27.5318 26.8665 26.4832 26.8665 25.1896C26.8665 23.8961 25.8091 22.8474 24.5046 22.8474H21.4421V27.5318Z" fill="#BF8F68"/>
<path d="M26.2274 28.8742C26.2406 28.0018 25.5668 27.2846 24.7225 27.2721C23.8782 27.2596 23.1831 27.9567 23.17 28.829C23.1569 29.7013 23.8307 30.4186 24.675 30.431C25.5193 30.4435 26.2143 29.7465 26.2274 28.8742Z" fill="#FDB813"/>
<path d="M20.8165 35.6708C20.8165 35.6708 20.8188 37.3357 22.6082 38.4339C23.0211 38.6873 20.447 40.0471 20.447 40.0471L20.8165 35.6708Z" fill="#BF8F68"/>
<path d="M16.076 39.8946L15.4585 35.3615V37.3354C15.4585 37.9776 15.1337 38.558 14.623 38.9037C14.4313 39.0335 16.076 39.8946 16.076 39.8946Z" fill="#BF8F68"/>
<path d="M12.8732 25.5932C13.2852 25.5871 13.6108 25.0253 13.6005 24.3385C13.5902 23.6516 13.2478 23.0997 12.8359 23.1058C12.4239 23.1119 12.0983 23.6736 12.1086 24.3605C12.1189 25.0474 12.4613 25.5993 12.8732 25.5932Z" fill="#3A312E"/>
<path d="M44.5049 0H37.4762C33.4941 0 30.2467 3.28262 30.266 7.19845C30.2835 10.7394 30.1947 14.5768 34.7659 16.2981C35.476 16.5655 35.3859 17.3577 35.3062 17.7224L34.9537 19.3361C34.9537 19.3361 35.8227 18.0574 36.6551 17.2366C37.1865 16.7125 38.4802 16.7068 38.4802 16.7068C39.0738 16.7674 44.505 16.7068 44.505 16.7068C48.487 16.7068 51.7152 13.4839 51.7152 9.50827V7.1985C51.7151 3.22285 48.487 0 44.5049 0Z" fill="#FFC836"/>
<path d="M34.816 7.73463H43.2657V6.44556H34.816V7.73463Z" fill="#F9F8F6"/>
<path d="M34.816 10.9569H45.2157V9.66785H34.816V10.9569Z" fill="#F9F8F6"/>
<path d="M80.0253 27.6339C86.4598 27.6339 91.676 22.4614 91.676 16.0808C91.676 9.70013 86.4598 4.52759 80.0253 4.52759C73.5908 4.52759 68.3746 9.70013 68.3746 16.0808C68.3746 22.4614 73.5908 27.6339 80.0253 27.6339Z" fill="#E1DFDD"/>
<path d="M85.1597 23.9115V26.4716C82.4083 27.8078 79.1388 28.0787 76.0294 26.9575C75.6431 26.8174 75.2662 26.6585 74.8988 26.4716V23.9115C74.8988 21.0991 77.1979 18.8286 80.0246 18.8286C81.4379 18.8286 82.7287 19.3986 83.6521 20.3143C84.5849 21.2299 85.1597 22.5006 85.1597 23.9115Z" fill="#B3AFAB"/>
<path d="M80.0283 17.624C82.2111 17.624 83.9806 15.8694 83.9806 13.7048C83.9806 11.5403 82.2111 9.78564 80.0283 9.78564C77.8455 9.78564 76.076 11.5403 76.076 13.7048C76.076 15.8694 77.8455 17.624 80.0283 17.624Z" fill="#B3AFAB"/>
<path d="M83.9472 33.5052H76.2602C71.9051 33.5052 68.3536 37.0953 68.3747 41.3779C68.3937 45.2506 68.2966 49.4473 73.2961 51.3299C74.0727 51.6223 73.9741 52.4886 73.8869 52.8876L73.5014 54.6524C73.5014 54.6524 74.4518 53.254 75.3622 52.3562C75.9433 51.7831 77.3582 51.7768 77.3582 51.7768C78.0074 51.8431 83.9473 51.7768 83.9473 51.7768C88.3023 51.7768 91.8328 48.252 91.8328 43.9041V41.378C91.8327 37.03 88.3023 33.5052 83.9472 33.5052Z" fill="#FFC836"/>
<path d="M75.5073 43.0839C75.2311 43.0839 75.0073 43.3078 75.0073 43.5839C75.0073 43.8601 75.2311 44.0839 75.5073 44.0839V43.0839ZM77.3661 43.5839V44.0839H77.7555L77.8509 43.7064L77.3661 43.5839ZM78.1096 40.6405L78.5772 40.4633L78.0141 38.9772L77.6249 40.518L78.1096 40.6405ZM79.225 43.5839L78.7574 43.7611L79.0776 44.6062L79.6235 43.8859L79.225 43.5839ZM80.3403 42.1122L80.7388 41.8102L80.3403 41.2844L79.9418 41.8102L80.3403 42.1122ZM81.4556 43.5839L81.0571 43.8859L81.5742 44.5683L81.9144 43.7826L81.4556 43.5839ZM82.5709 41.0084L83.0297 40.8097L82.5709 39.7502L82.1121 40.8097L82.5709 41.0084ZM83.6862 43.5839L83.2274 43.7826L83.3578 44.0839H83.6862V43.5839ZM85.1733 44.0839C85.4494 44.0839 85.6733 43.8601 85.6733 43.5839C85.6733 43.3078 85.4494 43.0839 85.1733 43.0839V44.0839ZM75.5073 44.0839H77.3661V43.0839H75.5073V44.0839ZM77.8509 43.7064L78.5944 40.763L77.6249 40.518L76.8813 43.4615L77.8509 43.7064ZM77.6421 40.8177L78.7574 43.7611L79.6925 43.4068L78.5772 40.4633L77.6421 40.8177ZM79.6235 43.8859L80.7388 42.4142L79.9418 41.8102L78.8265 43.2819L79.6235 43.8859ZM79.9418 42.4142L81.0571 43.8859L81.8541 43.2819L80.7388 41.8102L79.9418 42.4142ZM81.9144 43.7826L83.0297 41.2071L82.1121 40.8097L80.9967 43.3852L81.9144 43.7826ZM82.1121 41.2071L83.2274 43.7826L84.145 43.3852L83.0297 40.8097L82.1121 41.2071ZM83.6862 44.0839H85.1733V43.0839H83.6862V44.0839Z" fill="white"/>
<defs>
<radialGradient id="paint0_radial" cx="0" cy="0" r="1" gradientUnits="userSpaceOnUse" gradientTransform="translate(17.6481 32.0364) rotate(180) scale(6.00288 6.71695)">
<stop stop-color="#9B643D"/>
<stop offset="0.8819" stop-color="#BA8A63" stop-opacity="0.1178"/>
<stop offset="0.9997" stop-color="#BF8F68" stop-opacity="0"/>
</radialGradient>
<radialGradient id="paint1_radial" cx="0" cy="0" r="1" gradientUnits="userSpaceOnUse" gradientTransform="translate(15.1093 27.0543) rotate(175.718) scale(3.88781 4.06478)">
<stop offset="0.0003" stop-color="#9B643D"/>
<stop offset="0.8822" stop-color="#BA8A63" stop-opacity="0.1178"/>
<stop offset="1" stop-color="#BF8F68" stop-opacity="0"/>
</radialGradient>
</defs>
</svg>
