<svg width="16" height="16" viewBox="0 0 16 16" fill="none" xmlns="http://www.w3.org/2000/svg">
<path fill-rule="evenodd" clip-rule="evenodd" d="M7.723 0.0840011C7.80506 0.0293937 7.90143 0.000259399 8 0.000259399C8.09857 0.000259399 8.19494 0.0293937 8.277 0.0840011C10.597 1.63 13.453 2.345 14.571 2.505C14.6901 2.52209 14.799 2.58155 14.8778 2.67247C14.9566 2.76339 15 2.87968 15 3V7.5C15 12.849 10.69 14.962 8.186 15.964C8.06662 16.0118 7.93338 16.0118 7.814 15.964C5.31 14.962 1 12.85 1 7.5V3C1.00002 2.87953 1.04353 2.76312 1.12253 2.67218C1.20154 2.58123 1.31072 2.52187 1.43 2.505C4.13 2.119 6.76 0.725001 7.722 0.0840011H7.723ZM7.998 1.094C6.863 1.796 4.51 2.979 2 3.427V7.5C2 12.037 5.512 13.944 8 14.96C10.488 13.944 14 12.037 14 7.5V3.423C12.658 3.168 10.163 2.461 7.998 1.095V1.094Z" fill="white"/>
<path fill-rule="evenodd" clip-rule="evenodd" d="M8 5C7.73478 5 7.48043 5.10536 7.29289 5.29289C7.10536 5.48043 7 5.73478 7 6V7.5H6V6C6 5.46957 6.21071 4.96086 6.58579 4.58579C6.96086 4.21071 7.46957 4 8 4C8.53043 4 9.03914 4.21071 9.41421 4.58579C9.78929 4.96086 10 5.46957 10 6V7.5H9V6C9 5.73478 8.89464 5.48043 8.70711 5.29289C8.51957 5.10536 8.26522 5 8 5V5Z" fill="white"/>
<path fill-rule="evenodd" clip-rule="evenodd" d="M5 11.5V7.5C4.99974 7.43427 5.01249 7.36913 5.03753 7.30835C5.06256 7.24757 5.09938 7.19234 5.14586 7.14586C5.19234 7.09938 5.24757 7.06256 5.30835 7.03753C5.36913 7.01249 5.43427 6.99974 5.5 7H10.5C10.5657 6.99974 10.6309 7.01249 10.6917 7.03753C10.7524 7.06256 10.8077 7.09938 10.8541 7.14586C10.9006 7.19234 10.9374 7.24757 10.9625 7.30835C10.9875 7.36913 11.0003 7.43427 11 7.5V11.5C11.0003 11.5657 10.9875 11.6309 10.9625 11.6917C10.9374 11.7524 10.9006 11.8077 10.8541 11.8541C10.8077 11.9006 10.7524 11.9374 10.6917 11.9625C10.6309 11.9875 10.5657 12.0003 10.5 12H5.5C5.43427 12.0003 5.36913 11.9875 5.30835 11.9625C5.24757 11.9374 5.19234 11.9006 5.14586 11.8541C5.09938 11.8077 5.06256 11.7524 5.03753 11.6917C5.01249 11.6309 4.99974 11.5657 5 11.5V11.5ZM9 9.5C9 9.76522 8.89465 10.0196 8.70711 10.2071C8.51957 10.3946 8.26522 10.5 8 10.5C7.73479 10.5 7.48043 10.3946 7.2929 10.2071C7.10536 10.0196 7 9.76522 7 9.5C7 9.23479 7.10536 8.98043 7.2929 8.7929C7.48043 8.60536 7.73479 8.5 8 8.5C8.26522 8.5 8.51957 8.60536 8.70711 8.7929C8.89465 8.98043 9 9.23479 9 9.5V9.5Z" fill="white"/>
</svg>
