<svg width="auto" height="auto" viewBox="0 0 305 233" fill="none" preserveAspectRatio="xMidYMid meet" xmlns="http://www.w3.org/2000/svg">
<path d="M152.5 232.3C216.6 232.3 268.6 180.3 268.6 116.2C268.6 52 216.6 0 152.5 0C88.3999 0 36.3999 52 36.3999 116.1C36.3999 180.3 88.3999 232.3 152.5 232.3Z" fill="#D7EDFE"/>
<path d="M196.973 223.471C183.274 229.16 168.252 232.3 152.5 232.3C142.471 232.3 132.738 231.027 123.454 228.634C117.992 223.412 114.7 216.666 114.7 209.3C114.7 192.731 131.355 179.3 151.9 179.3C172.445 179.3 205 192.731 205 209.3C205 214.425 201.884 219.251 196.973 223.471Z" fill="#33312D"/>
<path d="M195.1 119.1C195.1 120.246 195.034 121.379 194.904 122.497L191.1 188.3H112.8L111.364 163.464C108.888 169.546 107.8 173.2 107.8 173.2H90.1999C88.5999 164 88.5999 150.1 89.6999 139.9C91.0858 127.526 99.527 90.2626 135.588 86.3104C140.621 84.6275 146.128 83.7 151.9 83.7C175.759 83.7 195.1 99.5491 195.1 119.1Z" fill="#949291"/>
<path d="M189.1 188.3L190.6 199.6H155.7L151.9 188.3H189.1Z" fill="url(#paint0_linear)"/>
<path d="M114.8 188.3L113.3 199.6H148.2L151.9 188.3H114.8Z" fill="white"/>
<path d="M164.3 88L164.1 56.7H139.6L139.7 88L151.9 93.5L164.3 88Z" fill="#9B643D"/>
<path d="M147 45.9C149 45.7 154.8 41.5 158.8 41.4C163.7 41.2 165.1 43.8 165.1 43.8C165.1 43.8 168.7 30.3 156.6 31C153 31.2 149.9 32.3 147.2 31.6C144.4 30.9 139.5 27.8 135.6 30.6C132.1 33.2 131.3 38.4 134 42C136.5 45.4 144.1 46.2 147 45.9Z" fill="#33312D"/>
<path d="M134.8 57.1L169 57.3L169.1 45.2C169.1 41.8 166.4 39 162.9 38.9L141.1 38.8C137.7 38.8 134.9 41.5 134.9 45L134.8 57.1Z" fill="#33312D"/>
<path d="M167.2 63.5C170.072 63.5 172.4 61.1719 172.4 58.3C172.4 55.4281 170.072 53.1 167.2 53.1C164.328 53.1 162 55.4281 162 58.3C162 61.1719 164.328 63.5 167.2 63.5Z" fill="#9B643D"/>
<path d="M136.7 63.5C139.572 63.5 141.9 61.1719 141.9 58.3C141.9 55.4281 139.572 53.1 136.7 53.1C133.828 53.1 131.5 55.4281 131.5 58.3C131.5 61.1719 133.828 63.5 136.7 63.5Z" fill="#9B643D"/>
<path d="M149.3 78.2H154.2C161.5 78.2 167.4 72.4 167.4 65.1L167.5 48.5C167.5 44.6 164.4 41.5 160.5 41.5L143.7 41.4C139.7 41.4 136.5 44.6 136.5 48.5L136.4 65.1C136.4 72.4 142.1 78.2 149.3 78.2Z" fill="#33312D"/>
<path d="M143.3 65.6L160.4 65.7C163.3 65.7 165.8 63.3 165.8 60.4L165.9 49C165.9 45.6 163.1 42.7 159.7 42.7L144.4 42.6C141 42.6 138.1 45.4 138.1 48.8L138 60.2C138 63.2 140.4 65.6 143.3 65.6Z" fill="#BF8F68"/>
<path d="M143.3 65.6L160.4 65.7C163.3 65.7 165.8 63.3 165.8 60.4L165.9 49C165.9 45.6 163.1 42.7 159.7 42.7L144.4 42.6C141 42.6 138.1 45.4 138.1 48.8L138 60.2C138 63.2 140.4 65.6 143.3 65.6Z" fill="#9B643D"/>
<path d="M141.311 63.5888C141.305 64.6977 142.202 65.6 143.311 65.6H151.6V65.2C151.6 64.6 151.3 64.1 150.8 63.8L148.3 62.2C147.8 61.8 147.6 61.1 148 60.6L150.1 57.3C150.6 56.5 150.9 55.6 150.9 54.6V47.8H141.4L141.311 63.5888Z" fill="url(#paint1_radial)"/>
<path d="M158.75 55.8973C158.757 54.627 158.226 53.5943 157.563 53.5906C156.9 53.5869 156.357 54.6137 156.35 55.8839C156.343 57.1542 156.875 58.1869 157.537 58.1906C158.2 58.1943 158.743 57.1675 158.75 55.8973Z" fill="#33312D"/>
<path d="M146.666 55.8898C146.673 54.6195 146.141 53.5868 145.478 53.5831C144.816 53.5794 144.273 54.6062 144.266 55.8765C144.259 57.1467 144.79 58.1794 145.453 58.1831C146.116 58.1868 146.659 57.16 146.666 55.8898Z" fill="#33312D"/>
<path d="M149.9 69C149.7 68.9 149.7 68.6 149.9 68.5C150.392 68.0083 151.63 68.3425 153.4 67.9C155 67.5 155.4 67.4 156.5 67.1C156.557 67.0716 156.674 67.226 156.814 67.5C157 69 155 69.5 154 70C153.106 70.4472 151.5 70.5 149.9 69Z" stroke="#33312D" stroke-width="6" stroke-miterlimit="10"/>
<path d="M157 67.2C156.7 67.8 156.2 68.3 155.7 68.7C155.1 69.1 154.5 69.3 153.9 69.5C153.2 69.6 152.6 69.7 151.9 69.6C151.2 69.5 150.6 69.3 150 68.8C149.8 68.7 149.8 68.4 150 68.3C150.099 68.201 150.169 68.2 150.3 68.2L151.9 68C152.4 67.9 152.9 67.8 153.4 67.7C154.4 67.5 155.4 67.2 156.5 66.9C156.7 66.8 156.9 66.9 157 67.2Z" fill="#9B643D"/>
<path d="M165.7 80.4L154.9 83.2L151.9 93.5L162.9 89.5L165.7 80.4Z" fill="#E1DFDD"/>
<path d="M157.3 93.4L154.9 83.2L165.7 79.6C165.7 79.6 167.2 85.4 170.4 86.6L157.3 93.4Z" fill="white"/>
<path d="M138.2 80.4L149 83.2L151.9 93.5L141 89.5L138.2 80.4Z" fill="#E1DFDD"/>
<path d="M146.6 93.4L149 83.2L138.2 79.6C138.2 79.6 136.7 85.4 133.5 86.6L146.6 93.4Z" fill="white"/>
<path d="M169.8 86.8C169.8 86.8 183.4 92.9 199.3 85.4C210.1 80.3 220.7 105.9 210.7 112.4C197 121.3 184.1 120.6 184.1 120.6L169.8 86.8Z" fill="#949291"/>
<path d="M163.8 155.3L134 151.9C132.5 151.7 131.4 150.3 131.5 148.8L133.8 129C134 127.5 135.4 126.4 136.9 126.5L166.7 129.9C168.2 130.1 169.3 131.5 169.2 133L166.9 152.8C166.8 154.4 165.4 155.5 163.8 155.3Z" fill="#E1DFDD"/>
<path d="M164 155.3L134 151.8C132.5 151.6 131.5 150.3 131.7 148.9L133.8 130.8C134 129.3 135.3 128.3 136.7 128.5L166.7 132C168.2 132.2 169.2 133.5 169 134.9L166.9 153C166.8 154.4 165.4 155.5 164 155.3Z" fill="white"/>
<path d="M151.7 128.8L149.2 153.6" stroke="#E1DFDD" stroke-width="1.0824" stroke-miterlimit="10"/>
<path d="M125.9 152.1C125.9 152.1 133 154.5 137.6 154.8C143.5 155.2 150.9 154.2 151 151C151.1 151 151.9 150.6 152.5 150.1C153.3 149.5 154.3 147.8 151.7 147.5C148.4 147.1 140.1 146.1 140.1 146.1C140.1 146.1 144.1 144.1 144.6 143.7C145.8 142.6 145 140.3 142.9 141C140.8 141.7 135.7 141.9 132.3 142.6C128.7 143.4 126.3 145.3 126.3 145.3L125.9 152.1Z" fill="#9B643D"/>
<path d="M217.1 72.7C238.3 56.5 235 32.6 235 32.6L242.9 34.2C242.9 34.2 250.3 76.1 235.4 95.6C229.7 104.6 223.5 106.1 215.5 110.2C199.6 118.3 200.5 85.4 217.1 72.7Z" fill="#9B643D"/>
<path d="M230.6 32.6C229.9 31.4 229.1 30 227.9 29.2C226.1 27.9 223.8 25.9 224.4 24.9C225.5 23.1 230.7 26.4 230.7 26.4C230.7 26.4 227 16.4 229.1 15.9C230.8 15.4 233 21.8 233 21.8C233 21.8 231.4 13.5 233.5 13.5C235.9 13.5 236.4 22.2 236.4 22.2C236.4 22.2 234.4 14.2 236.3 14.2C238.2 14.2 239.7 23.1 239.7 23.1C239.7 23.1 236.4 16.9 238.2 17C240.8 17.1 242.4 26.6 242.4 27.7L243 36.4C243 36.4 240.6 36.3 236 35.7C233.1 35.3 231.7 34.4 230.6 32.6Z" fill="#9B643D"/>
<path d="M58.1088 183.774C63.9756 183.049 67.8996 184.189 71.7031 185.294C74.2703 186.04 76.7825 186.77 79.8001 186.9C87.449 187.182 93.3582 185.283 98.3339 183.685C103.962 181.877 108.395 180.452 112.8 183C125.2 190.3 141.2 178.2 138.2 166.2C137.55 163.686 136.299 161.699 135.082 159.765C133.49 157.236 131.957 154.8 131.9 151.4C131.859 148.917 133.29 146.863 134.797 144.698C136.934 141.631 139.224 138.342 137.7 133.3C136.632 129.79 133.778 128.091 130.981 126.427C128.281 124.82 125.634 123.244 124.7 120.1C123.825 117.2 124.455 114.681 125.068 112.231C125.786 109.36 126.481 106.584 124.7 103.4C122.9 100.182 120.387 98.5111 117.759 96.7645C115.569 95.3087 113.3 93.8003 111.3 91.3C106.9 85.7 105.4 73.3 105.4 73.3H61.2001C61.2001 73.3 59.5001 85.8 55.2001 91.4C53.1891 94.0657 50.9594 95.3535 48.8486 96.5727C46.4459 97.9604 44.1971 99.2593 42.6001 102.4C40.9122 105.667 41.5961 108.875 42.2949 112.152C42.8795 114.894 43.4745 117.685 42.7001 120.6C41.87 123.725 39.8479 125.3 37.693 126.979C37.4488 127.169 37.203 127.361 36.957 127.556C38.995 148.406 46.5374 167.636 58.1088 183.774Z" fill="#DFBC97"/>
<path d="M101.2 146.6L104.6 134C105.6 131.5 106.1 128.8 106.1 125.9C106.1 113.4 95.8001 103.2 83.1001 103.2C70.4001 103.2 60.1001 113.4 60.1001 125.9C60.1001 128.8 60.6001 131.5 61.6001 134L65.0001 146.6C67.2001 154.8 66.2001 163.5 62.1001 170.9L61.9001 171.3H104.2L104 170.9C100 163.4 99.0001 154.7 101.2 146.6Z" fill="url(#paint2_radial)"/>
<path d="M129.907 230.101C120.035 190.381 100.8 162 100.8 162C100.8 162 72.1 162 65.4 161.9C61.6125 167.667 58.2256 173.582 55.1982 179.519C71.9878 205.27 98.7058 223.941 129.907 230.101Z" fill="url(#paint3_radial)"/>
<path d="M100.8 162H65.5C65.9 160.1 66.2 158.1 66.2 156.1H100.1C100.1 158.2 100.4 160.1 100.8 162Z" fill="url(#paint4_linear)"/>
<path d="M84.7003 97.7H82.0003C70.6003 97.7 61.3003 88.4 61.3003 77V73.4C61.3003 62 70.6003 52.7 82.0003 52.7H84.7003C96.1003 52.7 105.4 62 105.4 73.4V77C105.4 88.4 96.1003 97.7 84.7003 97.7Z" fill="#DFBC97"/>
<path d="M83.1 103.1C78.9 103.1 74.9 104.3 71.5 106.3C71.5 106.3 71.5 111.4 76.6 111.4H89.9C92.7 111.4 94.9 109.2 95 106.5C91.5 104.3 87.5 103.1 83.1 103.1Z" fill="#F9DDBF"/>
<path d="M89.9 104.1C89.9 104.1 88.3 103.2 88.3 101.4C88.3 100 88.3 90.3 88.3 90.3H77.9C77.9 90.3 77.9 98.7 77.9 100.3C77.9 103.1 76 104.2 76 104.2L89.9 104.1Z" fill="url(#paint5_radial)"/>
<path d="M83.2003 97.4H83.0003C75.2003 97.4 68.8003 91 68.8003 83.2V77.3C68.8003 69.5 75.2003 63.1 83.0003 63.1H83.2003C91.0003 63.1 97.4003 69.5 97.4003 77.3V83.2C97.4003 91 91.1003 97.4 83.2003 97.4Z" fill="#F9DDBF"/>
<path d="M97.5001 86.4H93.6001V79.1H97.5001C99.5001 79.1 101.2 80.7 101.2 82.8C101.2 84.7 99.5001 86.4 97.5001 86.4Z" fill="#F9DDBF"/>
<path d="M68.7 86.4H72.6V79.1H68.7C66.7 79.1 65 80.7 65 82.8C65.1 84.7 66.7 86.4 68.7 86.4Z" fill="#F9DDBF"/>
<path d="M82.4999 91.4H72.8999V74H82.4999V91.4Z" fill="url(#paint6_radial)"/>
<path d="M76.7 82.9C77.3627 82.9 77.9 81.8703 77.9 80.6C77.9 79.3297 77.3627 78.3 76.7 78.3C76.0373 78.3 75.5 79.3297 75.5 80.6C75.5 81.8703 76.0373 82.9 76.7 82.9Z" fill="#33312D"/>
<path d="M88.8001 82.9C89.4628 82.9 90.0001 81.8703 90.0001 80.6C90.0001 79.3297 89.4628 78.3 88.8001 78.3C88.1374 78.3 87.6001 79.3297 87.6001 80.6C87.6001 81.8703 88.1374 82.9 88.8001 82.9Z" fill="#33312D"/>
<path d="M82.5 88.9C82.3 87.4 80.7 86.7 80.1 86.1C79.8 85.8 79.7 85.3 80 85C80.8 84 82.2 82.7 82.5 78.5C83.3 80 85.1 85.6 82.5 88.9Z" fill="#F9DDBF"/>
<path d="M97.0003 62.2C100.9 71.3 102.8 77.3 102.7 77.9C101.2 78.7 99.6003 79.1 97.9003 79.1C95.2003 79.1 92.8003 78.2 90.8003 76.3C88.8003 74.4 87.8003 71 87.6003 68.3H78.7003C78.6003 71 77.5003 74.4 75.5003 76.3C73.5003 78.1 71.2003 79.1 68.4003 79.1C66.6003 79.1 64.9003 78.7 63.3003 77.8C63.3003 77.5 64.3003 73.9 66.5003 69.2L69.7003 62.3H97.0003V62.2Z" fill="#DFBC97"/>
<path d="M83.2002 68.4H78.7002C78.7002 67.2 79.7002 66.2 80.9002 66.2H81.1002C82.3002 66.3 83.2002 67.3 83.2002 68.4Z" fill="#BF8F68"/>
<path d="M87.7002 68.4H83.2002C83.2002 67.2 84.2002 66.2 85.4002 66.2H85.6002C86.7002 66.3 87.7002 67.3 87.7002 68.4Z" fill="#BF8F68"/>
<path d="M83.2002 68.4H75.7002V54.9H83.2002V68.4Z" fill="url(#paint7_radial)"/>
<path opacity="0.5" d="M81.4999 90.7C82.4999 90.6 83.2999 90.5 83.8999 90.3C84.1999 90.2 84.4999 90.1 84.7999 89.9C85.0999 89.7 85.3999 89.5 85.8999 89.2H85.9999C86.1999 89.1 86.3999 89.1 86.4999 89.3C86.4999 89.4 86.5999 89.4 86.5999 89.5C86.5999 90.1 86.3999 90.7 85.9999 91.1C85.5999 91.6 84.9999 92 84.3999 92.1C83.7999 92.3 83.1999 92.2 82.5999 92.1C81.9999 91.9 81.5999 91.7 81.0999 91.2C80.9999 91 80.9999 90.8 81.0999 90.7C81.2999 90.8 81.3999 90.7 81.4999 90.7Z" fill="#BF8F68"/>
<path d="M99.5002 174.2L94.7002 178.2L101.5 180.8L103.1 178.4L99.5002 174.2Z" fill="#FADCBD"/>
<path d="M98.6 109C98.6 109 137.3 141.9 103.1 178.4C100.4 176 98.4 174.5 98.4 174.5C98.4 174.5 105.2 160.7 103.7 146.8C102.3 133.5 97 130.5 97 130.5L98.6 109Z" fill="#FDB813"/>
<path d="M89.8003 177.7H106V186.9C106 191.4 102.4 195 97.9003 195C93.4003 195 89.8003 191.4 89.8003 186.9V177.7Z" fill="#69ADDF"/>
<path d="M226.9 205.318C226.9 205.312 226.9 205.306 226.9 205.3C226.9 200.445 227.392 195.846 227.839 191.67C229.204 178.902 230.145 170.1 215.3 170.1C195.6 170.1 179.6 186.1 179.6 205.8C179.6 213.815 182.232 221.218 186.689 227.18C201.593 222.591 215.22 215.081 226.9 205.318Z" fill="#605D5A"/>
<path d="M235.4 75.8L201.3 72.1L199 70.5L201.6 69.5L235.7 73.2C236.3 73.3 236.7 73.9 236.6 74.6C236.5 75.4 236 75.9 235.4 75.8Z" fill="white"/>
<path d="M219.3 80C225.375 80 230.3 75.0751 230.3 69C230.3 62.9249 225.375 58 219.3 58C213.225 58 208.3 62.9249 208.3 69C208.3 75.0751 213.225 80 219.3 80Z" fill="url(#paint8_linear)"/>
<path d="M216.6 115.3C228.584 115.3 238.3 105.585 238.3 93.6C238.3 81.6154 228.584 71.9 216.6 71.9C204.615 71.9 194.9 81.6154 194.9 93.6C194.9 105.585 204.615 115.3 216.6 115.3Z" fill="#59453C"/>
<path d="M230.6 108L226.7 107.6L227.7 98.8L231.6 99.2C234 99.5 235.8 101.7 235.5 104.1C235.2 106.5 233 108.3 230.6 108Z" fill="#E0BB95"/>
<path d="M199.8 104.6L203.7 105L204.7 96.2L200.8 95.8C198.4 95.5 196.2 97.3 195.9 99.7C195.6 102.2 197.4 104.3 199.8 104.6Z" fill="#E0BB95"/>
<path d="M215.3 119.8C198.2 119.8 184.2 133.7 184.2 150.9C184.2 153.5 184.3 156.3 184.6 159.1C182.7 160.2 181.1 162.2 180.2 165.5C177.9 174.9 173.9 186.8 168 193.8C160.1 203.2 164.1 218.8 164.1 218.8H206.6V200.4C206.6 200.4 207.2 196.7 207.4 191.6C209.8 192.2 212.4 192.5 215.2 192.5C242.7 192.5 246.3 168.1 246.3 150.9C246.3 133.7 232.5 119.8 215.3 119.8Z" fill="url(#paint9_radial)"/>
<path d="M221.2 110.8H215.3H209.4L208.4 122.6C208.4 122.6 212.2 122.6 215.3 122.6C218.4 122.6 222.2 122.6 222.2 122.6L221.2 110.8Z" fill="url(#paint10_radial)"/>
<path d="M232.198 100.203C233.276 90.4318 226.941 81.7146 218.048 80.7332C209.154 79.7517 201.071 86.8775 199.992 96.6492C198.914 106.421 205.249 115.138 214.142 116.12C223.036 117.101 231.119 109.975 232.198 100.203Z" fill="#E0BB95"/>
<path d="M214.7 110.6L207.9 109.9L209.7 93.8L216.5 94.5L214.7 110.6Z" fill="url(#paint11_radial)"/>
<path d="M202.4 79.9C196.7 84.3 193.1 97.8 199.9 101.5C199.8 97.7 202.7 95.2 206.2 94.7C210.7 94 215.7 94.2 219.9 91.9C225.5 88.8 227.5 82.7 223.8 78.4C220.6 74.7 209.5 72.5 202.4 79.9Z" fill="#594539"/>
<path d="M225.8 81.3C223.9 84.8 224.4 95.2 232.2 99.3C240.1 87.8 228.7 75.9 225.8 81.3Z" fill="#594539"/>
<path d="M208.8 105.5C211.948 105.5 214.5 102.948 214.5 99.8C214.5 96.652 211.948 94.1 208.8 94.1C205.652 94.1 203.1 96.652 203.1 99.8C203.1 102.948 205.652 105.5 208.8 105.5Z" stroke="#9B643D" stroke-width="1.5852" stroke-linecap="round" stroke-linejoin="round"/>
<path d="M215.8 100.9C215.4 101.7 215.3 102 213.9 103.1C213.3 103.5 213.2 104.5 213.5 105.1C213.8 105.7 214.6 106.3 215 107.5C215.4 108.7 218.7 107.5 218.8 104C218.9 101.3 216.7 99.2 215.8 100.9Z" fill="#E0BB95"/>
<path d="M222.9 107.1C226.048 107.1 228.6 104.548 228.6 101.4C228.6 98.252 226.048 95.7 222.9 95.7C219.752 95.7 217.2 98.252 217.2 101.4C217.2 104.548 219.752 107.1 222.9 107.1Z" stroke="#9B643D" stroke-width="1.5852" stroke-linecap="round" stroke-linejoin="round"/>
<path d="M214.6 99L217.3 99.2" stroke="#9B643D" stroke-width="1.5852" stroke-linecap="round" stroke-linejoin="round"/>
<path d="M218.4 109.7C218.2 110.2 217.9 110.6 217.5 110.9C217.1 111.2 216.6 111.5 216.1 111.5C215.6 111.6 215 111.6 214.6 111.4C214.1 111.3 213.7 111 213.4 110.6C213.2 110.4 213.2 110 213.4 109.8C213.5 109.7 213.7 109.6 213.8 109.6H213.9C214.3 109.6 214.7 109.6 215 109.6C215.3 109.6 215.6 109.6 215.9 109.5C216.2 109.5 216.4 109.4 216.7 109.3C217 109.2 217.3 109 217.6 108.9L217.8 108.8C218.1 108.7 218.4 108.8 218.6 109.1C218.5 109.4 218.5 109.6 218.4 109.7Z" fill="#BF8F68"/>
<path d="M223.8 102C223.6 101.8 223.3 101.5 223.1 101.4C222.9 101.3 222.7 101.2 222.4 101.2C222.1 101.2 221.9 101.2 221.5 101.2C221.2 101.2 220.8 101.3 220.3 101.5H220.2C220.1 101.5 219.9 101.5 219.9 101.3V101.2C220 100.6 220.3 100.2 220.8 99.8C221.3 99.5 221.9 99.2 222.5 99.3C223.1 99.3 223.8 99.6 224.2 100C224.7 100.5 224.9 101 224.9 101.6C224.9 101.9 224.7 102.2 224.4 102.2C224.2 102.2 224.1 102.2 224 102.1L223.8 102Z" fill="#3A312E"/>
<path d="M205.7 100C205.9 99.4 206.3 99 206.8 98.6C207.4 98.3 208.1 98.2 208.6 98.3C209.2 98.4 209.8 98.8 210.1 99.2C210.4 99.7 210.6 100.2 210.6 100.8C210.6 100.9 210.5 101.1 210.3 101.1H210.2H210.1C209.7 100.9 209.3 100.7 209 100.5C208.7 100.4 208.4 100.3 208.2 100.3C207.9 100.3 207.7 100.2 207.5 100.3C207.3 100.3 206.9 100.5 206.6 100.6L206.4 100.7C206.1 100.8 205.8 100.7 205.6 100.5C205.6 100.3 205.6 100.1 205.7 100Z" fill="#3A312E"/>
<path d="M223.7 122.6H207.4V189.7H223.7V122.6Z" fill="#69ADDF"/>
<path d="M223.7 120.3H207.4V125.2H223.7V120.3Z" fill="#E0BB95"/>
<path d="M244.5 186.5L223.6 189.8L224.1 151H248.3L244.5 186.5Z" fill="url(#paint12_radial)"/>
<path d="M227.173 205.09C228.053 201.502 229.419 200.133 231.798 197.747C232.851 196.691 234.103 195.435 235.6 193.7V186.8C235.6 186.1 235 185.5 234.3 185.5H197.8C197.1 185.5 196.5 186.1 196.5 186.8V213.3C196.5 214 197.1 214.6 197.8 214.6H214.129C218.701 211.73 223.059 208.55 227.173 205.09Z" fill="url(#paint13_radial)"/>
<path d="M229.6 201.8C229.6 201.8 224.1 206.5 220.5 207.7C217.1 208.9 212.8 208.6 211 207.9C210.2 207.6 210.1 206.5 210.8 206L216.8 202.3L214.1 202.6C213.2 202.8 212.6 201.5 213.5 201.1C213.5 201.1 213.5 201.1 213.6 201.1C215.8 199.9 218.9 198.1 227.8 199.3L229.6 201.8Z" fill="url(#paint14_linear)"/>
<path d="M254.125 172.365C255.82 152.713 241.4 134.2 241.4 134.2L230.6 158C230.6 158 243.4 180.2 222.4 198.7C222.758 199.238 222.937 199.493 223.198 199.866C223.665 200.533 224.398 201.579 226.9 205.3C226.916 205.293 226.932 205.285 226.949 205.278C237.909 196.107 247.152 184.951 254.125 172.365Z" fill="url(#paint15_linear)"/>
<path d="M205.2 198.1C214.1 196.9 217.2 198.7 219.4 199.9C219.4 199.9 219.4 199.9 219.5 199.9C220.3 200.4 219.8 201.7 218.9 201.4L215.3 200.6L222.2 204.8C223 205.3 222.9 206.4 222 206.7C220.2 207.4 215.9 207.7 212.5 206.5C208.9 205.2 203.4 200.6 203.4 200.6L205.2 198.1Z" fill="#E0BB95"/>
<path d="M200.9 156.4C200.9 156.4 189.6 180.5 209.1 197.1C207.3 199.7 208.5 198.1 204.6 203.8C153.1 180.2 190.1 132.5 190.1 132.5L200.9 156.4Z" fill="white"/>
<path d="M115.7 38.7C115.8 38.4 115.8 38.1 115.8 37.8V37.7C115.8 37.6 115.8 37.5 115.8 37.5C115.8 33.9 112.9 31 109.3 31C106.9 31 104.8 32.3 103.7 34.2H100.1C99.0999 34.2 98.1999 34.6 97.4999 35.3C96.7999 36 96.3999 36.9 96.3999 37.9C96.3999 39.9 97.9999 41.6 100.1 41.6H104.1H112.1C112.4 41.6 112.6 41.6 112.8 41.5C113.5 41.4 114.2 41 114.6 40.5C115.2 39.9 115.6 39.3 115.7 38.7Z" fill="white"/>
<path d="M206 25.8C205.3 25.1 204.4 24.7 203.4 24.7H202.1C201 22.3 198.5 20.6 195.7 20.6C193.1 20.6 190.8 22 189.6 24.1C189.5 24.3 189.4 24.5 189.3 24.7C188.3 24.7 187.4 25.1 186.7 25.8C186 26.5 185.6 27.4 185.6 28.4C185.6 30.4 187.3 32.1 189.3 32.1H193.9H198.9H203.5C205.5 32.1 207.2 30.4 207.2 28.4C207.1 27.4 206.7 26.4 206 25.8Z" fill="white"/>
<path d="M23.5998 124.6C9.1998 114.3 6.4998 92.1 6.2998 90L9.2998 89.5C9.9998 91 18.0998 114.3 40.2998 114C50.3998 113.8 60.4998 111.8 71.5998 106.2L65.5998 130C64.6998 130.1 38.4998 135.1 23.5998 124.6Z" fill="#FDB813"/>
<path d="M14.1001 80.1C13.5001 79.5 11.9001 81.1 10.8001 82.1C9.7001 83.1 9.6001 81.4 9.6001 81.1C9.9001 78.7 10.4001 73.5 9.5001 73.5C8.8001 73.5 8.2001 77.3 7.8001 79.2C7.8001 79.4 7.4001 79.4 7.4001 79.2C7.1001 77 6.5001 72.5 5.7001 72.7C4.4001 73.1 6.2001 79.3 5.5001 80C4.8001 80.6 3.2001 74.7 2.4001 75.3C1.8001 75.8 3.1001 79.4 3.7001 81.1C3.8001 81.3 3.5001 81.5 3.4001 81.3C2.3001 80.4 0.300102 78.7 0.100102 79.2C0.000101939 79.7 1.2001 81.4 2.1001 82.6C2.7001 83.4 3.1001 84.4 3.3001 85.4L4.0001 87.3C4.4001 89.3 5.8001 91.6 8.7001 90.9C11.3001 90.3 10.3001 87.9 11.4001 85.3C12.7001 82.4 14.8001 80.9 14.1001 80.1Z" fill="#FADCBD"/>
<defs>
<linearGradient id="paint0_linear" x1="179.84" y1="193.968" x2="160.963" y2="193.968" gradientUnits="userSpaceOnUse">
<stop stop-color="#E1DFDD"/>
<stop offset="1" stop-color="white"/>
</linearGradient>
<radialGradient id="paint1_radial" cx="0" cy="0" r="1" gradientUnits="userSpaceOnUse" gradientTransform="translate(150.718 60.8315) scale(6.5604)">
<stop offset="0.00183444" stop-color="#874D26"/>
<stop offset="1" stop-color="#9B643D"/>
</radialGradient>
<radialGradient id="paint2_radial" cx="0" cy="0" r="1" gradientUnits="userSpaceOnUse" gradientTransform="translate(108.869 147.476) scale(20.2417)">
<stop offset="0.00301622" stop-color="#FC9315"/>
<stop offset="0.9998" stop-color="#FDB813"/>
</radialGradient>
<radialGradient id="paint3_radial" cx="0" cy="0" r="1" gradientUnits="userSpaceOnUse" gradientTransform="translate(95.2915 185.172) scale(11.4213)">
<stop offset="0.00301631" stop-color="#6B97DD"/>
<stop offset="1" stop-color="#69ADDF"/>
</radialGradient>
<linearGradient id="paint4_linear" x1="83.1315" y1="164.868" x2="83.1315" y2="157.191" gradientUnits="userSpaceOnUse">
<stop offset="0.00301631" stop-color="#6B97DD"/>
<stop offset="1" stop-color="#69ADDF"/>
</linearGradient>
<radialGradient id="paint5_radial" cx="0" cy="0" r="1" gradientUnits="userSpaceOnUse" gradientTransform="translate(86.2502 90.2831) rotate(180) scale(10.7221 11.5254)">
<stop stop-color="#9A6541" stop-opacity="0.8471"/>
<stop offset="0.225" stop-color="#BB8E6C" stop-opacity="0.8815"/>
<stop offset="0.45" stop-color="#D6B090" stop-opacity="0.9159"/>
<stop offset="0.6603" stop-color="#E9C9AA" stop-opacity="0.948"/>
<stop offset="0.8497" stop-color="#F5D8BA" stop-opacity="0.977"/>
<stop offset="1" stop-color="#F9DDBF"/>
</radialGradient>
<radialGradient id="paint6_radial" cx="0" cy="0" r="1" gradientUnits="userSpaceOnUse" gradientTransform="translate(82.6635 85.1876) scale(5.8957)">
<stop stop-color="#9A6541" stop-opacity="0.8471"/>
<stop offset="1" stop-color="#F9DDBF" stop-opacity="0"/>
</radialGradient>
<radialGradient id="paint7_radial" cx="0" cy="0" r="1" gradientUnits="userSpaceOnUse" gradientTransform="translate(90.8628 69.8299) scale(15.4309)">
<stop stop-color="#5C2C07" stop-opacity="0.8471"/>
<stop offset="1" stop-color="#BE906B" stop-opacity="0"/>
</radialGradient>
<linearGradient id="paint8_linear" x1="219.997" y1="62.8438" x2="218.21" y2="79.0327" gradientUnits="userSpaceOnUse">
<stop offset="0.2689" stop-color="#594539"/>
<stop offset="0.8111" stop-color="#463228"/>
</linearGradient>
<radialGradient id="paint9_radial" cx="0" cy="0" r="1" gradientUnits="userSpaceOnUse" gradientTransform="translate(186.81 177.454) rotate(-18.0472) scale(24.152 29.9642)">
<stop offset="0.00301622" stop-color="#CAE2F9"/>
<stop offset="1" stop-color="white"/>
</radialGradient>
<radialGradient id="paint10_radial" cx="0" cy="0" r="1" gradientUnits="userSpaceOnUse" gradientTransform="translate(218.265 109.024) scale(10.5464)">
<stop offset="0.06676" stop-color="#9B643D"/>
<stop offset="0.2364" stop-color="#AC7953"/>
<stop offset="0.5635" stop-color="#C89D77"/>
<stop offset="0.8298" stop-color="#DAB38D"/>
<stop offset="1" stop-color="#E0BB95"/>
</radialGradient>
<radialGradient id="paint11_radial" cx="0" cy="0" r="1" gradientUnits="userSpaceOnUse" gradientTransform="translate(215.467 104.131) rotate(9.57817) scale(6.93299 6.62639)">
<stop stop-color="#9B643D"/>
<stop offset="0.0414531" stop-color="#A06A43"/>
<stop offset="0.3772" stop-color="#C2966F"/>
<stop offset="0.6377" stop-color="#D8B18B"/>
<stop offset="0.7896" stop-color="#E0BB95"/>
</radialGradient>
<radialGradient id="paint12_radial" cx="0" cy="0" r="1" gradientUnits="userSpaceOnUse" gradientTransform="translate(239.465 171.404) rotate(12.7967) scale(13.103 21.4239)">
<stop offset="0.00301622" stop-color="#CAE2F9"/>
<stop offset="1" stop-color="white"/>
</radialGradient>
<radialGradient id="paint13_radial" cx="0" cy="0" r="1" gradientUnits="userSpaceOnUse" gradientTransform="translate(216.539 203.537) scale(13.701)">
<stop offset="0.00301622" stop-color="#FC9315"/>
<stop offset="0.9998" stop-color="#FDB813"/>
</radialGradient>
<linearGradient id="paint14_linear" x1="203.788" y1="209.5" x2="223.866" y2="201.477" gradientUnits="userSpaceOnUse">
<stop offset="0.00125628" stop-color="#BF8F68"/>
<stop offset="1" stop-color="#E0BB95"/>
</linearGradient>
<linearGradient id="paint15_linear" x1="262.069" y1="185.015" x2="243.996" y2="175.126" gradientUnits="userSpaceOnUse">
<stop offset="0.00301622" stop-color="#CAE2F9"/>
<stop offset="1" stop-color="white"/>
</linearGradient>
</defs>
</svg>
