<?xml version="1.0" encoding="utf-8"?>
<!-- Generator: Adobe Illustrator 22.0.1, SVG Export Plug-In . SVG Version: 6.00 Build 0)  -->
<svg version="1.1" id="Layer_1" xmlns="http://www.w3.org/2000/svg" xmlns:xlink="http://www.w3.org/1999/xlink" x="0px" y="0px"
	 viewBox="0 0 512 179" style="enable-background:new 0 0 512 179;" xml:space="preserve">
<style type="text/css">
	.st0{fill:#CCCCCC;}
	.st1{fill:#1F1F1F;}
	.st2{fill:#3A96DD;}
	.st3{fill:#E5E5E5;}
	.st4{fill:#A8A8A8;}
	.st5{fill:#FFFFFF;}
	.st6{fill:#2C579B;}
	.st7{fill:#BFBFBF;}
	.st8{fill:#B54830;}
	.st9{fill:#7624A7;}
	.st10{opacity:0.8;fill:#FFFFFF;}
	.st11{fill:#383838;}
	.st12{fill:#BAD80A;}
	.st13{fill:#B3DBF2;}
	.st14{clip-path:url(#SVGID_2_);}
	.st15{fill:#BB9167;}
	.st16{clip-path:url(#SVGID_2_);fill:#E5E5E5;}
	.st17{clip-path:url(#SVGID_2_);fill:#F2F2F2;}
	.st18{clip-path:url(#SVGID_2_);fill:#BB9167;}
	.st19{clip-path:url(#SVGID_2_);fill:#613D30;}
	.st20{clip-path:url(#SVGID_2_);fill:#9B7451;}
	.st21{clip-path:url(#SVGID_2_);fill:#1F1F1F;}
</style>
<g>
	<g>
		<path class="st0" d="M230,31c0-3.9,3.2-7,7.1-7h239.8c3.9,0,7.1,3.1,7.1,7v137.2H230V31z"/>
		<path class="st1" d="M234,31.5c0-1.9,1.6-3.5,3.5-3.5h239c1.9,0,3.5,1.6,3.5,3.5V168H234V31.5z"/>
		<rect x="240" y="38" transform="matrix(-1 -4.462753e-11 4.462753e-11 -1 714 196)" class="st2" width="234" height="120"/>
		<rect x="202" y="168" transform="matrix(-1 -4.561563e-11 4.561563e-11 -1 714 341)" class="st3" width="310" height="5"/>
		<path class="st0" d="M202,173c0,3.3,3.2,6,7,6H505c3.9,0,7-2.7,7-6"/>
		<rect x="338" y="168" transform="matrix(-1 -5.648472e-11 5.648472e-11 -1 714 339)" class="st4" width="38" height="3"/>
	</g>
	<g>
		<rect id="Rectangle_70_8_" x="294" y="60" class="st5" width="127" height="5"/>
		<rect id="Rectangle_70_7_" x="294" y="54" class="st6" width="127" height="7"/>
		<g id="Repeat_Grid_4_4_" transform="translate(831.24 421.916)">
			<g transform="translate(-817.24 -356.916)">
				<rect id="Rectangle_25206-6_4_" x="283.2" y="-6" class="st5" width="7" height="1"/>
			</g>
			<g transform="translate(-775.24 -356.916)">
				<rect id="Rectangle_25206-8_12_" x="261.2" y="-6" class="st5" width="7" height="1"/>
			</g>
			<g transform="translate(-775.24 -356.916)">
				<rect id="Rectangle_25206-8_11_" x="269.2" y="-6" class="st5" width="7" height="1"/>
			</g>
			<g transform="translate(-775.24 -356.916)">
				<rect id="Rectangle_25206-8_10_" x="278.2" y="-6" class="st5" width="7" height="1"/>
			</g>
		</g>
		<rect id="Rectangle_71_4_" x="294" y="64" class="st7" width="127" height="78"/>
		<rect id="Rectangle_110_4_" x="306.2" y="58" class="st5" width="9" height="3"/>
		<rect id="Rectangle_73_4_" x="301" y="67" class="st5" width="114" height="75"/>
		<g>
			<g id="Repeat_Grid_6_4_" transform="translate(899 457)">
				<g transform="translate(-875 -392)">
					<rect id="Rectangle_38594-7_4_" x="300" y="11" class="st7" width="69" height="5"/>
				</g>
				<g transform="translate(-875 -371)">
					<rect id="Rectangle_38594-8_4_" x="300" y="0" class="st7" width="69" height="5"/>
				</g>
				<g transform="translate(-875 -350)">
					<rect id="Rectangle_38594-9_4_" x="300" y="-11" class="st7" width="69" height="5"/>
				</g>
				<g transform="translate(-875 -329)">
					<rect id="Rectangle_38594-10_4_" x="300" y="-22" class="st7" width="69" height="5"/>
				</g>
				<g transform="translate(-875 -308)">
					<rect id="Rectangle_38594-11_4_" x="300" y="-33" class="st7" width="69" height="5"/>
				</g>
				<g transform="translate(-875 -287)">
					<rect id="Rectangle_38594-12_4_" x="300" y="-44" class="st7" width="69" height="5"/>
				</g>
			</g>
			<g id="Rectangle_121_4_" transform="translate(1041 507)">
				<rect x="-654" y="-408" class="st8" width="2" height="10"/>
				<rect id="Rectangle_118_4_" x="-654" y="-408" class="st8" width="9" height="5"/>
			</g>
			<g id="Rectangle_123_4_" transform="translate(932 466)">
				<rect x="-595" y="-387" class="st9" width="2" height="10"/>
				<rect id="Rectangle_120_4_" x="-595" y="-387" class="st9" width="9" height="5"/>
			</g>
		</g>
	</g>
	<g>
		<g>
			<path class="st10" d="M22.5,68.8c-2.7-2.7-4.8-5.9-6.3-9.4c-1.4-3.5-2.2-7.2-2.2-11.1c0-3.9,0.7-7.6,2.2-11.1
				c1.4-3.5,3.5-6.7,6.3-9.4l4.1,4.1c-2.2,2.2-3.8,4.7-5,7.5c-1.2,2.8-1.8,5.8-1.8,8.9c0,3.1,0.6,6.1,1.8,8.9c1.2,2.8,2.8,5.3,5,7.5
				L22.5,68.8z"/>
			<path class="st10" d="M11.9,77c-3.8-3.9-6.7-8.2-8.8-13.2C1,58.9,0,53.7,0,48.3s1-10.6,3.1-15.5c2.1-4.9,5-9.3,8.8-13.2l4.1,4.1
				c-3.3,3.3-5.8,7-7.6,11.2c-1.7,4.2-2.6,8.6-2.6,13.3c0,4.7,0.9,9.1,2.6,13.3c1.7,4.2,4.3,8,7.6,11.2L11.9,77z"/>
		</g>
		<g>
			<path class="st10" d="M116.5,68.8c2.7-2.7,4.8-5.9,6.3-9.4c1.4-3.5,2.2-7.2,2.2-11.1c0-3.9-0.7-7.6-2.2-11.1
				c-1.4-3.5-3.5-6.7-6.3-9.4l-4.1,4.1c2.2,2.2,3.8,4.7,5,7.5c1.2,2.8,1.8,5.8,1.8,8.9c0,3.1-0.6,6.1-1.8,8.9
				c-1.2,2.8-2.8,5.3-5,7.5L116.5,68.8z"/>
			<path class="st10" d="M127.1,77c3.8-3.9,6.7-8.2,8.8-13.2c2.1-4.9,3.1-10.1,3.1-15.5s-1-10.6-3.1-15.5c-2.1-4.9-5-9.3-8.8-13.2
				l-4.1,4.1c3.3,3.3,5.8,7,7.6,11.2c1.7,4.2,2.6,8.6,2.6,13.3c0,4.7-0.9,9.1-2.6,13.3c-1.7,4.2-4.3,8-7.6,11.2L127.1,77z"/>
		</g>
		<path class="st0" d="M45,5v163h49V5c0-2.8-2.2-5-5-5H50C47.2,0,45,2.2,45,5z"/>
		<rect x="49" y="4" class="st11" width="41" height="164"/>
		<rect x="55" y="153" class="st1" width="30" height="8"/>
		<rect x="55" y="142" class="st1" width="30" height="8"/>
		<g>
			<path class="st12" d="M69.5,95c-2.8,0-5-2.2-5-5s2.2-5,5-5c2.8,0,5,2.2,5,5S72.3,95,69.5,95"/>
			<path class="st5" d="M69.5,112c-2.8,0-5-2.2-5-5s2.2-5,5-5c2.8,0,5,2.2,5,5S72.3,112,69.5,112"/>
			<path class="st12" d="M69.5,61c-2.8,0-5-2.2-5-5c0-2.8,2.2-5,5-5c2.8,0,5,2.2,5,5C74.5,58.8,72.3,61,69.5,61"/>
			<path class="st12" d="M69.5,78c-2.8,0-5-2.2-5-5s2.2-5,5-5c2.8,0,5,2.2,5,5S72.3,78,69.5,78"/>
			<path class="st12" d="M69.5,44c-2.8,0-5-2.2-5-5c0-2.8,2.2-5,5-5c2.8,0,5,2.2,5,5C74.5,41.8,72.3,44,69.5,44"/>
		</g>
		<path class="st1" d="M101,179H38v-9c0-1.1,0.9-2,2-2h59c1.1,0,2,0.9,2,2V179z"/>
	</g>
	<g>
		<path class="st3" d="M187,67.2c0-4,3.2-7.2,7.2-7.2h50.6c4,0,7.2,3.2,7.2,7.2v46.9h-65V67.2z"/>
		<path class="st3" d="M252,171.8c0,4-3.2,7.2-7.2,7.2h-50.6c-4,0-7.2-3.2-7.2-7.2v-61.3h65V171.8z"/>
		<path class="st1" d="M194.6,64h49.9c2,0,3.6,1.6,3.6,3.6v50.1v53.7c0,2-1.6,3.6-3.6,3.6h-49.9c-2,0-3.6-1.6-3.6-3.6v-53.7V67.6
			C191,65.6,192.6,64,194.6,64z"/>
		<rect x="194" y="74" transform="matrix(-1 -4.483270e-11 4.483270e-11 -1 439 235)" class="st2" width="51" height="87"/>
		<path class="st13" d="M238,116.6c0,10.3-8.3,18.4-18.5,18.4s-18.5-8.1-18.5-18.4S209.3,98,219.5,98S238,106.3,238,116.6z"/>
		<g>
			<defs>
				<path id="SVGID_1_" d="M238.1,116.7c0,10.2-8.2,18.1-18.4,18.1c-10.2,0-18.4-8-18.4-18.1s8.2-18.4,18.4-18.4
					C229.9,98.3,238.1,106.5,238.1,116.7z"/>
			</defs>
			<clipPath id="SVGID_2_">
				<use xlink:href="#SVGID_1_"  style="overflow:visible;"/>
			</clipPath>
			<g class="st14">
				<path class="st15" d="M196.8,149.9c-0.6,2.5,0.9,5,3.4,5.6c0.4,0.1,0.8,0.1,1.1,0.1c2.1,0,4-1.4,4.5-3.5l3.2-12.8l-9-2.3
					L196.8,149.9z"/>
				<path class="st3" d="M207.1,127.9c-2.5-0.6-5,0.9-5.6,3.4l-1.4,5.8l9,2.3l1.4-5.8C211.1,131.1,209.6,128.5,207.1,127.9z"/>
			</g>
			<g class="st14">
				<path class="st15" d="M243.1,149.9l-3.2-12.8l-9,2.3l3.2,12.8c0.5,2.1,2.4,3.5,4.5,3.5c0.4,0,0.8,0,1.1-0.1
					C242.2,154.9,243.7,152.4,243.1,149.9z"/>
				<path class="st3" d="M238.4,131.3c-0.6-2.5-3.1-4-5.6-3.4c-2.5,0.6-4,3.1-3.4,5.6l1.4,5.8l9-2.3L238.4,131.3z"/>
			</g>
			<rect x="205.1" y="127.8" class="st16" width="29.2" height="13.2"/>
			<path class="st17" d="M226.6,127.8c0,3.7-3,6.6-6.6,6.6c-3.7,0-6.6-3-6.6-6.6"/>
			<path class="st18" d="M225.3,127.8c0,2.9-2.4,5.3-5.3,5.3c-2.9,0-5.3-2.4-5.3-5.3"/>
			<path class="st18" d="M230.5,112.6c0-5.8-4.7-10.6-10.6-10.6c-5.8,0-10.6,4.7-10.6,10.6h-0.7c-0.7,0-1.3,0.6-1.3,1.3v3.3
				c0,0.7,0.6,1.3,1.3,1.3h0.7c0,5.8,4.7,10.6,10.6,10.6c5.8,0,10.6-4.7,10.6-10.6h0.7c0.7,0,1.3-0.6,1.3-1.3V114
				c0-0.7-0.6-1.3-1.3-1.3H230.5z"/>
			<path class="st19" d="M214.9,123.7c0-1,0.8-1.9,1.9-1.9h6.3c1,0,1.9,0.8,1.9,1.9H214.9z"/>
			<path class="st20" d="M221.3,118.7c0,0.7-0.6,1.3-1.3,1.3s-1.3-0.6-1.3-1.3"/>
			<path class="st19" d="M209.4,112.6v2.7h1.9v-4.6c0-0.5,0.3-1,0.7-1.3h6.7c2.6,0,5-1.3,6.7-3.3c2.1,1.7,3.3,4,3.3,6.6v2.6h1.9
				v-2.7h0.7c0-6.2-5.1-11.3-11.3-11.3c-6.2,0-11.3,5.1-11.3,11.3"/>
			<path class="st19" d="M219.9,129.4c5.9,0,10.6-4.8,10.6-10.6v-4.2h-1.9v5.6c0,1.8-1.5,3.3-3.3,3.3h-10.7c-1.8,0-3.3-1.5-3.3-3.3
				v-5.6h-1.9v4.2c0,5.9,4.8,10.6,10.6,10.6"/>
			<path class="st21" d="M217.3,123.4c0,1.5,1.2,2.7,2.7,2.7s2.7-1.2,2.7-2.7"/>
			<circle class="st21" cx="225.4" cy="115.2" r="1.4"/>
			<circle class="st21" cx="214.6" cy="115.2" r="1.4"/>
		</g>
	</g>
</g>
</svg>
