<svg xmlns="http://www.w3.org/2000/svg" viewBox="0 0 24 24"><path fill="#FFF" d="M3.5 21h17c.275 0 .5-.225.5-.5v-17c0-.275-.225-.5-.5-.5h-17c-.275 0-.5.225-.5.5v17c0 .275.225.5.5.5z"/><path opacity=".64" fill="#605E5C" d="M20.5 22h-17c-.827 0-1.5-.673-1.5-1.5v-17C2 2.673 2.673 2 3.5 2h17c.827 0 1.5.673 1.5 1.5v17c0 .827-.673 1.5-1.5 1.5zM3.5 3a.5.5 0 00-.5.5v17a.5.5 0 00.5.5h17a.5.5 0 00.5-.5v-17a.5.5 0 00-.5-.5h-17z"/><circle fill="none" stroke="#69AFE5" stroke-linecap="round" stroke-linejoin="round" stroke-miterlimit="10" cx="9" cy="15" r="1.5"/><circle fill="none" stroke="#69AFE5" stroke-linecap="round" stroke-linejoin="round" stroke-miterlimit="10" cx="15" cy="14" r="1.5"/><path fill="none" stroke="#69AFE5" stroke-linejoin="round" stroke-miterlimit="10" d="M16.5 14V7.5l-6 1V15M16.5 9.5l-6 1"/></svg>