<svg xmlns="http://www.w3.org/2000/svg" viewBox="0 0 24 24"><path fill="#FFF" d="M21 18.5v-13a.5.5 0 00-.5-.5h-17a.5.5 0 00-.5.5v13a.5.5 0 00.5.5h3.372c.281-.693.87-1.1 1.616-1.1.743 0 1.343.406 1.646 1.1h3.738c.281-.693.87-1.1 1.616-1.1.743 0 1.343.406 1.646 1.1H20.5a.5.5 0 00.5-.5z"/><circle fill="none" stroke="#69AFE5" stroke-miterlimit="10" cx="8.5" cy="10.5" r="2"/><path fill="none" stroke="#69AFE5" stroke-linecap="round" stroke-linejoin="round" stroke-miterlimit="10" d="M5.431 15.375S5.466 12.5 8.51 12.5c2.973 0 3.058 2.875 3.058 2.875"/><path fill="#C8C6C4" d="M14.516 10h3.986a.5.5 0 000-1h-3.986a.5.5 0 000 1zM14.516 12h3.986a.5.5 0 000-1h-3.986a.5.5 0 000 1zM14.416 14h3.186c.22 0 .398-.224.398-.5s-.178-.5-.398-.5h-3.186c-.22 0-.398.224-.398.5s.178.5.398.5z"/><path opacity=".64" fill="#605E5C" d="M20.5 20h-3.606a.656.656 0 01-.628-.468c-.09-.287-.298-.632-.778-.632-.469 0-.659.336-.736.618a.657.657 0 01-.628.482h-4.23a.656.656 0 01-.628-.468c-.09-.287-.298-.632-.778-.632-.468 0-.659.336-.736.618a.657.657 0 01-.628.482H3.5c-.827 0-1.5-.673-1.5-1.5v-13C2 4.673 2.673 4 3.5 4h17c.827 0 1.5.673 1.5 1.5v13c0 .827-.673 1.5-1.5 1.5zm-3.28-.767c0 .001 0 .003.002.004l-.001-.004zm-7 0c0 .001 0 .003.002.004l-.001-.004zM17.135 19H20.5a.5.5 0 00.5-.5v-13a.5.5 0 00-.5-.5h-17a.5.5 0 00-.5.5v13a.5.5 0 00.5.5h3.372c.281-.693.87-1.1 1.616-1.1.743 0 1.343.406 1.646 1.1h3.738c.281-.693.87-1.1 1.616-1.1.743 0 1.343.406 1.646 1.1z"/></svg>