<svg xmlns="http://www.w3.org/2000/svg" viewBox="0 0 24 24"><path fill="#FFF" d="M20.84 1.84c.1.2.16.422.16.66v17c0 .827-.673 1.5-1.5 1.5H9v.5a.5.5 0 00.5.5h12a.5.5 0 00.5-.5V3.707l-.239-.239c.094-.144.182-.293.262-.446L20.84 1.841z"/><path fill="#FFF" d="M7.5 20h12a.5.5 0 00.5-.5v-17a.5.5 0 00-.5-.5h-12a.5.5 0 00-.5.5v17a.5.5 0 00.5.5z"/><path opacity=".64" fill="#605E5C" d="M22 4.016V21.5a.5.5 0 01-.5.5h-12a.5.5 0 01-.5-.5V21h10.5c.827 0 1.5-.673 1.5-1.5v-17c0-.827-.673-1.5-1.5-1.5h-12C6.673 1 6 1.673 6 2.5v17c0 .827.673 1.5 1.5 1.5H8v.5c0 .827.673 1.5 1.5 1.5h12c.827 0 1.5-.673 1.5-1.5V4.016h-1zM7 19.5v-17a.5.5 0 01.5-.5h12a.5.5 0 01.5.5v17a.5.5 0 01-.5.5h-12a.5.5 0 01-.5-.5z"/><path fill="#41A5EE" d="M21 1.104A1.07 1.07 0 0020.586 1H7c-.55 0-1 .45-1 1v3h15V3.5l.5-.5V2l-.5-.896z"/><path fill="#2B7CD3" d="M23 5V3.414a1 1 0 00-.293-.707l-1.414-1.414A1.015 1.015 0 0021 1.104V3.5L23 5z"/><path fill="#185ABD" d="M18.5 14H14v1h4.5a.5.5 0 000-1z"/><path fill="#2B7CD3" d="M18.5 12H14v1h4.5a.5.5 0 000-1z"/><path fill="#41A5EE" d="M18.5 10H14v1h4.5a.5.5 0 000-1z"/><path fill="#185ABD" d="M2 19h10a1 1 0 001-1V8a1 1 0 00-1-1H2a1 1 0 00-1 1v10a1 1 0 001 1z"/><path fill="#FFF" d="M11 10l-1.507 6h-1.41s-1.021-4.253-1.032-4.5L5.968 16h-1.47L3 10h1.386l.909 4.714L6.452 10h1.34l1.05 4.714c.016 0 .88-4.714.88-4.714H11z"/></svg>