<svg xmlns="http://www.w3.org/2000/svg" viewBox="0 0 24 24"><path fill="#FFF" d="M3 8h18V5.5c0-.275-.225-.5-.5-.5h-17c-.275 0-.5.225-.5.5V8zM3.5 19h17c.275 0 .5-.225.5-.5V9H3v9.5c0 .275.225.5.5.5z"/><path opacity=".64" fill="#605E5C" d="M20.5 4h-17C2.673 4 2 4.673 2 5.5v13c0 .827.673 1.5 1.5 1.5h17c.827 0 1.5-.673 1.5-1.5v-13c0-.827-.673-1.5-1.5-1.5zm-17 1h17c.275 0 .5.225.5.5V8H3V5.5c0-.275.225-.5.5-.5zm17 14h-17a.501.501 0 01-.5-.5V9h18v9.5c0 .275-.225.5-.5.5z"/><circle fill="#C8C6C4" cx="4.5" cy="6.5" r=".5"/><circle fill="#C8C6C4" cx="6.5" cy="6.5" r=".5"/><circle fill="#C8C6C4" cx="8.5" cy="6.5" r=".5"/><circle fill="none" stroke="#69AFE5" stroke-miterlimit="10" cx="12" cy="14" r="3.5"/><ellipse fill="none" stroke="#69AFE5" stroke-miterlimit="10" cx="12" cy="14" rx="1.5" ry="3.5"/><path fill="none" stroke="#69AFE5" stroke-miterlimit="10" d="M9 12.5h6M9 15.5h6"/></svg>