<svg xmlns="http://www.w3.org/2000/svg" viewBox="0 0 24 24"><path fill="#FFF" d="M5.5 22h13c.275 0 .5-.225.5-.5V7h-3.5c-.827 0-1.5-.673-1.5-1.5V2H5.5c-.275 0-.5.225-.5.5v19c0 .275.225.5.5.5z"/><path fill="#FFF" d="M18.293 6L15 2.707V5.5c0 .275.225.5.5.5h2.793z"/><path opacity=".64" fill="#605E5C" d="M19.56 5.854l-4.414-4.415A1.51 1.51 0 0014.086 1H5.5C4.673 1 4 1.673 4 2.5v19c0 .827.673 1.5 1.5 1.5h13c.827 0 1.5-.673 1.5-1.5V6.914c0-.4-.156-.777-.44-1.06zM15 2.707L18.293 6H15.5a.501.501 0 01-.5-.5V2.707zM18.5 22h-13a.501.501 0 01-.5-.5v-19c0-.275.225-.5.5-.5H14v3.5c0 .827.673 1.5 1.5 1.5H19v14.5c0 .275-.225.5-.5.5z"/><path fill="#69AFE5" d="M11.5 19a.502.502 0 01-.224-.053l-4-2A.501.501 0 017 16.5v-5a.5.5 0 01.724-.447l4 2A.501.501 0 0112 13.5v5a.5.5 0 01-.5.5zM8 16.19l3 1.5v-3.88l-3-1.5v3.88z"/><path fill="#69AFE5" d="M11.5 19a.5.5 0 01-.5-.5v-5c0-.19.107-.362.276-.447l4-2A.499.499 0 0116 11.5v5c0 .19-.107.362-.276.447l-4 2A.502.502 0 0111.5 19zm.5-5.19v3.88l3-1.5v-3.88l-3 1.5z"/><path fill="#69AFE5" d="M15.5 12a.504.504 0 01-.224-.053L11.5 10.06l-3.776 1.888a.501.501 0 01-.448-.894l4-2a.5.5 0 01.448 0l4 2A.5.5 0 0115.5 12z"/></svg>