<svg xmlns="http://www.w3.org/2000/svg" viewBox="0 0 24 24"><path fill="#FFF" d="M20.84 1.84c.1.2.16.422.16.66v17c0 .827-.673 1.5-1.5 1.5H9v.5a.5.5 0 00.5.5h12a.5.5 0 00.5-.5V3.707l-.239-.239c.094-.144.182-.293.262-.446L20.84 1.841z"/><path fill="#FFF" d="M7.5 20h12a.5.5 0 00.5-.5v-17a.5.5 0 00-.5-.5h-12a.5.5 0 00-.5.5v17a.5.5 0 00.5.5z"/><path opacity=".64" fill="#605E5C" d="M22 4.016V21.5a.5.5 0 01-.5.5h-12a.5.5 0 01-.5-.5V21h10.5c.827 0 1.5-.673 1.5-1.5v-17c0-.827-.673-1.5-1.5-1.5h-12C6.673 1 6 1.673 6 2.5v17c0 .827.673 1.5 1.5 1.5H8v.5c0 .827.673 1.5 1.5 1.5h12c.827 0 1.5-.673 1.5-1.5V4.016h-1zM7 19.5v-17a.5.5 0 01.5-.5h12a.5.5 0 01.5.5v17a.5.5 0 01-.5.5h-12a.5.5 0 01-.5-.5z"/><path fill="#31752F" d="M21 3.5V5H6V2c0-.55.45-1 1-1h13.586c.228 0 .546.132.707.293l1.414 1.414a1 1 0 01.293.707V5l-2-1.5z"/><path fill="none" stroke="#8BBF8A" stroke-linecap="round" stroke-miterlimit="10" d="M11.5 11.5h5M11.5 13.5h5"/><path fill="#8BBF8A" d="M18.5 16h-4a.5.5 0 110-1h4"/><path fill="none" stroke="#BDBBB8" stroke-miterlimit="10" d="M17.5 17.5h-7a1 1 0 01-1-1v-6a1 1 0 011-1h7a1 1 0 011 1v6a1 1 0 01-1 1z"/><path fill="#31752F" d="M2 19h10a1 1 0 001-1V8a1 1 0 00-1-1H2a1 1 0 00-1 1v10a1 1 0 001 1z"/><path fill="#F9F7F7" d="M7.362 10c.71 0 1.01.16 1.385.48.378.322.566.786.566 1.395 0 .39-.005.905-.415 1.42-.328.412-.754.71-1.61.705H6v2H5v-6h2.362zM6 13h1.155c.39 0 .683-.087.882-.262.198-.173.298-.427.298-.763 0-.65-.381-.975-1.142-.975H6v2z"/></svg>