<svg xmlns="http://www.w3.org/2000/svg" viewBox="0 0 24 24"><path opacity=".64" fill="#605E5C" d="M20.5 23h-13c-.827 0-1.5-.673-1.5-1.5v-19C6 1.673 6.673 1 7.5 1h13c.827 0 1.5.673 1.5 1.5v19c0 .827-.673 1.5-1.5 1.5zM7.5 2a.5.5 0 00-.5.5v19a.5.5 0 00.5.5h13a.5.5 0 00.5-.5v-19a.5.5 0 00-.5-.5h-13z"/><path fill="#9332BF" d="M22.438 14H22v-4h.438c.315 0 .562.26.562.594v2.812c0 .333-.247.594-.563.594z"/><path fill="#AE4BD5" d="M22.438 9H22V5h.438c.315 0 .562.26.562.594v2.812c0 .333-.247.594-.563.594z"/><path fill="#7719AA" d="M22.438 19H22v-4h.438c.315 0 .562.26.562.594v2.812c0 .333-.247.594-.563.594z"/><path fill="#FFF" d="M7.5 22h13a.5.5 0 00.5-.5v-19a.5.5 0 00-.5-.5h-13a.5.5 0 00-.5.5v19a.5.5 0 00.5.5z"/><path fill="#7719AA" d="M2 19h10a1 1 0 001-1V8a1 1 0 00-1-1H2a1 1 0 00-1 1v10a1 1 0 001 1z"/><path fill="#FFF" d="M4.018 10h1.49l3.233 4.41V10h1.241v6H8.588l-3.333-4.51c-.004-.008.02 4.502.02 4.502L4.018 16v-6z"/></svg>