<svg xmlns="http://www.w3.org/2000/svg" viewBox="0 0 24 24"><path fill="#FFF" d="M5.5 22h13c.275 0 .5-.225.5-.5V7h-3.5c-.827 0-1.5-.673-1.5-1.5V2H5.5c-.275 0-.5.225-.5.5v19c0 .275.225.5.5.5z"/><path fill="#FFF" d="M18.293 6L15 2.707V5.5c0 .275.225.5.5.5h2.793z"/><path opacity=".64" fill="#605E5C" d="M19.56 5.854l-4.414-4.415A1.51 1.51 0 0014.086 1H5.5C4.673 1 4 1.673 4 2.5v19c0 .827.673 1.5 1.5 1.5h13c.827 0 1.5-.673 1.5-1.5V6.914c0-.4-.156-.777-.44-1.06zM15 2.707L18.293 6H15.5a.501.501 0 01-.5-.5V2.707zM18.5 22h-13a.501.501 0 01-.5-.5v-19c0-.275.225-.5.5-.5H14v3.5c0 .827.673 1.5 1.5 1.5H19v14.5c0 .275-.225.5-.5.5z"/><path fill="#C8C6C4" d="M16.5 10h-9a.5.5 0 010-1h9a.5.5 0 010 1zM16.5 12h-9a.5.5 0 010-1h9a.5.5 0 010 1z"/><path fill="none" stroke="#D65532" stroke-linecap="round" stroke-linejoin="round" stroke-miterlimit="10" d="M14.5 20.5h-5a1 1 0 01-1-1v-4a1 1 0 011-1h5a1 1 0 011 1v4a1 1 0 01-1 1z"/><path fill="#D65532" d="M20 15h-2.75a.25.25 0 00-.25.25v4.5c0 .138.112.25.25.25H20a1 1 0 001-1v-3a1 1 0 00-1-1zM4 20h2.75a.25.25 0 00.25-.25v-4.5a.25.25 0 00-.25-.25H4a1 1 0 00-1 1v3a1 1 0 001 1z"/></svg>