<svg xmlns="http://www.w3.org/2000/svg" viewBox="0 0 24 24"><path fill="#FFF" d="M3.5 21h17c.275 0 .5-.225.5-.5v-17c0-.275-.225-.5-.5-.5h-17c-.275 0-.5.225-.5.5v17c0 .275.225.5.5.5z"/><circle fill="none" stroke="#FF9810" stroke-miterlimit="10" cx="16" cy="8" r="1.5"/><path fill="none" stroke="#A6CCC3" stroke-miterlimit="10" d="M14.116 12.815l-1.162 1.702-2.103-2.9a1 1 0 00-1.619 0l-3.115 4.296a1 1 0 00.81 1.587h10.146a1 1 0 00.826-1.564l-2.131-3.121a1 1 0 00-1.652 0z"/><path opacity=".64" fill="#605E5C" d="M20.5 22h-17c-.827 0-1.5-.673-1.5-1.5v-17C2 2.673 2.673 2 3.5 2h17c.827 0 1.5.673 1.5 1.5v17c0 .827-.673 1.5-1.5 1.5zM3.5 3a.5.5 0 00-.5.5v17a.5.5 0 00.5.5h17a.5.5 0 00.5-.5v-17a.5.5 0 00-.5-.5h-17z"/></svg>