<svg xmlns="http://www.w3.org/2000/svg" viewBox="0 0 24 24"><path fill="#FFF" d="M20.84 1.84c.1.2.16.422.16.66v17c0 .827-.673 1.5-1.5 1.5H9v.5a.5.5 0 00.5.5h12a.5.5 0 00.5-.5V3.707l-.239-.239c.094-.144.182-.293.262-.446L20.84 1.841z"/><path fill="#FFF" d="M7.5 20h12a.5.5 0 00.5-.5v-17a.5.5 0 00-.5-.5h-12a.5.5 0 00-.5.5v17a.5.5 0 00.5.5z"/><path opacity=".64" fill="#605E5C" d="M22 4.016V21.5a.5.5 0 01-.5.5h-12a.5.5 0 01-.5-.5V21h10.5c.827 0 1.5-.673 1.5-1.5v-17c0-.827-.673-1.5-1.5-1.5h-12C6.673 1 6 1.673 6 2.5v17c0 .827.673 1.5 1.5 1.5H8v.5c0 .827.673 1.5 1.5 1.5h12c.827 0 1.5-.673 1.5-1.5V4.016h-1zM7 19.5v-17a.5.5 0 01.5-.5h12a.5.5 0 01.5.5v17a.5.5 0 01-.5.5h-12a.5.5 0 01-.5-.5z"/><path fill="#FF8F6B" d="M21 1.104A1.07 1.07 0 0020.586 1H7c-.55 0-1 .45-1 1v3h15V3.5l.5-.5V2l-.5-.896z"/><path fill="#ED6C47" d="M23 5V3.414a1 1 0 00-.293-.707l-1.414-1.414A1.015 1.015 0 0021 1.104V3.5L23 5zM18.95 12H16l-1-1-1 1v3.65c.456.218.96.35 1.5.35a3.5 3.5 0 003.5-3.5c0-.171-.027-.335-.05-.5z"/><path fill="#FF8F6B" d="M15.5 9c-.54 0-1.045.135-1.5.354V12h2V9.05c-.165-.023-.329-.05-.5-.05z"/><path fill="#FFC7B5" d="M17.05 10.95H20A3.481 3.481 0 0017.05 8v2.95z"/><path fill="#C43E1C" d="M2 19h10a1 1 0 001-1V8a1 1 0 00-1-1H2a1 1 0 00-1 1v10a1 1 0 001 1z"/><path fill="#F9F7F7" d="M7.362 10c.71 0 1.01.16 1.385.48.378.322.566.786.566 1.395 0 .39-.005.905-.415 1.42-.328.412-.754.71-1.61.705H6v2H5v-6h2.362zM6 13h1.155c.39 0 .683-.087.882-.262.198-.173.298-.427.298-.763 0-.65-.381-.975-1.142-.975H6v2z"/></svg>