<svg xmlns="http://www.w3.org/2000/svg" viewBox="0 0 24 24"><path fill="#FFF" d="M7.5 22h13c.275 0 .5-.225.5-.5V7h-3.5c-.827 0-1.5-.673-1.5-1.5V2H7.5c-.275 0-.5.225-.5.5v19c0 .275.225.5.5.5z"/><path fill="#FFF" d="M20.293 6L17 2.707V5.5c0 .275.225.5.5.5h2.793z"/><path opacity=".64" fill="#605E5C" d="M21.56 5.854l-4.414-4.415A1.51 1.51 0 0016.086 1H7.5C6.673 1 6 1.673 6 2.5v19c0 .827.673 1.5 1.5 1.5h13c.827 0 1.5-.673 1.5-1.5V6.914c0-.4-.156-.777-.44-1.06zM17 2.707L20.293 6H17.5a.501.501 0 01-.5-.5V2.707zM20.5 22h-13a.501.501 0 01-.5-.5v-19c0-.275.225-.5.5-.5H16v3.5c0 .827.673 1.5 1.5 1.5H21v14.5c0 .275-.225.5-.5.5z"/><path fill="#C8C6C4" d="M12 17h7.5a.5.5 0 100-1H12v1zM12 19h7.5a.5.5 0 100-1H12v1z"/><path fill="none" stroke="#C8C6C4" stroke-miterlimit="10" d="M12.282 12.658l2.123-1.565M16.249 11.162l1.355 1.496"/><circle fill="none" stroke="#C8C6C4" stroke-miterlimit="10" cx="18.5" cy="13.5" r="1"/><circle fill="none" stroke="#C8C6C4" stroke-miterlimit="10" cx="15.5" cy="10.5" r="1"/><path fill="#F2C80F" d="M2 19h10a1 1 0 001-1V8a1 1 0 00-1-1H2a1 1 0 00-1 1v10a1 1 0 001 1z"/><path fill="#333" d="M8.5 10a.5.5 0 00-.5.5v5a.5.5 0 101 0v-5a.5.5 0 00-.5-.5zM6.5 11.5a.5.5 0 00-.5.5v3.5a.5.5 0 101 0V12a.5.5 0 00-.5-.5zM4.5 13a.5.5 0 00-.5.5v2a.5.5 0 101 0v-2a.5.5 0 00-.5-.5z"/></svg>