<svg xmlns="http://www.w3.org/2000/svg" viewBox="0 0 24 24"><path fill="#FFF" d="M3.5 19h17a.5.5 0 00.5-.5V10h-3.5c-.827 0-1.5-.673-1.5-1.5V5H3.5a.5.5 0 00-.5.5v13a.5.5 0 00.5.5z"/><path fill="#FFF" d="M20.293 9L17 5.707V8.5a.5.5 0 00.5.5h2.793z"/><path opacity=".64" fill="#605E5C" d="M21.56 8.854l-4.414-4.415A1.51 1.51 0 0016.086 4H3.5C2.673 4 2 4.673 2 5.5v13c0 .827.673 1.5 1.5 1.5h17c.827 0 1.5-.673 1.5-1.5V9.914c0-.4-.156-.777-.44-1.06zM17 5.707L20.293 9H17.5a.5.5 0 01-.5-.5V5.707zM20.5 19h-17a.5.5 0 01-.5-.5v-13a.5.5 0 01.5-.5H16v3.5c0 .827.673 1.5 1.5 1.5H21v8.5a.5.5 0 01-.5.5z"/><path fill="#C8C6C4" d="M9.5 11h-4a.5.5 0 010-1h4a.5.5 0 010 1zM9.5 13h-4a.5.5 0 010-1h4a.5.5 0 010 1zM9.5 15h-4a.5.5 0 010-1h4a.5.5 0 010 1zM9.5 17h-4a.5.5 0 010-1h4a.5.5 0 010 1z"/><path fill="#B7472A" d="M15 10a2 2 0 012 2h-2v-2z"/><path fill="#C8C6C4" d="M17 13a3.004 3.004 0 01-3.649 2.932 2.984 2.984 0 01-2.283-2.283A3.004 3.004 0 0114 9.999v3h3z"/></svg>