<svg xmlns="http://www.w3.org/2000/svg" viewBox="0 0 24 24"><path fill="#FFF" d="M20.25 3H7.03L3 7.03v13.22c0 .414.336.75.75.75h13.22L21 16.97V3.75a.75.75 0 00-.75-.75z"/><path opacity=".64" fill="#605E5C" d="M20.25 2H6.616L2 6.615V20.25c0 .967.783 1.75 1.75 1.75h13.634L22 17.384V3.75A1.75 1.75 0 0020.25 2zM3.75 21a.75.75 0 01-.75-.75V7.03L7.03 3h13.22a.75.75 0 01.75.75v13.22L16.97 21H3.75z"/><path fill-rule="evenodd" clip-rule="evenodd" fill="#ECCF35" d="M8.5 8h-2a.5.5 0 010-1h2a.5.5 0 010 1z"/><path fill-rule="evenodd" clip-rule="evenodd" fill="#FED912" d="M17.5 8h-6a.5.5 0 010-1h6a.5.5 0 010 1z"/><path fill-rule="evenodd" clip-rule="evenodd" fill="#E25A01" d="M8.5 11h-2a.5.5 0 010-1h2a.5.5 0 010 1z"/><path fill-rule="evenodd" clip-rule="evenodd" fill="#F18C0A" d="M17.5 11h-6a.5.5 0 010-1h6a.5.5 0 010 1z"/><path fill-rule="evenodd" clip-rule="evenodd" fill="#BF3207" d="M8.5 14h-2a.5.5 0 010-1h2a.5.5 0 010 1z"/><path fill-rule="evenodd" clip-rule="evenodd" fill="#D83B01" d="M17.5 14h-6a.5.5 0 010-1h6a.5.5 0 010 1z"/><path fill-rule="evenodd" clip-rule="evenodd" fill="#773C6E" d="M8.5 17h-2a.5.5 0 010-1h2a.5.5 0 010 1z"/><path fill-rule="evenodd" clip-rule="evenodd" fill="#974B8B" d="M17.5 17h-6a.5.5 0 010-1h6a.5.5 0 010 1z"/></svg>