<svg xmlns="http://www.w3.org/2000/svg" viewBox="0 0 24 24"><path fill="#FFF" d="M3.5 19h17a.5.5 0 00.5-.5V10h-3.5c-.827 0-1.5-.673-1.5-1.5V5H3.5a.5.5 0 00-.5.5v13a.5.5 0 00.5.5z"/><path fill="#FFF" d="M20.293 9L17 5.707V8.5a.5.5 0 00.5.5h2.793z"/><path fill="#217346" d="M8.5 11h-3a.5.5 0 010-1h3a.5.5 0 010 1zM8.5 9h-3a.5.5 0 010-1h3a.5.5 0 010 1zM8.5 13h-3a.5.5 0 010-1h3a.5.5 0 010 1zM8.5 15h-3a.5.5 0 010-1h3a.5.5 0 010 1zM8.5 17h-3a.5.5 0 010-1h3a.5.5 0 010 1z"/><path fill="#C8C6C4" d="M13.5 11h-3a.5.5 0 010-1h3a.5.5 0 010 1zM13.5 9h-3a.5.5 0 010-1h3a.5.5 0 010 1zM13.5 13h-3a.5.5 0 010-1h3a.5.5 0 010 1zM13.5 15h-3a.5.5 0 010-1h3a.5.5 0 010 1zM13.5 17h-3a.5.5 0 010-1h3a.5.5 0 010 1zM18.5 13h-3a.5.5 0 010-1h3a.5.5 0 010 1zM18.5 15h-3a.5.5 0 010-1h3a.5.5 0 010 1zM18.5 17h-3a.5.5 0 010-1h3a.5.5 0 010 1z"/><path opacity=".64" fill="#605E5C" d="M21.56 8.854l-4.414-4.415A1.51 1.51 0 0016.086 4H3.5C2.673 4 2 4.673 2 5.5v13c0 .827.673 1.5 1.5 1.5h17c.827 0 1.5-.673 1.5-1.5V9.914c0-.4-.156-.777-.44-1.06zM17 5.707L20.293 9H17.5a.5.5 0 01-.5-.5V5.707zM20.5 19h-17a.5.5 0 01-.5-.5v-13a.5.5 0 01.5-.5H16v3.5c0 .827.673 1.5 1.5 1.5H21v8.5a.5.5 0 01-.5.5z"/></svg>