<svg xmlns="http://www.w3.org/2000/svg" viewBox="0 0 24 24"><path fill="#FFF" d="M5.5 22h13c.275 0 .5-.225.5-.5V7h-3.5c-.827 0-1.5-.673-1.5-1.5V2H5.5c-.275 0-.5.225-.5.5v19c0 .275.225.5.5.5z"/><path fill="#FFF" d="M18.293 6L15 2.707V5.5c0 .275.225.5.5.5h2.793z"/><path opacity=".64" fill="#605E5C" d="M19.56 5.854l-4.414-4.415A1.51 1.51 0 0014.086 1H5.5C4.673 1 4 1.673 4 2.5v19c0 .827.673 1.5 1.5 1.5h13c.827 0 1.5-.673 1.5-1.5V6.914c0-.4-.156-.777-.44-1.06zM15 2.707L18.293 6H15.5a.501.501 0 01-.5-.5V2.707zM18.5 22h-13a.501.501 0 01-.5-.5v-19c0-.275.225-.5.5-.5H14v3.5c0 .827.673 1.5 1.5 1.5H19v14.5c0 .275-.225.5-.5.5z"/><path fill="#0078D7" d="M12.234 15.011l4.654 1.746a.173.173 0 01-.019.33l-2.226.556-.557 2.226a.173.173 0 01-.33.019l-1.745-4.654a.173.173 0 01.223-.223z"/><path fill="none" stroke="#C8C6C4" stroke-linecap="round" stroke-miterlimit="10" d="M9.5 11.5h5M8.5 12.5v5"/><circle fill="#0078D7" cx="8.5" cy="11.5" r="1.5"/><path fill="none" stroke="#0078D7" stroke-miterlimit="10" d="M7.5 17.5h2v2h-2zM14.5 10.5h2v2h-2z"/></svg>