<svg xmlns="http://www.w3.org/2000/svg" viewBox="0 0 24 24"><path fill="#FFF" d="M7.5 22h14c.275 0 .5-.225.5-.5V7h-3.5c-.827 0-1.5-.673-1.5-1.5V2H7.5c-.275 0-.5.225-.5.5v19c0 .275.225.5.5.5z"/><path fill="#FFF" d="M21.293 6L18 2.707V5.5c0 .275.225.5.5.5h2.793z"/><path opacity=".64" fill="#605E5C" d="M22.56 5.854l-4.414-4.415A1.51 1.51 0 0017.086 1H7.5C6.673 1 6 1.673 6 2.5v19c0 .827.673 1.5 1.5 1.5h14c.827 0 1.5-.673 1.5-1.5V6.914c0-.4-.156-.777-.44-1.06zM18 2.707L21.293 6H18.5a.501.501 0 01-.5-.5V2.707zM21.5 22h-14a.501.501 0 01-.5-.5v-19c0-.275.225-.5.5-.5H17v3.5c0 .827.673 1.5 1.5 1.5H22v14.5c0 .275-.225.5-.5.5z"/><path fill="#185ABD" d="M2 19h10a1 1 0 001-1V8a1 1 0 00-1-1H2a1 1 0 00-1 1v10a1 1 0 001 1z"/><path fill="#FFF" d="M6.689 13.97c.174.5.277.815.309.947h.021c.032-.132.144-.469.335-1.014L8.733 10H10l-2.336 6H6.306L4 10h1.306l1.383 3.97z"/><path fill="#185ABD" d="M16.5 16h-1v-1h1a.5.5 0 00.5-.5v-3h1v3a1.5 1.5 0 01-1.5 1.5z"/><path fill="#41A5EE" d="M14 14h2v4h-2z"/><path fill="#103F91" d="M15.5 11.5l2-2 2 2-2 2z"/></svg>