<svg xmlns="http://www.w3.org/2000/svg" viewBox="0 0 24 24"><path fill="#FFF" d="M20.84 1.84c.1.2.16.422.16.66v17c0 .827-.673 1.5-1.5 1.5H9v.5a.5.5 0 00.5.5h12a.5.5 0 00.5-.5V3.707l-.239-.239c.094-.144.182-.293.262-.446L20.84 1.841z"/><path fill="#FFF" d="M7.5 20h12a.5.5 0 00.5-.5v-17a.5.5 0 00-.5-.5h-12a.5.5 0 00-.5.5v17a.5.5 0 00.5.5z"/><path opacity=".64" fill="#605E5C" d="M22 4.016V21.5a.5.5 0 01-.5.5h-12a.5.5 0 01-.5-.5V21h10.5c.827 0 1.5-.673 1.5-1.5v-17c0-.827-.673-1.5-1.5-1.5h-12C6.673 1 6 1.673 6 2.5v17c0 .827.673 1.5 1.5 1.5H8v.5c0 .827.673 1.5 1.5 1.5h12c.827 0 1.5-.673 1.5-1.5V4.016h-1zM7 19.5v-17a.5.5 0 01.5-.5h12a.5.5 0 01.5.5v17a.5.5 0 01-.5.5h-12a.5.5 0 01-.5-.5z"/><path fill="#185ABD" d="M2 19h10a1 1 0 001-1V8a1 1 0 00-1-1H2a1 1 0 00-1 1v10a1 1 0 001 1z"/><path fill="#FFF" d="M6.689 13.97c.174.5.277.815.309.947h.021c.032-.132.144-.469.335-1.014L8.733 10H10l-2.336 6H6.306L4 10h1.306l1.383 3.97z"/><path fill="#41A5EE" d="M21 1.104A1.07 1.07 0 0020.586 1H7c-.55 0-1 .45-1 1v3h15V3.5l.5-.5V2l-.5-.896z"/><path fill="#2B7CD3" d="M23 5V3.414a1 1 0 00-.293-.707l-1.414-1.414A1.015 1.015 0 0021 1.104V3.5L23 5z"/><path fill="#185ABD" d="M16.5 16h-1v-1h1a.5.5 0 00.5-.5v-3h1v3a1.5 1.5 0 01-1.5 1.5z"/><path fill="#41A5EE" d="M14 14h2v4h-2z"/><path fill="#103F91" d="M15.5 11.5l2-2 2 2-2 2z"/></svg>