<svg xmlns="http://www.w3.org/2000/svg" viewBox="0 0 24 24"><path fill="#FFB900" d="M12 6l-1.268-1.268A2.5 2.5 0 008.964 4H2.5A1.5 1.5 0 001 5.5v13A1.5 1.5 0 002.5 20h19a1.5 1.5 0 001.5-1.5v-11A1.5 1.5 0 0021.5 6H12z"/><path fill="#FFD75E" d="M12 6l-1.268 1.268A2.5 2.5 0 018.964 8H1v10.5A1.5 1.5 0 002.5 20h19a1.5 1.5 0 001.5-1.5v-11A1.5 1.5 0 0021.5 6H12z"/><linearGradient id="a" gradientUnits="userSpaceOnUse" x1="12" y1="6" x2="12" y2="20"><stop offset="0" stop-color="#fff" stop-opacity="0"/><stop offset=".999" stop-color="#ffd75e" stop-opacity=".3"/></linearGradient><path fill="url(#a)" d="M12 6l-1.268 1.268A2.5 2.5 0 018.964 8H1v10.5A1.5 1.5 0 002.5 20h19a1.5 1.5 0 001.5-1.5v-11A1.5 1.5 0 0021.5 6H12z"/><path fill="#E67628" d="M2 19.5c-.286 0-.55-.084-.777-.223.263.432.734.723 1.277.723h19c.543 0 1.014-.291 1.277-.723A1.488 1.488 0 0122 19.5H2z"/><path opacity=".4" fill="#FFF" d="M11.129 7.621L12.75 6H12l-1.268 1.268A2.5 2.5 0 018.964 8H1v.5h8.007a3 3 0 002.122-.879z"/><path fill="#E67628" d="M2 19.5c-.286 0-.55-.084-.777-.223.263.432.734.723 1.277.723h19c.543 0 1.014-.291 1.277-.723A1.488 1.488 0 0122 19.5H2z"/><path fill="#BF5712" d="M12.5 15a.5.5 0 01-.5-.5v-2a.5.5 0 011 0v2a.5.5 0 01-.5.5zM14.5 15a.5.5 0 01-.5-.5v-2a.5.5 0 011 0v2a.5.5 0 01-.5.5zM16.5 15a.5.5 0 01-.5-.5v-2a.5.5 0 011 0v2a.5.5 0 01-.5.5zM18.5 15a.5.5 0 01-.5-.5v-2a.5.5 0 011 0v2a.5.5 0 01-.5.5zM20.5 15a.5.5 0 01-.5-.5v-2a.5.5 0 011 0v2a.5.5 0 01-.5.5zM22.5 15a.5.5 0 01-.5-.5v-2a.5.5 0 011 0v2a.5.5 0 01-.5.5zM10.5 11h-8a.5.5 0 00-.5.5v.5h.75a.25.25 0 01.25.25v2.5a.25.25 0 01-.25.25H2v.5a.5.5 0 00.5.5h8a.5.5 0 00.5-.5v-4a.5.5 0 00-.5-.5zm-.5 3.75a.25.25 0 01-.25.25h-2.5a.25.25 0 01-.25-.25v-2.5a.25.25 0 01.25-.25h2.5a.25.25 0 01.25.25v2.5zM1.75 15H1v-3h.75a.25.25 0 01.25.25v2.5a.25.25 0 01-.25.25z"/></svg>