<svg width="auto" height="auto" viewBox="0 0 65 67" fill="none" preserveAspectRatio="xMidYMid meet" xmlns="http://www.w3.org/2000/svg">
<ellipse cx="31.8666" cy="34.8561" rx="31.6721" ry="31.7029" fill="#99C9EE"/>
<path d="M24.0554 0H62.2879V18.2645C62.2879 29.2962 56.1229 39.3782 46.3577 44.3092C44.3505 45.3233 41.9928 45.3233 39.9856 44.3092C30.2204 39.3782 24.0554 29.2962 24.0554 18.2645V0Z" fill="#E1DFDD"/>
<path d="M30.2784 6.375V18.0837C30.2784 26.6422 35.068 34.34 42.785 38.1703C42.892 38.2234 43.0044 38.25 43.1221 38.25V6.375H30.2784Z" fill="#3393DD"/>
<path d="M55.9659 6.375V18.0837C55.9659 26.6422 51.1762 34.34 43.4593 38.1703C43.3523 38.2234 43.2399 38.25 43.1221 38.25V6.375H55.9659Z" fill="#66AEE5"/>
<path d="M43.1716 27.6743C38.7738 27.6743 35.2065 24.3101 35.2065 20.1626C35.2065 16.0151 38.7738 12.651 43.1716 12.651" fill="#EFEFEF"/>
<path d="M43.1719 27.6743C47.5698 27.6743 51.1371 24.3101 51.1371 20.1626C51.1371 16.0151 47.5698 12.651 43.1719 12.651" fill="#FAF9F8"/>
<path d="M47.938 17.6645C47.938 17.4361 47.847 17.2236 47.6865 17.0589L47.344 16.7189C47.0175 16.3948 46.4556 16.3948 46.1292 16.7189L43.1216 19.7045L42.7577 21.5745L43.1216 22.8017L47.6865 18.2701C47.847 18.1055 47.938 17.893 47.938 17.6645Z" fill="#66AEE5"/>
<path d="M41.6505 21.1656L40.1146 19.6408C39.7881 19.3168 39.2262 19.3221 38.9051 19.6408L38.5572 19.9862C38.3967 20.1455 38.3057 20.3634 38.3057 20.5865C38.3057 20.8096 38.3967 21.0274 38.5572 21.1868L41.6505 24.2574L43.1221 22.7965V19.6993L41.6505 21.1656Z" fill="#3393DD"/>
<path d="M24.0554 0H62.2879V18.2645C62.2879 29.2962 56.1229 39.3782 46.3577 44.3092C44.3505 45.3233 41.9928 45.3233 39.9856 44.3092C30.2204 39.3782 24.0554 29.2962 24.0554 18.2645V0Z" fill="#E1DFDD"/>
<path d="M30.2784 6.375V18.0837C30.2784 26.6422 35.068 34.34 42.785 38.1703C42.892 38.2234 43.0044 38.25 43.1221 38.25V6.375H30.2784Z" fill="#3393DD"/>
<path d="M55.9659 6.375V18.0837C55.9659 26.6422 51.1762 34.34 43.4593 38.1703C43.3523 38.2234 43.2399 38.25 43.1221 38.25V6.375H55.9659Z" fill="#66AEE5"/>
<path d="M43.1716 27.6743C38.7738 27.6743 35.2065 24.3101 35.2065 20.1626C35.2065 16.0151 38.7738 12.651 43.1716 12.651" fill="#EFEFEF"/>
<path d="M43.1719 27.6743C47.5698 27.6743 51.1371 24.3101 51.1371 20.1626C51.1371 16.0151 47.5698 12.651 43.1719 12.651" fill="#FAF9F8"/>
<mask id="mask0" mask-type="alpha" maskUnits="userSpaceOnUse" x="0" y="3" width="64" height="64">
<ellipse cx="31.6721" cy="35.1528" rx="31.6721" ry="31.7029" fill="#99C9EE"/>
</mask>
<g mask="url(#mask0)">
<path d="M30.0893 68.2968C30.0893 68.2968 33.2413 60.939 33.2413 54.6384L27.0389 54.5587L19.627 59.5578L22.6559 68.2915H30.0893V68.2968Z" fill="url(#paint0_linear)"/>
<path d="M12.9588 55.7541C12.9588 59.0319 15.1369 68.2969 15.1369 68.2969H22.6558L22.5916 60.1688C22.5916 60.1688 25.6848 58.4688 26.8193 56.3491L27.0655 54.3516L12.9641 54.5641V55.7541H12.9588Z" fill="#EFEFEF"/>
</g>
<path d="M22.656 9.9021C16.6836 9.9021 15.8541 15.289 15.8702 17.3874C15.9183 23.0771 10.1279 21.4408 10.1279 25.7174C10.1279 28.5968 11.819 33.5055 22.7202 33.3993C31.1542 33.3143 32.2246 31.1893 32.2246 26.9393C32.2246 24.4743 28.8049 22.6043 28.8049 20.7396C28.8049 18.8749 29.5488 19.0555 29.5488 16.9996C29.5488 14.9437 28.5641 9.9021 22.656 9.9021Z" fill="#3A312E"/>
<path d="M17.7006 25.9777H27.0605V55.9508H18.2251L17.7006 25.9777Z" fill="white"/>
<path d="M36.5057 57.7518C36.5057 36.2202 34.0654 31.3009 29.7467 26.2062L28.0717 33.633L32.674 57.6084L36.5057 57.7518Z" fill="url(#paint1_radial)"/>
<path d="M20.4937 22.0568C20.4937 23.3106 20.3707 24.9043 19.4341 24.9043C18.4976 24.9043 18.321 27.3268 22.4952 27.3268C26.6695 27.3268 26.3751 24.9043 25.7222 24.9043C25.0693 24.9043 24.7482 24.3518 24.7482 22.4446C24.7482 15.4587 20.4937 15.6765 20.4937 22.0568Z" fill="url(#paint2_linear)"/>
<path d="M25.7224 24.9044C28.8691 25.0532 32.048 26.5938 31.6305 31.6407C30.6298 43.7532 34.8201 49.2941 34.8201 54.1923C34.8201 56.3704 34.0387 57.2416 34.0387 57.2416L26.1987 56.0516L25.7224 24.9044Z" fill="#B3AFAB"/>
<path d="M11.9101 55.5682C11.9101 43.9975 7.39343 25.7385 19.4344 24.9044L19.9803 56.7369L12.8627 56.8644L11.9101 55.5682Z" fill="url(#paint3_radial)"/>
<path d="M34.4348 51.5838L36.3346 57.2469C36.4256 57.5232 36.2757 57.826 35.9974 57.9163L30.5924 59.7066C30.3141 59.7969 30.009 59.6482 29.9181 59.3719L29.1849 57.1938C29.0939 56.9175 28.7889 56.7635 28.5106 56.8591L26.3165 57.5869C26.0382 57.6772 25.7331 57.5285 25.6422 57.2522L24.909 55.0741C24.818 54.7979 24.513 54.6438 24.2347 54.7394L22.0406 55.4672C21.7623 55.5575 21.4572 55.4088 21.3663 55.1325L20.6331 52.9544C20.5421 52.6782 20.2371 52.5241 19.9588 52.6197L17.465 53.4432C17.3312 53.4857 17.1813 53.475 17.0583 53.4166L9.17005 49.5013C8.90783 49.3685 8.8008 49.0497 8.92924 48.7894L12.7342 41.2404C12.868 40.98 13.1891 40.8738 13.4513 41.0013L34.1833 51.2916C34.2956 51.3394 34.392 51.451 34.4348 51.5838Z" fill="#FFC733"/>
<path d="M14.0174 43.9372L12.9476 46.0612L30.0735 54.5616L31.1433 52.4377L14.0174 43.9372Z" fill="#FFB900"/>
<path d="M34.9647 57.1885C34.9112 57.1354 34.6918 57.0823 34.6383 57.1885C34.6383 57.1885 34.6383 57.2416 34.6918 57.2948C34.7988 57.5126 34.9647 57.7304 35.0771 57.9429C35.1306 58.1076 35.1306 58.2138 34.9701 58.1607C34.6436 58.1607 34.2583 58.0545 33.9319 57.8366C33.6054 57.672 33.3271 57.4595 33.0007 57.2948C32.8937 57.2416 32.7813 57.1885 32.6742 57.2948C32.6742 57.2948 32.6743 57.2948 32.6207 57.3479C32.6207 57.3479 32.6207 57.3479 32.6207 57.401C32.6743 57.5073 32.7278 57.6188 32.7278 57.7251C32.6207 57.6719 32.1284 57.1832 32.016 57.3479C31.9625 57.4542 32.123 57.6719 32.3425 57.8898C32.016 57.6719 31.6307 57.3479 31.5772 57.4542C31.4701 57.672 32.3425 58.5379 32.8883 58.862H32.9418C32.9418 58.862 33.1612 58.9682 33.4342 59.1329C35.7889 60.052 36.5113 57.741 36.5113 57.741L36.2544 57.7304L36.2437 57.741C36.1314 57.8048 35.1253 57.2948 34.9647 57.1885Z" fill="#DFBA95"/>
<path d="M23.2072 23.784C25.9559 23.784 28.1841 21.0155 28.1841 17.6003C28.1841 14.1851 25.9559 11.4165 23.2072 11.4165C20.4585 11.4165 18.2302 14.1851 18.2302 17.6003C18.2302 21.0155 20.4585 23.784 23.2072 23.784Z" fill="#BF8F68"/>
<path d="M24.2293 21.4408C25.1928 21.4408 25.9739 20.6654 25.9739 19.7089C25.9739 18.7524 25.1928 17.9771 24.2293 17.9771C23.2658 17.9771 22.4847 18.7524 22.4847 19.7089C22.4847 20.6654 23.2658 21.4408 24.2293 21.4408Z" fill="url(#paint4_radial)"/>
<path d="M24.299 16.7284C24.299 18.1947 25.3479 19.1297 25.3479 19.6715C25.3479 20.2134 24.8074 20.5322 24.3578 20.5322C23.9083 20.5322 24.2455 21.6637 24.2455 21.6637L20.494 21.6531L20.5582 15.5916H24.299V16.7284Z" fill="#BF8F68"/>
<path d="M22.9931 21.0955C22.6131 20.8192 22.4633 21.8976 23.646 22.0411C24.8287 22.1845 24.9196 21.3664 24.5664 21.4408C24.2079 21.5098 23.4694 21.4461 22.9931 21.0955Z" fill="#BF8F67"/>
<path d="M22.4043 18.9015C22.6023 18.9015 22.7629 18.5852 22.7629 18.195C22.7629 17.8048 22.6023 17.4884 22.4043 17.4884C22.2063 17.4884 22.0458 17.8048 22.0458 18.195C22.0458 18.5852 22.2063 18.9015 22.4043 18.9015Z" fill="#33312D"/>
<path d="M26.4879 18.9015C26.6859 18.9015 26.8464 18.5852 26.8464 18.195C26.8464 17.8048 26.6859 17.4884 26.4879 17.4884C26.2899 17.4884 26.1293 17.8048 26.1293 18.195C26.1293 18.5852 26.2899 18.9015 26.4879 18.9015Z" fill="#33312D"/>
<path d="M18.252 18.078C22.6778 18.078 25.3536 13.7749 25.3536 13.7749C25.3536 13.7749 25.6479 17.5999 28.1845 17.5999C30.7212 17.5999 27.7671 10.8105 23.3681 10.8105C18.9691 10.8105 17.3369 15.0765 17.3369 17.7062L18.252 18.078Z" fill="#3A312E"/>
<path d="M18.2518 18.0778C17.4812 18.0778 16.855 18.6993 16.855 19.4643C16.855 20.2293 17.4812 20.8509 18.2518 20.8509H20.2265V18.0831H18.2518V18.0778Z" fill="#BF8F68"/>
<path d="M10.8182 34.3767C4.9047 34.3767 0.115051 39.1314 0.115051 45.0017C0.115051 50.872 4.9047 55.6267 10.8182 55.6267C16.7317 55.6267 21.5213 50.872 21.5213 45.0017C21.5213 39.1314 16.7317 34.3767 10.8182 34.3767ZM6.53693 46.0642C4.76556 46.0642 3.32599 44.6351 3.32599 42.8767C3.32599 41.1183 4.76556 39.6892 6.53693 39.6892C8.3083 39.6892 9.74787 41.1183 9.74787 42.8767C9.74787 44.6351 8.3083 46.0642 6.53693 46.0642Z" fill="#FFC733"/>
<path d="M10.8182 36.5017C6.08739 36.5017 2.25568 40.3055 2.25568 45.0017C2.25568 49.698 6.08739 53.5017 10.8182 53.5017C15.549 53.5017 19.3807 49.698 19.3807 45.0017C19.3807 40.3055 15.549 36.5017 10.8182 36.5017ZM6.53693 45.0017C5.35423 45.0017 4.3963 44.0508 4.3963 42.8767C4.3963 41.7026 5.35423 40.7517 6.53693 40.7517C7.71962 40.7517 8.67755 41.7026 8.67755 42.8767C8.67755 44.0455 7.71962 45.0017 6.53693 45.0017Z" fill="url(#paint5_linear)"/>
<path d="M14.902 26.3653C10.9472 28.7931 7.03516 33.4363 7.03516 40.8154C7.03516 48.1944 10.9472 55.6213 10.9472 55.6213L13.2644 54.6385C13.2644 54.6385 11.5626 44.2525 11.5626 40.8154C11.5626 37.3782 15.7261 34.3766 17.2138 33.33C20.992 30.6791 18.1664 24.3572 14.902 26.3653Z" fill="#B3AFAB"/>
<path d="M13.2638 54.6385C14.9067 54.7926 15.1208 55.0264 14.8639 55.0901C14.607 55.1592 13.9755 55.2389 13.9274 55.3186C13.8792 55.3982 14.2378 55.8711 14.0076 56.0517C13.7775 56.2323 12.4396 57.4276 11.257 56.1685C10.0743 54.9148 12.5681 54.5748 13.2638 54.6385Z" fill="#DFBA95"/>
<path d="M18.9197 20.6129C18.941 20.1573 18.5893 19.7706 18.1341 19.7493C17.679 19.728 17.2927 20.08 17.2713 20.5356C17.25 20.9912 17.6017 21.3779 18.0569 21.3992C18.5121 21.4206 18.8984 21.0685 18.9197 20.6129Z" fill="#FFC01B"/>
<path d="M47.938 17.6645C47.938 17.4361 47.847 17.2236 47.6865 17.0589L47.344 16.7189C47.0175 16.3948 46.4556 16.3948 46.1292 16.7189L43.1216 19.7045L42.7577 21.5745L43.1216 22.8017L47.6865 18.2701C47.847 18.1055 47.938 17.893 47.938 17.6645Z" fill="#66AEE5"/>
<path d="M41.6505 21.1656L40.1146 19.6408C39.7881 19.3168 39.2262 19.3221 38.9051 19.6408L38.5572 19.9862C38.3967 20.1455 38.3057 20.3634 38.3057 20.5865C38.3057 20.8096 38.3967 21.0274 38.5572 21.1868L41.6505 24.2574L43.1221 22.7965V19.6993L41.6505 21.1656Z" fill="#3393DD"/>
<defs>
<linearGradient id="paint0_linear" x1="19.6266" y1="61.4293" x2="33.2377" y2="61.4293" gradientUnits="userSpaceOnUse">
<stop stop-color="#E1DFDD"/>
<stop offset="1" stop-color="#EFEFEF"/>
</linearGradient>
<radialGradient id="paint1_radial" cx="0" cy="0" r="1" gradientUnits="userSpaceOnUse" gradientTransform="translate(17.9604 40.946) scale(17.3202 17.1938)">
<stop stop-color="#797673"/>
<stop offset="1" stop-color="#B3AFAB"/>
</radialGradient>
<linearGradient id="paint2_linear" x1="22.4911" y1="27.3293" x2="22.4911" y2="17.2392" gradientUnits="userSpaceOnUse">
<stop stop-color="#BF8F68"/>
<stop offset="0.9987" stop-color="#986D4A"/>
</linearGradient>
<radialGradient id="paint3_radial" cx="0" cy="0" r="1" gradientUnits="userSpaceOnUse" gradientTransform="translate(3.92727 50.838) scale(21.8982 21.7383)">
<stop stop-color="#797673"/>
<stop offset="1" stop-color="#B3AFAB"/>
</radialGradient>
<radialGradient id="paint4_radial" cx="0" cy="0" r="1" gradientUnits="userSpaceOnUse" gradientTransform="translate(24.2318 19.7087) scale(1.74316 1.73043)">
<stop offset="0.00125628" stop-color="#8C6545"/>
<stop offset="1" stop-color="#BF8F68"/>
</radialGradient>
<linearGradient id="paint5_linear" x1="3.40155" y1="40.7487" x2="18.1803" y2="49.3439" gradientUnits="userSpaceOnUse">
<stop stop-color="#FFC733"/>
<stop offset="1" stop-color="#FFB900"/>
</linearGradient>
</defs>
</svg>
