<svg width="auto" height="auto" viewBox="0 0 32 32" fill="none" preserveAspectRatio="xMidYMid meet" xmlns="http://www.w3.org/2000/svg">
    <circle cx="16" cy="16" r="16" fill="#99C9EE"/>
    <path d="M22 10.9993C22 7.67399 19.3257 5 16 5C12.6743 5 10 7.67399 10 10.9993C10 13.5362 11.6114 15.7988 14.0114 16.6559V23.4094C14.0114 24.0607 14.1829 24.6778 14.5257 25.2606L15.4857 26.9404C15.6571 27.249 16.0686 27.3518 16.3771 27.1804C16.48 27.1118 16.5486 27.0433 16.5829 26.9747L18.9486 23.2723L17.9886 22.141L18.9486 21.0097L17.9886 19.8784L18.9486 18.7471L17.9886 17.6157V16.6216C20.3886 15.7988 22 13.5362 22 10.9993Z" fill="#FFC733"/>
    <path d="M12.0572 8.49609C10.6858 10.6559 11.3715 13.5355 13.5315 14.9068C15.6915 16.2781 18.5715 15.5925 19.9429 13.4327C20.8686 11.9243 20.8686 10.0388 19.9429 8.53038H12.0572V8.49609Z" fill="url(#paint0_linear)"/>
    <path d="M15.9999 9.93776C16.9278 9.93776 17.6799 9.18568 17.6799 8.25794C17.6799 7.3302 16.9278 6.57812 15.9999 6.57812C15.0721 6.57812 14.3199 7.3302 14.3199 8.25794C14.3199 9.18568 15.0721 9.93776 15.9999 9.93776Z" fill="white"/>
    <path d="M16.0002 16.8242C16.2059 16.8242 16.3773 16.9956 16.3773 17.2013V23.9206C16.3773 24.1263 16.2059 24.2977 16.0002 24.2977C15.7945 24.2977 15.623 24.1263 15.623 23.9206V17.2013C15.6573 16.9613 15.7945 16.8242 16.0002 16.8242Z" fill="url(#paint1_linear)"/>
    <defs>
        <linearGradient id="paint0_linear" x1="16.0136" y1="8.50159" x2="16.0136" y2="15.6013" gradientUnits="userSpaceOnUse">
            <stop stop-color="#FFC733"/>
            <stop offset="0.94" stop-color="#FFB900"/>
        </linearGradient>
        <linearGradient id="paint1_linear" x1="16.0174" y1="16.8378" x2="16.0174" y2="24.2858" gradientUnits="userSpaceOnUse">
            <stop stop-color="#FFB900"/>
            <stop offset="0.94" stop-color="#FFB900"/>
        </linearGradient>
    </defs>
</svg>
