<svg viewBox="0 0 20 20" fill="none" xmlns="http://www.w3.org/2000/svg">
<path d="M18.25 0H1.75C0.75 0 0 0.75 0 1.75V4.75C0 5.875 0.625 6.75 1.5 7.25L7.75 10.5C6.125 11.375 5 13 5 15C5 17.75 7.25 20 10 20C12.75 20 15 17.75 15 15C15 13 13.875 11.375 12.25 10.5L18.5 7.25C19.375 6.75 20 5.75 20 4.75V1.75C20 0.75 19.25 0 18.25 0ZM13.5 15C13.5 16.875 11.875 18.5 10 18.5C8.125 18.5 6.5 16.875 6.5 15C6.5 13.125 8.125 11.5 10 11.5C11.875 11.5 13.5 13.125 13.5 15ZM14 7.875L10.125 9.875C10 10 10 10 9.875 9.875L6 7.875V1.5H14V7.875Z" fill="#2279C2"/>
<path d="M6 7.875L9.875 9.875C10 10 10 10 10.125 9.875L14 7.875V1.5H6V7.875Z" fill="#4FAEE7"/>
</svg>
