<svg xmlns="http://www.w3.org/2000/svg" fill="none" viewBox="0 0 16 16">
  <g clip-path="url(#clip0_3782_40624)">
    <path fill="#fff" d="M2 12V5h12v1.239a3.485 3.485 0 001 .362V4a3 3 0 00-3-3H4a3 3 0 00-3 3v8a3 3 0 003 3h4.51a5.212 5.212 0 01-.675-1H4a2 2 0 01-2-2zM4 2h8a2 2 0 012 2H2a2 2 0 012-2z"/>
    <path fill="#fff" d="M15.6 7.667a.405.405 0 01.392.333L16 10.585a5.29 5.29 0 01-3.873 5.394.385.385 0 01-.253 0C8.815 14.917 8.248 13.056 8 10.585V8.082a.409.409 0 01.4-.416 4.497 4.497 0 003.318-1.545.388.388 0 01.566 0A4.502 4.502 0 0015.6 7.667z"/>
  </g>
  <defs>
    <clipPath id="clip0_3782_40624">
      <path fill="#fff" d="M0 0h16v16H0z"/>
    </clipPath>
  </defs>
</svg>
