<svg xmlns="http://www.w3.org/2000/svg" fill="none" viewBox="0 0 16 16">
  <g clip-path="url(#clip0_8444_129305)">
    <path fill="#fff" d="M4 3.995V9a2 2 0 002 2h1v1a1 1 0 00-1 1H5a1 1 0 00-1 1H.5a.5.5 0 000 1H4a1 1 0 001 1h5a1 1 0 001-1h3.5c.14 0 .265-.057.356-.149L14.005 14H11a1 1 0 00-1-1H9a1 1 0 00-1-1v-1h1c.553 0 1.054-.225 1.416-.588l-.707-.707A.997.997 0 019 10H6a1 1 0 01-1-1V4.995l-1-1zM6.5 14a.5.5 0 00.5-.5V13h1v.5a.5.5 0 00.5.5H10v1H5v-1h1.5zM10 7.874V2a1 1 0 00-1-1H6a1 1 0 00-1 1v.874l-.996-.996A2 2 0 016 0h3a2 2 0 012 2v6.874l-1-1z"/>
    <path fill="#fff" d="M6.972 6.967a.75.75 0 101.06 1.06l-1.06-1.06z"/>
    <path fill="#fff" d="M.151.146a.5.5 0 01.707 0l15 15a.5.5 0 01-.707.708l-15-15a.5.5 0 010-.708z"/>
  </g>
  <defs>
    <clipPath id="clip0_8444_129305">
      <path fill="#fff" d="M0 0h16v16H0z"/>
    </clipPath>
  </defs>
</svg>
