<svg xmlns="http://www.w3.org/2000/svg" fill="none" viewBox="0 0 16 16">
  <path fill="#fff" d="M6.5 5.5a1 1 0 11-2 0 1 1 0 012 0zM10.5 6.5a1 1 0 100-2 1 1 0 000 2z"/>
  <path fill="#fff" d="M1 4a3 3 0 013-3h8a3 3 0 013 3v3.464a3 3 0 01-.879 2.122L9.586 14.12A3 3 0 017.464 15H4a3 3 0 01-3-3V4zm3-2a2 2 0 00-2 2v8a2 2 0 002 2h3.464c.183 0 .363-.025.536-.073v-2.302c-1.95 0-3.239-1.156-3.604-1.521a.5.5 0 01.708-.708c.301.302 1.346 1.229 2.896 1.229h.023A3 3 0 0111 8h2.927c.048-.173.073-.353.073-.536V4a2 2 0 00-2-2H4zm9.293 7H11a2 2 0 00-2 2v2.293L13.293 9z"/>
</svg>
