<svg viewBox="0 0 16 16" fill="none" xmlns="http://www.w3.org/2000/svg">
<path d="M13.0391 1C13.2995 1 13.5469 1.05469 13.7812 1.16406C14.0208 1.26823 14.2292 1.41146 14.4062 1.59375C14.5885 1.77083 14.7318 1.97917 14.8359 2.21875C14.9453 2.45312 15 2.70052 15 2.96094V11.0391C15 11.2943 14.9479 11.5417 14.8438 11.7812C14.7396 12.0156 14.5964 12.224 14.4141 12.4062C14.237 12.5833 14.0312 12.7266 13.7969 12.8359C13.5625 12.9453 13.3177 13 13.0625 13H13V13.0391C13 13.2995 12.9453 13.5495 12.8359 13.7891C12.7318 14.0234 12.5885 14.2318 12.4062 14.4141C12.2292 14.5911 12.0208 14.7344 11.7812 14.8438C11.5469 14.9479 11.2995 15 11.0391 15H3.9375C3.54688 15 3.17188 14.9219 2.8125 14.7656C2.45833 14.6042 2.14583 14.3906 1.875 14.125C1.60938 13.8542 1.39583 13.5417 1.23438 13.1875C1.07812 12.8281 1 12.4531 1 12.0625V5C1 4.74479 1.04948 4.4974 1.14844 4.25781C1.2526 4.01302 1.39323 3.79948 1.57031 3.61719C1.7474 3.42969 1.95312 3.28125 2.1875 3.17188C2.42188 3.05729 2.67188 3 2.9375 3H3V2.96094C3 2.70052 3.05208 2.45312 3.15625 2.21875C3.26562 1.97917 3.40885 1.77083 3.58594 1.59375C3.76823 1.41146 3.97656 1.26823 4.21094 1.16406C4.45052 1.05469 4.70052 1 4.96094 1H13.0391ZM14 3C14 2.86458 13.974 2.73698 13.9219 2.61719C13.8698 2.49219 13.7969 2.38542 13.7031 2.29688C13.6146 2.20312 13.5078 2.13021 13.3828 2.07812C13.263 2.02604 13.1354 2 13 2H5C4.85938 2 4.72917 2.02604 4.60938 2.07812C4.48958 2.13021 4.38281 2.20312 4.28906 2.29688C4.20052 2.38542 4.13021 2.48958 4.07812 2.60938C4.02604 2.72917 4 2.85938 4 3V11C4 11.1406 4.02604 11.2734 4.07812 11.3984C4.13021 11.5182 4.20052 11.6224 4.28906 11.7109C4.3776 11.7995 4.48177 11.8698 4.60156 11.9219C4.72656 11.974 4.85938 12 5 12H13C13.1406 12 13.2708 11.974 13.3906 11.9219C13.5104 11.8698 13.6146 11.7995 13.7031 11.7109C13.7969 11.6172 13.8698 11.5104 13.9219 11.3906C13.974 11.2708 14 11.1406 14 11V3ZM12 13H4.96094C4.6901 13 4.4349 12.9453 4.19531 12.8359C3.96094 12.7266 3.75521 12.5807 3.57812 12.3984C3.40104 12.2161 3.26042 12.0052 3.15625 11.7656C3.05208 11.5208 3 11.2656 3 11V4C2.85938 4 2.72917 4.02604 2.60938 4.07812C2.48958 4.13021 2.38281 4.20312 2.28906 4.29688C2.20052 4.38542 2.13021 4.48958 2.07812 4.60938C2.02604 4.72917 2 4.85938 2 5V12.0391C2 12.2995 2.05208 12.5495 2.15625 12.7891C2.26562 13.0234 2.40885 13.2318 2.58594 13.4141C2.76823 13.5911 2.97656 13.7344 3.21094 13.8438C3.45052 13.9479 3.70052 14 3.96094 14H11C11.1406 14 11.2708 13.974 11.3906 13.9219C11.5104 13.8698 11.6146 13.7995 11.7031 13.7109C11.7969 13.6172 11.8698 13.5104 11.9219 13.3906C11.974 13.2708 12 13.1406 12 13Z" fill="white"/>
<path d="M11.8516 4.14844C11.7526 4.04948 11.6354 4 11.5 4H7.5C7.36458 4 7.2474 4.04948 7.14844 4.14844C7.04948 4.2474 7 4.36458 7 4.5C7 4.63542 7.04948 4.7526 7.14844 4.85156C7.2474 4.95052 7.36458 5 7.5 5H10.2969L6.14844 9.14844C6.04948 9.2474 6 9.36458 6 9.5C6 9.63542 6.04948 9.7526 6.14844 9.85156C6.2474 9.95052 6.36458 10 6.5 10C6.63542 10 6.7526 9.95052 6.85156 9.85156L11 5.70312V8.5C11 8.63542 11.0495 8.7526 11.1484 8.85156C11.2474 8.95052 11.3646 9 11.5 9C11.6354 9 11.7526 8.95052 11.8516 8.85156C11.9505 8.7526 12 8.63542 12 8.5V4.5C12 4.36458 11.9505 4.2474 11.8516 4.14844Z" fill="white"/>
</svg>
