<svg xmlns="http://www.w3.org/2000/svg" fill="none" viewBox="0 0 16 16">
  <g clip-path="url(#clip0_8439_116707)">
    <path fill="#fff" fill-rule="evenodd" d="M3.764 15c.55.614 1.348 1 2.236 1h6a4 4 0 004-4V6c0-.888-.386-1.687-1-2.236V12a3 3 0 01-3 3H3.764z" clip-rule="evenodd"/>
    <path fill="#fff" fill-rule="evenodd" d="M1 4a3 3 0 013-3h7a3 3 0 013 3v7a3 3 0 01-3 3H4a3 3 0 01-3-3V4zm3-2a2 2 0 00-2 2v7a2 2 0 002 2h7a2 2 0 002-2V4a2 2 0 00-2-2H4z" clip-rule="evenodd"/>
    <path fill="#fff" fill-rule="evenodd" d="M4 7.5a.5.5 0 01.5-.5h6a.5.5 0 010 1h-6a.5.5 0 01-.5-.5z" clip-rule="evenodd"/>
  </g>
  <defs>
    <clipPath id="clip0_8439_116707">
      <path fill="#fff" d="M0 0h16v16H0z"/>
    </clipPath>
  </defs>
</svg>
