<svg xmlns="http://www.w3.org/2000/svg" fill="none" viewBox="0 0 16 16">
  <path fill="#fff" d="M5.5 9A1.5 1.5 0 017 10.5v3A1.5 1.5 0 015.5 15h-3A1.5 1.5 0 011 13.5v-3A1.5 1.5 0 012.5 9h3zm8 0a1.5 1.5 0 011.5 1.5v3a1.5 1.5 0 01-1.5 1.5h-3A1.5 1.5 0 019 13.5v-3A1.5 1.5 0 0110.5 9h3zm-8 1h-3a.5.5 0 00-.5.5v3a.5.5 0 00.5.5h3a.5.5 0 00.5-.5v-3a.5.5 0 00-.5-.5zm8 0h-3a.5.5 0 00-.5.5v3a.5.5 0 00.5.5h3a.5.5 0 00.5-.5v-3a.5.5 0 00-.5-.5zm-8-9A1.5 1.5 0 017 2.5v3A1.5 1.5 0 015.5 7h-3A1.5 1.5 0 011 5.5v-3A1.5 1.5 0 012.5 1h3zm8 0A1.5 1.5 0 0115 2.5v3A1.5 1.5 0 0113.5 7h-3A1.5 1.5 0 019 5.5v-3A1.5 1.5 0 0110.5 1h3zm-8 1h-3a.5.5 0 00-.5.5v3a.5.5 0 00.5.5h3a.5.5 0 00.5-.5v-3a.5.5 0 00-.5-.5zm8 0h-3a.5.5 0 00-.5.5v3a.5.5 0 00.5.5h3a.5.5 0 00.5-.5v-3a.5.5 0 00-.5-.5z"/>
</svg>
