<svg xmlns="http://www.w3.org/2000/svg" fill="none" viewBox="0 0 16 16">
  <path fill="#fff" d="M7.5 7a.5.5 0 01.5.5v3a.5.5 0 01-1 0v-3a.5.5 0 01.5-.5z"/>
  <path fill="#fff" d="M0 4a2 2 0 012-2h11a2 2 0 012 2v2a2 2 0 01-2 2H2a2 2 0 01-2-2V4zm2-1a1 1 0 00-1 1v2a1 1 0 001 1h11a1 1 0 001-1V4a1 1 0 00-1-1H2z"/>
  <path fill="#fff" d="M12 4.75a.75.75 0 11-1.5 0 .75.75 0 011.5 0zM0 12.5a.5.5 0 01.5-.5h4a.5.5 0 010 1h-4a.5.5 0 01-.5-.5zM10 12.5a.5.5 0 01.5-.5h4a.5.5 0 010 1h-4a.5.5 0 01-.5-.5z"/>
  <path fill="#fff" d="M6 11a1 1 0 011-1h1a1 1 0 011 1h1a1 1 0 011 1v1a1 1 0 01-1 1H5a1 1 0 01-1-1v-1a1 1 0 011-1h1zm2 0H7v.5a.5.5 0 01-.5.5H5v1h5v-1H8.5a.5.5 0 01-.5-.5V11z"/>
</svg>
