<svg xmlns="http://www.w3.org/2000/svg" fill="none" viewBox="0 0 16 16">
  <g clip-path="url(#clip0_5150_85564)">
    <path fill="#fff" d="M9.68 7H14a1 1 0 011 1v2a1 1 0 01-1 1H2a1 1 0 01-1-1v-.938a5.784 5.784 0 01-1-.982V10a2 2 0 002 2h12a2 2 0 002-2V8a2 2 0 00-2-2h-3.948c-.093.347-.219.682-.373 1z"/>
    <path fill="#fff" d="M13 8.75a.75.75 0 11-1.5 0 .75.75 0 011.5 0zM0 4.5a4.5 4.5 0 119 0 4.5 4.5 0 01-9 0zm6.898.398a.563.563 0 000-.796l-2-2a.563.563 0 00-.796 0l-2 2a.563.563 0 00.796.796L4 3.796V6.5a.5.5 0 001 0V3.796l1.102 1.102c.22.22.576.22.796 0z"/>
  </g>
  <defs>
    <clipPath id="clip0_5150_85564">
      <path fill="#fff" d="M0 0h16v16H0z"/>
    </clipPath>
  </defs>
</svg>
