<svg  viewBox="0 0 16 16" fill="none" xmlns="http://www.w3.org/2000/svg">
<path d="M11.1357 3.69336C11.1357 4.1263 11.113 4.55697 11.0674 4.98535C11.0173 5.41829 10.9352 5.8444 10.8213 6.26367C10.9489 6.25911 11.0765 6.25456 11.2041 6.25C11.3271 6.25 11.4525 6.25 11.5801 6.25C11.9036 6.25 12.2135 6.30469 12.5098 6.41406C12.8014 6.52344 13.0589 6.67611 13.2822 6.87207C13.501 7.07259 13.6764 7.30957 13.8086 7.58301C13.9362 7.861 14 8.16862 14 8.50586C14 8.65169 13.9863 8.79753 13.959 8.94336L13.4121 11.999C13.3346 12.432 13.1888 12.8307 12.9746 13.1953C12.7559 13.5645 12.4893 13.8812 12.1748 14.1455C11.8558 14.4144 11.498 14.624 11.1016 14.7744C10.7051 14.9248 10.2858 15 9.84375 15C9.68424 15 9.52474 14.9886 9.36523 14.9658C9.20573 14.943 9.0485 14.9111 8.89355 14.8701L4.38867 13.626C4.20638 13.5758 4.03548 13.5007 3.87598 13.4004C3.71647 13.3001 3.5752 13.1816 3.45215 13.0449C3.32454 12.9128 3.21745 12.7624 3.13086 12.5937C3.04427 12.4297 2.98275 12.2542 2.94629 12.0674L2.65918 10.6318C2.63639 10.5042 2.625 10.3835 2.625 10.2695C2.625 10.028 2.66829 9.80013 2.75488 9.58594C2.84147 9.3763 2.95768 9.18262 3.10352 9.00488C3.24935 8.82715 3.41797 8.66992 3.60938 8.5332C3.79622 8.39648 3.99447 8.28255 4.2041 8.19141C4.32715 8.13672 4.44336 8.07975 4.55273 8.02051C4.66211 7.96126 4.76921 7.88607 4.87402 7.79492C5.20671 7.50325 5.50065 7.20703 5.75586 6.90625C6.01107 6.60547 6.24349 6.29329 6.45313 5.96973C6.66276 5.64616 6.85872 5.30892 7.04102 4.95801C7.22331 4.6071 7.41016 4.23796 7.60156 3.85059C7.76107 3.52246 7.90234 3.18978 8.02539 2.85254C8.14388 2.5153 8.26921 2.17578 8.40137 1.83398C8.49707 1.58789 8.64518 1.38737 8.8457 1.23242C9.04623 1.07747 9.2832 1 9.55664 1C9.7207 1 9.86654 1.02962 9.99414 1.08887C10.1172 1.14811 10.238 1.23698 10.3564 1.35547C10.5205 1.51953 10.6549 1.69043 10.7598 1.86816C10.86 2.05046 10.9398 2.23958 10.999 2.43555C11.0537 2.63151 11.0902 2.83431 11.1084 3.04395C11.1266 3.25358 11.1357 3.47005 11.1357 3.69336ZM3.5 10.2695C3.5 10.3333 3.50684 10.3971 3.52051 10.4609L3.80078 11.8965C3.8418 12.1107 3.9375 12.2975 4.08789 12.457C4.23372 12.6165 4.41146 12.7259 4.62109 12.7852L9.12598 14.0293C9.24447 14.0658 9.36523 14.0908 9.48828 14.1045C9.60677 14.1182 9.72754 14.125 9.85059 14.125C10.1833 14.125 10.5 14.0658 10.8008 13.9473C11.1016 13.8333 11.3727 13.6738 11.6143 13.4687C11.8512 13.2682 12.0518 13.029 12.2158 12.751C12.3799 12.473 12.4915 12.1699 12.5508 11.8418L13.0977 8.78613C13.1068 8.74056 13.1136 8.69499 13.1182 8.64941C13.1227 8.60384 13.125 8.55827 13.125 8.5127C13.125 8.30306 13.084 8.11165 13.002 7.93848C12.9199 7.76986 12.8105 7.62402 12.6738 7.50098C12.5326 7.38249 12.3708 7.28906 12.1885 7.2207C12.0062 7.1569 11.8148 7.125 11.6143 7.125C11.4821 7.125 11.3522 7.12728 11.2246 7.13184C11.097 7.13639 10.9671 7.13867 10.835 7.13867C10.7119 7.13867 10.598 7.11589 10.4932 7.07031C10.3838 7.0293 10.2904 6.96777 10.2129 6.88574C10.1309 6.80827 10.0671 6.71712 10.0215 6.6123C9.97135 6.50749 9.94629 6.39355 9.94629 6.27051C9.94629 6.23405 9.95085 6.19987 9.95996 6.16797C9.96452 6.14062 9.9668 6.10872 9.9668 6.07227C9.97591 6.04948 9.98275 6.02441 9.98731 5.99707C9.98731 5.97428 9.99186 5.9515 10.001 5.92871C10.083 5.55957 10.1468 5.19271 10.1924 4.82812C10.238 4.46354 10.2607 4.09212 10.2607 3.71387C10.2607 3.55436 10.2562 3.39486 10.2471 3.23535C10.238 3.07585 10.2152 2.9209 10.1787 2.77051C10.1377 2.62467 10.083 2.48112 10.0146 2.33984C9.94173 2.20312 9.84375 2.07552 9.7207 1.95703C9.69792 1.93424 9.67513 1.91374 9.65234 1.89551C9.625 1.88184 9.5931 1.875 9.55664 1.875C9.47917 1.875 9.41309 1.90006 9.3584 1.95019C9.30371 2.00033 9.26042 2.05729 9.22852 2.12109C9.17839 2.22591 9.13737 2.33301 9.10547 2.44238C9.07357 2.55631 9.03939 2.66569 9.00293 2.77051C8.81152 3.32194 8.58594 3.8597 8.32617 4.38379C8.06641 4.91243 7.79297 5.43197 7.50586 5.94238C7.23242 6.42546 6.92708 6.87207 6.58984 7.28223C6.2526 7.69238 5.87663 8.07975 5.46191 8.44434C5.31608 8.57194 5.16797 8.67676 5.01758 8.75879C4.86263 8.84538 4.69857 8.92741 4.52539 9.00488C4.39779 9.05957 4.27246 9.12793 4.14941 9.20996C4.02637 9.29199 3.91699 9.38542 3.82129 9.49023C3.72559 9.59961 3.64811 9.7181 3.58887 9.8457C3.52962 9.97786 3.5 10.1191 3.5 10.2695Z" fill="white"/>
</svg>
