<svg xmlns="http://www.w3.org/2000/svg" fill="none" viewBox="0 0 16 16">
  <path fill="#fff" d="M0 3.5A2.5 2.5 0 012.5 1h3a2.5 2.5 0 012 1l.75 1h5.25A2.5 2.5 0 0116 5.5v2.42a5.785 5.785 0 00-1-.982V5.5A1.5 1.5 0 0013.5 4H8.151l-.87.58A2.5 2.5 0 015.894 5H1v7.5A1.5 1.5 0 002.5 14h3.82c.172.355.38.69.618 1H2.5A2.5 2.5 0 010 12.5v-9zM2.5 2A1.5 1.5 0 001 3.5V4h4.894a1.5 1.5 0 00.832-.252l.557-.37L6.7 2.6A1.5 1.5 0 005.5 2h-3z"/>
  <path fill="#fff" d="M11.5 16a4.5 4.5 0 100-9 4.5 4.5 0 000 9zm.5-6.5V11h1.5a.5.5 0 010 1H12v1.5a.5.5 0 01-1 0V12H9.5a.5.5 0 010-1H11V9.5a.5.5 0 011 0z"/>
</svg>
