<svg xmlns="http://www.w3.org/2000/svg" fill="none" viewBox="0 0 16 16">
  <path fill="#fff" d="M2 2v12a1 1 0 001 1c0 .364.097.706.268 1H3a2 2 0 01-2-2V2a2 2 0 012-2h3.879a2 2 0 011.414.586l4.121 4.121A2 2 0 0113 6.121V10h-1V6.121a1 1 0 00-.293-.707L7.586 1.293A1 1 0 006.879 1H3a1 1 0 00-1 1z"/>
  <path fill="#fff" d="M7 4V.5h1V4a1 1 0 001 1h3.5v1H9a2 2 0 01-2-2zM5.5 12a.5.5 0 00-.5.5v2a.5.5 0 00.5.5h9a.5.5 0 00.5-.5v-2a.5.5 0 00-.5-.5h-9zm-1.5.5A1.5 1.5 0 015.5 11h9a1.5 1.5 0 011.5 1.5v2a1.5 1.5 0 01-1.5 1.5h-9A1.5 1.5 0 014 14.5v-2z"/>
  <path fill="#fff" d="M4.5 14.5v-2a1 1 0 011-1h8l-2 4h-6a1 1 0 01-1-1z"/>
</svg>
