<svg xmlns="http://www.w3.org/2000/svg" fill="none" viewBox="0 0 16 16">
  <g clip-path="url(#clip0_3625_27462)">
    <path fill="#fff" fill-rule="evenodd" d="M2.5 2h1.585A1.5 1.5 0 005.5 3h3a1.5 1.5 0 001.415-1H11.5a.5.5 0 01.5.5v1a.5.5 0 001 0v-1A1.5 1.5 0 0011.5 1H9.915A1.5 1.5 0 008.5 0h-3a1.5 1.5 0 00-1.415 1H2.5A1.5 1.5 0 001 2.5v12A1.5 1.5 0 002.5 16h3a.5.5 0 000-1h-3a.5.5 0 01-.5-.5v-12a.5.5 0 01.5-.5zm3 0a.5.5 0 010-1h3a.5.5 0 010 1h-3z" clip-rule="evenodd"/>
    <path fill="#fff" fill-rule="evenodd" d="M8.5 5A1.5 1.5 0 007 6.5v8A1.5 1.5 0 008.5 16h5a1.5 1.5 0 001.5-1.5v-8A1.5 1.5 0 0013.5 5h-5zM8 6.5a.5.5 0 01.5-.5h5a.5.5 0 01.5.5v8a.5.5 0 01-.5.5h-5a.5.5 0 01-.5-.5v-8z" clip-rule="evenodd"/>
  </g>
  <defs>
    <clipPath id="clip0_3625_27462">
      <path fill="#fff" d="M0 0h16v16H0z"/>
    </clipPath>
  </defs>
</svg>
