<svg xmlns="http://www.w3.org/2000/svg" fill="none" viewBox="0 0 16 16">
  <path fill="#fff" d="M8.25 7.5a.75.75 0 10-1.5 0 .75.75 0 001.5 0z"/>
  <path fill="#fff" d="M6 0h3a2 2 0 012 2v7a2 2 0 01-2 2H8v1.5a.5.5 0 01-1 0V11H6a2 2 0 01-2-2V2a2 2 0 012-2zm3 1H6a1 1 0 00-1 1v7a1 1 0 001 1h3a1 1 0 001-1V2a1 1 0 00-1-1zM0 14.5a.5.5 0 01.5-.5h4a.5.5 0 010 1h-4a.5.5 0 01-.5-.5zM10.5 14a.5.5 0 000 1h4a.5.5 0 000-1h-4z"/>
  <path stroke="#fff" stroke-linecap="round" stroke-linejoin="round" d="M4.5 14a.5.5 0 01.5-.5h1.5V13a.5.5 0 01.5-.5h1a.5.5 0 01.5.5v.5H10a.5.5 0 01.5.5v1a.5.5 0 01-.5.5H5a.5.5 0 01-.5-.5v-1z"/>
</svg>
