<svg xmlns="http://www.w3.org/2000/svg" fill="none" viewBox="0 0 16 16">
  <g clip-path="url(#clip0_5845_11)">
    <path fill="#fff" d="M3 2a1 1 0 011-1h3.879c.04 0 .081.002.121.007V4a2 2 0 002 2h2.993c.005.04.007.08.007.121V14a1 1 0 01-1 1h-1.825c.097.326.097.674 0 1H12a2 2 0 002-2V6.121a2 2 0 00-.586-1.414L9.293.586A2 2 0 007.879 0H4a2 2 0 00-2 2v3.99c.32-.105.654-.178 1-.214V2zm9.293 3H10a1 1 0 01-1-1V1.707L12.293 5z"/>
    <path fill="#fff" d="M5.594 13.303a3.5 3.5 0 11.707-.707l2.55 2.55a.5.5 0 01-.707.708l-2.55-2.55zm.404-2.803a2.5 2.5 0 10-5 0 2.5 2.5 0 005 0z"/>
  </g>
  <defs>
    <clipPath id="clip0_5845_11">
      <path fill="#fff" d="M0 0h16v16H0z"/>
    </clipPath>
  </defs>
</svg>
