<svg xmlns="http://www.w3.org/2000/svg" fill="none" viewBox="0 0 16 16">
  <g clip-path="url(#clip0_3827_1076)">
    <path fill="#fff" d="M13.5 0a.5.5 0 01.5.5v5a.5.5 0 01-.5.5h-5a.5.5 0 010-1H13V.5a.5.5 0 01.5-.5z"/>
    <path fill="#fff" d="M7.188 1.18A4 4 0 003.44 8.074l.002.002 8.379 7.041a.5.5 0 11-.644.766l-8.377-7.04a5 5 0 016.398-7.686l4.494 3.745a.5.5 0 01-.64.768L8.558 1.926a4.001 4.001 0 00-1.371-.746z"/>
  </g>
  <defs>
    <clipPath id="clip0_3827_1076">
      <path fill="#fff" d="M0 0h16v16H0z"/>
    </clipPath>
  </defs>
</svg>
