<svg xmlns="http://www.w3.org/2000/svg" fill="none" viewBox="0 0 16 16">
  <g clip-path="url(#clip0_3639_143)">
    <path fill="#fff" d="M13 10.75a.75.75 0 11-1.5 0 .75.75 0 011.5 0z"/>
    <path fill="#fff" d="M5.854.854a.5.5 0 10-.708-.708l-2 2a.5.5 0 000 .708l2 2a.5.5 0 10.708-.708L4.707 3H8a3 3 0 11-3 3 .5.5 0 00-1 0c0 .729.195 1.412.535 2H2a2 2 0 00-2 2v2a2 2 0 002 2h12a2 2 0 002-2v-2a2 2 0 00-2-2h-2.535A4 4 0 008 2H4.707L5.854.854zM10.646 9H14a1 1 0 011 1v2a1 1 0 01-1 1H2a1 1 0 01-1-1v-2a1 1 0 011-1h3.354c.705.622 1.632 1 2.646 1s1.94-.378 2.646-1z"/>
  </g>
  <defs>
    <clipPath id="clip0_3639_143">
      <path fill="#fff" d="M0 0h16v16H0z"/>
    </clipPath>
  </defs>
</svg>
