<svg xmlns="http://www.w3.org/2000/svg" fill="none" viewBox="0 0 16 16">
  <path fill="#fff" d="M1 2a1 1 0 011-1h2a1 1 0 011 1v2a1 1 0 01-1 1H2a1 1 0 01-1-1V2zm3 0H2v2h2V2zM1 7a1 1 0 011-1h2a1 1 0 011 1v2a1 1 0 01-1 1H2a1 1 0 01-1-1V7zm3 0H2v2h2V7zM1 12a1 1 0 011-1h2a1 1 0 011 1v2a1 1 0 01-1 1H2a1 1 0 01-1-1v-2zm3 0H2v2h2v-2zM6.5 2a.5.5 0 000 1h8a.5.5 0 000-1h-8zM6.5 7a.5.5 0 000 1h.438c.285-.372.615-.708.982-1H6.5zM7 11.5a4.5 4.5 0 119 0 4.5 4.5 0 01-9 0zm6 1a.5.5 0 101 0v-3a.5.5 0 00-.5-.5h-3a.5.5 0 100 1h1.736l-2.618 2.618a.54.54 0 10.764.764L13 10.764V12.5z"/>
</svg>
