<svg xmlns="http://www.w3.org/2000/svg" fill="none" viewBox="0 0 16 16">
  <path fill="#fff" d="M1 3a2 2 0 012-2h2a2 2 0 012 2v2a2 2 0 01-2 2H3a2 2 0 01-2-2V3zm2-1a1 1 0 00-1 1v2a1 1 0 001 1h2a1 1 0 001-1V3a1 1 0 00-1-1H3zM9 3a2 2 0 012-2h2a2 2 0 012 2v2a2 2 0 01-2 2h-2a2 2 0 01-2-2V3zm2-1a1 1 0 00-1 1v2a1 1 0 001 1h2a1 1 0 001-1V3a1 1 0 00-1-1h-2zM1 11a2 2 0 012-2h2a2 2 0 012 2v2a2 2 0 01-2 2H3a2 2 0 01-2-2v-2zm2-1a1 1 0 00-1 1v2a1 1 0 001 1h2a1 1 0 001-1v-2a1 1 0 00-1-1H3zM9 11a2 2 0 012-2h2a2 2 0 012 2v2a2 2 0 01-2 2h-2a2 2 0 01-2-2v-2zm2-1a1 1 0 00-1 1v2a1 1 0 001 1h2a1 1 0 001-1v-2a1 1 0 00-1-1h-2z"/>
</svg>
