<svg xmlns="http://www.w3.org/2000/svg" viewBox="0 0 32 32"><path fill="#FFF" d="M9.5 29h19c.275 0 .5-.225.5-.5V9h-4.5c-.827 0-1.5-.673-1.5-1.5V3H9.5c-.275 0-.5.225-.5.5v25c0 .275.225.5.5.5z"/><path fill="#FFF" d="M28.293 8L24 3.707V7.5c0 .275.225.5.5.5h3.793z"/><path opacity=".64" fill="#605E5C" d="M29.56 7.854l-5.414-5.415A1.51 1.51 0 0023.086 2H9.5C8.673 2 8 2.673 8 3.5v25c0 .827.673 1.5 1.5 1.5h19c.827 0 1.5-.673 1.5-1.5V8.914c0-.4-.156-.777-.44-1.06zM24 3.707L28.293 8H24.5a.501.501 0 01-.5-.5V3.707zM28.5 29h-19a.501.501 0 01-.5-.5v-25c0-.275.225-.5.5-.5H23v4.5c0 .827.673 1.5 1.5 1.5H29v19.5c0 .275-.225.5-.5.5z"/><path fill="#AF2031" d="M3.5 25h11a1.5 1.5 0 001.5-1.5v-11a1.5 1.5 0 00-1.5-1.5h-11A1.5 1.5 0 002 12.5v11A1.5 1.5 0 003.5 25z"/><path fill="#FFF" d="M8.082 14.04h1.887L13 22h-1.718l-.678-2H7.36l-.645 2h-1.71l3.078-7.96zm2.247 4.975s-1.306-3.512-1.33-3.67l-1.259 3.67h2.589z"/><path fill="#E08095" d="M23.5 18h-3a.5.5 0 010-1h3a.5.5 0 010 1z"/><path fill="#C94F60" d="M23.5 21h-3a.5.5 0 010-1h3a.5.5 0 010 1z"/><path fill="#AF2031" d="M18.5 20H17v1h1.5a.5.5 0 000-1z"/><path fill="#C94F60" d="M18.5 17H17v1h1.5a.5.5 0 000-1zM25 14v8.5a.5.5 0 01-.5.5H17v1h7.5c.827 0 1.5-.673 1.5-1.5V14h-1z"/><path fill="#E08095" d="M26 15h-9v-3h7.5a1.5 1.5 0 011.5 1.5V15z"/></svg>