<svg xmlns="http://www.w3.org/2000/svg" viewBox="0 0 32 32"><path fill="#FFF" d="M28 27.5V12H4v15.5a.5.5 0 00.5.5h23a.5.5 0 00.5-.5zM9.5 8a.5.5 0 01-.5-.5v-3a.5.5 0 011 0v3a.5.5 0 01-.5.5zM22.5 8a.5.5 0 00.5-.5V6h-1v1.5a.5.5 0 00.5.5z"/><path fill="#FFF" d="M9.5 8a.5.5 0 00.5-.5V6H9v1.5a.5.5 0 00.5.5z"/><path fill="#FFF" d="M27.5 6H24v1.5c0 .827-.673 1.5-1.5 1.5S21 8.327 21 7.5V6H11v1.5c0 .827-.673 1.5-1.5 1.5S8 8.327 8 7.5V6H4.5a.5.5 0 00-.5.5V11h24V6.5a.5.5 0 00-.5-.5z"/><path fill="#FFF" d="M22.5 8a.5.5 0 01-.5-.5v-3a.5.5 0 011 0v3a.5.5 0 01-.5.5z"/><path opacity=".64" fill="#615F5D" d="M27.5 5H24v-.5c0-.827-.673-1.5-1.5-1.5S21 3.673 21 4.5V5H11v-.5c0-.827-.673-1.5-1.5-1.5S8 3.673 8 4.5V5H4.5C3.673 5 3 5.673 3 6.5v21c0 .827.673 1.5 1.5 1.5h23c.827 0 1.5-.673 1.5-1.5v-21c0-.827-.673-1.5-1.5-1.5zM22 4.5a.5.5 0 011 0v3a.5.5 0 01-1 0v-3zm-13 0a.5.5 0 011 0v3a.5.5 0 01-1 0v-3zm19 23a.5.5 0 01-.5.5h-23a.5.5 0 01-.5-.5V12h24v15.5zM28 11H4V6.5a.5.5 0 01.5-.5H8v1.5C8 8.327 8.673 9 9.5 9S11 8.327 11 7.5V6h10v1.5c0 .827.673 1.5 1.5 1.5S24 8.327 24 7.5V6h3.5a.5.5 0 01.5.5V11z"/><circle fill="#C8C6C4" cx="16" cy="16" r="1"/><circle fill="#C8C6C4" cx="10" cy="16" r="1"/><circle fill="#C8C6C4" cx="22" cy="16" r="1"/><circle fill="#C8C6C4" cx="16" cy="20" r="1"/><circle fill="#C8C6C4" cx="10" cy="20" r="1"/><circle fill="#C8C6C4" cx="22" cy="20" r="1"/><circle fill="#C8C6C4" cx="16" cy="24" r="1"/><circle fill="#C8C6C4" cx="10" cy="24" r="1"/><circle fill="#C8C6C4" cx="22" cy="24" r="1"/></svg>