<svg xmlns="http://www.w3.org/2000/svg" viewBox="0 0 32 32"><path fill="#FFF" d="M27.5 7h-23a.5.5 0 00-.5.5v17a.5.5 0 00.5.5h3.973s.016-.236.052-.402c.216-.98.979-1.575 1.985-1.575 1.018 0 1.826.616 2.008 1.59.023.123.054.387.054.387h6.901s.016-.236.052-.402c.216-.98.979-1.575 1.985-1.575 1.018 0 1.826.616 2.009 1.59.022.123.053.387.053.387h.49c0-.06-.003-.121-.002-.182.01.062.025.123.032.182H27.5a.5.5 0 00.5-.5v-17a.5.5 0 00-.5-.5z"/><circle fill="none" stroke="#69AFE5" stroke-miterlimit="10" cx="10" cy="14" r="2.5"/><path fill="none" stroke="#69AFE5" stroke-linecap="round" stroke-linejoin="round" stroke-miterlimit="10" d="M6.406 19.625s.04-2.995 3.605-2.995c3.483 0 3.583 2.995 3.583 2.995"/><path fill="#C8C6C4" d="M16.5 13h9a.5.5 0 000-1h-9a.5.5 0 000 1zM16.5 16h9a.5.5 0 000-1h-9a.5.5 0 000 1zM16.5 19h6a.5.5 0 000-1h-6a.5.5 0 000 1z"/><circle fill="#C8C6C4" cx="25.5" cy="18.5" r=".5"/><path opacity=".64" fill="#605E5C" d="M27.5 6h-23C3.673 6 3 6.673 3 7.5v17c0 .827.673 1.5 1.5 1.5h4.469c.266 0 .539-.204.55-.47.006-.158.004-.53.004-.53s.026-1.016.987-1.016c.969 0 1.018 1.016 1.018 1.016s-.006.374 0 .53c.01.267.292.47.56.47h7.88c.267 0 .54-.204.55-.47.007-.158.005-.53.005-.53s.026-1.016.987-1.016c.968 0 1.018 1.016 1.018 1.016s-.006.374 0 .53c.01.267.292.47.56.47H27.5c.827 0 1.5-.673 1.5-1.5v-17c0-.827-.673-1.5-1.5-1.5zm.5 18.5a.5.5 0 01-.5.5h-3.408c-.007-.059-.023-.12-.032-.182 0 .06.002.122.001.182h-.49s-.03-.264-.052-.387c-.183-.974-.99-1.59-2.01-1.59-1.005 0-1.768.595-1.984 1.575-.036.166-.052.402-.052.402h-6.901s-.031-.264-.054-.387c-.182-.974-.99-1.59-2.008-1.59-1.006 0-1.769.595-1.985 1.575-.036.166-.052.402-.052.402H4.5a.5.5 0 01-.5-.5v-17a.5.5 0 01.5-.5h23a.5.5 0 01.5.5v17z"/></svg>