<svg xmlns="http://www.w3.org/2000/svg" viewBox="0 0 32 32"><path fill="#FFF" d="M9.5 29h19c.275 0 .5-.225.5-.5V9h-4.5c-.827 0-1.5-.673-1.5-1.5V3H9.5c-.275 0-.5.225-.5.5v25c0 .275.225.5.5.5z"/><path fill="#FFF" d="M28.293 8L24 3.707V7.5c0 .275.225.5.5.5h3.793z"/><path opacity=".64" fill="#605E5C" d="M29.56 7.854l-5.414-5.415A1.51 1.51 0 0023.086 2H9.5C8.673 2 8 2.673 8 3.5v25c0 .827.673 1.5 1.5 1.5h19c.827 0 1.5-.673 1.5-1.5V8.914c0-.4-.156-.777-.44-1.06zM24 3.707L28.293 8H24.5a.501.501 0 01-.5-.5V3.707zM28.5 29h-19a.501.501 0 01-.5-.5v-25c0-.275.225-.5.5-.5H23v4.5c0 .827.673 1.5 1.5 1.5H29v19.5c0 .275-.225.5-.5.5z"/><path fill="#33C481" d="M24 21.796h-1.34v-1.307h-.032C22.045 21.497 21.188 22 20.055 22c-.806 0-1.451-.22-1.936-.658-.485-.438-.727-1.027-.727-1.768 0-1.557.92-2.466 2.76-2.728l2.508-.351c0-1.416-.575-2.124-1.723-2.124-1.008 0-1.917.34-2.728 1.021V14.02c.245-.185.664-.363 1.258-.535.593-.171 1.121-.257 1.584-.257 1.965 0 2.949 1.043 2.949 3.128v5.44zm-1.34-4.231l-2.025.286c-.692.098-1.176.263-1.455.494-.277.232-.416.606-.416 1.123 0 .42.15.756.45 1.009.299.253.683.38 1.151.38.665 0 1.213-.234 1.646-.703.433-.468.65-1.053.65-1.756v-.833zM26.994 20L25.7 24h-.953l.953-4h1.295z"/><path fill="#107C41" d="M3.5 25h11a1.5 1.5 0 001.5-1.5v-11a1.5 1.5 0 00-1.5-1.5h-11A1.5 1.5 0 002 12.5v11A1.5 1.5 0 003.5 25z"/><path fill="#F9F7F7" d="M6 22l2.174-4.01L6.182 14h1.602l1.087 2.549c.1.242.169.423.206.542h.015c.071-.194.146-.382.224-.564L10.478 14h1.47l-2.042 3.967L12 22h-1.565L9.18 19.2a2.568 2.568 0 01-.15-.375h-.018a1.93 1.93 0 01-.145.363L7.574 22H6z"/></svg>