<svg xmlns="http://www.w3.org/2000/svg" viewBox="0 0 32 32"><path fill="#FFF" d="M9.5 28h17a.5.5 0 00.5-.5V5H9v22.5a.5.5 0 00.5.5z"/><path fill="#FFF" d="M28 4v23.5c0 .827-.673 1.5-1.5 1.5H11v.5a.5.5 0 00.5.5h17a.5.5 0 00.5-.5V3.707l-.297-.297c.056-.19.084-.388.125-.582L28.5 2.5h-18V4H28z"/><path opacity=".64" fill="#605E5C" d="M28.953 2.246a7.938 7.938 0 01-.25 1.164l.297.297V29.5a.5.5 0 01-.5.5h-17a.5.5 0 01-.5-.5V29h15.5c.827 0 1.5-.673 1.5-1.5V4H8v23.5c0 .827.673 1.5 1.5 1.5h.5v.5c0 .827.673 1.5 1.5 1.5h17c.827 0 1.5-.673 1.5-1.5V3.293l-1.047-1.047zM9 27.5V5h18v22.5a.5.5 0 01-.5.5h-17a.5.5 0 01-.5-.5z"/><path fill="#41A5EE" d="M28 1.097A.991.991 0 0027.586 1H9a1 1 0 00-1 1v3l.5.5h19L28 5V4l.5-.5V2l-.5-.903z"/><path fill="#2B7CD3" d="M8 5h20v1H8zM30 6V3.414a1 1 0 00-.293-.707l-1.414-1.414A.997.997 0 0028 1.097V4l2 2z"/><path fill="#103F91" d="M24.5 22H17v1h7.5a.5.5 0 000-1z"/><path fill="#185ABD" d="M24.5 19H17v1h7.5a.5.5 0 000-1z"/><path fill="#2B7CD3" d="M24.5 16H17v1h7.5a.5.5 0 000-1z"/><path fill="#41A5EE" d="M24.5 13H17v1h7.5a.5.5 0 000-1z"/><path fill="#185ABD" d="M3.5 25h11a1.5 1.5 0 001.5-1.5v-11a1.5 1.5 0 00-1.5-1.5h-11A1.5 1.5 0 002 12.5v11A1.5 1.5 0 003.5 25z"/><path fill="#F9F7F7" d="M7.215 20.73h.022C7.246 20.615 8.37 15 8.37 15h1.306s1.14 5.353 1.175 5.72h.017c.015-.252.944-5.72.944-5.72H13l-1.462 7h-1.389s-1.153-5.53-1.162-5.628h-.018C8.959 16.485 7.886 22 7.886 22h-1.41L5 15h1.21s1 5.607 1.005 5.73z"/></svg>