<svg xmlns="http://www.w3.org/2000/svg" viewBox="0 0 32 32"><path fill="#FFF" d="M4.5 25h23a.5.5 0 00.5-.5V7.707L16.354 19.353a.498.498 0 01-.707 0L4 7.707V24.5a.5.5 0 00.5.5z"/><path fill="#FFF" d="M27.293 7H4.707L16 18.293z"/><path opacity=".64" fill="#605E5C" d="M27.5 6h-23C3.673 6 3 6.673 3 7.5v17c0 .827.673 1.5 1.5 1.5h23c.827 0 1.5-.673 1.5-1.5v-17c0-.827-.673-1.5-1.5-1.5zm-.207 1L16 18.293 4.707 7h22.586zm.207 18h-23a.5.5 0 01-.5-.5V7.707l11.646 11.646a.498.498 0 00.707 0L28 7.707V24.5a.5.5 0 01-.5.5z"/></svg>