<svg xmlns="http://www.w3.org/2000/svg" viewBox="0 0 32 32" xml:space="preserve"><path fill="#FFF" d="M28.293 8 24 3.707V7.5c0 .275.225.5.5.5h3.793z"/><g fill="#FFF"><path d="M24.5 9c-.827 0-1.5-.673-1.5-1.5V3H9.5c-.275 0-.5.225-.5.5v5.56A9.02 9.02 0 0 1 10 9c4.963 0 9 4.037 9 9s-4.037 9-9 9H9v1.5c0 .275.225.5.5.5h19c.275 0 .5-.225.5-.5V9h-4.5z"/><path d="M24 3.707 28.293 8H24.5a.501.501 0 0 1-.5-.5V3.707z"/></g><path opacity=".64" fill="#605E5C" d="m29.56 7.854-5.414-5.415A1.51 1.51 0 0 0 23.086 2H9.5C8.673 2 8 2.673 8 3.5v5.732c.328-.075.66-.135 1-.173V3.5c0-.275.225-.5.5-.5H23v4.5c0 .827.673 1.5 1.5 1.5H29v19.5c0 .275-.225.5-.5.5h-19a.501.501 0 0 1-.5-.5V27H8v1.5c0 .827.673 1.5 1.5 1.5h19c.827 0 1.5-.673 1.5-1.5V8.914c0-.4-.156-.777-.44-1.06zM24.5 8a.501.501 0 0 1-.5-.5V3.707L28.293 8H24.5z"/><path fill="#8661C5" d="M18 18a8 8 0 1 0-16 0v8h.4v-.015A5.202 5.202 0 0 0 7.2 20.8V18a2.8 2.8 0 1 1 2.8 2.8H8.436A6.195 6.195 0 0 1 5.614 26H10a8 8 0 0 0 8-8z"/></svg>