<svg xmlns="http://www.w3.org/2000/svg" viewBox="0 0 32 32"><path fill="#FFF" d="M6.5 29h19c.275 0 .5-.225.5-.5V9h-4.5c-.827 0-1.5-.673-1.5-1.5V3H6.5c-.275 0-.5.225-.5.5v25c0 .275.225.5.5.5z"/><path fill="#FFF" d="M25.293 8L21 3.707V7.5c0 .275.225.5.5.5h3.793z"/><path opacity=".64" fill="#605E5C" d="M26.56 7.854l-5.414-5.415A1.51 1.51 0 0020.086 2H6.5C5.673 2 5 2.673 5 3.5v25c0 .827.673 1.5 1.5 1.5h19c.827 0 1.5-.673 1.5-1.5V8.914c0-.4-.156-.777-.44-1.06zM21 3.707L25.293 8H21.5a.501.501 0 01-.5-.5V3.707zM25.5 29h-19a.501.501 0 01-.5-.5v-25c0-.275.225-.5.5-.5H20v4.5c0 .827.673 1.5 1.5 1.5H26v19.5c0 .275-.225.5-.5.5z"/><path fill="#FF5C0D" d="M18.029 20.417h-5.3l-.928 2.16c-.229.532-.343.93-.343 1.192 0 .208.099.392.298.55.198.158.627.26 1.287.308V25h-4.31v-.373c.572-.101.942-.233 1.11-.394.343-.323.723-.98 1.14-1.968L15.798 11h.353l4.765 11.386c.383.915.732 1.509 1.044 1.782.313.272.749.425 1.307.459V25h-5.4v-.373c.545-.027.914-.118 1.105-.273a.702.702 0 00.288-.565c0-.296-.134-.764-.403-1.403l-.828-1.969zm-.283-.747l-2.321-5.53-2.382 5.53h4.703z"/></svg>