<svg xmlns="http://www.w3.org/2000/svg" viewBox="0 0 32 32"><path opacity=".64" fill="#605E5C" d="M26.5 30h-17c-.827 0-1.5-.673-1.5-1.5v-25C8 2.673 8.673 2 9.5 2h17c.827 0 1.5.673 1.5 1.5V4h.5c.827 0 1.5.673 1.5 1.5v5c0 .827-.673 1.5-1.5 1.5H28v16.5c0 .827-.673 1.5-1.5 1.5zM9.5 3a.5.5 0 00-.5.5v25a.5.5 0 00.5.5h17a.5.5 0 00.5-.5V12a1 1 0 011-1h.5a.5.5 0 00.5-.5v-5a.5.5 0 00-.5-.5H28a1 1 0 01-1-1v-.5a.5.5 0 00-.5-.5h-17z"/><path fill="#FFF" d="M28.5 11a.5.5 0 00.5-.5v-5a.5.5 0 00-.5-.5H28a1 1 0 01-1-1v-.5a.5.5 0 00-.5-.5h-17a.5.5 0 00-.5.5v25a.5.5 0 00.5.5h17a.5.5 0 00.5-.5V12a1 1 0 011-1h.5z"/><path fill="#7719AA" d="M3.5 25h11a1.5 1.5 0 001.5-1.5v-11a1.5 1.5 0 00-1.5-1.5h-11A1.5 1.5 0 002 12.5v11A1.5 1.5 0 003.5 25z"/><path fill="#FFF" d="M12.542 22h-1.816S7.073 16.464 7 16.316V22H5.312v-8h2.06l3.663 5.684c-.03-.191-.013-5.672-.013-5.672l1.52-.012v8z"/></svg>