<svg xmlns="http://www.w3.org/2000/svg" viewBox="0 0 32 32"><path fill="#FFF" d="M9.5 29h19c.275 0 .5-.225.5-.5V9h-4.5c-.827 0-1.5-.673-1.5-1.5V3H9.5c-.275 0-.5.225-.5.5v25c0 .275.225.5.5.5z"/><path fill="#FFF" d="M28.293 8L24 3.707V7.5c0 .275.225.5.5.5h3.793z"/><path opacity=".64" fill="#605E5C" d="M29.56 7.854l-5.414-5.415A1.51 1.51 0 0023.086 2H9.5C8.673 2 8 2.673 8 3.5v25c0 .827.673 1.5 1.5 1.5h19c.827 0 1.5-.673 1.5-1.5V8.914c0-.4-.156-.777-.44-1.06zM24 3.707L28.293 8H24.5a.501.501 0 01-.5-.5V3.707zM28.5 29h-19a.501.501 0 01-.5-.5v-25c0-.275.225-.5.5-.5H23v4.5c0 .827.673 1.5 1.5 1.5H29v19.5c0 .275-.225.5-.5.5z"/><path fill="#C8C6C4" d="M26.5 24h-15a.5.5 0 100 1h15a.5.5 0 100-1zM26.5 22h-15a.5.5 0 100 1h15a.5.5 0 100-1z"/><path fill="none" stroke="#C8C6C4" stroke-miterlimit="10" d="M15.5 18.154l3.273-2.895M20.593 15.17l2.738 2.738"/><circle fill="none" stroke="#C8C6C4" stroke-miterlimit="10" cx="24" cy="19" r="1.5"/><circle fill="none" stroke="#C8C6C4" stroke-miterlimit="10" cx="20" cy="14" r="1.5"/><path fill="#F2C80F" d="M3.5 25h11a1.5 1.5 0 001.5-1.5v-11a1.5 1.5 0 00-1.5-1.5h-11A1.5 1.5 0 002 12.5v11A1.5 1.5 0 003.5 25z"/><path fill="#333" d="M11.5 14h-1c-.827 0-1.5.673-1.5 1.5v.5h-.5c-.827 0-1.5.673-1.5 1.5v.5h-.5c-.827 0-1.5.673-1.5 1.5v1c0 .827.673 1.5 1.5 1.5h5c.827 0 1.5-.673 1.5-1.5v-5c0-.827-.673-1.5-1.5-1.5zM8 21H6v-2h2v2zm2-3v3H9l-.001-1.5c0-.651-.418-1.2-.999-1.408V17h2v1zm2 3h-1.01l.009-3.5c0-.651-.418-1.2-.999-1.408V15h2v6z"/></svg>