<svg xmlns="http://www.w3.org/2000/svg" viewBox="0 0 32 32"><path fill="#FFF" d="M6.5 29h19c.275 0 .5-.225.5-.5V9h-4.5c-.827 0-1.5-.673-1.5-1.5V3H6.5c-.275 0-.5.225-.5.5v25c0 .275.225.5.5.5z"/><path fill="#FFF" d="M25.293 8L21 3.707V7.5c0 .275.225.5.5.5h3.793z"/><path opacity=".64" fill="#605E5C" d="M26.56 7.854l-5.414-5.415A1.51 1.51 0 0020.086 2H6.5C5.673 2 5 2.673 5 3.5v25c0 .827.673 1.5 1.5 1.5h19c.827 0 1.5-.673 1.5-1.5V8.914c0-.4-.156-.777-.44-1.06zM21 3.707L25.293 8H21.5a.501.501 0 01-.5-.5V3.707zM25.5 29h-19a.501.501 0 01-.5-.5v-25c0-.275.225-.5.5-.5H20v4.5c0 .827.673 1.5 1.5 1.5H26v19.5c0 .275-.225.5-.5.5z"/><path fill="none" stroke="#C8C6C4" stroke-linejoin="round" stroke-miterlimit="10" d="M20.5 18.5h-8a1 1 0 01-1-1v-7h10v7a1 1 0 01-1 1z"/><path fill="none" stroke="#C8C6C4" stroke-linecap="round" stroke-linejoin="round" stroke-miterlimit="10" d="M22.5 10.5h-12M16.5 20.5v-2M14.5 20.5h4M13.5 16.5v-4"/><path fill="none" stroke="#F5BA9D" stroke-linecap="round" stroke-linejoin="round" stroke-miterlimit="10" d="M15.5 16.5v-3"/><path fill="none" stroke="#C8C6C4" stroke-linecap="round" stroke-linejoin="round" stroke-miterlimit="10" d="M17.501 16.5v-2"/><path fill="none" stroke="#F5BA9D" stroke-linecap="round" stroke-linejoin="round" stroke-miterlimit="10" d="M19.501 16.5v-1"/><path fill="none" stroke="#D04727" stroke-linecap="round" stroke-linejoin="round" stroke-miterlimit="10" d="M11.5 25.5v-3M9.5 23.94l2-2 2 2"/></svg>