<svg xmlns="http://www.w3.org/2000/svg" viewBox="0 0 32 32"><path fill="#FFF" d="M4.5 25h23a.5.5 0 00.5-.5V13h-4.5c-.827 0-1.5-.673-1.5-1.5V7H4.5a.5.5 0 00-.5.5v17a.5.5 0 00.5.5z"/><path fill="#FFF" d="M27.293 12L23 7.707V11.5a.5.5 0 00.5.5h3.793z"/><path opacity=".64" fill="#605E5C" d="M28.56 11.854l-5.414-5.415A1.51 1.51 0 0022.086 6H4.5C3.673 6 3 6.673 3 7.5v17c0 .827.673 1.5 1.5 1.5h23c.827 0 1.5-.673 1.5-1.5V12.914c0-.4-.156-.777-.44-1.06zM23 7.707L27.293 12H23.5a.5.5 0 01-.5-.5V7.707zM27.5 25h-23a.5.5 0 01-.5-.5v-17a.5.5 0 01.5-.5H22v4.5c0 .827.673 1.5 1.5 1.5H28v11.5a.5.5 0 01-.5.5z"/><path fill="#C8C6C4" d="M10.5 15h-4a.5.5 0 010-1h4a.5.5 0 010 1zM10.5 13h-4a.5.5 0 010-1h4a.5.5 0 010 1zM10.5 17h-4a.5.5 0 010-1h4a.5.5 0 010 1zM10.5 19h-4a.5.5 0 010-1h4a.5.5 0 010 1zM10.5 21h-4a.5.5 0 010-1h4a.5.5 0 010 1zM10.5 23h-4a.5.5 0 010-1h4a.5.5 0 010 1z"/><path fill="#B7472A" d="M18 13a4 4 0 014 4h-4v-4z"/><path fill="#C8C6C4" d="M22 18a5.006 5.006 0 01-6.082 4.886 4.973 4.973 0 01-3.804-3.804A5.006 5.006 0 0117 13v5h5z"/></svg>