<svg xmlns="http://www.w3.org/2000/svg" viewBox="0 0 32 32"><circle fill="#C8C6C4" cx="6" cy="9" r="1"/><path fill="#FFF" d="M4.5 25h23a.5.5 0 00.5-.5V13h-4.5c-.827 0-1.5-.673-1.5-1.5V7H4.5a.5.5 0 00-.5.5v17a.5.5 0 00.5.5z"/><path fill="#FFF" d="M27.293 12L23 7.707V11.5a.5.5 0 00.5.5h3.793z"/><path fill="#217346" d="M9.5 15h-3a.5.5 0 010-1h3a.5.5 0 010 1zM9.5 13h-3a.5.5 0 010-1h3a.5.5 0 010 1zM9.5 17h-3a.5.5 0 010-1h3a.5.5 0 010 1zM9.5 19h-3a.5.5 0 010-1h3a.5.5 0 010 1zM9.5 21h-3a.5.5 0 010-1h3a.5.5 0 010 1zM9.5 23h-3a.5.5 0 010-1h3a.5.5 0 010 1z"/><path fill="#C8C6C4" d="M14.5 15h-3a.5.5 0 010-1h3a.5.5 0 010 1zM14.5 13h-3a.5.5 0 010-1h3a.5.5 0 010 1zM14.5 17h-3a.5.5 0 010-1h3a.5.5 0 010 1zM14.5 19h-3a.5.5 0 010-1h3a.5.5 0 010 1zM14.5 21h-3a.5.5 0 010-1h3a.5.5 0 010 1zM14.5 23h-3a.5.5 0 010-1h3a.5.5 0 010 1zM19.5 15h-3a.5.5 0 010-1h3a.5.5 0 010 1zM19.5 13h-3a.5.5 0 010-1h3a.5.5 0 010 1zM19.5 17h-3a.5.5 0 010-1h3a.5.5 0 010 1zM19.5 19h-3a.5.5 0 010-1h3a.5.5 0 010 1zM19.5 21h-3a.5.5 0 010-1h3a.5.5 0 010 1zM19.5 23h-3a.5.5 0 010-1h3a.5.5 0 010 1zM24.5 15h-3a.5.5 0 010-1h3a.5.5 0 010 1zM24.5 17h-3a.5.5 0 010-1h3a.5.5 0 010 1zM24.5 19h-3a.5.5 0 010-1h3a.5.5 0 010 1zM24.5 21h-3a.5.5 0 010-1h3a.5.5 0 010 1zM24.5 23h-3a.5.5 0 010-1h3a.5.5 0 010 1z"/><path opacity=".64" fill="#605E5C" d="M28.56 11.854l-5.414-5.415A1.51 1.51 0 0022.086 6H4.5C3.673 6 3 6.673 3 7.5v17c0 .827.673 1.5 1.5 1.5h23c.827 0 1.5-.673 1.5-1.5V12.914c0-.4-.156-.777-.44-1.06zM23 7.707L27.293 12H23.5a.5.5 0 01-.5-.5V7.707zM27.5 25h-23a.5.5 0 01-.5-.5v-17a.5.5 0 01.5-.5H22v4.5c0 .827.673 1.5 1.5 1.5H28v11.5a.5.5 0 01-.5.5z"/></svg>