<svg xmlns="http://www.w3.org/2000/svg" viewBox="0 0 32 32"><path fill="#FFF" d="M9.5 29h19c.275 0 .5-.225.5-.5V9h-4.5c-.827 0-1.5-.673-1.5-1.5V3H9.5c-.275 0-.5.225-.5.5v25c0 .275.225.5.5.5z"/><path fill="#FFF" d="M28.293 8L24 3.707V7.5c0 .275.225.5.5.5h3.793z"/><path opacity=".64" fill="#605E5C" d="M29.56 7.854l-5.414-5.415A1.51 1.51 0 0023.086 2H9.5C8.673 2 8 2.673 8 3.5v25c0 .827.673 1.5 1.5 1.5h19c.827 0 1.5-.673 1.5-1.5V8.914c0-.4-.156-.777-.44-1.06zM24 3.707L28.293 8H24.5a.501.501 0 01-.5-.5V3.707zM28.5 29h-19a.501.501 0 01-.5-.5v-25c0-.275.225-.5.5-.5H23v4.5c0 .827.673 1.5 1.5 1.5H29v19.5c0 .275-.225.5-.5.5z"/><path fill="#185ABD" d="M3.5 25h11a1.5 1.5 0 001.5-1.5v-11a1.5 1.5 0 00-1.5-1.5h-11A1.5 1.5 0 002 12.5v11A1.5 1.5 0 003.5 25z"/><path fill="#FFF" d="M8.585 19.295c.233.665.37 1.085.412 1.26h.029c.042-.174.19-.625.446-1.35L11.311 14H13l-3.115 8h-1.81L5 14h1.74l1.845 5.295z"/><path fill="#185ABD" d="M22.5 22h-3v-1h3a.5.5 0 00.5-.5v-3h1v3a1.5 1.5 0 01-1.5 1.5z"/><path fill="#41A5EE" d="M17 19h3v5h-3z"/><path fill="#103F91" d="M20.5 15.5l3-3 3 3-3 3z"/></svg>