<svg xmlns="http://www.w3.org/2000/svg" viewBox="0 0 32 32"><path fill="#FFF" d="M9.5 28h17a.5.5 0 00.5-.5V5H9v22.5a.5.5 0 00.5.5z"/><path fill="#FFF" d="M28 4v23.5c0 .827-.673 1.5-1.5 1.5H11v.5a.5.5 0 00.5.5h17a.5.5 0 00.5-.5V3.707l-.297-.297c.056-.19.084-.388.125-.582L28.5 2.5h-18V4H28z"/><path opacity=".64" fill="#605E5C" d="M28.953 2.246a7.938 7.938 0 01-.25 1.164l.297.297V29.5a.5.5 0 01-.5.5h-17a.5.5 0 01-.5-.5V29h15.5c.827 0 1.5-.673 1.5-1.5V4H8v23.5c0 .827.673 1.5 1.5 1.5h.5v.5c0 .827.673 1.5 1.5 1.5h17c.827 0 1.5-.673 1.5-1.5V3.293l-1.047-1.047zM9 27.5V5h18v22.5a.5.5 0 01-.5.5h-17a.5.5 0 01-.5-.5z"/><path fill="#33C481" d="M28 1.097A.991.991 0 0027.586 1H9a1 1 0 00-1 1v3l.5.5h19L28 5V4l.5-.5V2l-.5-.903z"/><path fill="#21A366" d="M8 5h20v1H8zM30 6V3.414a1 1 0 00-.293-.707l-1.414-1.414A.997.997 0 0028 1.097V4l2 2z"/><path fill="#134A2C" d="M24 23h-2a1 1 0 110-2h2a1 1 0 110 2z"/><path fill="#185C37" d="M19 23h-2v-2h2a1 1 0 110 2z"/><path fill="#21A366" d="M24 19h-2a1 1 0 110-2h2a1 1 0 110 2z"/><path fill="#107C41" d="M19 19h-2v-2h2a1 1 0 110 2z"/><path fill="#33C481" d="M24 15h-2a1 1 0 110-2h2a1 1 0 110 2z"/><path fill="#21A366" d="M19 15h-2v-2h2a1 1 0 110 2z"/><path fill="#107C41" d="M3.5 25h11a1.5 1.5 0 001.5-1.5v-11a1.5 1.5 0 00-1.5-1.5h-11A1.5 1.5 0 002 12.5v11A1.5 1.5 0 003.5 25z"/><path fill="#F9F7F7" d="M6 22l2.174-4.01L6.182 14h1.602l1.087 2.549c.1.242.169.423.206.542h.015c.071-.194.146-.382.224-.564L10.478 14h1.47l-2.042 3.967L12 22h-1.565L9.18 19.2a2.568 2.568 0 01-.15-.375h-.018a1.93 1.93 0 01-.145.363L7.574 22H6z"/></svg>