<svg xmlns="http://www.w3.org/2000/svg" viewBox="0 0 32 32"><path fill="#FFF" d="M6.5 29h19c.275 0 .5-.225.5-.5V9h-4.5c-.827 0-1.5-.673-1.5-1.5V3H6.5c-.275 0-.5.225-.5.5v25c0 .275.225.5.5.5z"/><path fill="#FFF" d="M25.293 8L21 3.707V7.5c0 .275.225.5.5.5h3.793z"/><path opacity=".64" fill="#605E5C" d="M26.56 7.854l-5.414-5.415A1.51 1.51 0 0020.086 2H6.5C5.673 2 5 2.673 5 3.5v25c0 .827.673 1.5 1.5 1.5h19c.827 0 1.5-.673 1.5-1.5V8.914c0-.4-.156-.777-.44-1.06zM21 3.707L25.293 8H21.5a.501.501 0 01-.5-.5V3.707zM25.5 29h-19a.501.501 0 01-.5-.5v-25c0-.275.225-.5.5-.5H20v4.5c0 .827.673 1.5 1.5 1.5H26v19.5c0 .275-.225.5-.5.5z"/><path fill="#C8C6C4" d="M23.5 24h-15a.5.5 0 010-1h15a.5.5 0 010 1zM23.5 26h-15a.5.5 0 010-1h15a.5.5 0 010 1z"/><circle fill="none" stroke="#69AFE5" stroke-miterlimit="10" cx="16" cy="16" r="4.5"/><ellipse fill="none" stroke="#69AFE5" stroke-miterlimit="10" cx="16" cy="16" rx="1.5" ry="4.5"/><path fill="none" stroke="#69AFE5" stroke-miterlimit="10" d="M12 14.5h8M12 17.5h8"/><path fill="none" stroke="#C8C6C4" stroke-linecap="round" stroke-linejoin="round" stroke-miterlimit="10" d="M22.5 17.5l1-1.5-1-1.5M9.5 14.5l-1 1.5 1 1.5"/></svg>