<svg xmlns="http://www.w3.org/2000/svg" viewBox="0 0 24 24"><path fill="#FFF" d="M21 20.5V10H3v10.5a.5.5 0 00.5.5h17a.5.5 0 00.5-.5zM6.5 6a.5.5 0 01-.5-.5v-2a.5.5 0 011 0v2a.5.5 0 01-.5.5zM17.5 6a.5.5 0 00.5-.5V5h-1v.5a.5.5 0 00.5.5z"/><path fill="#FFF" d="M6.5 6a.5.5 0 00.5-.5V5H6v.5a.5.5 0 00.5.5z"/><path fill="#FFF" d="M20.5 5H19v.5c0 .827-.673 1.5-1.5 1.5S16 6.327 16 5.5V5H8v.5C8 6.327 7.327 7 6.5 7S5 6.327 5 5.5V5H3.5a.5.5 0 00-.5.5V9h18V5.5a.5.5 0 00-.5-.5z"/><path fill="#FFF" d="M17.5 6a.5.5 0 01-.5-.5v-2a.5.5 0 011 0v2a.5.5 0 01-.5.5z"/><path opacity=".64" fill="#605E5C" d="M20.5 4H19v-.5c0-.827-.673-1.5-1.5-1.5S16 2.673 16 3.5V4H8v-.5C8 2.673 7.327 2 6.5 2S5 2.673 5 3.5V4H3.5C2.673 4 2 4.673 2 5.5v15c0 .827.673 1.5 1.5 1.5h17c.827 0 1.5-.673 1.5-1.5v-15c0-.827-.673-1.5-1.5-1.5zM17 3.5a.5.5 0 011 0v2a.5.5 0 01-1 0v-2zm-11 0a.5.5 0 011 0v2a.5.5 0 01-1 0v-2zm15 17a.5.5 0 01-.5.5h-17a.5.5 0 01-.5-.5V10h18v10.5zM21 9H3V5.5a.5.5 0 01.5-.5H5v.5C5 6.327 5.673 7 6.5 7S8 6.327 8 5.5V5h8v.5c0 .827.673 1.5 1.5 1.5S19 6.327 19 5.5V5h1.5a.5.5 0 01.5.5V9z"/><circle fill="#C8C6C4" cx="13.5" cy="13.5" r=".5"/><circle fill="#C8C6C4" cx="10.5" cy="13.5" r=".5"/><circle fill="#C8C6C4" cx="7.5" cy="13.5" r=".5"/><circle fill="#C8C6C4" cx="16.5" cy="13.5" r=".5"/><circle fill="#C8C6C4" cx="13.5" cy="15.5" r=".5"/><circle fill="#C8C6C4" cx="10.5" cy="15.5" r=".5"/><circle fill="#C8C6C4" cx="7.5" cy="15.5" r=".5"/><circle fill="#C8C6C4" cx="16.5" cy="15.5" r=".5"/><circle fill="#C8C6C4" cx="13.5" cy="17.5" r=".5"/><circle fill="#C8C6C4" cx="10.5" cy="17.5" r=".5"/><circle fill="#C8C6C4" cx="7.5" cy="17.5" r=".5"/><circle fill="#C8C6C4" cx="16.5" cy="17.5" r=".5"/></svg>