<svg xmlns="http://www.w3.org/2000/svg" viewBox="0 0 24 24"><path fill="#FFF" d="M7.5 22h14c.275 0 .5-.225.5-.5V7h-3.5c-.827 0-1.5-.673-1.5-1.5V2H7.5c-.275 0-.5.225-.5.5v19c0 .275.225.5.5.5z"/><path fill="#FFF" d="M21.293 6L18 2.707V5.5c0 .275.225.5.5.5h2.793z"/><path opacity=".64" fill="#605E5C" d="M22.56 5.854l-4.414-4.415A1.51 1.51 0 0017.086 1H7.5C6.673 1 6 1.673 6 2.5v19c0 .827.673 1.5 1.5 1.5h14c.827 0 1.5-.673 1.5-1.5V6.914c0-.4-.156-.777-.44-1.06zM18 2.707L21.293 6H18.5a.501.501 0 01-.5-.5V2.707zM21.5 22h-14a.501.501 0 01-.5-.5v-19c0-.275.225-.5.5-.5H17v3.5c0 .827.673 1.5 1.5 1.5H22v14.5c0 .275-.225.5-.5.5z"/><path fill="#107C41" d="M2 19h10a1 1 0 001-1V8a1 1 0 00-1-1H2a1 1 0 00-1 1v10a1 1 0 001 1z"/><path fill="#F9F7F7" d="M4.125 16l2.06-3.009L4.298 10h1.518l1.03 1.913c.095.18.16.316.196.405h.014c.067-.145.138-.285.213-.422L8.369 10h1.394l-1.936 2.974L9.813 16H8.329l-1.19-2.1a1.75 1.75 0 01-.142-.28H6.98a1.28 1.28 0 01-.138.271L5.617 16H4.125z"/><path fill="#33C481" d="M20 16.87h-1.013v-1.013h-.025c-.44.762-1.09 1.143-1.947 1.143-.61 0-1.098-.166-1.464-.497S15 15.726 15 15.165c0-1.178.696-1.866 2.09-2.064l1.897-.265c0-1.071-.435-1.607-1.304-1.607-.762 0-1.45.258-2.064.773v-1.039c.185-.14.502-.274.951-.404.45-.13.85-.195 1.198-.195 1.488 0 2.232.79 2.232 2.367v4.139zm-1.013-3.225l-1.533.216c-.523.074-.89.2-1.1.374-.21.176-.316.458-.316.85 0 .317.113.572.34.763.227.192.518.287.873.287.501 0 .917-.177 1.244-.53.327-.356.491-.798.491-1.33v-.63z"/></svg>