<svg xmlns="http://www.w3.org/2000/svg" viewBox="0 0 24 24"><path fill="#FFF" d="M3.5 19h17a.5.5 0 00.5-.5V5.707l-8.646 8.646a.498.498 0 01-.707 0L3 5.707V18.5a.5.5 0 00.5.5z"/><path fill="#FFF" d="M20.293 5H3.707L12 13.293z"/><path opacity=".64" fill="#605E5C" d="M20.5 4h-17C2.673 4 2 4.673 2 5.5v13c0 .827.673 1.5 1.5 1.5h17c.827 0 1.5-.673 1.5-1.5v-13c0-.827-.673-1.5-1.5-1.5zm-.207 1L12 13.293 3.707 5h16.586zm.207 14h-17a.5.5 0 01-.5-.5V5.707l8.646 8.646a.498.498 0 00.707 0L21 5.707V18.5a.5.5 0 01-.5.5z"/></svg>