<svg xmlns="http://www.w3.org/2000/svg" viewBox="0 0 24 24"><path fill="#FFF" d="M3 8h18V5.5c0-.275-.225-.5-.5-.5h-17c-.275 0-.5.225-.5.5V8zM3.5 19h17c.275 0 .5-.225.5-.5V9H3v9.5c0 .275.225.5.5.5z"/><circle fill="#C8C6C4" cx="4.5" cy="6.5" r=".5"/><circle fill="#C8C6C4" cx="6.5" cy="6.5" r=".5"/><circle fill="#C8C6C4" cx="8.5" cy="6.5" r=".5"/><path fill="#EDEBE9" d="M8 19H3.5a.5.5 0 01-.5-.5V9h5v10z"/><path fill="#C8C6C4" d="M6.5 11h-2a.5.5 0 010-1h2a.5.5 0 010 1zM6.5 13h-2a.5.5 0 010-1h2a.5.5 0 010 1zM6.5 15h-2a.5.5 0 010-1h2a.5.5 0 010 1zM13.5 11h-4a.5.5 0 010-1h4a.5.5 0 010 1zM13.5 13h-4a.5.5 0 010-1h4a.5.5 0 010 1zM13.5 15h-4a.5.5 0 010-1h4a.5.5 0 010 1zM13.5 17h-4a.5.5 0 010-1h4a.5.5 0 010 1z"/><path fill="#69AFE5" d="M19 17h-3a1 1 0 01-1-1v-5a1 1 0 011-1h3a1 1 0 011 1v5a1 1 0 01-1 1z"/><path opacity=".64" fill="#605E5C" d="M20.5 4h-17C2.673 4 2 4.673 2 5.5v13c0 .827.673 1.5 1.5 1.5h17c.827 0 1.5-.673 1.5-1.5v-13c0-.827-.673-1.5-1.5-1.5zm-17 1h17c.275 0 .5.225.5.5V8H3V5.5c0-.275.225-.5.5-.5zm17 14h-17a.501.501 0 01-.5-.5V9h18v9.5c0 .275-.225.5-.5.5z"/></svg>