<svg xmlns="http://www.w3.org/2000/svg" viewBox="0 0 24 24" xml:space="preserve"><path fill="#FFF" d="M21.293 6 18 2.707V5.5c0 .275.225.5.5.5h2.793z"/><path fill="#FFF" d="M18.5 7c-.827 0-1.5-.673-1.5-1.5V2H7.5c-.275 0-.5.225-.5.5v2.717c.46-.09.936-.14 1.423-.14.523 0 1.054.055 1.577.163 2.793.579 5.06 2.834 5.643 5.612.463 2.208-.074 4.462-1.473 6.185a7.371 7.371 0 0 1-5.747 2.732H7V21.5c0 .275.225.5.5.5h14c.275 0 .5-.225.5-.5V7h-3.5z"/><path opacity=".64" fill="#605E5C" d="m22.56 5.854-4.414-4.415A1.51 1.51 0 0 0 17.086 1H7.5C6.673 1 6 1.673 6 2.5v2.992a7.332 7.332 0 0 1 1-.275V2.5c0-.275.225-.5.5-.5H17v3.5c0 .827.673 1.5 1.5 1.5H22v14.5c0 .275-.225.5-.5.5h-14a.501.501 0 0 1-.5-.5v-1.73H6v1.73c0 .827.673 1.5 1.5 1.5h14c.827 0 1.5-.673 1.5-1.5V6.914c0-.4-.156-.777-.44-1.06zM18.5 6a.501.501 0 0 1-.5-.5V2.707L21.293 6H18.5z"/><path fill="#FFF" d="M18 2.707 21.293 6H18.5a.501.501 0 0 1-.5-.5V2.707z"/><g><path fill="#8661C5" d="M2.038 12.423c0-3.95 3.633-7.058 7.759-6.204 2.413.5 4.364 2.44 4.867 4.838.86 4.102-2.266 7.712-6.24 7.712H5.39a5.27 5.27 0 0 0 2.13-4.23h.704c1.298 0 2.456-1.068 2.313-2.35A2.123 2.123 0 0 0 8.66 10.32c-1.29-.142-2.364 1.009-2.364 2.299v1.917a4.237 4.237 0 0 1-4.256 4.23v-6.344z"/></g></svg>