<svg xmlns="http://www.w3.org/2000/svg" viewBox="0 0 24 24"><path fill="#FFF" d="M5.5 22h13c.275 0 .5-.225.5-.5V7h-3.5c-.827 0-1.5-.673-1.5-1.5V2H5.5c-.275 0-.5.225-.5.5v19c0 .275.225.5.5.5z"/><path fill="#FFF" d="M18.293 6L15 2.707V5.5c0 .275.225.5.5.5h2.793z"/><path opacity=".64" fill="#605E5C" d="M19.56 5.854l-4.414-4.415A1.51 1.51 0 0014.086 1H5.5C4.673 1 4 1.673 4 2.5v19c0 .827.673 1.5 1.5 1.5h13c.827 0 1.5-.673 1.5-1.5V6.914c0-.4-.156-.777-.44-1.06zM15 2.707L18.293 6H15.5a.501.501 0 01-.5-.5V2.707zM18.5 22h-13a.501.501 0 01-.5-.5v-19c0-.275.225-.5.5-.5H14v3.5c0 .827.673 1.5 1.5 1.5H19v14.5c0 .275-.225.5-.5.5z"/><path fill="#FF5F10" d="M15.753 16.918L12.119 8h-.243l-3.714 8.937s-.28.707-1.162.75V18h2.97v-.309s-1.335.14-1.011-.956l.764-1.86h3.735l.706 1.771s.234.576-.068.83c0 0-.239.215-.844.21V18H17v-.309s-.82.098-1.247-.773zm-5.776-2.665l1.638-3.99 1.618 3.99H9.977z"/></svg>