<svg xmlns="http://www.w3.org/2000/svg" viewBox="0 0 24 24"><path fill="#FFF" d="M7.5 22h14c.275 0 .5-.225.5-.5V7h-3.5c-.827 0-1.5-.673-1.5-1.5V2H7.5c-.275 0-.5.225-.5.5v19c0 .275.225.5.5.5z"/><path fill="#FFF" d="M21.293 6L18 2.707V5.5c0 .275.225.5.5.5h2.793z"/><path opacity=".64" fill="#605E5C" d="M22.56 5.854l-4.414-4.415A1.51 1.51 0 0017.086 1H7.5C6.673 1 6 1.673 6 2.5v19c0 .827.673 1.5 1.5 1.5h14c.827 0 1.5-.673 1.5-1.5V6.914c0-.4-.156-.777-.44-1.06zM18 2.707L21.293 6H18.5a.501.501 0 01-.5-.5V2.707zM21.5 22h-14a.501.501 0 01-.5-.5v-19c0-.275.225-.5.5-.5H17v3.5c0 .827.673 1.5 1.5 1.5H22v14.5c0 .275-.225.5-.5.5z"/><path fill="#ED6C47" d="M19.95 12H17l-1-1h-1l-1 1v2.945A3.486 3.486 0 0016.5 16a3.5 3.5 0 003.5-3.5c0-.171-.027-.335-.05-.5z"/><path fill="#FF8F6B" d="M16.5 9c-.989 0-1.867.42-2.5 1.08V12h3V9.05c-.165-.023-.329-.05-.5-.05z"/><path fill="#FFC7B5" d="M18.05 10.95H21A3.481 3.481 0 0018.05 8v2.95z"/><path fill="#C43E1C" d="M2 19h10a1 1 0 001-1V8a1 1 0 00-1-1H2a1 1 0 00-1 1v10a1 1 0 001 1z"/><path fill="#F9F7F7" d="M7.362 10c.71 0 1.01.16 1.385.48.378.322.566.786.566 1.395 0 .39-.005.905-.415 1.42-.328.412-.754.71-1.61.705H6v2H5v-6h2.362zM6 13h1.155c.39 0 .683-.087.882-.262.198-.173.298-.427.298-.763 0-.65-.381-.975-1.142-.975H6v2z"/></svg>