<svg xmlns="http://www.w3.org/2000/svg" viewBox="0 0 24 24"><path fill="#FFF" d="M5.5 22h13c.275 0 .5-.225.5-.5V7h-3.5c-.827 0-1.5-.673-1.5-1.5V2H5.5c-.275 0-.5.225-.5.5v19c0 .275.225.5.5.5z"/><path fill="#FFF" d="M18.293 6L15 2.707V5.5c0 .275.225.5.5.5h2.793z"/><path opacity=".64" fill="#605E5C" d="M19.56 5.854l-4.414-4.415A1.51 1.51 0 0014.086 1H5.5C4.673 1 4 1.673 4 2.5v19c0 .827.673 1.5 1.5 1.5h13c.827 0 1.5-.673 1.5-1.5V6.914c0-.4-.156-.777-.44-1.06zM15 2.707L18.293 6H15.5a.501.501 0 01-.5-.5V2.707zM18.5 22h-13a.501.501 0 01-.5-.5v-19c0-.275.225-.5.5-.5H14v3.5c0 .827.673 1.5 1.5 1.5H19v14.5c0 .275-.225.5-.5.5z"/><path fill="none" stroke="#B4B0AD" stroke-miterlimit="10" d="M16.256 13.23l-.944-.079a.066.066 0 01-.058-.049 3.349 3.349 0 00-.319-.768.065.065 0 01.007-.075l.612-.723a.267.267 0 00-.015-.361l-.714-.714a.267.267 0 00-.36-.015l-.724.612a.066.066 0 01-.075.007 3.35 3.35 0 00-.77-.32.06.06 0 01-.047-.052l-.079-.95a.265.265 0 00-.265-.243h-1.01a.267.267 0 00-.265.244l-.079.944a.066.066 0 01-.049.058c-.272.075-.53.183-.77.32a.06.06 0 01-.07-.005l-.728-.616a.265.265 0 00-.36.016l-.713.714a.267.267 0 00-.015.36l.612.724c.018.021.02.051.007.075a3.35 3.35 0 00-.32.768.066.066 0 01-.057.049l-.944.079a.267.267 0 00-.244.265v1.01c0 .138.106.254.244.265l.944.079c.028.002.05.022.058.049.075.271.183.528.319.768a.065.065 0 01-.007.075l-.612.723a.267.267 0 00.015.361l.714.714a.267.267 0 00.36.015l.724-.612a.066.066 0 01.075-.007c.24.137.499.245.77.32a.06.06 0 01.047.053l.079.949a.265.265 0 00.265.243h1.01a.267.267 0 00.265-.245l.079-.943a.066.066 0 01.049-.058c.272-.075.53-.183.769-.32a.06.06 0 01.071.005l.727.616c.106.09.262.082.36-.016l.714-.714a.267.267 0 00.015-.36l-.612-.724a.066.066 0 01-.007-.075 3.35 3.35 0 00.319-.768.066.066 0 01.058-.049l.943-.079a.267.267 0 00.245-.265v-1.01a.267.267 0 00-.244-.265z"/><circle fill="none" stroke="#B4B0AD" stroke-linecap="round" stroke-linejoin="round" stroke-miterlimit="10" cx="12" cy="14" r="1.5"/></svg>