<svg xmlns="http://www.w3.org/2000/svg" viewBox="0 0 24 24"><path opacity=".64" fill="#605E5C" d="M21.5 23h-14c-.827 0-1.5-.673-1.5-1.5v-19C6 1.673 6.673 1 7.5 1h14c.827 0 1.5.673 1.5 1.5v19c0 .827-.673 1.5-1.5 1.5zM7.5 2a.5.5 0 00-.5.5v19a.5.5 0 00.5.5h14a.5.5 0 00.5-.5v-19a.5.5 0 00-.5-.5h-14z"/><path fill="#FFF" d="M7.5 22h14a.5.5 0 00.5-.5v-19a.5.5 0 00-.5-.5h-14a.5.5 0 00-.5.5v19a.5.5 0 00.5.5z"/><path fill="#185ABD" d="M2 19h10a1 1 0 001-1V8a1 1 0 00-1-1H2a1 1 0 00-1 1v10a1 1 0 001 1z"/><path fill="#FFF" d="M6.689 13.97c.174.5.277.815.309.947h.021c.032-.132.144-.469.335-1.014L8.733 10H10l-2.336 6H6.306L4 10h1.306l1.383 3.97z"/><path opacity=".64" fill="#C8C6C4" d="M18.5 11h-2c-.827 0-1.5-.673-1.5-1.5v-4c0-.827.673-1.5 1.5-1.5h2c.827 0 1.5.673 1.5 1.5v4c0 .827-.673 1.5-1.5 1.5zm-2-6a.5.5 0 00-.5.5v4a.5.5 0 00.5.5h2a.5.5 0 00.5-.5v-4a.5.5 0 00-.5-.5h-2zM18.5 20h-2c-.827 0-1.5-.673-1.5-1.5v-4c0-.827.673-1.5 1.5-1.5h2c.827 0 1.5.673 1.5 1.5v4c0 .827-.673 1.5-1.5 1.5zm-2-6a.5.5 0 00-.5.5v4a.5.5 0 00.5.5h2a.5.5 0 00.5-.5v-4a.5.5 0 00-.5-.5h-2zM12.5 4h-2C9.673 4 9 4.673 9 5.5V6h1v-.5a.5.5 0 01.5-.5h2a.5.5 0 01.5.5v.778c.595.347 1 .985 1 1.722V5.5c0-.827-.673-1.5-1.5-1.5z"/></svg>