<svg xmlns="http://www.w3.org/2000/svg" viewBox="0 0 24 24"><path fill="#FFF" d="M20.84 1.84c.1.2.16.422.16.66v17c0 .827-.673 1.5-1.5 1.5H9v.5a.5.5 0 00.5.5h12a.5.5 0 00.5-.5V3.707l-.239-.239c.094-.144.182-.293.262-.446L20.84 1.841z"/><path fill="#FFF" d="M7.5 20h12a.5.5 0 00.5-.5v-17a.5.5 0 00-.5-.5h-12a.5.5 0 00-.5.5v17a.5.5 0 00.5.5z"/><path opacity=".64" fill="#605E5C" d="M22 4.016V21.5a.5.5 0 01-.5.5h-12a.5.5 0 01-.5-.5V21h10.5c.827 0 1.5-.673 1.5-1.5v-17c0-.827-.673-1.5-1.5-1.5h-12C6.673 1 6 1.673 6 2.5v17c0 .827.673 1.5 1.5 1.5H8v.5c0 .827.673 1.5 1.5 1.5h12c.827 0 1.5-.673 1.5-1.5V4.016h-1zM7 19.5v-17a.5.5 0 01.5-.5h12a.5.5 0 01.5.5v17a.5.5 0 01-.5.5h-12a.5.5 0 01-.5-.5z"/><path fill="#33C481" d="M21 1.104A1.07 1.07 0 0020.586 1H7c-.55 0-1 .45-1 1v3h15V3.5l.5-.5V2l-.5-.896z"/><path fill="#21A366" d="M23 5V3.414a1 1 0 00-.293-.707l-1.414-1.414A1.015 1.015 0 0021 1.104V3.5L23 5z"/><path fill="#134A2C" d="M18 17h-1a1 1 0 110-2h1a1 1 0 110 2z"/><path fill="#185C37" d="M14 15v2a1 1 0 000-2z"/><path fill="#21A366" d="M18 14h-1a1 1 0 110-2h1a1 1 0 110 2z"/><path fill="#107C41" d="M14 12v2a1 1 0 000-2z"/><path fill="#33C481" d="M18 11h-1a1 1 0 110-2h1a1 1 0 110 2z"/><path fill="#21A366" d="M14 9v2a1 1 0 000-2z"/><path fill="#107C41" d="M2 19h10a1 1 0 001-1V8a1 1 0 00-1-1H2a1 1 0 00-1 1v10a1 1 0 001 1z"/><path fill="#F9F7F7" d="M4.125 16l2.06-3.009L4.298 10h1.518l1.03 1.913c.095.18.16.316.196.405h.014c.067-.145.138-.285.213-.422L8.369 10h1.394l-1.936 2.974L9.813 16H8.329l-1.19-2.1a1.75 1.75 0 01-.142-.28H6.98a1.28 1.28 0 01-.138.271L5.617 16H4.125z"/></svg>