<svg xmlns="http://www.w3.org/2000/svg" fill="none" viewBox="0 0 16 16">
  <path fill="#FAFAFA" d="M3.881 6.268C3.881 4.188 5.725 2.5 8 2.5c2.274 0 4.118 1.687 4.118 3.768 0 .266.216.482.482.482h.025a2.875 2.875 0 010 5.75h-9.25a2.875 2.875 0 010-5.75h.024a.482.482 0 00.482-.482z"/>
  <path fill="#555" d="M3.381 6.25C3.392 3.86 5.498 2 8 2c2.501 0 4.607 1.86 4.618 4.25h.007a3.375 3.375 0 110 6.75h-9.25a3.375 3.375 0 110-6.75h.006zM8 3C5.959 3 4.38 4.504 4.38 6.268c0 .542-.44.982-.982.982h-.024a2.375 2.375 0 100 4.75h9.25a2.375 2.375 0 100-4.75H12.6a.982.982 0 01-.982-.982C11.618 4.504 10.041 3 8 3z"/>
</svg>
