<svg xmlns="http://www.w3.org/2000/svg" fill="none" viewBox="0 0 16 16">
  <g clip-path="url(#clip0_3782_41700)">
    <path fill="#FAFAFA" d="M15.173.76c.409.372.411.878.068 1.413l-1.324 1.94a47.294 47.294 0 01-7.33 8.405l-2.275-2.115a46.417 46.417 0 017.915-8.32L13.76.828C14.2.458 14.765.39 15.173.76z"/>
    <path fill="#555" d="M13.441.442c.568-.475 1.42-.64 2.068-.052.295.268.465.611.48.997.013.372-.12.732-.328 1.056l-.008.012-1.324 1.939a47.79 47.79 0 01-7.407 8.494l-.671-.741a46.795 46.795 0 007.252-8.317l1.32-1.933c.133-.208.17-.367.166-.474-.003-.094-.039-.19-.152-.293-.169-.153-.445-.18-.755.08l-.005.004-1.534 1.257a45.915 45.915 0 00-7.83 8.229l-.804-.594a46.918 46.918 0 018-8.409L13.441.442z"/>
    <path fill="#FAFAFA" d="M2.494 15.5c-.629 0-1.603-.159-1.994-.284 1.325-1.116 1.68-1.185 1.856-2.564 0-1.752 1.477-2.165 2.216-2.152.691.047 1.928.575 1.928 2.307 0 2.165-2.844 2.693-4.006 2.693z"/>
    <path fill="#0078D4" d="M2.902 10.504A2.96 2.96 0 014.606 10c.437.03 1.03.208 1.523.648.508.456.871 1.16.871 2.158 0 1.356-.91 2.166-1.854 2.61-.94.442-2.018.583-2.652.583-.676 0-1.702-.166-2.146-.307a.5.5 0 01-.17-.859c.2-.168.39-.323.555-.457l.272-.223c.218-.181.363-.314.471-.443.186-.22.298-.47.38-1.092.01-1.024.457-1.707 1.046-2.115zm.57.821c-.33.228-.616.617-.616 1.327a.502.502 0 01-.004.063c-.093.735-.246 1.206-.61 1.64a4.649 4.649 0 01-.608.577c.3.04.611.068.86.068.528 0 1.453-.124 2.226-.487.768-.361 1.28-.898 1.28-1.706 0-.734-.256-1.16-.538-1.413A1.61 1.61 0 004.55 11a1.964 1.964 0 00-1.078.325z"/>
  </g>
  <defs>
    <clipPath id="clip0_3782_41700">
      <path fill="#fff" d="M0 0h16v16H0z"/>
    </clipPath>
  </defs>
</svg>
