<svg xmlns="http://www.w3.org/2000/svg" fill="none" viewBox="0 0 16 16">
  <path fill="#FAFAFA" d="M1.5 3A1.5 1.5 0 013 1.5h2A1.5 1.5 0 016.5 3v2A1.5 1.5 0 015 6.5H3A1.5 1.5 0 011.5 5V3z"/>
  <path fill="#555" fill-rule="evenodd" d="M1 3a2 2 0 012-2h2a2 2 0 012 2v2a2 2 0 01-2 2H3a2 2 0 01-2-2V3zm2-1a1 1 0 00-1 1v2a1 1 0 001 1h2a1 1 0 001-1V3a1 1 0 00-1-1H3z" clip-rule="evenodd"/>
  <path fill="#FAFAFA" d="M9.5 3A1.5 1.5 0 0111 1.5h2A1.5 1.5 0 0114.5 3v2A1.5 1.5 0 0113 6.5h-2A1.5 1.5 0 019.5 5V3z"/>
  <path fill="#555" fill-rule="evenodd" d="M9 3a2 2 0 012-2h2a2 2 0 012 2v2a2 2 0 01-2 2h-2a2 2 0 01-2-2V3zm2-1a1 1 0 00-1 1v2a1 1 0 001 1h2a1 1 0 001-1V3a1 1 0 00-1-1h-2z" clip-rule="evenodd"/>
  <path fill="#FAFAFA" d="M1.5 11A1.5 1.5 0 013 9.5h2A1.5 1.5 0 016.5 11v2A1.5 1.5 0 015 14.5H3A1.5 1.5 0 011.5 13v-2z"/>
  <path fill="#555" fill-rule="evenodd" d="M1 11a2 2 0 012-2h2a2 2 0 012 2v2a2 2 0 01-2 2H3a2 2 0 01-2-2v-2zm2-1a1 1 0 00-1 1v2a1 1 0 001 1h2a1 1 0 001-1v-2a1 1 0 00-1-1H3z" clip-rule="evenodd"/>
  <path fill="#FAFAFA" d="M9.5 11A1.5 1.5 0 0111 9.5h2a1.5 1.5 0 011.5 1.5v2a1.5 1.5 0 01-1.5 1.5h-2A1.5 1.5 0 019.5 13v-2z"/>
  <path fill="#555" fill-rule="evenodd" d="M9 11a2 2 0 012-2h2a2 2 0 012 2v2a2 2 0 01-2 2h-2a2 2 0 01-2-2v-2zm2-1a1 1 0 00-1 1v2a1 1 0 001 1h2a1 1 0 001-1v-2a1 1 0 00-1-1h-2z" clip-rule="evenodd"/>
</svg>
