<svg viewBox="0 0 16 16" fill="none" xmlns="http://www.w3.org/2000/svg">
<path d="M4.86426 12.3066C4.86426 11.8737 4.88704 11.443 4.93262 11.0146C4.98275 10.5817 5.06478 10.1556 5.17871 9.73633C5.05111 9.74089 4.9235 9.74544 4.7959 9.75C4.67285 9.75 4.54753 9.75 4.41992 9.75C4.09635 9.75 3.78646 9.69531 3.49023 9.58594C3.19857 9.47656 2.94108 9.32389 2.71777 9.12793C2.49902 8.92741 2.32357 8.69043 2.19141 8.41699C2.0638 8.139 2 7.83138 2 7.49414C2 7.34831 2.01367 7.20247 2.04102 7.05664L2.58789 4.00098C2.66536 3.56803 2.8112 3.16927 3.02539 2.80469C3.24414 2.43555 3.51074 2.11882 3.8252 1.85449C4.14421 1.58561 4.50195 1.37598 4.89844 1.22559C5.29492 1.0752 5.71419 1 6.15625 1C6.31576 1 6.47526 1.01139 6.63477 1.03418C6.79427 1.05697 6.9515 1.08887 7.10645 1.12988L11.6113 2.37402C11.7936 2.42415 11.9645 2.49935 12.124 2.59961C12.2835 2.69987 12.4248 2.81836 12.5479 2.95508C12.6755 3.08724 12.7826 3.23763 12.8691 3.40625C12.9557 3.57031 13.0173 3.74577 13.0537 3.93262L13.3408 5.36816C13.3636 5.49577 13.375 5.61654 13.375 5.73047C13.375 5.97201 13.3317 6.19987 13.2451 6.41406C13.1585 6.6237 13.0423 6.81738 12.8965 6.99512C12.7507 7.17285 12.582 7.33008 12.3906 7.4668C12.2038 7.60352 12.0055 7.71745 11.7959 7.80859C11.6729 7.86328 11.5566 7.92025 11.4473 7.97949C11.3379 8.03874 11.2308 8.11393 11.126 8.20508C10.7933 8.49674 10.4993 8.79297 10.2441 9.09375C9.98893 9.39453 9.75651 9.70671 9.54688 10.0303C9.33724 10.3538 9.14128 10.6911 8.95898 11.042C8.77669 11.3929 8.58984 11.762 8.39844 12.1494C8.23893 12.4775 8.09766 12.8102 7.97461 13.1475C7.85612 13.4847 7.73079 13.8242 7.59863 14.166C7.50293 14.4121 7.35482 14.6126 7.1543 14.7676C6.95378 14.9225 6.7168 15 6.44336 15C6.2793 15 6.13346 14.9704 6.00586 14.9111C5.88281 14.8519 5.76204 14.763 5.64355 14.6445C5.47949 14.4805 5.34505 14.3096 5.24023 14.1318C5.13997 13.9495 5.06022 13.7604 5.00098 13.5645C4.94629 13.3685 4.90983 13.1657 4.8916 12.9561C4.87337 12.7464 4.86426 12.5299 4.86426 12.3066ZM12.5 5.73047C12.5 5.66667 12.4932 5.60286 12.4795 5.53906L12.1992 4.10352C12.1582 3.88932 12.0625 3.70247 11.9121 3.54297C11.7663 3.38346 11.5885 3.27409 11.3789 3.21484L6.87402 1.9707C6.75553 1.93424 6.63477 1.90918 6.51172 1.89551C6.39323 1.88184 6.27246 1.875 6.14941 1.875C5.81673 1.875 5.5 1.93424 5.19922 2.05273C4.89844 2.16667 4.62728 2.32617 4.38574 2.53125C4.14876 2.73177 3.94824 2.97103 3.78418 3.24902C3.62012 3.52702 3.50846 3.83008 3.44922 4.1582L2.90234 7.21387C2.89323 7.25944 2.88639 7.30501 2.88184 7.35059C2.87728 7.39616 2.875 7.44173 2.875 7.4873C2.875 7.69694 2.91602 7.88835 2.99805 8.06152C3.08008 8.23014 3.18945 8.37598 3.32617 8.49902C3.46745 8.61751 3.62923 8.71094 3.81152 8.7793C3.99382 8.8431 4.18522 8.875 4.38574 8.875C4.5179 8.875 4.64779 8.87272 4.77539 8.86816C4.90299 8.86361 5.03288 8.86133 5.16504 8.86133C5.28809 8.86133 5.40202 8.88411 5.50684 8.92969C5.61621 8.9707 5.70964 9.03223 5.78711 9.11426C5.86914 9.19173 5.93294 9.28288 5.97852 9.3877C6.02865 9.49251 6.05371 9.60645 6.05371 9.72949C6.05371 9.76595 6.04915 9.80013 6.04004 9.83203C6.03548 9.85938 6.0332 9.89128 6.0332 9.92773C6.02409 9.95052 6.01725 9.97559 6.0127 10.0029C6.0127 10.0257 6.00814 10.0485 5.99902 10.0713C5.91699 10.4404 5.85319 10.8073 5.80762 11.1719C5.76204 11.5365 5.73926 11.9079 5.73926 12.2861C5.73926 12.4456 5.74382 12.6051 5.75293 12.7646C5.76204 12.9242 5.78483 13.0791 5.82129 13.2295C5.8623 13.3753 5.91699 13.5189 5.98535 13.6602C6.05827 13.7969 6.15625 13.9245 6.2793 14.043C6.30208 14.0658 6.32487 14.0863 6.34766 14.1045C6.375 14.1182 6.4069 14.125 6.44336 14.125C6.52083 14.125 6.58691 14.0999 6.6416 14.0498C6.69629 13.9997 6.73958 13.9427 6.77148 13.8789C6.82161 13.7741 6.86263 13.667 6.89453 13.5576C6.92643 13.4437 6.96061 13.3343 6.99707 13.2295C7.18848 12.6781 7.41406 12.1403 7.67383 11.6162C7.93359 11.0876 8.20703 10.568 8.49414 10.0576C8.76758 9.57454 9.07292 9.12793 9.41016 8.71777C9.7474 8.30762 10.1234 7.92025 10.5381 7.55566C10.6839 7.42806 10.832 7.32324 10.9824 7.24121C11.1374 7.15462 11.3014 7.07259 11.4746 6.99512C11.6022 6.94043 11.7275 6.87207 11.8506 6.79004C11.9736 6.70801 12.083 6.61458 12.1787 6.50977C12.2744 6.40039 12.3519 6.2819 12.4111 6.1543C12.4704 6.02214 12.5 5.88086 12.5 5.73047Z" fill="#0C59A4"/>
<path d="M12.5 5.73047C12.5 5.66667 12.4932 5.60286 12.4795 5.53906L12.1992 4.10352C12.1582 3.88932 12.0625 3.70247 11.9121 3.54297C11.7663 3.38346 11.5885 3.27409 11.3789 3.21484L6.87402 1.9707C6.75553 1.93424 6.63477 1.90918 6.51172 1.89551C6.39323 1.88184 6.27246 1.875 6.14941 1.875C5.81673 1.875 5.5 1.93424 5.19922 2.05273C4.89844 2.16667 4.62728 2.32617 4.38574 2.53125C4.14876 2.73177 3.94824 2.97103 3.78418 3.24902C3.62012 3.52702 3.50846 3.83008 3.44922 4.1582L2.90234 7.21387C2.89323 7.25944 2.88639 7.30501 2.88184 7.35059C2.87728 7.39616 2.875 7.44173 2.875 7.4873C2.875 7.69694 2.91602 7.88835 2.99805 8.06152C3.08008 8.23014 3.18945 8.37598 3.32617 8.49902C3.46745 8.61751 3.62923 8.71094 3.81152 8.7793C3.99382 8.8431 4.18522 8.875 4.38574 8.875C4.5179 8.875 4.64779 8.87272 4.77539 8.86816C4.90299 8.86361 5.03288 8.86133 5.16504 8.86133C5.28809 8.86133 5.40202 8.88411 5.50684 8.92969C5.61621 8.9707 5.70964 9.03223 5.78711 9.11426C5.86914 9.19173 5.93294 9.28288 5.97852 9.3877C6.02865 9.49251 6.05371 9.60645 6.05371 9.72949C6.05371 9.76595 6.04915 9.80013 6.04004 9.83203C6.03548 9.85938 6.0332 9.89128 6.0332 9.92773C6.02409 9.95052 6.01725 9.97559 6.0127 10.0029C6.0127 10.0257 6.00814 10.0485 5.99902 10.0713C5.91699 10.4404 5.85319 10.8073 5.80762 11.1719C5.76204 11.5365 5.73926 11.9079 5.73926 12.2861C5.73926 12.4456 5.74382 12.6051 5.75293 12.7646C5.76204 12.9242 5.78483 13.0791 5.82129 13.2295C5.8623 13.3753 5.91699 13.5189 5.98535 13.6602C6.05827 13.7969 6.15625 13.9245 6.2793 14.043C6.30208 14.0658 6.32487 14.0863 6.34766 14.1045C6.375 14.1182 6.4069 14.125 6.44336 14.125C6.52083 14.125 6.58691 14.0999 6.6416 14.0498C6.69629 13.9997 6.73958 13.9427 6.77148 13.8789C6.82161 13.7741 6.86263 13.667 6.89453 13.5576C6.92643 13.4437 6.96061 13.3343 6.99707 13.2295C7.18848 12.6781 7.41406 12.1403 7.67383 11.6162C7.93359 11.0876 8.20703 10.568 8.49414 10.0576C8.76758 9.57454 9.07292 9.12793 9.41016 8.71777C9.7474 8.30762 10.1234 7.92025 10.5381 7.55566C10.6839 7.42806 10.832 7.32324 10.9824 7.24121C11.1374 7.15462 11.3014 7.07259 11.4746 6.99512C11.6022 6.94043 11.7275 6.87207 11.8506 6.79004C11.9736 6.70801 12.083 6.61458 12.1787 6.50977C12.2744 6.40039 12.3519 6.2819 12.4111 6.1543C12.4704 6.02214 12.5 5.88086 12.5 5.73047Z" fill="white"/>
</svg>
