<svg xmlns="http://www.w3.org/2000/svg" fill="none" viewBox="0 0 16 16">
  <path fill="#FAFAFA" d="M.5 4A1.5 1.5 0 012 2.5h2A1.5 1.5 0 015.5 4v1A1.5 1.5 0 014 6.5H2A1.5 1.5 0 01.5 5V4z"/>
  <path fill="#555" d="M0 4a2 2 0 012-2h2a2 2 0 012 2v1a2 2 0 01-2 2H2a2 2 0 01-2-2V4zm2-1a1 1 0 00-1 1v1a1 1 0 001 1h2a1 1 0 001-1V4a1 1 0 00-1-1H2z"/>
  <path fill="#FAFAFA" d="M.5 11A1.5 1.5 0 012 9.5h2A1.5 1.5 0 015.5 11v1A1.5 1.5 0 014 13.5H2A1.5 1.5 0 01.5 12v-1z"/>
  <path fill="#555" d="M0 11a2 2 0 012-2h2a2 2 0 012 2v1a2 2 0 01-2 2H2a2 2 0 01-2-2v-1zm2-1a1 1 0 00-1 1v1a1 1 0 001 1h2a1 1 0 001-1v-1a1 1 0 00-1-1H2zM8 3.5a.5.5 0 01.5-.5h7a.5.5 0 010 1h-7a.5.5 0 01-.5-.5zM8 10.5a.5.5 0 01.5-.5h7a.5.5 0 010 1h-7a.5.5 0 01-.5-.5z"/>
</svg>
