<svg xmlns="http://www.w3.org/2000/svg" fill="none" viewBox="0 0 16 16">
  <path fill="#FAFAFA" d="M2.5 1.5h3a2 2 0 011.6.8L8 3.5h4.5a2 2 0 012 2 .87.87 0 01.862.99l-.092.668A5.75 5.75 0 006.594 14.5H2.5a2 2 0 01-2-2v-9a2 2 0 012-2z"/>
  <path fill="#555" d="M2.5 1A2.5 2.5 0 000 3.5v9A2.5 2.5 0 002.5 15h4.438a5.751 5.751 0 01-.618-1H2.5c-.254 0-.494-.063-.704-.175l1.447-7.027A1 1 0 014.223 6h5.595a5.75 5.75 0 011.682-.25c.585 0 1.15.087 1.682.25h.595a1 1 0 01.97.754c.353.242.678.522.968.835l.043-.314a1.997 1.997 0 00-.76-1.86A2.5 2.5 0 0012.5 3H8.25L7.5 2a2.5 2.5 0 00-2-1h-3zm10 3a1.5 1.5 0 011.416 1.005A2.044 2.044 0 0013.777 5H4.223a2 2 0 00-1.96 1.597l-1.252 6.085c-.007-.06-.011-.12-.011-.182v-9A1.5 1.5 0 012.5 2h3a1.5 1.5 0 011.2.6l.9 1.2.15.2h4.75z"/>
  <path fill="#0078D4" d="M11.5 7a4.5 4.5 0 110 9 4.5 4.5 0 010-9z"/>
  <path fill="#fff" d="M11.146 13.854a.5.5 0 010-.708l1.647-1.646-1.647-1.646a.5.5 0 01.708-.708l2 2a.5.5 0 010 .708l-2 2a.5.5 0 01-.708 0z"/>
  <path fill="#fff" d="M9 11.5a.5.5 0 01.5-.5h4a.5.5 0 010 1h-4a.5.5 0 01-.5-.5z"/>
</svg>
