<svg xmlns="http://www.w3.org/2000/svg" fill="none" viewBox="0 0 16 16">
  <g clip-path="url(#clip0_5150_83892)">
    <path fill="#FAFAFA" d="M2.5 2.5H2A1.5 1.5 0 00.5 4v2A1.5 1.5 0 002 7.5h5.5l-5-5zM9.621 7.5H13A1.5 1.5 0 0014.5 6V4A1.5 1.5 0 0013 2.5H4.621l5 5zM4.5 12a.5.5 0 01.5-.5h1.5V11a.5.5 0 01.5-.5h1a.5.5 0 01.5.5v.5H10a.5.5 0 01.5.5v1a.5.5 0 01-.5.5H5a.5.5 0 01-.5-.5v-1z"/>
    <g>
      <path fill="#555" d="M0 4a2 2 0 012-2l1 1H2a1 1 0 00-1 1v2a1 1 0 001 1h5l1 1v2a1 1 0 011 1h1a1 1 0 011 1h1l1 1h-2a1 1 0 01-1 1H5a1 1 0 01-1-1H.5a.5.5 0 010-1H4a1 1 0 011-1h1a1 1 0 011-1V8H2a2 2 0 01-2-2V4zm5 9h5v-1H8.5a.5.5 0 01-.5-.5V11H7v.5a.5.5 0 01-.5.5H5v1zM13 7H9.121l1 1H13a2 2 0 002-2V4a2 2 0 00-2-2H4.121l1 1H13a1 1 0 011 1v2a1 1 0 01-1 1z"/>
      <path fill="#555" d="M11.25 5.5a.75.75 0 100-1.5.75.75 0 000 1.5z"/>
    </g>
    <path fill="#0078D4" d="M.146.146a.5.5 0 01.708 0l15 15a.5.5 0 01-.708.708l-15-15a.5.5 0 010-.708z"/>
  </g>
  <defs>
    <clipPath id="clip0_5150_83892">
      <path fill="#fff" d="M0 0h16v16H0z"/>
    </clipPath>
  </defs>
</svg>
