<svg xmlns="http://www.w3.org/2000/svg" fill="none" viewBox="0 0 16 16">
  <path fill="#FAFAFA" d="M12 1.5H4A2.5 2.5 0 001.5 4v8A2.5 2.5 0 004 14.5h3.464a2.5 2.5 0 001.768-.732l4.536-4.536a2.5 2.5 0 00.732-1.768V4A2.5 2.5 0 0012 1.5z"/>
  <path fill="#0078D4" d="M6.5 5.5a1 1 0 11-2 0 1 1 0 012 0zM4.396 9.396a.5.5 0 01.708 0c.301.302 1.346 1.229 2.896 1.229a.5.5 0 010 1c-1.95 0-3.239-1.156-3.604-1.521a.5.5 0 010-.708zM10.5 6.5a1 1 0 100-2 1 1 0 000 2z"/>
  <path fill="#555" d="M4 1a3 3 0 00-3 3v8a3 3 0 003 3h3.464a3 3 0 002.122-.879l4.535-4.535A3 3 0 0015 7.464V4a3 3 0 00-3-3H4zM2 4a2 2 0 012-2h8a2 2 0 012 2v3.464c0 .183-.025.363-.073.536H11a3 3 0 00-3 3v2.927a2.002 2.002 0 01-.536.073H4a2 2 0 01-2-2V4zm7 9.293V11a2 2 0 012-2h2.293L9 13.293z"/>
</svg>
