<svg xmlns="http://www.w3.org/2000/svg" fill="none" viewBox="0 0 16 16">
  <path fill="#FAFAFA" d="M2.174 3.62l-1.23 8a2.5 2.5 0 002.47 2.88H6.75V8.362c0-1.728 1.866-2.811 3.366-1.954l4.255 2.431.686-4.459a2.5 2.5 0 00-2.47-2.88H4.644a2.5 2.5 0 00-2.471 2.12z"/>
  <path fill="#555" d="M1.437 11.696L2.467 5h11.989l-.55 3.574.93.531.715-4.649A3 3 0 0012.586 1H4.645A3 3 0 001.68 3.544l-1.231 8A3 3 0 003.414 15h3.364a2.323 2.323 0 01-.028-.361V14H3.414a2 2 0 01-1.977-2.304zM4.645 2h7.94a2 2 0 012.001 2H2.621l.047-.304A2 2 0 014.645 2z"/>
  <path fill="#0078D4" d="M9.496 7.493A1 1 0 008 8.362v6.276a1 1 0 001.496.869l5.492-3.139a1 1 0 000-1.736L9.496 7.493z"/>
</svg>
