<svg xmlns="http://www.w3.org/2000/svg" fill="none" viewBox="0 0 16 16">
  <path fill="#FAFAFA" d="M2.5 1.5h3a2 2 0 011.6.8L8 3.5h5.5a2 2 0 012 2v.708a2.491 2.491 0 00-1-.208h-6A2.5 2.5 0 006 8.5v6H2.5a2 2 0 01-2-2v-9a2 2 0 012-2z"/>
  <path fill="#555" d="M0 3.5A2.5 2.5 0 012.5 1h3a2.5 2.5 0 012 1l.75 1h5.25A2.5 2.5 0 0116 5.5v1a2.489 2.489 0 00-1-.45V5.5A1.5 1.5 0 0013.5 4H8.151l-.87.58A2.5 2.5 0 015.894 5H1v7.5A1.5 1.5 0 002.5 14H6v.5c0 .171.017.338.05.5H2.5A2.5 2.5 0 010 12.5v-9zM2.5 2A1.5 1.5 0 001 3.5V4h4.894a1.5 1.5 0 00.832-.252l.557-.37L6.7 2.6A1.5 1.5 0 005.5 2h-3z"/>
  <path fill="#0078D4" d="M7 8.5A1.5 1.5 0 018.5 7h6A1.5 1.5 0 0116 8.5v6a1.5 1.5 0 01-1.5 1.5h-6A1.5 1.5 0 017 14.5v-6z"/>
  <path fill="#fff" d="M14.398 9.602c.22.22.22.576 0 .796l-3.5 3.5a.562.562 0 01-.796 0l-1.5-1.5a.562.562 0 11.796-.796l1.102 1.102 3.102-3.102c.22-.22.576-.22.796 0z"/>
</svg>
