<svg xmlns="http://www.w3.org/2000/svg" fill="none" viewBox="0 0 16 16">
  <path fill="#FAFAFA" d="M10.3 5.6L8 .9 5.7 5.6l-5.2.7L4.252 10l-.86 5.107L8 12.688l4.607 2.42-.86-5.108L15.5 6.3l-5.2-.7z"/>
  <path fill="#0078D4" d="M8 2.01l1.748 3.542.233.472.52.075 3.91.569-2.83 2.757-.376.367.089.518.668 3.894-3.497-1.839L8 12.121l-.465.245-3.497 1.838.668-3.894.089-.518-.377-.367L1.59 6.668 5.5 6.1l.52-.076.232-.471L8 2.01zM7.998.38a.491.491 0 00-.446.279l-2.197 4.45-4.912.715a.5.5 0 00-.277.852l3.554 3.465-.839 4.892a.503.503 0 00.493.586c.081 0 .161-.02.233-.059L8 13.25l4.393 2.31a.495.495 0 00.614-.12.502.502 0 00.112-.407l-.84-4.892 3.555-3.465a.5.5 0 00-.277-.852l-4.912-.714L8.448.659a.496.496 0 00-.45-.278z"/>
</svg>
