<svg xmlns="http://www.w3.org/2000/svg" fill="none" viewBox="0 0 16 16">
  <g clip-path="url(#clip0_3734_33535)">
    <path fill="#FAFAFA" d="M12 6l-2-2L13.007.993A4.45 4.45 0 0011 .5 4.5 4.5 0 006.5 5c.006.436.077.87.209 1.286l-5.587 5.586a2.125 2.125 0 103.006 3.006L9.714 9.29c.416.132.85.203 1.286.209A4.5 4.5 0 0015.5 5a4.449 4.449 0 00-.493-2.007L12 6z"/>
    <path fill="#555" d="M7.464 1.464A5 5 0 0111 0h.003a4.95 4.95 0 012.233.548.5.5 0 01.125.798L10.707 4 12 5.293l2.654-2.654a.5.5 0 01.798.125A4.95 4.95 0 0116 4.997V5a5 5 0 01-5 5h-.007a4.952 4.952 0 01-1.133-.148l-5.378 5.379a2.627 2.627 0 01-4.285-.85 2.625 2.625 0 01.572-2.862l5.379-5.38A4.952 4.952 0 016 5.008V5a5 5 0 011.464-3.536zM10.998 1A4 4 0 007 4.996c.006.387.068.77.185 1.138a.5.5 0 01-.123.505l-5.586 5.587a1.628 1.628 0 00-.355 1.773 1.626 1.626 0 002.652.526l5.588-5.588a.5.5 0 01.505-.122c.368.117.751.18 1.138.185A4 4 0 0015 5.002a3.948 3.948 0 00-.171-1.124l-2.476 2.476a.5.5 0 01-.707 0l-2-2a.5.5 0 010-.708l2.476-2.475A3.95 3.95 0 0010.998 1z"/>
  </g>
  <defs>
    <clipPath id="clip0_3734_33535">
      <path fill="#fff" d="M0 0h16v16H0z"/>
    </clipPath>
  </defs>
</svg>
