<svg xmlns="http://www.w3.org/2000/svg" fill="none" viewBox="0 0 16 16">
  <path fill="#FAFAFA" d="M2 2a2 2 0 012-2h8a2 2 0 012 2v5a2 2 0 01-2 2H4a2 2 0 01-2-2V2z"/>
  <path fill="#555" d="M12 1a1 1 0 011 1v5a1 1 0 01-1 1H4a1 1 0 01-1-1V2a1 1 0 011-1h8zM4 0a2 2 0 00-2 2v5a2 2 0 002 2h8a2 2 0 002-2V2a2 2 0 00-2-2H4z"/>
  <path fill="#555" d="M6.5 8a.5.5 0 01.5.5V10h2V8.5a.5.5 0 011 0V10h1.5a.5.5 0 010 1h-7a.5.5 0 010-1H6V8.5a.5.5 0 01.5-.5z"/>
  <path fill="#FAFAFA" d="M2.5 15.5l1-3h9l1 3h-11z"/>
  <path fill="#555" d="M3.026 12.342A.5.5 0 013.5 12h9a.5.5 0 01.474.342l1 3A.5.5 0 0113.5 16h-11a.5.5 0 01-.474-.658l1-3zM3.86 13l-.666 2h9.612l-.666-2H3.86z"/>
</svg>
