<svg xmlns="http://www.w3.org/2000/svg" fill="none" viewBox="0 0 16 16">
  <g clip-path="url(#clip0_4596_158)">
    <path fill="#FAFAFA" d="M4.988 5.696L.5 6.3 4.252 10l-.86 5.107L8 12.688l4.607 2.42-.362-2.156-7.257-7.256zM11.936 9.815L15.5 6.3l-5.2-.7L8 .9 6.364 4.243l5.572 5.572zM5.611 5.612l6.49 6.49-.142-.85-6.06-6.06L5.7 5.6l-.089.012z"/>
    <g>
      <path fill="#555" d="M4.524 5.23l-4.081.594a.5.5 0 00-.277.852l3.554 3.465-.839 4.892a.503.503 0 00.493.586c.081 0 .161-.02.233-.059L8 13.25l4.393 2.31a.495.495 0 00.614-.12.502.502 0 00.112-.407l-.25-1.457-1.225-1.225.318 1.853L8 12.12l-3.962 2.083.757-4.412-3.206-3.124 3.817-.555-.882-.882zM11.497 11.497l1.226 1.225-.147-.853-1.225-1.225.146.853zM6.254 5.547l-.234.473-.88-.88.215-.03.153-.31.746.747zM11.564 9.442l2.846-2.774-4.43-.644L8 2.01 6.72 4.6l-.746-.746L7.552.659A.491.491 0 017.998.38a.496.496 0 01.45.278l2.197 4.45 4.912.715a.5.5 0 01.277.852l-3.554 3.465.003.02-.72-.719z"/>
    </g>
    <path fill="#0078D4" d="M.146.146a.5.5 0 01.708 0l15 15a.5.5 0 01-.708.708l-15-15a.5.5 0 010-.708z"/>
  </g>
  <defs>
    <clipPath id="clip0_4596_158">
      <path fill="#fff" d="M0 0h16v16H0z"/>
    </clipPath>
  </defs>
</svg>
