<svg xmlns="http://www.w3.org/2000/svg" fill="none" viewBox="0 0 16 16">
  <g clip-path="url(#clip0_3639_574)">
    <path fill="#555" d="M15.854.146a.5.5 0 010 .708l-5.5 5.5a.5.5 0 01-.708-.708l5.5-5.5a.5.5 0 01.708 0z"/>
    <path fill="#FAFAFA" d="M9.063 12.063l.026-.044A3.75 3.75 0 103.98 6.911l-.043.026 5.124 5.125z"/>
    <path fill="#555" d="M3.604 6.565a4.25 4.25 0 115.831 5.831.5.5 0 01-.726.02L3.584 7.291a.5.5 0 01.02-.726zm.986.318l4.527 4.527A3.25 3.25 0 104.59 6.882z"/>
    <path fill="#FAFAFA" d="M9.063 12.063L3.936 6.936.5 9 7 15.5l2.063-3.438z"/>
    <path fill="#0078D4" d="M3.68 6.509a.5.5 0 01.611.075l5.125 5.125a.5.5 0 01.075.61L7.43 15.758a.5.5 0 01-.783.097l-6.5-6.5a.5.5 0 01.097-.783L3.68 6.51zm-2.374 2.59l5.595 5.595 1.532-2.554L3.86 7.567 1.306 9.1z"/>
  </g>
  <defs>
    <clipPath id="clip0_3639_574">
      <path fill="#fff" d="M0 0h16v16H0z"/>
    </clipPath>
  </defs>
</svg>
