<svg xmlns="http://www.w3.org/2000/svg" fill="none" viewBox="0 0 16 16">
  <g clip-path="url(#clip0_8439_115973)">
    <path fill="#FAFAFA" d="M11 1.5H4A2.5 2.5 0 001.5 4v7A2.5 2.5 0 004 13.5h7a2.5 2.5 0 002.5-2.5V4A2.5 2.5 0 0011 1.5z"/>
    <path fill="#555" d="M3.764 15c.549.614 1.347 1 2.236 1h6a4 4 0 004-4V6c0-.888-.386-1.687-1-2.236V12a3 3 0 01-3 3H3.764z"/>
    <path fill="#555" d="M1 4a3 3 0 013-3h7a3 3 0 013 3v7a3 3 0 01-3 3H4a3 3 0 01-3-3V4zm3-2a2 2 0 00-2 2v7a2 2 0 002 2h7a2 2 0 002-2V4a2 2 0 00-2-2H4z"/>
    <path fill="#0078D4" d="M7.5 4a.5.5 0 01.5.5V7h2.5a.5.5 0 010 1H8v2.5a.5.5 0 01-1 0V8H4.5a.5.5 0 010-1H7V4.5a.5.5 0 01.5-.5z"/>
  </g>
  <defs>
    <clipPath id="clip0_8439_115973">
      <path fill="#fff" d="M0 0h16v16H0z"/>
    </clipPath>
  </defs>
</svg>
