<svg xmlns="http://www.w3.org/2000/svg" fill="none" viewBox="0 0 16 16">
  <path fill="#0078D4" fill-rule="evenodd" d="M8 1.5a.5.5 0 01.5-.5h6a.5.5 0 01.5.5v6a.5.5 0 01-1 0V2.707L7.854 8.854a.5.5 0 11-.708-.708L13.293 2H8.5a.5.5 0 01-.5-.5z" clip-rule="evenodd"/>
  <path fill="#555" fill-rule="evenodd" d="M1 4.5A2.5 2.5 0 013.5 2h3a.5.5 0 010 1h-3A1.5 1.5 0 002 4.5v8A1.5 1.5 0 003.5 14h8a1.5 1.5 0 001.5-1.5v-3a.5.5 0 011 0v3a2.5 2.5 0 01-2.5 2.5h-8A2.5 2.5 0 011 12.5v-8z" clip-rule="evenodd"/>
</svg>
