<svg xmlns="http://www.w3.org/2000/svg" fill="none" viewBox="0 0 16 16">
  <g clip-path="url(#clip0_3759_934)">
    <path fill="#0078D4" d="M11.5 2a.5.5 0 01.5.5v11a.5.5 0 01-1 0v-11a.5.5 0 01.5-.5z"/>
    <path fill="#0078D4" d="M7.146 9.146a.5.5 0 01.708 0l3.646 3.647 3.646-3.647a.5.5 0 01.708.708l-4 4a.5.5 0 01-.708 0l-4-4a.5.5 0 010-.708z"/>
    <path fill="#555" d="M4.5 2a.5.5 0 01.5.5v11a.5.5 0 01-1 0v-11a.5.5 0 01.5-.5z"/>
    <path fill="#555" d="M4.146 2.146a.5.5 0 01.708 0l4 4a.5.5 0 11-.708.708L4.5 3.207.854 6.854a.5.5 0 11-.708-.708l4-4z"/>
  </g>
  <defs>
    <clipPath id="clip0_3759_934">
      <path fill="#fff" d="M0 0h16v16H0z"/>
    </clipPath>
  </defs>
</svg>
