<svg xmlns="http://www.w3.org/2000/svg" fill="none" viewBox="0 0 16 16">
  <path fill="#FAFAFA" d="M13 2.5H3A2.5 2.5 0 00.5 5v6A2.5 2.5 0 003 13.5h10a2.5 2.5 0 002.5-2.5V5A2.5 2.5 0 0013 2.5z"/>
  <path fill="#555" d="M0 5a3 3 0 013-3h7v12H3a3 3 0 01-3-3V5zm3-2a2 2 0 00-2 2v6a2 2 0 002 2h6V3H3z"/>
  <path fill="#0078D4" d="M9 2.5a.5.5 0 01.5-.5H13a3 3 0 013 3v6a3 3 0 01-3 3H9.5a.5.5 0 01-.5-.5v-11zm1 .5v10h3a2 2 0 002-2V5a2 2 0 00-2-2h-3zm1 3.5a.5.5 0 01.5-.5h2a.5.5 0 010 1h-2a.5.5 0 01-.5-.5zm0 2a.5.5 0 01.5-.5h2a.5.5 0 010 1h-2a.5.5 0 01-.5-.5zm0 2a.5.5 0 01.5-.5h2a.5.5 0 010 1h-2a.5.5 0 01-.5-.5z"/>
</svg>
