<svg xmlns="http://www.w3.org/2000/svg" fill="none" viewBox="0 0 16 16">
  <path fill="#FAFAFA" d="M2.5 14V2A1.5 1.5 0 014 .5h3.879a1.5 1.5 0 011.06.44l4.122 4.12a1.5 1.5 0 01.439 1.061V14a1.5 1.5 0 01-1.5 1.5H4A1.5 1.5 0 012.5 14z"/>
  <path fill="#555" d="M4 0a2 2 0 00-2 2v12a2 2 0 002 2h8a2 2 0 002-2V6.121a2 2 0 00-.586-1.414L9.293.586A2 2 0 007.879 0H4zM3 2a1 1 0 011-1h3.879c.04 0 .081.002.121.007V4a2 2 0 002 2h2.993c.005.04.007.08.007.121V14a1 1 0 01-1 1H4a1 1 0 01-1-1V2zm9.293 3H10a1 1 0 01-1-1V1.707L12.293 5z"/>
  <path fill="#0078D4" d="M8.88 7.852l.551-.547c.277.124.535.283.768.472l-.17.547a1.25 1.25 0 00.914 1.589l.526.12a3.538 3.538 0 010 .934l-.526.12a1.25 1.25 0 00-.914 1.589l.17.547c-.233.189-.49.348-.768.472l-.552-.547a1.25 1.25 0 00-1.758 0l-.552.547a3.504 3.504 0 01-.768-.472l.17-.547a1.25 1.25 0 00-.914-1.589l-.526-.12a3.531 3.531 0 010-.934l.526-.12a1.25 1.25 0 00.914-1.589l-.17-.547a3.5 3.5 0 01.768-.472l.552.547a1.25 1.25 0 001.758 0zM8 11.25a.75.75 0 100-1.5.75.75 0 000 1.5z"/>
</svg>
