<svg xmlns="http://www.w3.org/2000/svg" fill="none" viewBox="0 0 16 16">
  <path fill="#FAFAFA" d="M5 4.5H3.5a2 2 0 00-2 2v6a2 2 0 002 2h4A2 2 0 009.437 13H8a3 3 0 01-3-3V4.5z"/>
  <path fill="#555" d="M5 4H3.5A2.5 2.5 0 001 6.5v6A2.5 2.5 0 003.5 15h4a2.5 2.5 0 002.45-2H8.915A1.5 1.5 0 017.5 14h-4A1.5 1.5 0 012 12.5v-6A1.5 1.5 0 013.5 5H5V4z"/>
  <path fill="#FAFAFA" d="M6.5 9.5v-6a2 2 0 012-2h4a2 2 0 012 2v6a2 2 0 01-2 2h-4a2 2 0 01-2-2z"/>
  <path fill="#0078D4" d="M8.5 2A1.5 1.5 0 007 3.5v6A1.5 1.5 0 008.5 11h4A1.5 1.5 0 0014 9.5v-6A1.5 1.5 0 0012.5 2h-4zM6 3.5A2.5 2.5 0 018.5 1h4A2.5 2.5 0 0115 3.5v6a2.5 2.5 0 01-2.5 2.5h-4A2.5 2.5 0 016 9.5v-6z"/>
</svg>
