<svg xmlns="http://www.w3.org/2000/svg" fill="none" viewBox="0 0 16 16">
  <g clip-path="url(#clip0_4596_8519)">
    <path fill="#555" d="M5.274 11.433L.707 16l-.002-.002H.002v-.703L0 15.293l4.567-4.567.707.707z"/>
    <path fill="#FAFAFA" d="M5.28 5.988L1.5 7.5l7 7 1.221-4.072-4.44-4.44zM11.145 9.023l3.477-1.449a1 1 0 00.322-1.63L10.02 1.02a1 1 0 00-1.617.294L6.85 4.729l4.295 4.294zM5.786 5.786l4.1 4.1a1 1 0 01.295-.412L6.28 5.572a1 1 0 01-.153.077l-.341.137z"/>
    <g>
      <path fill="#555" d="M4.896 5.603L1.314 7.036a.5.5 0 00-.168.817l7 7a.5.5 0 00.833-.21l1.144-3.813-.803-.803-1.058 3.527L2.39 7.683l3.275-1.31-.77-.77zM9.511 9.511l.775.775.057-.189a.5.5 0 01.194-.267l-.71-.711a1.5 1.5 0 00-.316.392zM6.64 5.932a1.5 1.5 0 01-.327.181l-.143.057-.769-.769.505-.202.734.733zM10.762 8.64l3.667-1.527a.5.5 0 00.162-.815L9.666 1.374l-.205-.124a.5.5 0 00-.604.27l-1.63 3.587-.755-.756 1.475-3.244a1.5 1.5 0 012.425-.44l4.925 4.924a1.501 1.501 0 01-.484 2.445l-3.287 1.37-.765-.765z"/>
    </g>
    <path fill="#0078D4" d="M.146.146a.5.5 0 01.708 0l15 15a.5.5 0 01-.708.708l-15-15a.5.5 0 010-.708z"/>
  </g>
  <defs>
    <clipPath id="clip0_4596_8519">
      <path fill="#fff" d="M0 0h16v16H0z"/>
    </clipPath>
  </defs>
</svg>
