<svg xmlns="http://www.w3.org/2000/svg" fill="none" viewBox="0 0 16 16">
  <path fill="#FAFAFA" d="M5.5 1.5h-3a2 2 0 00-2 2v9a2 2 0 002 2h11a2 2 0 002-2v-7a2 2 0 00-2-2H8.75a1.5 1.5 0 01-1.2-.6l-.45-.6a2 2 0 00-1.6-.8z"/>
  <path fill="#555" d="M2.5 1A2.5 2.5 0 000 3.5v9A2.5 2.5 0 002.5 15h11a2.5 2.5 0 002.5-2.5v-7A2.5 2.5 0 0013.5 3H8.25L7.5 2a2.5 2.5 0 00-2-1h-3zM1 3.5A1.5 1.5 0 012.5 2h3a1.5 1.5 0 011.2.6l.583.777-.557.371A1.5 1.5 0 015.894 4H1v-.5zM1 5h4.894a2.5 2.5 0 001.387-.42l.87-.58H13.5A1.5 1.5 0 0115 5.5v7a1.5 1.5 0 01-1.5 1.5h-11A1.5 1.5 0 011 12.5V5z"/>
</svg>
