<svg xmlns="http://www.w3.org/2000/svg" fill="none" viewBox="0 0 16 16">
  <g clip-path="url(#clip0_5945_91081)">
    <path fill="#FAFAFA" d="M.534 6h1.592a4.002 4.002 0 007.748 0H11.5v-.007a1.501 1.501 0 001.447-1.897 6.606 6.606 0 00-.674-1.596H13A2.5 2.5 0 0115.5 5v6a2.5 2.5 0 01-2.5 2.5H3A2.5 2.5 0 01.5 11V6h.034z"/>
    <path fill="#555" d="M1 6H.534A1.5 1.5 0 010 5.914V11a3 3 0 003 3h10a3 3 0 003-3V5a3 3 0 00-3-3h-1.051c.224.315.421.649.59 1H13a2 2 0 012 2v5H1V6zm2 7a2 2 0 01-2-2h10.5a.5.5 0 100 1 .5.5 0 000-1h2a.5.5 0 100 1 .5.5 0 000-1H15a2 2 0 01-2 2H3z"/>
    <path fill="#0078D4" d="M.982 4.632C1.547 2.562 3.564 1 6.001 1c2.434 0 4.45 1.56 5.017 3.625a.5.5 0 00.964-.265C11.29 1.834 8.858 0 6.001 0 3.141 0 .708 1.838.018 4.368a.5.5 0 10.964.264z"/>
    <path fill="#0078D4" d="M3 5a3 3 0 116 0 3 3 0 01-6 0z"/>
  </g>
  <defs>
    <clipPath id="clip0_5945_91081">
      <path fill="#fff" d="M0 0h16v16H0z"/>
    </clipPath>
  </defs>
</svg>
