<svg xmlns="http://www.w3.org/2000/svg" fill="none" viewBox="0 0 16 16">
  <path fill="#FAFAFA" d="M2.5 1.5h2a1 1 0 011-1h3a1 1 0 011 1h2a1 1 0 011 1V4H8a2 2 0 00-2 2v9.5H2.5a1 1 0 01-1-1v-12a1 1 0 011-1z"/>
  <path fill="#555" d="M2.5 2a.5.5 0 00-.5.5v12a.5.5 0 00.5.5h3a.5.5 0 010 1h-3A1.5 1.5 0 011 14.5v-12A1.5 1.5 0 012.5 1h2a.5.5 0 010 1h-2zM9 1.5a.5.5 0 01.5-.5h2A1.5 1.5 0 0113 2.5v1a.5.5 0 01-1 0v-1a.5.5 0 00-.5-.5h-2a.5.5 0 01-.5-.5z"/>
  <path fill="#555" d="M4 1.5A1.5 1.5 0 015.5 0h3a1.5 1.5 0 110 3h-3A1.5 1.5 0 014 1.5zM5.5 1a.5.5 0 000 1h3a.5.5 0 000-1h-3z"/>
  <path fill="#FAFAFA" d="M13.5 5.5h-5a1 1 0 00-1 1v8a1 1 0 001 1h5a1 1 0 001-1v-8a1 1 0 00-1-1z"/>
  <path fill="#0078D4" d="M7 6.5A1.5 1.5 0 018.5 5h5A1.5 1.5 0 0115 6.5v8a1.5 1.5 0 01-1.5 1.5h-5A1.5 1.5 0 017 14.5v-8zM8.5 6a.5.5 0 00-.5.5v8a.5.5 0 00.5.5h5a.5.5 0 00.5-.5v-8a.5.5 0 00-.5-.5h-5z"/>
</svg>
