<svg xmlns="http://www.w3.org/2000/svg" fill="none" viewBox="0 0 16 16">
  <path fill="#555" d="M4.5 4a.5.5 0 01.5.5V7h4.5a.5.5 0 010 1H5v4a1 1 0 001 1h3.5a.5.5 0 010 1H6a2 2 0 01-2-2V4.5a.5.5 0 01.5-.5z"/>
  <path fill="#FAFAFA" d="M2.5 4V1A.5.5 0 013 .5h3a.5.5 0 01.5.5v3a.5.5 0 01-.5.5H3a.5.5 0 01-.5-.5z"/>
  <path fill="#0078D4" d="M2 1a1 1 0 011-1h3a1 1 0 011 1v3a1 1 0 01-1 1H3a1 1 0 01-1-1V1zm4 0H3v3h3V1z"/>
  <path fill="#FAFAFA" d="M9.5 9V6a.5.5 0 01.5-.5h3a.5.5 0 01.5.5v3a.5.5 0 01-.5.5h-3a.5.5 0 01-.5-.5z"/>
  <path fill="#0078D4" d="M9 6a1 1 0 011-1h3a1 1 0 011 1v3a1 1 0 01-1 1h-3a1 1 0 01-1-1V6zm4 0h-3v3h3V6z"/>
  <path fill="#FAFAFA" d="M9.5 15v-3a.5.5 0 01.5-.5h3a.5.5 0 01.5.5v3a.5.5 0 01-.5.5h-3a.5.5 0 01-.5-.5z"/>
  <path fill="#0078D4" d="M9 12a1 1 0 011-1h3a1 1 0 011 1v3a1 1 0 01-1 1h-3a1 1 0 01-1-1v-3zm4 0h-3v3h3v-3z"/>
</svg>
