<svg xmlns="http://www.w3.org/2000/svg" fill="none" viewBox="0 0 16 16">
  <path fill="#FAFAFA" d="M1.5 2v12A1.5 1.5 0 003 15.5h.063A2.004 2.004 0 013 15v-3a2 2 0 012-2h7.5V6.121a1.5 1.5 0 00-.44-1.06L7.94.939A1.5 1.5 0 006.878.5H3A1.5 1.5 0 001.5 2z"/>
  <path fill="#555" d="M2 2a1 1 0 011-1h3.879a1 1 0 01.707.293l4.121 4.121a1 1 0 01.293.707V10h1V6.121a2 2 0 00-.586-1.414L8.293.586A2 2 0 006.879 0H3a2 2 0 00-2 2v12a2 2 0 002 2h.268A1.99 1.99 0 013 15a1 1 0 01-1-1V2z"/>
  <path fill="#555" d="M7 4V.5h1V4a1 1 0 001 1h3.5v1H9a2 2 0 01-2-2z"/>
  <path fill="#FAFAFA" d="M4.5 14.5v-2a1 1 0 011-1h9a1 1 0 011 1v2a1 1 0 01-1 1h-9a1 1 0 01-1-1z"/>
  <path fill="#0078D4" d="M5.5 12a.5.5 0 00-.5.5v2a.5.5 0 00.5.5h9a.5.5 0 00.5-.5v-2a.5.5 0 00-.5-.5h-9zm-1.5.5A1.5 1.5 0 015.5 11h9a1.5 1.5 0 011.5 1.5v2a1.5 1.5 0 01-1.5 1.5h-9A1.5 1.5 0 014 14.5v-2z"/>
  <path fill="#0078D4" d="M4.5 14.5v-2a1 1 0 011-1h8l-2 4h-6a1 1 0 01-1-1z"/>
</svg>
