<svg xmlns="http://www.w3.org/2000/svg" fill="none" viewBox="0 0 16 16">
  <path fill="#555" d="M5 2.5a.5.5 0 01.5-.5h9a.5.5 0 010 1h-9a.5.5 0 01-.5-.5zm0 3a.5.5 0 01.5-.5h9a.5.5 0 010 1h-9a.5.5 0 01-.5-.5zm0 5a.5.5 0 01.5-.5h9a.5.5 0 010 1h-9a.5.5 0 01-.5-.5zm0 3a.5.5 0 01.5-.5h9a.5.5 0 010 1h-9a.5.5 0 01-.5-.5z"/>
  <path fill="#0078D4" d="M1 2.5A1.5 1.5 0 012.5 1h1a.5.5 0 010 1h-1a.5.5 0 00-.5.5v3a.5.5 0 00.5.5h1a.5.5 0 010 1h-1A1.5 1.5 0 011 5.5v-3zm0 8A1.5 1.5 0 012.5 9h1a.5.5 0 010 1h-1a.5.5 0 00-.5.5v3a.5.5 0 00.5.5h1a.5.5 0 010 1h-1A1.5 1.5 0 011 13.5v-3z"/>
</svg>
