<svg xmlns="http://www.w3.org/2000/svg" fill="none" viewBox="0 0 16 16">
  <g clip-path="url(#clip0_5852_533)">
    <path fill="#FAFAFA" d="M8.142 9.5H14A1.5 1.5 0 0015.5 8V6A1.5 1.5 0 0014 4.5H2A1.5 1.5 0 00.5 6v.815A4.752 4.752 0 018.142 9.5z"/>
    <path fill="#555" d="M0 6a2 2 0 012-2h12a2 2 0 012 2v2a2 2 0 01-2 2H8.222a4.725 4.725 0 00-.216-1H14a1 1 0 001-1V6a1 1 0 00-1-1H2a1 1 0 00-1 1v.459c-.37.23-.707.508-1 .827V6z"/>
    <path fill="#555" d="M12.25 7.5a.75.75 0 100-1.5.75.75 0 000 1.5z"/>
    <path fill="#0078D4" d="M5.594 13.303a3.5 3.5 0 11.707-.707l2.55 2.55a.5.5 0 01-.707.708l-2.55-2.55zm.404-2.803a2.5 2.5 0 10-5 0 2.5 2.5 0 005 0z"/>
  </g>
  <defs>
    <clipPath id="clip0_5852_533">
      <path fill="#fff" d="M0 0h16v16H0z"/>
    </clipPath>
  </defs>
</svg>
