<svg xmlns="http://www.w3.org/2000/svg" fill="none" viewBox="0 0 16 16">
  <path fill="#FAFAFA" d="M2.5 14V2A1.5 1.5 0 014 .5h3.879a1.5 1.5 0 011.06.44l4.122 4.12a1.5 1.5 0 01.439 1.061V14a1.5 1.5 0 01-1.5 1.5H4A1.5 1.5 0 012.5 14z"/>
  <path fill="#555" d="M4 1a1 1 0 00-1 1v12a1 1 0 001 1h8a1 1 0 001-1V6.121a1 1 0 00-.293-.707L8.586 1.293A1 1 0 007.879 1H4zM2 2a2 2 0 012-2h3.879a2 2 0 011.414.586l4.121 4.121A2 2 0 0114 6.121V14a2 2 0 01-2 2H4a2 2 0 01-2-2V2z"/>
  <path fill="#555" d="M8 4V.5h1V4a1 1 0 001 1h3.5v1H10a2 2 0 01-2-2z"/>
  <path fill="#0078D4" d="M4 6.5a.5.5 0 01.5-.5h2a.5.5 0 010 1H6v6h.5a.5.5 0 010 1h-2a.5.5 0 010-1H5V7h-.5a.5.5 0 01-.5-.5z"/>
</svg>
