<svg xmlns="http://www.w3.org/2000/svg" fill="none" viewBox="0 0 16 16">
  <path fill="#FAFAFA" d="M6.5.5h-5a1 1 0 00-1 1v5a1 1 0 001 1h3v3a1 1 0 001 1h4v3a1 1 0 001 1h4a1 1 0 001-1v-4.086a1 1 0 00-.293-.707l-1.914-1.914a1 1 0 00-.707-.293H11.5v-2a1 1 0 00-1-1h-3v-3a1 1 0 00-1-1z"/>
  <path fill="#555" d="M2.5 7a.5.5 0 110-1 .5.5 0 010 1zM3 2.5a.5.5 0 10-1 0 .5.5 0 001 0zM6 2.5a.5.5 0 10-1 0 .5.5 0 001 0zM2.5 4a.5.5 0 110 1 .5.5 0 010-1zM9.5 7a.5.5 0 100-1 .5.5 0 000 1z"/>
  <path fill="#555" d="M1.5 8H4v2.5A1.5 1.5 0 005.5 12H9v2.5a1.5 1.5 0 001.5 1.5h4a1.5 1.5 0 001.5-1.5v-4.086a1.5 1.5 0 00-.44-1.06l-1.914-1.915A1.5 1.5 0 0012.586 7H12V5.5A1.5 1.5 0 0010.5 4H8V1.5A1.5 1.5 0 006.5 0h-5A1.5 1.5 0 000 1.5v5A1.5 1.5 0 001.5 8zm0-7h5a.5.5 0 01.5.5V4H5.5A1.5 1.5 0 004 5.5V7H1.5a.5.5 0 01-.5-.5v-5a.5.5 0 01.5-.5zM9 9.707V11H5.707l1.94-1.94a.5.5 0 01.707 0L9 9.708zM10.5 7a1.5 1.5 0 00-1.488 1.307 1.5 1.5 0 00-2.073.047L5 10.293V5.5a.5.5 0 01.5-.5h5a.5.5 0 01.5.5V7h-.5zm0 1H12v1.5a1.5 1.5 0 001.5 1.5H15v3.5a.5.5 0 01-.5.5h-4a.5.5 0 01-.5-.5v-6a.5.5 0 01.5-.5zm2.5.207L14.793 10H13.5a.5.5 0 01-.5-.5V8.207z"/>
</svg>
