<svg xmlns="http://www.w3.org/2000/svg" fill="none" viewBox="0 0 16 16">
  <g clip-path="url(#clip0_3639_2775)">
    <path fill="#FAFAFA" d="M7.374.826L1.766 9.337a.75.75 0 00.626 1.163h11.216a.75.75 0 00.626-1.163L8.626.826a.75.75 0 00-1.252 0z"/>
    <path fill="#0078D4" d="M8.209 1.1a.25.25 0 00-.418 0L2.183 9.613a.25.25 0 00.21.388h11.215a.25.25 0 00.208-.388L8.21 1.101zM6.956.55a1.25 1.25 0 012.088 0l5.607 8.512A1.25 1.25 0 0113.609 11H2.392a1.25 1.25 0 01-1.044-1.938L6.956.551zM1 13.5a.5.5 0 01.5-.5h13a.5.5 0 010 1h-13a.5.5 0 01-.5-.5z"/>
  </g>
  <defs>
    <clipPath id="clip0_3639_2775">
      <path fill="#fff" d="M0 0h16v16H0z"/>
    </clipPath>
  </defs>
</svg>
