<svg xmlns="http://www.w3.org/2000/svg" fill="none" viewBox="0 0 16 16">
  <path fill="#0078D4" d="M2.5 0a.5.5 0 01.5.5V2h12.5a.5.5 0 010 1H3v12.5a.5.5 0 01-1 0V3H.5a.5.5 0 010-1H2V.5a.5.5 0 01.5-.5z"/>
  <path fill="#FAFAFA" d="M4.5 12.5v-7a1 1 0 011-1h7a1 1 0 011 1v7a1 1 0 01-1 1h-7a1 1 0 01-1-1z"/>
  <path fill="#555" d="M5.5 5a.5.5 0 00-.5.5v7a.5.5 0 00.5.5h7a.5.5 0 00.5-.5v-7a.5.5 0 00-.5-.5h-7zM4 5.5A1.5 1.5 0 015.5 4h7A1.5 1.5 0 0114 5.5v7a1.5 1.5 0 01-1.5 1.5h-7A1.5 1.5 0 014 12.5v-7z"/>
</svg>
