<svg xmlns="http://www.w3.org/2000/svg" fill="none" viewBox="0 0 16 16">
  <path fill="#555" d="M0 2a2 2 0 012-2h.5a.5.5 0 010 1H2a1 1 0 00-1 1v.5a.5.5 0 01-1 0V2zM4.5.5A.5.5 0 015 0h2a.5.5 0 010 1H5a.5.5 0 01-.5-.5zM9 .5a.5.5 0 01.5-.5h2a.5.5 0 010 1h-2A.5.5 0 019 .5zm4 0a.5.5 0 01.5-.5h.5a2 2 0 012 2v.5a.5.5 0 01-1 0V2a1 1 0 00-1-1h-.5a.5.5 0 01-.5-.5zM.5 4a.5.5 0 01.5.5v2a.5.5 0 01-1 0v-2A.5.5 0 01.5 4zm15 0a.5.5 0 01.5.5v2a.5.5 0 01-1 0v-2a.5.5 0 01.5-.5zM.5 8.5A.5.5 0 011 9v2a.5.5 0 01-1 0V9a.5.5 0 01.5-.5zm15 0a.5.5 0 01.5.5v2a.5.5 0 01-1 0V9a.5.5 0 01.5-.5zM.5 13a.5.5 0 01.5.5v.5a1 1 0 001 1h.5a.5.5 0 010 1H2a2 2 0 01-2-2v-.5a.5.5 0 01.5-.5zm15 0a.5.5 0 01.5.5v.5a2 2 0 01-2 2h-.5a.5.5 0 010-1h.5a1 1 0 001-1v-.5a.5.5 0 01.5-.5zm-11 2.5A.5.5 0 015 15h2a.5.5 0 010 1H5a.5.5 0 01-.5-.5zm4.5 0a.5.5 0 01.5-.5h2a.5.5 0 010 1h-2a.5.5 0 01-.5-.5z"/>
  <path fill="#0078D4" d="M5.5 2.5h-2a1 1 0 00-1 1v2a1 1 0 001 1h2a1 1 0 001-1v-2a1 1 0 00-1-1zM5.5 9.5h-2a1 1 0 00-1 1v2a1 1 0 001 1h2a1 1 0 001-1v-2a1 1 0 00-1-1zM12.5 2.5h-2a1 1 0 00-1 1v2a1 1 0 001 1h2a1 1 0 001-1v-2a1 1 0 00-1-1zM12.5 9.5h-2a1 1 0 00-1 1v2a1 1 0 001 1h2a1 1 0 001-1v-2a1 1 0 00-1-1z"/>
  <path fill="#0078D4" d="M2 3.5A1.5 1.5 0 013.5 2h2A1.5 1.5 0 017 3.5v2A1.5 1.5 0 015.5 7h-2A1.5 1.5 0 012 5.5v-2zM3.5 3a.5.5 0 00-.5.5v2a.5.5 0 00.5.5h2a.5.5 0 00.5-.5v-2a.5.5 0 00-.5-.5h-2zm5.5.5A1.5 1.5 0 0110.5 2h2A1.5 1.5 0 0114 3.5v2A1.5 1.5 0 0112.5 7h-2A1.5 1.5 0 019 5.5v-2zm1.5-.5a.5.5 0 00-.5.5v2a.5.5 0 00.5.5h2a.5.5 0 00.5-.5v-2a.5.5 0 00-.5-.5h-2zM2 10.5A1.5 1.5 0 013.5 9h2A1.5 1.5 0 017 10.5v2A1.5 1.5 0 015.5 14h-2A1.5 1.5 0 012 12.5v-2zm1.5-.5a.5.5 0 00-.5.5v2a.5.5 0 00.5.5h2a.5.5 0 00.5-.5v-2a.5.5 0 00-.5-.5h-2zm5.5.5A1.5 1.5 0 0110.5 9h2a1.5 1.5 0 011.5 1.5v2a1.5 1.5 0 01-1.5 1.5h-2A1.5 1.5 0 019 12.5v-2zm1.5-.5a.5.5 0 00-.5.5v2a.5.5 0 00.5.5h2a.5.5 0 00.5-.5v-2a.5.5 0 00-.5-.5h-2z"/>
</svg>
