<svg xmlns="http://www.w3.org/2000/svg" fill="none" viewBox="0 0 16 16">
  <path fill="#FAFAFA" d="M5.75 1.5H2A1.5 1.5 0 00.5 3v10A1.5 1.5 0 002 14.5h10.944a1.5 1.5 0 001.486-1.294l1.01-7.276a.378.378 0 00-.374-.43.566.566 0 01-.566-.566V4.5a1 1 0 00-1-1H8L6.95 2.1a1.5 1.5 0 00-1.2-.6z"/>
  <path fill="#555" fill-rule="evenodd" d="M0 3a2 2 0 012-2h3.75a2 2 0 011.6.8l.9 1.2H13a2 2 0 012 2v.147a1.5 1.5 0 01.837 1.56l-.912 6.568A2 2 0 0112.944 15H2a2 2 0 01-2-2V3zm14 2a1 1 0 00-1-1H7.75l-1.2-1.6a1 1 0 00-.8-.4H2a1 1 0 00-1 1v9.735l1.264-6.138A2 2 0 014.223 5H14zM1.766 13.973c.075.018.153.027.234.027h10.944a1 1 0 00.99-.862l.913-6.57A.5.5 0 0014.352 6H4.221a1 1 0 00-.979.798l-1.477 7.175z" clip-rule="evenodd"/>
</svg>
