<svg xmlns="http://www.w3.org/2000/svg" viewBox="0 0 32 32"><path fill="#FFB900" d="M15 8l-1.268-1.268A2.5 2.5 0 0011.964 6H3.5c-.828 0-1.48.672-1.48 1.5L2 24.5A1.5 1.5 0 003.5 26h25a1.5 1.5 0 001.5-1.5v-15A1.5 1.5 0 0028.5 8H15z"/><path fill="#FFD75E" d="M15 8l-1.268 1.268a2.5 2.5 0 01-1.768.732H2v14.5A1.5 1.5 0 003.5 26h25a1.5 1.5 0 001.5-1.5v-15A1.5 1.5 0 0028.5 8H15z"/><linearGradient id="a" gradientUnits="userSpaceOnUse" x1="16" y1="8" x2="16" y2="26"><stop offset="0" stop-color="#fff" stop-opacity="0"/><stop offset=".999" stop-color="#ffd75e" stop-opacity=".3"/></linearGradient><path fill="url(#a)" d="M15 8l-1.268 1.268a2.5 2.5 0 01-1.768.732H2v14.5A1.5 1.5 0 003.5 26h25a1.5 1.5 0 001.5-1.5v-15A1.5 1.5 0 0028.5 8H15z"/><path fill="#E67628" d="M3 25.5c-.286 0-.55-.084-.777-.223.263.432.734.723 1.277.723h25c.543 0 1.014-.291 1.277-.723A1.488 1.488 0 0129 25.5H3z"/><path opacity=".4" fill="#FFF" d="M14.129 9.621L15.75 8H15l-1.268 1.268a2.5 2.5 0 01-1.768.732H2v.5h10.007a3 3 0 002.122-.879z"/><path fill="#E67628" d="M3 25.5c-.286 0-.55-.084-.777-.223.263.432.734.723 1.277.723h25c.543 0 1.014-.291 1.277-.723A1.488 1.488 0 0129 25.5H3z"/><path fill="#BF5712" d="M12.5 15h-8a.5.5 0 00-.5.5v6a.5.5 0 00.5.5h8a.5.5 0 00.5-.5v-6a.5.5 0 00-.5-.5zm-.5 5.75a.25.25 0 01-.25.25h-6.5a.25.25 0 01-.25-.25V19h2.5a.5.5 0 000-1H5v-1.75a.25.25 0 01.25-.25h6.5a.25.25 0 01.25.25v4.5zM2 16h1v5H2zM14 16h16v5H14z"/></svg>