<svg xmlns="http://www.w3.org/2000/svg" viewBox="0 0 32 32"><path fill="#FFF" d="M4 11h24V7.5c0-.275-.225-.5-.5-.5h-23c-.275 0-.5.225-.5.5V11zM4.5 25h23c.275 0 .5-.225.5-.5V12H4v12.5c0 .275.225.5.5.5z"/><path opacity=".64" fill="#605E5C" d="M27.5 6h-23C3.673 6 3 6.673 3 7.5v17c0 .827.673 1.5 1.5 1.5h23c.827 0 1.5-.673 1.5-1.5v-17c0-.827-.673-1.5-1.5-1.5zm-23 1h23c.275 0 .5.225.5.5V11H4V7.5c0-.275.225-.5.5-.5zm23 18h-23a.501.501 0 01-.5-.5V12h24v12.5c0 .275-.225.5-.5.5z"/><circle fill="#C8C6C4" cx="6" cy="9" r="1"/><circle fill="#C8C6C4" cx="9" cy="9" r="1"/><circle fill="#C8C6C4" cx="12" cy="9" r="1"/><circle fill="none" stroke="#69AFE5" stroke-miterlimit="10" cx="16" cy="18" r="4.5"/><ellipse fill="none" stroke="#69AFE5" stroke-miterlimit="10" cx="16" cy="18" rx="1.5" ry="4.5"/><path fill="none" stroke="#69AFE5" stroke-miterlimit="10" d="M12 16.5h8M12 19.5h8"/></svg>