<svg xmlns="http://www.w3.org/2000/svg" viewBox="0 0 32 32"><path fill="#FFF" d="M9.5 28h17a.5.5 0 00.5-.5V5H9v22.5a.5.5 0 00.5.5z"/><path fill="#FFF" d="M28 4v23.5c0 .827-.673 1.5-1.5 1.5H11v.5a.5.5 0 00.5.5h17a.5.5 0 00.5-.5V3.707l-.297-.297c.056-.19.084-.388.125-.582L28.5 2.5h-18V4H28z"/><path opacity=".64" fill="#605E5C" d="M28.953 2.246a7.938 7.938 0 01-.25 1.164l.297.297V29.5a.5.5 0 01-.5.5h-17a.5.5 0 01-.5-.5V29h15.5c.827 0 1.5-.673 1.5-1.5V4H8v23.5c0 .827.673 1.5 1.5 1.5h.5v.5c0 .827.673 1.5 1.5 1.5h17c.827 0 1.5-.673 1.5-1.5V3.293l-1.047-1.047zM9 27.5V5h18v22.5a.5.5 0 01-.5.5h-17a.5.5 0 01-.5-.5z"/><path fill="#31752F" d="M30 6V3.414a1 1 0 00-.293-.707l-1.414-1.414A1 1 0 0027.586 1H9a1 1 0 00-1 1v4h20V4l2 2z"/><path fill="none" stroke="#C8C6C4" stroke-miterlimit="10" d="M22.5 23.5h-14v-11h14a1 1 0 011 1v9a1 1 0 01-1 1z"/><path fill="#8BBF8A" d="M20.5 19h-8a.5.5 0 01-.5-.5v-1a.5.5 0 01.5-.5h8a.5.5 0 01.5.5v1a.5.5 0 01-.5.5zM20.5 16h-8a.5.5 0 01-.5-.5v-1a.5.5 0 01.5-.5h8a.5.5 0 01.5.5v1a.5.5 0 01-.5.5zM19.5 20H23v2h-3.5a.5.5 0 01-.5-.5v-1a.5.5 0 01.5-.5z"/><path fill="#31752F" d="M3.5 25h11a1.5 1.5 0 001.5-1.5v-11a1.5 1.5 0 00-1.5-1.5h-11A1.5 1.5 0 002 12.5v11A1.5 1.5 0 003.5 25z"/><path fill="#FFF" d="M9.524 14.195c.921 0 1.625.206 2.115.618.488.411.733 1.007.733 1.788 0 .502-.121.947-.363 1.337-.241.39-.585.694-1.031.911-.446.216-.962.325-1.55.325H7.963v2.723h-1.18v-7.702h2.742zm-1.562 3.803h1.295c.504 0 .886-.114 1.143-.341.258-.228.442-.594.442-1.031 0-.849-.549-1.397-1.537-1.397H7.962v2.769z"/></svg>