<svg xmlns="http://www.w3.org/2000/svg" viewBox="0 0 32 32"><path fill="#FFF" d="M9.5 28h17a.5.5 0 00.5-.5V5H9v22.5a.5.5 0 00.5.5z"/><path fill="#FFF" d="M28 4v23.5c0 .827-.673 1.5-1.5 1.5H11v.5a.5.5 0 00.5.5h17a.5.5 0 00.5-.5V3.707l-.297-.297c.056-.19.084-.388.125-.582L28.5 2.5h-18V4H28z"/><path opacity=".64" fill="#605E5C" d="M29 5v24.5a.5.5 0 01-.5.5h-17a.5.5 0 01-.5-.5V29h15.5c.827 0 1.5-.673 1.5-1.5V4H8v23.5c0 .827.673 1.5 1.5 1.5h.5v.5c0 .827.673 1.5 1.5 1.5h17c.827 0 1.5-.673 1.5-1.5V5h-1zM9 27.5V5h18v22.5a.5.5 0 01-.5.5h-17a.5.5 0 01-.5-.5z"/><path fill="#FF8F6B" d="M28 1.097A.991.991 0 0027.586 1H9a1 1 0 00-1 1v3l.5.5h19L28 5V4l.5-.5V2l-.5-.903z"/><path fill="#ED6C47" d="M8 5h20v1H8zM30 6V3.414a1 1 0 00-.293-.707l-1.414-1.414A.997.997 0 0028 1.097V4l2 2zM20 18l-1-1h-1l-1 1v3.977A4.955 4.955 0 0020 23a5 5 0 005-5h-5z"/><path fill="#FF8F6B" d="M17 14.023V18h3v-5c-1.13 0-2.162.39-3 1.023z"/><path fill="#FFC7B5" d="M21 12a5 5 0 015 5h-5v-5z"/><path fill="#C43E1C" d="M3.5 25h11a1.5 1.5 0 001.5-1.5v-11a1.5 1.5 0 00-1.5-1.5h-11A1.5 1.5 0 002 12.5v11A1.5 1.5 0 003.5 25z"/><path fill="#FFF" d="M9.524 14.02c.921 0 1.625.214 2.115.64.488.427.733 1.045.733 1.854 0 .52-.116.986-.358 1.39-.241.405-.59.714-1.036.938-.446.225-.957.342-1.544.342H7.967L7.962 22h-1.18v-7.98h2.742zM7.962 18h1.615c.503 0 .885-.118 1.143-.353.258-.236.441-.655.441-1.108 0-.879-.548-1.539-1.537-1.539H7.962v3z"/></svg>