<svg xmlns="http://www.w3.org/2000/svg" viewBox="0 0 32 32"><path fill="#FFF" d="M9.5 29h19c.275 0 .5-.225.5-.5V9h-4.5c-.827 0-1.5-.673-1.5-1.5V3H9.5c-.275 0-.5.225-.5.5v25c0 .275.225.5.5.5z"/><path fill="#FFF" d="M28.293 8L24 3.707V7.5c0 .275.225.5.5.5h3.793z"/><path opacity=".64" fill="#605E5C" d="M29.56 7.854l-5.414-5.415A1.51 1.51 0 0023.086 2H9.5C8.673 2 8 2.673 8 3.5v25c0 .827.673 1.5 1.5 1.5h19c.827 0 1.5-.673 1.5-1.5V8.914c0-.4-.156-.777-.44-1.06zM24 3.707L28.293 8H24.5a.501.501 0 01-.5-.5V3.707zM28.5 29h-19a.501.501 0 01-.5-.5v-25c0-.275.225-.5.5-.5H23v4.5c0 .827.673 1.5 1.5 1.5H29v19.5c0 .275-.225.5-.5.5z"/><path fill="#ED6C47" d="M21 18l-1-1h-2l-1 1v2.973C17.911 22.197 19.357 23 21 23a5 5 0 005-5h-5z"/><path fill="#FF8F6B" d="M17 15.027V18h4v-5c-1.643 0-3.089.803-4 2.027z"/><path fill="#FFC7B5" d="M22 12a5 5 0 015 5h-5v-5z"/><path fill="#C43E1C" d="M3.5 25h11a1.5 1.5 0 001.5-1.5v-11a1.5 1.5 0 00-1.5-1.5h-11A1.5 1.5 0 002 12.5v11A1.5 1.5 0 003.5 25z"/><path fill="#FFF" d="M9.524 14.02c.921 0 1.625.214 2.115.64.488.427.733 1.045.733 1.854 0 .52-.116.986-.358 1.39-.241.405-.59.714-1.036.938-.446.225-.957.342-1.544.342H7.967L7.962 22h-1.18v-7.98h2.742zM7.962 18h1.615c.503 0 .885-.118 1.143-.353.258-.236.441-.655.441-1.108 0-.879-.548-1.539-1.537-1.539H7.962v3z"/></svg>