<svg xmlns="http://www.w3.org/2000/svg" viewBox="0 0 32 32"><path fill="#FFF" d="M9.5 29h19c.275 0 .5-.225.5-.5V9h-4.5c-.827 0-1.5-.673-1.5-1.5V3H9.5c-.275 0-.5.225-.5.5v25c0 .275.225.5.5.5z"/><path fill="#FFF" d="M28.293 8L24 3.707V7.5c0 .275.225.5.5.5h3.793z"/><path opacity=".64" fill="#605E5C" d="M29.56 7.854l-5.414-5.415A1.51 1.51 0 0023.086 2H9.5C8.673 2 8 2.673 8 3.5v25c0 .827.673 1.5 1.5 1.5h19c.827 0 1.5-.673 1.5-1.5V8.914c0-.4-.156-.777-.44-1.06zM24 3.707L28.293 8H24.5a.501.501 0 01-.5-.5V3.707zM28.5 29h-19a.501.501 0 01-.5-.5v-25c0-.275.225-.5.5-.5H23v4.5c0 .827.673 1.5 1.5 1.5H29v19.5c0 .275-.225.5-.5.5z"/><path fill="#038387" d="M3.5 25h11a1.5 1.5 0 001.5-1.5v-11a1.5 1.5 0 00-1.5-1.5h-11A1.5 1.5 0 002 12.5v11A1.5 1.5 0 003.5 25z"/><path fill="#FFF" d="M9.524 14.195c.921 0 1.625.206 2.115.618.488.411.733 1.007.733 1.788 0 .502-.121.947-.363 1.337-.241.39-.585.694-1.031.911-.446.216-.962.325-1.55.325H7.963v2.723h-1.18v-7.702h2.742zm-1.562 3.803h1.295c.504 0 .886-.114 1.143-.341.258-.228.442-.594.442-1.031 0-.849-.549-1.397-1.537-1.397H7.962v2.769z"/><path fill="#038387" d="M25.5 22H17v1h8.5a.5.5 0 000-1z"/><path fill="#1A9BA1" d="M25.5 19H17v1h8.5a.5.5 0 000-1z"/><path fill="#37C6D0" d="M17 17h8a1 1 0 001-1v-2a1 1 0 00-1-1h-8v4z"/></svg>