<svg xmlns="http://www.w3.org/2000/svg" viewBox="0 0 32 32"><path fill="#FFF" d="M27 4H9.414L4 9.414V27c0 .551.449 1 1 1h17.586L28 22.586V5c0-.551-.448-1-1-1z"/><path opacity=".64" fill="#605E5C" d="M27 3H9L3 9v18a2 2 0 002 2h18l6-6V5a2 2 0 00-2-2zM5 28c-.551 0-1-.449-1-1V9.414L9.414 4H27c.551 0 1 .449 1 1v17.586L22.586 28H5z"/><path fill="#ECCF35" d="M8 9h2a1 1 0 110 2H8a1 1 0 110-2z"/><path fill="#E25A01" d="M8 13h2a1 1 0 110 2H8a1 1 0 110-2z"/><path fill="#BF3207" d="M8 17h2a1 1 0 110 2H8a1 1 0 110-2z"/><path fill="#773C6E" d="M8 21h2a1 1 0 110 2H8a1 1 0 110-2z"/><path fill="#FED912" d="M14 9h10a1 1 0 110 2H14a1 1 0 110-2z"/><path fill="#F18C0A" d="M14 13h10a1 1 0 110 2H14a1 1 0 110-2z"/><path fill="#D83B01" d="M14 17h10a1 1 0 110 2H14a1 1 0 110-2z"/><path fill="#974B8B" d="M14 21h10a1 1 0 110 2H14a1 1 0 110-2z"/></svg>