<svg xmlns="http://www.w3.org/2000/svg" viewBox="0 0 32 32"><path fill="#FFF" d="M9.5 29h19c.275 0 .5-.225.5-.5V9h-4.5c-.827 0-1.5-.673-1.5-1.5V3H9.5c-.275 0-.5.225-.5.5v25c0 .275.225.5.5.5z"/><path fill="#FFF" d="M28.293 8L24 3.707V7.5c0 .275.225.5.5.5h3.793z"/><path opacity=".64" fill="#605E5C" d="M29.56 7.854l-5.414-5.415A1.51 1.51 0 0023.086 2H9.5C8.673 2 8 2.673 8 3.5v25c0 .827.673 1.5 1.5 1.5h19c.827 0 1.5-.673 1.5-1.5V8.914c0-.4-.156-.777-.44-1.06zM24 3.707L28.293 8H24.5a.501.501 0 01-.5-.5V3.707zM28.5 29h-19a.501.501 0 01-.5-.5v-25c0-.275.225-.5.5-.5H23v4.5c0 .827.673 1.5 1.5 1.5H29v19.5c0 .275-.225.5-.5.5z"/><path fill="#03787C" d="M3.5 25h11a1.5 1.5 0 001.5-1.5v-11a1.5 1.5 0 00-1.5-1.5h-11A1.5 1.5 0 002 12.5v11A1.5 1.5 0 003.5 25z"/><path fill="#FFF" d="M6.96 17.855a2.2 2.2 0 01-.712-.696A1.776 1.776 0 016 16.207c0-.489.154-.9.462-1.232.307-.333.716-.58 1.225-.74.51-.16 1.07-.24 1.677-.24.93 0 1.667.096 2.208.287v1.44a3.625 3.625 0 00-.999-.378 5.233 5.233 0 00-1.168-.13c-.483 0-.883.079-1.2.235-.317.156-.476.379-.476.667 0 .179.067.337.201.47.135.136.315.256.544.36.227.104.566.242 1.018.415.079.025.127.043.147.054.533.202.961.397 1.285.585.322.189.576.425.758.707.183.282.275.637.275 1.064 0 .525-.144.953-.432 1.285-.289.33-.674.569-1.157.717s-1.031.22-1.646.22a9.395 9.395 0 01-1.493-.113 5.432 5.432 0 01-1.211-.323v-1.521c.33.227.74.407 1.225.54.487.132.938.2 1.35.2.54 0 .949-.081 1.224-.241.274-.16.411-.385.411-.677a.697.697 0 00-.23-.518 2.362 2.362 0 00-.637-.41 22.43 22.43 0 00-1.2-.496 7.03 7.03 0 01-1.2-.58z"/><path fill="#038387" d="M25.5 22H17v1h8.5a.5.5 0 000-1z"/><path fill="#1A9BA1" d="M25.5 19H17v1h8.5a.5.5 0 000-1z"/><path fill="#37C6D0" d="M17 17h8a1 1 0 001-1v-2a1 1 0 00-1-1h-8v4z"/></svg>