<svg xmlns="http://www.w3.org/2000/svg" viewBox="0 0 32 32"><path fill="#FFF" d="M6.5 29h19c.275 0 .5-.225.5-.5V9h-4.5c-.827 0-1.5-.673-1.5-1.5V3H6.5c-.275 0-.5.225-.5.5v25c0 .275.225.5.5.5z"/><path fill="#FFF" d="M25.293 8L21 3.707V7.5c0 .275.225.5.5.5h3.793z"/><path opacity=".64" fill="#605E5C" d="M26.56 7.854l-5.414-5.415A1.51 1.51 0 0020.086 2H6.5C5.673 2 5 2.673 5 3.5v25c0 .827.673 1.5 1.5 1.5h19c.827 0 1.5-.673 1.5-1.5V8.914c0-.4-.156-.777-.44-1.06zM21 3.707L25.293 8H21.5a.501.501 0 01-.5-.5V3.707zM25.5 29h-19a.501.501 0 01-.5-.5v-25c0-.275.225-.5.5-.5H20v4.5c0 .827.673 1.5 1.5 1.5H26v19.5c0 .275-.225.5-.5.5z"/><circle fill="none" stroke="#B4B0AD" stroke-linecap="round" stroke-linejoin="round" stroke-miterlimit="10" cx="16" cy="18" r="2.5"/><path fill="none" stroke="#B4B0AD" stroke-linecap="round" stroke-linejoin="bevel" stroke-miterlimit="10" d="M22.147 16.887l-1.363-.113a.095.095 0 01-.084-.07 4.84 4.84 0 00-.46-1.11.095.095 0 01.01-.109l.883-1.045a.385.385 0 00-.021-.521l-1.031-1.03a.385.385 0 00-.521-.022l-1.045.883a.095.095 0 01-.11.01 4.838 4.838 0 00-1.112-.461.086.086 0 01-.066-.077l-.114-1.371a.383.383 0 00-.384-.351H15.27c-.2 0-.367.153-.384.353l-.113 1.363a.095.095 0 01-.07.084 4.837 4.837 0 00-1.112.461.088.088 0 01-.103-.007l-1.05-.889a.383.383 0 00-.52.023l-1.03 1.03a.385.385 0 00-.022.522l.884 1.045c.026.03.03.074.01.109a4.838 4.838 0 00-.461 1.109.095.095 0 01-.084.07l-1.363.114a.385.385 0 00-.353.384v1.458c0 .2.154.367.353.384l1.363.113c.04.004.073.032.084.07.108.393.264.764.46 1.11a.095.095 0 01-.01.109l-.883 1.045c-.13.153-.12.38.021.521l1.031 1.03a.385.385 0 00.521.023l1.045-.884a.095.095 0 01.11-.01c.346.197.719.354 1.112.461.036.01.063.039.066.077l.114 1.371c.017.2.184.351.384.351h1.458c.2 0 .367-.153.384-.353l.113-1.362a.095.095 0 01.07-.084 4.836 4.836 0 001.112-.462.088.088 0 01.103.007l1.05.889c.153.13.378.118.52-.023l1.03-1.03a.385.385 0 00.022-.522l-.884-1.045a.095.095 0 01-.01-.109 4.84 4.84 0 00.461-1.109.095.095 0 01.084-.07l1.363-.114a.385.385 0 00.353-.384v-1.458c0-.2-.154-.367-.353-.384z"/></svg>