<svg xmlns="http://www.w3.org/2000/svg" viewBox="0 0 32 32"><path fill="#FFF" d="M6.5 29h19c.275 0 .5-.225.5-.5V9h-4.5c-.827 0-1.5-.673-1.5-1.5V3H6.5c-.275 0-.5.225-.5.5v25c0 .275.225.5.5.5z"/><path fill="#FFF" d="M25.293 8L21 3.707V7.5c0 .275.225.5.5.5h3.793z"/><path opacity=".64" fill="#605E5C" d="M26.56 7.854l-5.414-5.415A1.51 1.51 0 0020.086 2H6.5C5.673 2 5 2.673 5 3.5v25c0 .827.673 1.5 1.5 1.5h19c.827 0 1.5-.673 1.5-1.5V8.914c0-.4-.156-.777-.44-1.06zM21 3.707L25.293 8H21.5a.501.501 0 01-.5-.5V3.707zM25.5 29h-19a.501.501 0 01-.5-.5v-25c0-.275.225-.5.5-.5H20v4.5c0 .827.673 1.5 1.5 1.5H26v19.5c0 .275-.225.5-.5.5z"/><path fill="#0078D7" d="M17.327 19.016l6.516 2.443a.242.242 0 01-.026.461l-3.117.78-.78 3.117a.242.242 0 01-.46.026l-2.444-6.516a.242.242 0 01.311-.311z"/><path fill="none" stroke="#C8C6C4" stroke-linecap="round" stroke-miterlimit="10" d="M10.5 21.5c.716-4.704 4.828-8.415 10-9"/><path fill="none" stroke="#0078D7" stroke-miterlimit="10" d="M11.5 25.5h-2a1 1 0 01-1-1v-2a1 1 0 011-1h2a1 1 0 011 1v2a1 1 0 01-1 1zM23.5 14.5h-2a1 1 0 01-1-1v-2a1 1 0 011-1h2a1 1 0 011 1v2a1 1 0 01-1 1z"/><circle fill="#0078D7" cx="14" cy="15" r="2.5"/><path fill="#FFF" d="M14 13a2 2 0 110 4 2 2 0 010-4m0-1c-1.654 0-3 1.346-3 3s1.346 3 3 3 3-1.346 3-3-1.346-3-3-3z"/></svg>