<svg xmlns="http://www.w3.org/2000/svg" viewBox="0 0 32 32"><path fill="#FFF" d="M4.5 28h23c.275 0 .5-.225.5-.5v-23c0-.275-.225-.5-.5-.5h-23c-.275 0-.5.225-.5.5v23c0 .275.225.5.5.5z"/><path opacity=".64" fill="#605E5C" d="M27.5 29h-23c-.827 0-1.5-.673-1.5-1.5v-23C3 3.673 3.673 3 4.5 3h23c.827 0 1.5.673 1.5 1.5v23c0 .827-.673 1.5-1.5 1.5zM4.5 4a.5.5 0 00-.5.5v23a.5.5 0 00.5.5h23a.5.5 0 00.5-.5v-23a.5.5 0 00-.5-.5h-23z"/><path fill="none" stroke="#69AFE5" stroke-linecap="round" stroke-linejoin="round" stroke-miterlimit="10" d="M21.5 16l-8-5v10z"/></svg>