<svg xmlns="http://www.w3.org/2000/svg" viewBox="0 0 32 32"><path opacity=".64" fill="#605E5C" d="M28.5 30h-19c-.827 0-1.5-.673-1.5-1.5v-25C8 2.673 8.673 2 9.5 2h19c.827 0 1.5.673 1.5 1.5v25c0 .827-.673 1.5-1.5 1.5zM9.5 3a.5.5 0 00-.5.5v25a.5.5 0 00.5.5h19a.5.5 0 00.5-.5v-25a.5.5 0 00-.5-.5h-19z"/><path fill="#FFF" d="M9.5 29h19a.5.5 0 00.5-.5v-25a.5.5 0 00-.5-.5h-19a.5.5 0 00-.5.5v25a.5.5 0 00.5.5z"/><path fill="#185ABD" d="M3.5 25h11a1.5 1.5 0 001.5-1.5v-11a1.5 1.5 0 00-1.5-1.5h-11A1.5 1.5 0 002 12.5v11A1.5 1.5 0 003.5 25z"/><path fill="#FFF" d="M8.585 19.295c.233.665.37 1.085.412 1.26h.029c.042-.174.19-.625.446-1.35L11.311 14H13l-3.115 8h-1.81L5 14h1.74l1.845 5.295z"/><path opacity=".64" fill="#C8C6C4" d="M24.5 15h-3c-.827 0-1.5-.673-1.5-1.5v-6c0-.827.673-1.5 1.5-1.5h3c.827 0 1.5.673 1.5 1.5v6c0 .827-.673 1.5-1.5 1.5zm-3-8a.5.5 0 00-.5.5v6a.5.5 0 00.5.5h3a.5.5 0 00.5-.5v-6a.5.5 0 00-.5-.5h-3zM24.5 26h-3c-.827 0-1.5-.673-1.5-1.5v-6c0-.827.673-1.5 1.5-1.5h3c.827 0 1.5.673 1.5 1.5v6c0 .827-.673 1.5-1.5 1.5zm-3-8a.5.5 0 00-.5.5v6a.5.5 0 00.5.5h3a.5.5 0 00.5-.5v-6a.5.5 0 00-.5-.5h-3zM16.5 6h-3c-.827 0-1.5.673-1.5 1.5V10h1V7.5a.5.5 0 01.5-.5h3a.5.5 0 01.5.5V14.908c.58-.207 1-.757 1-1.408v-6c0-.827-.673-1.5-1.5-1.5zM17 17.092V24.5a.5.5 0 01-.5.5h-.013a2.49 2.49 0 01-1.987 1h2c.827 0 1.5-.673 1.5-1.5v-6c0-.65-.42-1.2-1-1.408z"/></svg>