<svg xmlns="http://www.w3.org/2000/svg" viewBox="0 0 32 32"><path fill="#FFB900" d="M15 8l-1.268-1.268A2.5 2.5 0 0011.964 6H3.5c-.828 0-1.48.672-1.48 1.5L2 24.5A1.5 1.5 0 003.5 26h25a1.5 1.5 0 001.5-1.5v-15A1.5 1.5 0 0028.5 8H15z"/><path fill="#FFD75E" d="M15 8l-1.268 1.268a2.5 2.5 0 01-1.768.732H2v14.5A1.5 1.5 0 003.5 26h25a1.5 1.5 0 001.5-1.5v-15A1.5 1.5 0 0028.5 8H15z"/><linearGradient id="a" gradientUnits="userSpaceOnUse" x1="16" y1="8" x2="16" y2="26"><stop offset="0" stop-color="#fff" stop-opacity="0"/><stop offset=".999" stop-color="#ffd75e" stop-opacity=".3"/></linearGradient><path fill="url(#a)" d="M15 8l-1.268 1.268a2.5 2.5 0 01-1.768.732H2v14.5A1.5 1.5 0 003.5 26h25a1.5 1.5 0 001.5-1.5v-15A1.5 1.5 0 0028.5 8H15z"/><path fill="#E67628" d="M3 25.5c-.286 0-.55-.084-.777-.223.263.432.734.723 1.277.723h25c.543 0 1.014-.291 1.277-.723A1.488 1.488 0 0129 25.5H3z"/><path opacity=".4" fill="#FFF" d="M14.129 9.621L15.75 8H15l-1.268 1.268a2.5 2.5 0 01-1.768.732H2v.5h10.007a3 3 0 002.122-.879z"/><path fill="#E67628" d="M3 25.5c-.286 0-.55-.084-.777-.223.263.432.734.723 1.277.723h25c.543 0 1.014-.291 1.277-.723A1.488 1.488 0 0129 25.5H3z"/><path fill="#BF5712" d="M15.5 20a.5.5 0 01-.5-.5v-2a.5.5 0 011 0v2a.5.5 0 01-.5.5zM17.5 20a.5.5 0 01-.5-.5v-2a.5.5 0 011 0v2a.5.5 0 01-.5.5zM19.5 20a.5.5 0 01-.5-.5v-2a.5.5 0 011 0v2a.5.5 0 01-.5.5zM21.5 20a.5.5 0 01-.5-.5v-2a.5.5 0 011 0v2a.5.5 0 01-.5.5zM23.5 20a.5.5 0 01-.5-.5v-2a.5.5 0 011 0v2a.5.5 0 01-.5.5zM25.5 20a.5.5 0 01-.5-.5v-2a.5.5 0 011 0v2a.5.5 0 01-.5.5zM27.5 20a.5.5 0 01-.5-.5v-2a.5.5 0 011 0v2a.5.5 0 01-.5.5zM29.5 20a.5.5 0 01-.5-.5v-2a.5.5 0 011 0v2a.5.5 0 01-.5.5zM13.5 16h-10a.5.5 0 00-.5.5v.5h.75a.25.25 0 01.25.25v2.5a.25.25 0 01-.25.25H3v.5a.5.5 0 00.5.5h10a.5.5 0 00.5-.5v-4a.5.5 0 00-.5-.5zm-.5 3.75a.25.25 0 01-.25.25h-2.5a.25.25 0 01-.25-.25v-2.5a.25.25 0 01.25-.25h2.5a.25.25 0 01.25.25v2.5zM2.75 20H2v-3h.75a.25.25 0 01.25.25v2.5a.25.25 0 01-.25.25z"/></svg>