<svg viewBox="0 0 220 145" fill="none" xmlns="http://www.w3.org/2000/svg">
<g filter="url(#filter0_dd)">
<rect x="8" y="78" width="60" height="60" rx="8" fill="white"/>
<path d="M52.17 92.249H32.8295C32.6221 92.249 32.4167 92.2899 32.225 92.3693C32.0334 92.4486 31.8593 92.565 31.7126 92.7117C31.5659 92.8584 31.4496 93.0325 31.3702 93.2241C31.2908 93.4158 31.25 93.6212 31.25 93.8286V95.624L42.1513 98.9991L53.7496 95.624V93.8286C53.7496 93.4097 53.5831 93.0079 53.2869 92.7117C52.9907 92.4154 52.5889 92.249 52.17 92.249Z" fill="#0364B8"/>
<path d="M55.6058 109.58C55.7706 109.062 55.9022 108.534 55.9996 107.999C55.9996 107.867 55.965 107.738 55.8991 107.624C55.8333 107.51 55.7387 107.416 55.6247 107.35V107.35L55.6103 107.341L55.6058 107.339L43.4133 100.393C43.3606 100.359 43.306 100.328 43.2498 100.3V100.3C43.0167 100.184 42.76 100.124 42.4998 100.124C42.2396 100.124 41.9829 100.184 41.7498 100.3L41.7497 100.3C41.6936 100.328 41.639 100.359 41.5863 100.393L29.3938 107.339L29.3893 107.341L29.375 107.35V107.35C29.261 107.416 29.1664 107.51 29.1005 107.624C29.0347 107.738 29 107.867 29 107.999C29.0975 108.534 29.229 109.062 29.3939 109.58L42.322 119.035L55.6058 109.58Z" fill="#0A2767"/>
<path d="M47.0002 95.624H39.1252L36.8516 98.999L39.1252 102.374L47.0002 109.124H53.7502V102.374L47.0002 95.624Z" fill="#28A8EA"/>
<path d="M39.1248 95.624H31.25V102.374H39.1248V95.624Z" fill="#0078D4"/>
<path d="M53.7499 95.624H47V102.374H53.7499V95.624Z" fill="#50D9FF"/>
<path d="M47 109.125L39.125 102.375H31.25V109.125L39.125 115.875L51.311 117.864L47 109.125Z" fill="#0364B8"/>
<path d="M47 102.375H39.125V109.125H47V102.375Z" fill="#0078D4"/>
<path d="M39.1248 109.124H31.25V115.874H39.1248V109.124Z" fill="#064A8C"/>
<path d="M53.7499 109.124H47V115.874H53.7499V109.124Z" fill="#0078D4"/>
<path opacity="0.5" d="M42.715 118.369L29.4473 108.694L30.0032 107.716C30.0032 107.716 42.0913 114.601 42.2759 114.704C42.3515 114.734 42.4326 114.749 42.514 114.746C42.5955 114.744 42.6756 114.725 42.7494 114.69C42.9218 114.593 55.0484 107.682 55.0484 107.682L55.6065 108.659L42.715 118.369Z" fill="#0A2767"/>
<path d="M55.6239 108.649V108.649L55.609 108.658L55.6052 108.66L43.4125 115.606C43.1704 115.762 42.8921 115.854 42.6044 115.872C42.3167 115.89 42.0293 115.834 41.7695 115.709L46.016 121.402L55.3018 123.424L55.3015 123.429C55.5175 123.272 55.6934 123.067 55.8147 122.83C55.9359 122.592 55.9991 122.329 55.9989 122.063V108C55.9989 108.132 55.9642 108.261 55.8983 108.375C55.8325 108.489 55.7379 108.583 55.6239 108.649V108.649Z" fill="#1490DF"/>
<path opacity="0.05" d="M55.9989 122.063V121.232L44.7681 114.834L43.4125 115.606C43.1704 115.763 42.8921 115.854 42.6044 115.872C42.3168 115.89 42.0293 115.834 41.7695 115.709L46.016 121.402L55.3018 123.424L55.3014 123.429C55.5175 123.273 55.6934 123.067 55.8147 122.83C55.9359 122.592 55.999 122.329 55.9989 122.063V122.063Z" fill="black"/>
<path opacity="0.1" d="M55.9427 122.494L43.6318 115.481L43.4125 115.606C43.1703 115.763 42.8921 115.854 42.6044 115.872C42.3167 115.89 42.0293 115.834 41.7695 115.709L46.016 121.403L55.3018 123.424L55.3014 123.429C55.6165 123.201 55.843 122.87 55.9427 122.494V122.494Z" fill="black"/>
<path d="M29.3938 108.664V108.653H29.3825L29.3488 108.63C29.2413 108.564 29.1527 108.471 29.0916 108.361C29.0305 108.25 28.9989 108.126 29 108V122.062C28.9997 122.284 29.0432 122.504 29.1279 122.709C29.2126 122.913 29.3369 123.1 29.4936 123.256C29.6504 123.413 29.8365 123.537 30.0414 123.622C30.2463 123.707 30.4658 123.75 30.6875 123.75H54.3125C54.4531 123.749 54.5929 123.73 54.7288 123.694C54.7993 123.681 54.8675 123.659 54.9313 123.626C54.9552 123.624 54.9783 123.616 54.9988 123.604C55.0909 123.566 55.1778 123.517 55.2575 123.457C55.28 123.446 55.2913 123.446 55.3025 123.424L29.3938 108.664Z" fill="#28A8EA"/>
<path opacity="0.1" d="M40.25 117.75V99.375C40.2488 98.9775 40.0904 98.5966 39.8093 98.3156C39.5283 98.0345 39.1474 97.8761 38.7499 97.875H31.285V102.375H31.2851V106.263L29.3941 107.34L29.3896 107.343L29.3752 107.351V107.352C29.2612 107.417 29.1666 107.512 29.1007 107.626C29.0349 107.74 29.0002 107.869 29.0002 108L29.0004 108.005L29 108.001V119.25H38.75C39.1474 119.249 39.5283 119.09 39.8094 118.809C40.0904 118.528 40.2488 118.147 40.25 117.75V117.75Z" fill="black"/>
<path opacity="0.2" d="M39.125 118.875V100.5C39.1238 100.103 38.9654 99.7217 38.6843 99.4406C38.4033 99.1595 38.0224 99.0011 37.6249 99H31.285V102.375H31.2851V106.263L29.3941 107.34L29.3896 107.343L29.3752 107.351V107.352C29.2612 107.417 29.1666 107.512 29.1007 107.626C29.0349 107.74 29.0002 107.869 29.0002 108.001L29.0004 108.005L29 108.001V120.375H37.625C38.0224 120.374 38.4033 120.215 38.6844 119.934C38.9654 119.653 39.1238 119.272 39.125 118.875V118.875Z" fill="black"/>
<path opacity="0.2" d="M39.125 116.625V100.5C39.1238 100.103 38.9654 99.7216 38.6843 99.4406C38.4033 99.1595 38.0224 99.0011 37.6249 99H31.285V102.375H31.2851V106.263L29.3941 107.34L29.3896 107.343L29.3752 107.351V107.352C29.2612 107.417 29.1666 107.512 29.1007 107.626C29.0349 107.74 29.0002 107.869 29.0002 108L29.0004 108.005L29 108.001V118.125H37.625C38.0224 118.124 38.4033 117.965 38.6844 117.684C38.9654 117.403 39.1238 117.022 39.125 116.625V116.625Z" fill="black"/>
<path opacity="0.2" d="M38 116.625V100.5C37.9988 100.103 37.8404 99.7216 37.5593 99.4406C37.2783 99.1595 36.8974 99.0011 36.4999 99H31.285V102.375H31.2851V106.263L29.3941 107.34L29.3896 107.343L29.3752 107.351V107.352C29.2612 107.417 29.1666 107.512 29.1007 107.626C29.0349 107.74 29.0002 107.869 29.0002 108L29.0004 108.005L29 108.001V118.125H36.5C36.8974 118.124 37.2783 117.965 37.5594 117.684C37.8404 117.403 37.9988 117.022 38 116.625V116.625Z" fill="black"/>
<path d="M21.5 99H36.4998C36.6968 99 36.8919 99.0388 37.0739 99.1142C37.2558 99.1896 37.4212 99.3 37.5605 99.4393C37.6998 99.5786 37.8103 99.744 37.8857 99.926C37.961 100.108 37.9998 100.303 37.9998 100.5V115.5C37.9998 115.697 37.961 115.892 37.8857 116.074C37.8103 116.256 37.6998 116.421 37.5605 116.561C37.4212 116.7 37.2558 116.81 37.0739 116.886C36.8919 116.961 36.6968 117 36.4998 117H21.5C21.1022 117 20.7206 116.842 20.4393 116.561C20.158 116.279 20 115.898 20 115.5V100.5C20 100.303 20.0388 100.108 20.1142 99.926C20.1896 99.744 20.3 99.5786 20.4393 99.4393C20.5786 99.3001 20.744 99.1896 20.926 99.1142C21.108 99.0388 21.303 99 21.5 99V99Z" fill="#0078D4"/>
<path d="M24.2877 105.114C24.6915 104.253 25.3433 103.533 26.1594 103.046C27.0635 102.528 28.0929 102.27 29.1342 102.3C30.099 102.279 31.0509 102.524 31.8861 103.007C32.6719 103.475 33.3049 104.162 33.7078 104.983C34.1465 105.888 34.3651 106.883 34.3458 107.888C34.3672 108.939 34.1421 109.98 33.6886 110.929C33.2767 111.779 32.6246 112.49 31.813 112.973C30.9455 113.472 29.9578 113.723 28.9574 113.7C27.9719 113.723 26.9988 113.476 26.144 112.985C25.3517 112.516 24.7113 111.829 24.2992 111.005C23.8576 110.114 23.6361 109.129 23.6535 108.134C23.6342 107.093 23.851 106.06 24.2877 105.114V105.114ZM26.2824 109.968C26.4979 110.512 26.863 110.983 27.3355 111.328C27.8168 111.665 28.3932 111.839 28.9805 111.824C29.6059 111.849 30.2223 111.669 30.7369 111.313C31.2038 110.968 31.5593 110.494 31.7592 109.949C31.9838 109.341 32.0945 108.697 32.0859 108.05C32.093 107.397 31.989 106.747 31.7784 106.128C31.5926 105.571 31.2495 105.08 30.7907 104.714C30.2894 104.34 29.6746 104.15 29.0496 104.176C28.4498 104.16 27.8606 104.335 27.3663 104.675C26.8846 105.021 26.5113 105.497 26.2901 106.047C25.8008 107.308 25.7981 108.705 26.2824 109.968H26.2824Z" fill="white"/>
<rect x="80" y="6" width="60" height="60" rx="8" fill="white"/>
<path d="M114.5 20.249H102.5C102.102 20.249 101.721 20.4071 101.439 20.6884C101.158 20.9697 101 21.3512 101 21.749V28.124L114.5 35.9989L121.25 38.8469L128 35.9989V28.124L114.5 20.249Z" fill="#21A366"/>
<path d="M114.5 28.125H101V36H114.5V28.125Z" fill="#107C41"/>
<path d="M126.5 20.249H114.5V28.124H128V21.749C128 21.552 127.961 21.357 127.886 21.175C127.81 20.993 127.7 20.8276 127.561 20.6883C127.421 20.5491 127.256 20.4386 127.074 20.3632C126.892 20.2878 126.697 20.249 126.5 20.249V20.249Z" fill="#33C481"/>
<path d="M114.5 36H101V50.2498C101 50.6476 101.158 51.0292 101.439 51.3105C101.721 51.5918 102.102 51.7498 102.5 51.7498H126.5C126.898 51.7498 127.279 51.5918 127.561 51.3105C127.842 51.0292 128 50.6477 128 50.2498V43.8749L114.5 36Z" fill="#185C37"/>
<path d="M128 36H114.5V43.8749H128V36Z" fill="#107C41"/>
<path opacity="0.1" d="M110.75 25.875H101V47.2499H110.75C111.147 47.2487 111.528 47.0903 111.809 46.8093C112.09 46.5282 112.249 46.1474 112.25 45.7499V27.375C112.249 26.9775 112.09 26.5967 111.809 26.3156C111.528 26.0346 111.147 25.8762 110.75 25.875V25.875Z" fill="black"/>
<path opacity="0.2" d="M109.625 27H101V48.3749H109.625C110.022 48.3737 110.403 48.2153 110.684 47.9342C110.965 47.6532 111.124 47.2723 111.125 46.8748V28.5C111.124 28.1025 110.965 27.7217 110.684 27.4406C110.403 27.1596 110.022 27.0012 109.625 27V27Z" fill="black"/>
<path opacity="0.2" d="M109.625 27H101V46.1249H109.625C110.022 46.1237 110.403 45.9653 110.684 45.6843C110.965 45.4032 111.124 45.0223 111.125 44.6249V28.5C111.124 28.1025 110.965 27.7217 110.684 27.4406C110.403 27.1596 110.022 27.0012 109.625 27V27Z" fill="black"/>
<path opacity="0.2" d="M108.5 27H101V46.1249H108.5C108.897 46.1237 109.278 45.9653 109.559 45.6843C109.84 45.4032 109.999 45.0223 110 44.6249V28.5C109.999 28.1025 109.84 27.7217 109.559 27.4406C109.278 27.1596 108.897 27.0012 108.5 27Z" fill="black"/>
<path d="M108.499 27.001H93.4999C92.6715 27.001 92 27.6725 92 28.5009V43.4997C92 44.328 92.6715 44.9996 93.4999 44.9996H108.499C109.327 44.9996 109.999 44.328 109.999 43.4997V28.5009C109.999 27.6725 109.327 27.001 108.499 27.001Z" fill="#107C41"/>
<path d="M96.1152 41.6257L99.6536 36.1428L96.4126 30.6904H99.0206L100.79 34.1754C100.952 34.506 101.064 34.7526 101.125 34.9151H101.148C101.265 34.6509 101.387 34.3941 101.514 34.1449L103.405 30.6904H105.8L102.475 36.1123L105.884 41.6257H103.337L101.293 37.7976C101.197 37.6348 101.115 37.4639 101.049 37.2867H101.019C100.959 37.4604 100.88 37.6266 100.782 37.7823L98.6775 41.6257H96.1152Z" fill="white"/>
<rect x="80" y="78" width="60" height="60" rx="8" fill="white"/>
<path d="M124.335 95.25H115.164C114.383 95.25 113.75 95.8833 113.75 96.6645V119.335C113.75 120.117 114.383 120.75 115.164 120.75H124.335C125.117 120.75 125.75 120.117 125.75 119.335V96.6645C125.75 95.8833 125.117 95.25 124.335 95.25Z" fill="#038387"/>
<path opacity="0.2" d="M121.25 95.25H120.5V120.75H121.25V95.25Z" fill="black"/>
<path opacity="0.1" d="M122 95.25H121.25V120.75H122V95.25Z" fill="black"/>
<path d="M119.107 93.0001H102.393C102.027 92.9963 101.675 93.1378 101.414 93.3935C101.153 93.6492 101.004 93.9981 101 94.3636V108.375L111.5 111.75L120.5 108V94.3636C120.496 93.9981 120.347 93.6492 120.086 93.3935C119.825 93.1378 119.473 92.9963 119.107 93.0001V93.0001Z" fill="#37C6D0"/>
<path d="M101 115.5L111.5 118.5L120.5 115.5V108H101V115.5Z" fill="#1A9BA1"/>
<path d="M101 115.125V121.763C101.003 122.092 101.137 122.408 101.372 122.64C101.606 122.871 101.923 123.001 102.253 123H119.247C119.577 123.001 119.894 122.871 120.128 122.64C120.363 122.408 120.497 122.092 120.5 121.763V115.125H101Z" fill="#038387"/>
<path opacity="0.1" d="M110.128 117.75C110.305 117.75 110.481 117.714 110.645 117.645C110.897 117.541 111.112 117.366 111.264 117.14C111.416 116.915 111.498 116.649 111.5 116.377V100.372C111.497 100.009 111.352 99.6618 111.095 99.405C110.838 99.1482 110.491 99.0027 110.128 99H101V117.75H110.128Z" fill="black"/>
<path opacity="0.2" d="M109.378 118.5C109.649 118.498 109.915 118.416 110.14 118.264C110.366 118.112 110.541 117.897 110.645 117.645C110.714 117.481 110.75 117.305 110.75 117.127V101.122C110.747 100.759 110.602 100.412 110.345 100.155C110.088 99.8982 109.741 99.7527 109.378 99.75H101V118.5H109.378Z" fill="black"/>
<path opacity="0.2" d="M109.378 117C109.741 116.997 110.088 116.852 110.345 116.595C110.602 116.338 110.747 115.991 110.75 115.627V101.122C110.747 100.759 110.602 100.412 110.345 100.155C110.088 99.8982 109.741 99.7527 109.378 99.75H101V117H109.378Z" fill="black"/>
<path opacity="0.2" d="M108.628 117C108.991 116.997 109.338 116.852 109.595 116.595C109.852 116.338 109.997 115.991 110 115.627V101.122C109.997 100.759 109.852 100.412 109.595 100.155C109.338 99.8982 108.991 99.7527 108.628 99.75H101V117H108.628Z" fill="black"/>
<path d="M108.625 99.75H94.8747C94.1155 99.75 93.5 100.365 93.5 101.125V114.875C93.5 115.635 94.1155 116.25 94.8747 116.25H108.625C109.385 116.25 110 115.635 110 114.875V101.125C110 100.365 109.385 99.75 108.625 99.75Z" fill="url(#paint0_linear)"/>
<path d="M101.9 103.417C102.795 103.356 103.683 103.616 104.404 104.15C104.701 104.415 104.933 104.744 105.084 105.112C105.235 105.48 105.301 105.878 105.275 106.275C105.285 106.834 105.136 107.385 104.846 107.863C104.551 108.332 104.128 108.707 103.625 108.941C103.051 109.208 102.423 109.34 101.79 109.327H100.051V112.559H98.2695V103.417H101.9ZM100.049 107.93H101.582C102.068 107.966 102.55 107.822 102.938 107.526C103.096 107.374 103.219 107.19 103.298 106.985C103.377 106.781 103.41 106.562 103.396 106.343C103.396 105.336 102.81 104.832 101.639 104.832H100.049V107.93Z" fill="white"/>
<rect x="152" y="6" width="60" height="60" rx="8" fill="white"/>
<path d="M184.25 20.249C180.077 20.2612 176.078 21.9245 173.127 24.8756C170.175 27.8266 168.512 31.8256 168.5 35.9989L188.454 40.203L184.25 20.249Z" fill="#ED6C47"/>
<path d="M184.26 20.249C188.432 20.2617 192.43 21.9255 195.379 24.8767C198.328 27.828 199.989 31.8267 199.998 35.999L192.123 41.3516L184.26 35.999V20.249Z" fill="#FF8F6B"/>
<path d="M184.25 51.7498C188.423 51.7376 192.422 50.0743 195.373 47.1233C198.324 44.1723 199.988 40.1734 200 36H168.5C168.512 40.1734 170.175 44.1723 173.127 47.1233C176.078 50.0743 180.077 51.7376 184.25 51.7498V51.7498Z" fill="#D35230"/>
<path opacity="0.1" d="M182.75 25.875H172.219C169.647 28.9051 168.324 32.7999 168.519 36.7693C168.713 40.7388 170.41 44.4857 173.266 47.2499H182.75C183.148 47.2487 183.528 47.0903 183.809 46.8092C184.091 46.5282 184.249 46.1473 184.25 45.7499V27.375C184.249 26.9775 184.091 26.5967 183.809 26.3156C183.528 26.0346 183.148 25.8762 182.75 25.875V25.875Z" fill="black"/>
<path opacity="0.2" d="M181.625 27H171.357C169.038 30.2904 168.076 34.3481 168.673 38.3291C169.269 42.3101 171.377 45.9081 174.558 48.3748H181.625C182.023 48.3737 182.403 48.2153 182.685 47.9342C182.966 47.6531 183.124 47.2723 183.125 46.8748V28.5C183.124 28.1025 182.966 27.7216 182.685 27.4406C182.403 27.1596 182.023 27.0012 181.625 27V27Z" fill="black"/>
<path opacity="0.2" d="M181.625 27H171.357C169.359 29.8321 168.36 33.2478 168.516 36.7099C168.672 40.172 169.974 43.484 172.219 46.1249H181.625C182.023 46.1237 182.403 45.9653 182.684 45.6842C182.966 45.4032 183.124 45.0223 183.125 44.6248V28.5C183.124 28.1025 182.966 27.7216 182.684 27.4406C182.403 27.1596 182.023 27.0012 181.625 27Z" fill="black"/>
<path opacity="0.2" d="M180.5 27H171.357C169.359 29.8321 168.36 33.2478 168.516 36.7099C168.672 40.172 169.974 43.484 172.219 46.1249H180.5C180.898 46.1237 181.278 45.9653 181.559 45.6842C181.841 45.4032 181.999 45.0223 182 44.6248V28.5C181.999 28.1025 181.841 27.7216 181.559 27.4406C181.278 27.1596 180.898 27.0012 180.5 27Z" fill="black"/>
<path d="M165.5 27H180.5C180.898 27 181.279 27.158 181.561 27.4393C181.842 27.7207 182 28.1022 182 28.5V43.4999C182 43.6969 181.961 43.8919 181.886 44.0739C181.81 44.2559 181.7 44.4212 181.561 44.5605C181.421 44.6998 181.256 44.8103 181.074 44.8857C180.892 44.9611 180.697 44.9999 180.5 44.9999H165.5C165.102 44.9999 164.721 44.8418 164.439 44.5605C164.158 44.2792 164 43.8977 164 43.4999V28.5C164 28.1022 164.158 27.7206 164.439 27.4393C164.721 27.158 165.102 27 165.5 27V27Z" fill="#C43E1C"/>
<path d="M173.039 30.3758C174.146 30.3013 175.243 30.622 176.135 31.2806C176.501 31.6073 176.788 32.0129 176.974 32.4668C177.16 32.9207 177.241 33.411 177.209 33.9006C177.222 34.5359 177.036 35.1592 176.678 35.6844C176.314 36.2653 175.789 36.7285 175.168 37.0181C174.457 37.3477 173.681 37.5105 172.898 37.494H170.75V41.6141H168.547V30.3758H173.039ZM170.75 35.6389H172.646C173.247 35.6828 173.843 35.5051 174.322 35.1394C174.512 35.0171 174.665 34.8451 174.765 34.642C174.865 34.439 174.908 34.2125 174.888 33.9871C174.888 32.744 174.164 32.1224 172.717 32.1224H170.75L170.75 35.6389Z" fill="#F9F7F7"/>
<rect x="152" y="78" width="60" height="60" rx="8" fill="white"/>
<path d="M173 112.5V120C173 122.071 178.54 123.75 185.375 123.75C192.21 123.75 197.75 122.071 197.75 120V112.5H173Z" fill="#881421"/>
<path d="M173 104.25V112.5C173 114.571 178.54 116.25 185.375 116.25C192.21 116.25 197.75 114.571 197.75 112.5V104.25H173Z" fill="#AF2031"/>
<path d="M173 96V104.25C173 106.321 178.54 108 185.375 108C192.21 108 197.75 106.321 197.75 104.25V96H173Z" fill="#C94F60"/>
<path d="M185.375 99.75C192.21 99.75 197.75 98.0711 197.75 96C197.75 93.9289 192.21 92.25 185.375 92.25C178.54 92.25 173 93.9289 173 96C173 98.0711 178.54 99.75 185.375 99.75Z" fill="#E08095"/>
<path opacity="0.1" d="M182.125 99H173V117.75H182.125C182.489 117.749 182.838 117.604 183.096 117.346C183.354 117.088 183.499 116.739 183.5 116.375V100.375C183.499 100.011 183.354 99.6615 183.096 99.404C182.838 99.1464 182.489 99.0012 182.125 99V99Z" fill="black"/>
<path opacity="0.2" d="M181.375 99.75H173V118.5H181.375C181.739 118.499 182.088 118.354 182.346 118.096C182.604 117.838 182.749 117.489 182.75 117.125V101.125C182.749 100.761 182.604 100.412 182.346 100.154C182.088 99.8964 181.739 99.7512 181.375 99.75V99.75Z" fill="black"/>
<path opacity="0.2" d="M181.375 99.75H173V117H181.375C181.739 116.999 182.088 116.854 182.346 116.596C182.604 116.338 182.749 115.989 182.75 115.625V101.125C182.749 100.761 182.604 100.412 182.346 100.154C182.088 99.8964 181.739 99.7512 181.375 99.75V99.75Z" fill="black"/>
<path opacity="0.2" d="M180.625 99.75H173V117H180.625C180.989 116.999 181.338 116.854 181.596 116.596C181.854 116.338 181.999 115.989 182 115.625V101.125C181.999 100.761 181.854 100.412 181.596 100.154C181.338 99.8964 180.989 99.7512 180.625 99.75V99.75Z" fill="black"/>
<path d="M180.625 99.75H166.875C166.115 99.75 165.5 100.365 165.5 101.125V114.875C165.5 115.635 166.115 116.25 166.875 116.25H180.625C181.385 116.25 182 115.635 182 114.875V101.125C182 100.365 181.385 99.75 180.625 99.75Z" fill="url(#paint1_linear)"/>
<path d="M172.762 103.53H174.787L178.04 112.468H176.128L175.411 110.337H172.064L171.359 112.468H169.459L172.762 103.53ZM174.98 108.96L173.94 105.725C173.855 105.488 173.791 105.243 173.75 104.995H173.712C173.674 105.25 173.611 105.501 173.525 105.745L172.475 108.961L174.98 108.96Z" fill="white"/>
<rect x="8" y="6" width="60" height="60" rx="8" fill="white"/>
<path d="M54.5 20.249H30.5C30.1022 20.249 29.7206 20.4071 29.4393 20.6884C29.158 20.9697 29 21.3512 29 21.749V28.124L42.5 32.0615L56 28.124V21.749C56 21.3512 55.842 20.9697 55.5607 20.6884C55.2794 20.4071 54.8978 20.249 54.5 20.249V20.249Z" fill="#41A5EE"/>
<path d="M56 28.125H29V36L42.5 39.9375L56 36V28.125Z" fill="#2B7CD3"/>
<path d="M56 36H29V43.875L42.5 47.8124L56 43.875V36Z" fill="#185ABD"/>
<path d="M56 43.875H29V50.25C29 50.6478 29.158 51.0293 29.4393 51.3106C29.7206 51.5919 30.1021 51.7499 30.5 51.75H54.5C54.8978 51.75 55.2793 51.5919 55.5606 51.3106C55.842 51.0293 56 50.6478 56 50.25V43.875Z" fill="#103F91"/>
<path opacity="0.1" d="M38.75 25.875H29V47.25H38.75C39.1474 47.2488 39.5283 47.0904 39.8094 46.8094C40.0904 46.5283 40.2488 46.1474 40.25 45.75V27.375C40.2488 26.9775 40.0904 26.5967 39.8093 26.3156C39.5283 26.0346 39.1474 25.8762 38.75 25.875V25.875Z" fill="black"/>
<path opacity="0.2" d="M37.625 27H29V48.375H37.625C38.0224 48.3738 38.4033 48.2154 38.6843 47.9343C38.9654 47.6533 39.1238 47.2724 39.125 46.8749V28.5C39.1238 28.1025 38.9654 27.7217 38.6843 27.4406C38.4033 27.1596 38.0224 27.0012 37.625 27Z" fill="black"/>
<path opacity="0.2" d="M37.625 27H29V46.125H37.625C38.0224 46.1238 38.4033 45.9654 38.6843 45.6843C38.9654 45.4033 39.1238 45.0224 39.125 44.6249V28.5C39.1238 28.1025 38.9654 27.7217 38.6843 27.4406C38.4033 27.1596 38.0224 27.0012 37.625 27Z" fill="black"/>
<path opacity="0.2" d="M36.5 27H29V46.125H36.5C36.8974 46.1238 37.2783 45.9654 37.5593 45.6843C37.8404 45.4033 37.9988 45.0224 38 44.6249V28.5C37.9988 28.1025 37.8404 27.7217 37.5593 27.4406C37.2783 27.1596 36.8974 27.0012 36.5 27V27Z" fill="black"/>
<path d="M36.5 27H21.5C20.6716 27 20 27.6716 20 28.5V43.5C20 44.3284 20.6716 45 21.5 45H36.5C37.3285 45 38 44.3284 38 43.5V28.5C38 27.6716 37.3285 27 36.5 27Z" fill="#185ABD"/>
<path d="M33.4441 41.6249H31.4191L29.0566 33.8625L26.5816 41.6249H24.5566L22.3066 30.375H24.3316L25.9066 38.25L28.2691 30.6H29.9566L32.2066 38.25L33.7816 30.375H35.6941L33.4441 41.6249Z" fill="white"/>
</g>
<defs>
<filter id="filter0_dd" x="-1.8" y="-1" width="223.6" height="148.6" filterUnits="userSpaceOnUse" color-interpolation-filters="sRGB">
<feFlood flood-opacity="0" result="BackgroundImageFix"/>
<feColorMatrix in="SourceAlpha" type="matrix" values="0 0 0 0 0 0 0 0 0 0 0 0 0 0 0 0 0 0 127 0"/>
<feOffset dy="0.8"/>
<feGaussianBlur stdDeviation="0.9"/>
<feColorMatrix type="matrix" values="0 0 0 0 0 0 0 0 0 0 0 0 0 0 0 0 0 0 0.13 0"/>
<feBlend mode="normal" in2="BackgroundImageFix" result="effect1_dropShadow"/>
<feColorMatrix in="SourceAlpha" type="matrix" values="0 0 0 0 0 0 0 0 0 0 0 0 0 0 0 0 0 0 127 0"/>
<feOffset dy="0.15"/>
<feGaussianBlur stdDeviation="0.225"/>
<feColorMatrix type="matrix" values="0 0 0 0 0 0 0 0 0 0 0 0 0 0 0 0 0 0 0.1 0"/>
<feBlend mode="normal" in2="effect1_dropShadow" result="effect2_dropShadow"/>
<feBlend mode="normal" in="SourceGraphic" in2="effect2_dropShadow" result="shape"/>
</filter>
<linearGradient id="paint0_linear" x1="96.3665" y1="98.676" x2="107.133" y2="117.324" gradientUnits="userSpaceOnUse">
<stop stop-color="#058F92"/>
<stop offset="0.5" stop-color="#038489"/>
<stop offset="1" stop-color="#026D71"/>
</linearGradient>
<linearGradient id="paint1_linear" x1="168.366" y1="98.676" x2="179.133" y2="117.324" gradientUnits="userSpaceOnUse">
<stop stop-color="#B72C3F"/>
<stop offset="0.5" stop-color="#B12334"/>
<stop offset="1" stop-color="#9D1623"/>
</linearGradient>
</defs>
</svg>
