<svg viewBox="0 0 152 146" fill="none" xmlns="http://www.w3.org/2000/svg">
<path d="M134 7H90C85.5817 7 82 10.5817 82 15V59C82 63.4183 85.5817 67 90 67H134C138.418 67 142 63.4183 142 59V15C142 10.5817 138.418 7 134 7Z" fill="white" fill-opacity="0.06"/>
<path d="M134 79H90C85.5817 79 82 82.5817 82 87V131C82 135.418 85.5817 139 90 139H134C138.418 139 142 135.418 142 131V87C142 82.5817 138.418 79 134 79Z" fill="white" fill-opacity="0.06"/>
<path d="M62 79H18C13.5817 79 10 82.5817 10 87V131C10 135.418 13.5817 139 18 139H62C66.4183 139 70 135.418 70 131V87C70 82.5817 66.4183 79 62 79Z" fill="white" fill-opacity="0.06"/>
<path d="M62 7H18C13.5817 7 10 10.5817 10 15V59C10 63.4183 13.5817 67 18 67H62C66.4183 67 70 63.4183 70 59V15C70 10.5817 66.4183 7 62 7Z" fill="white" fill-opacity="0.06"/>
<path d="M25.75 108.909L43.5625 111.375L41.1875 93.5625C37.1053 93.5504 33.1856 95.1605 30.2905 98.0384C27.3954 100.916 25.7621 104.827 25.75 108.909V108.909Z" fill="#ED6C47"/>
<path d="M56.625 109C56.6164 104.908 54.9873 100.987 52.094 98.0935C49.2008 95.2002 45.2792 93.5711 41.1875 93.5625V109L48.3125 110.188L56.625 109Z" fill="#FF8F6B"/>
<path d="M56.625 109C56.625 113.094 54.9986 117.021 52.1035 119.916C49.2084 122.811 45.2818 124.438 41.1875 124.438C37.0932 124.438 33.1666 122.811 30.2715 119.916C27.3764 117.021 25.75 113.094 25.75 109H56.625Z" fill="#D35230"/>
<path opacity="0.5" d="M41.1875 103.062C41.1866 102.748 41.0611 102.446 40.8386 102.224C40.6162 102.001 40.3147 101.876 40 101.875H27.5008C27.0012 102.837 26.6051 103.85 26.3191 104.895V113.105C26.8589 115.065 27.7824 116.899 29.0362 118.5H39.8022C40.1693 118.499 40.521 118.353 40.7805 118.093C41.0401 117.834 41.1864 117.482 41.1875 117.115V103.062Z" fill="black"/>
<path opacity="0.1" d="M41.1874 103.062C41.1865 102.748 41.0611 102.446 40.8386 102.224C40.6161 102.001 40.3146 101.876 39.9999 101.875H27.5007C26.1281 104.5 25.5428 107.465 25.8152 110.414C26.0876 113.363 27.206 116.171 29.0362 118.5H39.8022C40.1692 118.499 40.5209 118.353 40.7805 118.093C41.04 117.834 41.1864 117.482 41.1874 117.115V103.062Z" fill="black"/>
<path d="M38.6146 100.688H24.7604C23.9953 100.688 23.375 101.308 23.375 102.073V115.927C23.375 116.692 23.9953 117.312 24.7604 117.312H38.6146C39.3797 117.312 40 116.692 40 115.927V102.073C40 101.308 39.3797 100.688 38.6146 100.688Z" fill="#C43E1C"/>
<path d="M31.9175 103.534C32.9979 103.462 34.0691 103.775 34.9403 104.418C35.2976 104.737 35.5777 105.133 35.7594 105.576C35.9411 106.019 36.0195 106.498 35.9888 106.976C36.0002 107.748 35.8222 108.511 35.4703 109.198C35.1146 109.765 34.6024 110.217 33.9955 110.5C33.3018 110.822 32.5438 110.981 31.7793 110.965H29.6822V114.55H27.5312V103.534H31.9175ZM29.6822 109.055H31.5335C32.1201 109.098 32.7022 108.924 33.1697 108.567C33.3616 108.369 33.51 108.132 33.6052 107.872C33.7004 107.613 33.7405 107.336 33.7228 107.06C33.7228 105.847 33.0161 105.24 31.6026 105.24H29.6822V109.055Z" fill="white"/>
<path d="M55.2396 22.75H33.0729C32.891 22.75 32.7108 22.7858 32.5427 22.8555C32.3746 22.9251 32.2219 23.0271 32.0933 23.1558C31.9646 23.2844 31.8626 23.4371 31.793 23.6052C31.7233 23.7733 31.6875 23.9535 31.6875 24.1354V29.875L44.1562 31.8047L56.625 29.875V24.1354C56.625 23.9535 56.5892 23.7733 56.5196 23.6052C56.4499 23.4372 56.3479 23.2844 56.2192 23.1558C56.0906 23.0271 55.9379 22.9251 55.7698 22.8555C55.6017 22.7858 55.4216 22.75 55.2396 22.75V22.75Z" fill="#41A5EE"/>
<path d="M56.625 29.875H44.1562H31.6875V33.4375V37L44.1562 39.375L56.625 37V33.4375V29.875Z" fill="#2B7CD3"/>
<path d="M56.625 37H44.1562H31.6875V40.5625V44.125L44.1562 46.5L56.625 44.125V40.5625V37Z" fill="#185ABD"/>
<path d="M56.625 44.125H31.6875V49.8646C31.6875 50.0465 31.7233 50.2267 31.793 50.3948C31.8626 50.5629 31.9646 50.7156 32.0933 50.8442C32.2219 50.9729 32.3747 51.0749 32.5428 51.1445C32.7109 51.2142 32.891 51.25 33.0729 51.25H55.2396C55.607 51.25 55.9594 51.104 56.2192 50.8442C56.479 50.5844 56.625 50.232 56.625 49.8646V44.125Z" fill="#103F91"/>
<path opacity="0.5" d="M41.1875 31.0625V45.1107C41.185 45.4784 41.0378 45.8303 40.7778 46.0903C40.5178 46.3503 40.1659 46.4975 39.7983 46.5H31.6875V29.875H40C40.3146 29.876 40.6161 30.0014 40.8386 30.2239C41.0611 30.4464 41.1865 30.7479 41.1875 31.0625Z" fill="black"/>
<path d="M24.7605 28.6876H38.6146C38.982 28.6876 39.3344 28.8336 39.5942 29.0934C39.854 29.3532 40 29.7056 40 30.073V43.9271C40 44.2946 39.854 44.6469 39.5942 44.9067C39.3344 45.1665 38.982 45.3125 38.6146 45.3125H24.7605C24.393 45.3125 24.0406 45.1666 23.7808 44.9068C23.521 44.6469 23.375 44.2946 23.375 43.9271V30.073C23.375 29.8911 23.4108 29.7109 23.4805 29.5428C23.5501 29.3747 23.6521 29.222 23.7808 29.0934C23.9094 28.9647 24.0622 28.8627 24.2303 28.793C24.3984 28.7234 24.5785 28.6876 24.7605 28.6876V28.6876Z" fill="#185ABD"/>
<path d="M35.7918 42.1953H33.9215L31.7395 35.0258L29.4536 42.1953H27.5833L25.5051 31.8047H27.3754L28.8301 39.0781L31.0122 32.0125H32.5708L34.6489 39.0781L36.1036 31.8047H37.87L35.7918 42.1953Z" fill="white"/>
<path d="M116.75 37L109.912 34.1875L103.688 37V49.8648C103.688 50.2322 103.834 50.5844 104.093 50.8442C104.353 51.104 104.705 51.2499 105.073 51.25H127.24C127.607 51.2499 127.959 51.1039 128.219 50.8442C128.479 50.5844 128.625 50.2321 128.625 49.8648V44.125L116.75 37Z" fill="#185C37"/>
<path d="M116.75 22.75H105.073C104.705 22.7501 104.353 22.8961 104.093 23.1558C103.834 23.4156 103.688 23.7679 103.688 24.1352V29.875L116.75 37L122.688 39.8125L128.625 37V29.875L116.75 22.75Z" fill="#21A366"/>
<path d="M127.24 22.75H116.75V29.875H128.625V24.1352C128.625 23.7679 128.479 23.4156 128.219 23.1558C127.959 22.8961 127.607 22.7501 127.24 22.75Z" fill="#33C481"/>
<path d="M116.75 29.875H103.688V37H116.75V29.875Z" fill="#107C41"/>
<path d="M128.625 37H116.75V44.125H128.625V37Z" fill="#107C41"/>
<path opacity="0.5" d="M113.188 31.0625V45.1107C113.185 45.4784 113.038 45.8303 112.778 46.0903C112.518 46.3503 112.166 46.4975 111.798 46.5H103.688V29.875H112C112.315 29.876 112.616 30.0014 112.839 30.2239C113.061 30.4464 113.187 30.7479 113.188 31.0625Z" fill="black"/>
<path d="M110.614 28.6878H96.7609C95.9958 28.6878 95.3756 29.308 95.3756 30.0731V43.9265C95.3756 44.6916 95.9958 45.3118 96.7609 45.3118H110.614C111.379 45.3118 112 44.6916 112 43.9265V30.0731C112 29.308 111.379 28.6878 110.614 28.6878Z" fill="#107C41"/>
<path d="M99.0465 42.1954L102.409 36.9856L99.3291 31.8047H101.807L103.488 35.1161C103.643 35.4302 103.749 35.6645 103.807 35.819H103.829C103.94 35.5679 104.056 35.3239 104.177 35.0871L105.974 31.8047H108.249L105.09 36.9566L108.329 42.1954H105.908L103.967 38.5579C103.875 38.4033 103.797 38.2408 103.735 38.0725H103.706C103.649 38.2375 103.574 38.3955 103.481 38.5434L101.481 42.1954H99.0465Z" fill="white"/>
<path d="M127.129 94.75H105.184C104.787 94.75 104.406 94.9076 104.126 95.1882C103.845 95.4688 103.688 95.8494 103.688 96.2463V121.754C103.688 122.151 103.845 122.531 104.126 122.812C104.406 123.092 104.787 123.25 105.184 123.25H125.812C126.182 123.25 126.547 123.177 126.889 123.036C127.23 122.895 127.54 122.687 127.801 122.426C128.062 122.165 128.27 121.855 128.411 121.514C128.552 121.173 128.625 120.807 128.625 120.437V96.2463C128.625 95.8494 128.467 95.4688 128.187 95.1882C127.906 94.9076 127.526 94.75 127.129 94.75V94.75Z" fill="#CA64EA"/>
<path d="M128.625 101.875H121.5V109H128.625V101.875Z" fill="#AE4BD5"/>
<path d="M128.625 109H121.5V116.125H128.625V109Z" fill="#9332BF"/>
<path d="M121.5 116.125V123.25H127.129C127.325 123.25 127.52 123.211 127.701 123.136C127.883 123.061 128.048 122.951 128.187 122.812C128.326 122.673 128.436 122.508 128.511 122.326C128.586 122.145 128.625 121.95 128.625 121.754V116.125H121.5Z" fill="#7719AA"/>
<path opacity="0.6" d="M112 101.875H103.688V118.5H111.802C112.169 118.499 112.521 118.353 112.781 118.093C113.04 117.834 113.186 117.482 113.188 117.115V103.062C113.186 102.748 113.061 102.446 112.839 102.224C112.616 102.001 112.315 101.876 112 101.875V101.875Z" fill="black"/>
<path d="M110.504 100.688H96.8713C96.0449 100.688 95.375 101.357 95.375 102.184V115.816C95.375 116.643 96.0449 117.312 96.8713 117.312H110.504C111.33 117.312 112 116.643 112 115.816V102.184C112 101.357 111.33 100.688 110.504 100.688Z" fill="#7719AA"/>
<path d="M99.1083 104.25H101.182L106.114 110.55C106.299 110.833 106.438 111.06 106.531 111.233H106.558C106.508 110.804 106.488 110.372 106.498 109.941V104.25H108.267V113.75H106.326L101.241 107.278C101.099 107.065 100.972 106.841 100.864 106.608H100.831C100.874 107.08 100.891 107.553 100.884 108.026V113.75H99.1083V104.25Z" fill="white"/>
</svg>
