<svg width="24" height="21" viewBox="0 0 24 21" fill="none" xmlns="http://www.w3.org/2000/svg">
<path d="M15.1417 0.5H7.52291C7.27022 0.5 7.02832 0.600378 6.84928 0.778975C6.67087 0.957572 6.57056 1.19979 6.57056 1.45235V5.49984L15.1417 10.4996L19.4273 12.3078L23.7129 10.4996V5.49984L15.1417 0.5Z" fill="#21A366"/>
<path d="M15.1417 5.50049H6.57056V10.5003H15.1417V5.50049Z" fill="#107C41"/>
<path d="M22.7605 0.5H15.1417V5.49984H23.7128V1.45235C23.7128 1.32727 23.6881 1.20347 23.6404 1.08792C23.5922 0.972365 23.5223 0.867352 23.4341 0.778911C23.3452 0.690533 23.2404 0.620376 23.1249 0.572505C23.0093 0.524633 22.8855 0.5 22.7605 0.5Z" fill="#33C481"/>
<path d="M15.1417 10.5005H6.57056V19.5477C6.57056 19.8003 6.67087 20.0425 6.84928 20.2211C7.02832 20.3997 7.27022 20.5 7.52291 20.5H22.7605C23.0132 20.5 23.2551 20.3997 23.4341 20.2211C23.6125 20.0425 23.7129 19.8003 23.7129 19.5477V15.5003L15.1417 10.5005Z" fill="#185C37"/>
<path d="M23.7128 10.5005H15.1417V15.5003H23.7128V10.5005Z" fill="#107C41"/>
<path opacity="0.1" d="M12.7608 4.07178H6.57056V17.6427H12.7608C13.0129 17.6419 13.2548 17.5414 13.4332 17.363C13.6116 17.1845 13.7125 16.9427 13.7132 16.6904V5.02413C13.7125 4.77175 13.6116 4.52998 13.4332 4.35151C13.2548 4.17311 13.0129 4.07254 12.7608 4.07178Z" fill="black"/>
<path opacity="0.2" d="M12.0466 4.78613H6.57056V18.3571H12.0466C12.2986 18.3563 12.5405 18.2557 12.7189 18.0773C12.8973 17.8989 12.9983 17.657 12.9989 17.4046V5.73848C12.9983 5.48611 12.8973 5.24434 12.7189 5.06587C12.5405 4.88746 12.2986 4.78689 12.0466 4.78613Z" fill="black"/>
<path opacity="0.2" d="M12.0466 4.78613H6.57056V16.9285H12.0466C12.2986 16.9278 12.5405 16.8272 12.7189 16.6488C12.8973 16.4703 12.9983 16.2285 12.9989 15.9762V5.73848C12.9983 5.48611 12.8973 5.24434 12.7189 5.06587C12.5405 4.88746 12.2986 4.78689 12.0466 4.78613Z" fill="black"/>
<path opacity="0.2" d="M11.3323 4.78613H6.57056V16.9285H11.3323C11.5844 16.9278 11.8263 16.8272 12.0047 16.6488C12.1831 16.4703 12.284 16.2285 12.2847 15.9762V5.73848C12.284 5.48611 12.1831 5.24434 12.0047 5.06587C11.8263 4.88746 11.5844 4.78689 11.3323 4.78613Z" fill="black"/>
<path d="M11.3317 4.78662H1.80873C1.28278 4.78662 0.856445 5.21296 0.856445 5.73891V15.2616C0.856445 15.7875 1.28278 16.2139 1.80873 16.2139H11.3317C11.8574 16.2139 12.284 15.7875 12.284 15.2616V5.73891C12.284 5.21296 11.8574 4.78662 11.3317 4.78662Z" fill="#107C41"/>
<path d="M3.46912 14.0722L5.71565 10.5911L3.65794 7.12939H5.31376L6.43715 9.34202C6.54 9.55192 6.61111 9.70849 6.64984 9.81166H6.66445C6.73873 9.64392 6.81618 9.48088 6.89682 9.32266L8.09741 7.12939H9.618L7.50695 10.5718L9.67133 14.0722H8.05424L6.7565 11.6418C6.69555 11.5384 6.64349 11.4299 6.60159 11.3174H6.58254C6.54445 11.4277 6.49429 11.5332 6.43207 11.632L5.09592 14.0722H3.46912Z" fill="white"/>
</svg>
