<svg width="24" height="21" viewBox="0 0 24 21" fill="none" xmlns="http://www.w3.org/2000/svg">
<path d="M20.994 0.5H8.71474C8.58306 0.5 8.45265 0.525968 8.33094 0.576379C8.20929 0.626726 8.09876 0.700628 8.00562 0.793768C7.91248 0.886908 7.83864 0.997443 7.78823 1.11909C7.73782 1.2408 7.71191 1.37121 7.71191 1.50289V2.64279L14.6331 4.78564L21.9969 2.64279V1.50289C21.9969 1.23693 21.8912 0.981826 21.7031 0.793768C21.5151 0.605647 21.26 0.5 20.994 0.5Z" fill="#0364B8"/>
<path d="M23.1754 11.5036C23.28 11.1747 23.3636 10.8395 23.4254 10.4998C23.4254 10.416 23.4035 10.3341 23.3616 10.2618C23.3199 10.1894 23.2598 10.1297 23.1874 10.0878L23.1783 10.0821L23.1754 10.0808L15.4344 5.67079C15.4009 5.6492 15.3663 5.62952 15.3306 5.61174C15.1826 5.5381 15.0196 5.5 14.8544 5.5C14.6892 5.5 14.5262 5.5381 14.3782 5.61174H14.3782C14.3426 5.62952 14.3079 5.6492 14.2744 5.67079L6.53341 10.0808L6.53055 10.0821L6.52147 10.0878C6.4491 10.1297 6.38903 10.1894 6.34719 10.2618C6.30542 10.3341 6.28339 10.416 6.28339 10.4998C6.34529 10.8395 6.42878 11.1747 6.53347 11.5036L14.7415 17.5066L23.1754 11.5036Z" fill="#0A2767"/>
<path d="M17.7118 2.64307H12.7119L11.2684 4.78585L12.7119 6.92864L17.7118 11.2142H21.9974V6.92864L17.7118 2.64307Z" fill="#28A8EA"/>
<path d="M12.7116 2.64307H7.71191V6.92864H12.7116V2.64307Z" fill="#0078D4"/>
<path d="M21.9971 2.64307H17.7115V6.92864H21.9971V2.64307Z" fill="#50D9FF"/>
<path d="M17.7116 11.2148L12.7118 6.9292H7.71191V11.2148L12.7118 15.5004L20.4486 16.7632L17.7116 11.2148Z" fill="#0364B8"/>
<path d="M17.7116 6.9292H12.7118V11.2148H17.7116V6.9292Z" fill="#0078D4"/>
<path d="M12.7116 11.2139H7.71191V15.4994H12.7116V11.2139Z" fill="#064A8C"/>
<path d="M21.9971 11.2139H17.7115V15.4994H21.9971V11.2139Z" fill="#0078D4"/>
<path opacity="0.5" d="M14.991 17.0835L6.56732 10.9409L6.92026 10.3199C6.92026 10.3199 14.595 14.6912 14.7122 14.7566C14.7602 14.7757 14.8117 14.7852 14.8634 14.7833C14.9151 14.782 14.966 14.7699 15.0128 14.7477C15.1223 14.6861 22.8215 10.2983 22.8215 10.2983L23.1758 10.9186L14.991 17.0835Z" fill="#0A2767"/>
<path d="M23.1869 10.9125L23.1774 10.9183L23.175 10.9195L15.4339 15.3295C15.2802 15.4286 15.1035 15.487 14.9208 15.4984C14.7382 15.5099 14.5557 15.4743 14.3907 15.3949L17.0868 19.0094L22.9824 20.2932L22.9822 20.2964C23.1194 20.1967 23.231 20.0665 23.308 19.9161C23.385 19.765 23.4251 19.598 23.425 19.4291V10.5005C23.425 10.5843 23.403 10.6662 23.3611 10.7386C23.3193 10.811 23.2593 10.8706 23.1869 10.9125Z" fill="#1490DF"/>
<path opacity="0.05" d="M23.425 19.4291V18.9014L16.2946 14.8394L15.4339 15.3295C15.2802 15.4292 15.1035 15.487 14.9208 15.4984C14.7382 15.5098 14.5557 15.4743 14.3907 15.3949L17.0868 19.0094L22.9824 20.2931L22.9821 20.2963C23.1194 20.1973 23.231 20.0665 23.308 19.916C23.385 19.7649 23.4251 19.5979 23.425 19.4291Z" fill="black"/>
<path opacity="0.1" d="M23.3893 19.7026L15.5731 15.25L15.4339 15.3294C15.2801 15.429 15.1035 15.4868 14.9208 15.4982C14.7382 15.5097 14.5557 15.4741 14.3907 15.3948L17.0868 19.0099L22.9824 20.293L22.9821 20.2962C23.1822 20.1514 23.326 19.9413 23.3893 19.7026Z" fill="black"/>
<path d="M6.53343 10.9221V10.9151H6.52625L6.50486 10.9005C6.43661 10.8586 6.38035 10.7995 6.34156 10.7297C6.30277 10.6592 6.28271 10.5805 6.2834 10.5005V19.4285C6.28321 19.5694 6.31083 19.7091 6.36461 19.8392C6.41838 19.9688 6.4973 20.0875 6.59679 20.1865C6.69634 20.2862 6.8145 20.3649 6.94459 20.4189C7.07468 20.4729 7.21404 20.5002 7.3548 20.5002H22.3543C22.4436 20.4995 22.5323 20.4875 22.6186 20.4646C22.6634 20.4564 22.7067 20.4424 22.7472 20.4214C22.7624 20.4202 22.777 20.4151 22.79 20.4075C22.8485 20.3833 22.9037 20.3522 22.9543 20.3141C22.9686 20.3072 22.9758 20.3072 22.9829 20.2932L6.53343 10.9221Z" fill="#28A8EA"/>
<path opacity="0.1" d="M13.426 16.6904V5.02413C13.4253 4.77175 13.3247 4.52992 13.1462 4.35151C12.9678 4.17304 12.726 4.07248 12.4736 4.07178H7.73413V6.92883H7.7342V9.39732L6.5336 10.0811L6.53074 10.083L6.5216 10.0881V10.0887C6.44922 10.13 6.38916 10.1903 6.34732 10.2627C6.30554 10.3351 6.28351 10.417 6.28351 10.5001L6.28364 10.5033L6.28339 10.5008V17.6428H12.4737C12.726 17.6421 12.9678 17.5412 13.1463 17.3628C13.3247 17.1844 13.4253 16.9425 13.426 16.6904Z" fill="black"/>
<path opacity="0.2" d="M12.7117 17.4048V5.73848C12.711 5.48643 12.6104 5.24434 12.4319 5.06587C12.2535 4.8874 12.0117 4.78683 11.7593 4.78613H7.73413V6.92892H7.7342V9.39741L6.5336 10.0812L6.53074 10.0831L6.5216 10.0882V10.0888C6.44922 10.1301 6.38916 10.1904 6.34732 10.2628C6.30554 10.3352 6.28351 10.4171 6.28351 10.5009L6.28364 10.5034L6.28339 10.5009V18.3571H11.7594C12.0117 18.3565 12.2535 18.2555 12.432 18.0771C12.6104 17.8987 12.711 17.6568 12.7117 17.4048Z" fill="black"/>
<path opacity="0.2" d="M12.7117 15.9762V5.73848C12.711 5.48643 12.6104 5.24428 12.4319 5.06587C12.2535 4.8874 12.0117 4.78683 11.7593 4.78613H7.73413V6.92892H7.7342V9.39741L6.5336 10.0812L6.53074 10.0831L6.5216 10.0882V10.0888C6.44922 10.1301 6.38916 10.1904 6.34732 10.2628C6.30554 10.3352 6.28351 10.4171 6.28351 10.5002L6.28364 10.5034L6.28339 10.5009V16.9286H11.7594C12.0117 16.928 12.2535 16.827 12.432 16.6486C12.6104 16.4702 12.711 16.2283 12.7117 15.9762Z" fill="black"/>
<path opacity="0.2" d="M11.9975 15.9762V5.73848C11.9967 5.48643 11.8962 5.24428 11.7177 5.06587C11.5393 4.8874 11.2974 4.78683 11.0451 4.78613H7.73413V6.92892H7.7342V9.39741L6.5336 10.0812L6.53074 10.0831L6.5216 10.0882V10.0888C6.44922 10.1301 6.38916 10.1904 6.34732 10.2628C6.30554 10.3352 6.28351 10.4171 6.28351 10.5002L6.28364 10.5034L6.28339 10.5009V16.9286H11.0451C11.2974 16.928 11.5393 16.827 11.7177 16.6486C11.8962 16.4702 11.9967 16.2283 11.9975 15.9762Z" fill="black"/>
<path d="M1.52162 4.78613H11.045C11.1701 4.78613 11.2939 4.81076 11.4095 4.85864C11.525 4.90651 11.63 4.9766 11.7184 5.06504C11.8069 5.15349 11.877 5.2585 11.9249 5.37405C11.9727 5.4896 11.9973 5.61341 11.9973 5.73848V15.262C11.9973 15.3871 11.9727 15.5109 11.9249 15.6264C11.877 15.742 11.8069 15.8467 11.7184 15.9356C11.63 16.0239 11.525 16.0937 11.4095 16.142C11.2939 16.1896 11.1701 16.2143 11.045 16.2143H1.52162C1.26906 16.2143 1.02678 16.114 0.848187 15.9356C0.669589 15.7566 0.569275 15.5147 0.569275 15.262V5.73848C0.569275 5.61341 0.593909 5.4896 0.641781 5.37405C0.689652 5.2585 0.759745 5.15349 0.848187 5.06504C0.936628 4.97667 1.04164 4.90651 1.15719 4.85864C1.27274 4.81076 1.39655 4.78613 1.52162 4.78613Z" fill="#0078D4"/>
<path d="M3.29147 8.66798C3.54784 8.12133 3.96167 7.6642 4.47981 7.35501C5.05382 7.02613 5.70739 6.86233 6.36851 6.88137C6.98106 6.86804 7.58542 7.02359 8.11569 7.33025C8.6146 7.62738 9.01649 8.06356 9.27229 8.58481C9.55082 9.15939 9.68961 9.79112 9.67736 10.4292C9.69094 11.0965 9.54803 11.7574 9.2601 12.3599C8.99858 12.8996 8.58457 13.351 8.06928 13.6577C7.51851 13.9745 6.89141 14.1338 6.25626 14.1192C5.63057 14.1338 5.01274 13.977 4.47003 13.6653C3.967 13.3675 3.56041 12.9313 3.29877 12.4082C3.0184 11.8425 2.87777 11.2171 2.88881 10.5854C2.87656 9.92445 3.01421 9.26859 3.29147 8.66798ZM4.5579 11.7498C4.69472 12.0952 4.92653 12.3942 5.22652 12.6133C5.53209 12.8272 5.89805 12.9377 6.27093 12.9282C6.66799 12.944 7.05935 12.8298 7.38607 12.6037C7.6825 12.3847 7.90821 12.0837 8.03512 11.7377C8.17772 11.3517 8.24801 10.9428 8.24254 10.532C8.24705 10.1175 8.18102 9.70477 8.04731 9.31177C7.92935 8.95813 7.71152 8.64639 7.42022 8.41402C7.10195 8.17657 6.71161 8.05594 6.3148 8.07245C5.93399 8.06229 5.5599 8.17339 5.24607 8.38926C4.94024 8.60894 4.70323 8.91114 4.56279 9.26034C4.25213 10.0609 4.25042 10.9479 4.5579 11.7498Z" fill="white"/>
</svg>
