<svg width="24" height="21" viewBox="0 0 24 21" fill="none" xmlns="http://www.w3.org/2000/svg">
<path d="M13.5696 0.5C10.9202 0.507746 8.38122 1.56378 6.50763 3.43743C4.6334 5.31102 3.57757 7.84998 3.56995 10.4996L16.2387 13.1688L13.5696 0.5Z" fill="#ED6C47"/>
<path d="M13.5759 0.5C16.2247 0.508063 18.7631 1.56441 20.6354 3.43813C22.5077 5.31191 23.5623 7.85068 23.568 10.4997L18.5682 13.898L13.5759 10.4997V0.5Z" fill="#FF8F6B"/>
<path d="M13.5696 20.5C16.2191 20.4923 18.758 19.4363 20.6316 17.5627C22.5052 15.6891 23.5617 13.1502 23.5693 10.5005H3.56995C3.57757 13.1502 4.6334 15.6891 6.50763 17.5627C8.38122 19.4363 10.9202 20.4923 13.5696 20.5Z" fill="#D35230"/>
<path opacity="0.1" d="M12.6172 4.07178H5.93105C4.29809 5.99559 3.45811 8.4684 3.58192 10.9886C3.70509 13.5088 4.78252 15.8877 6.5958 17.6427H12.6172C12.8699 17.6419 13.1111 17.5414 13.2895 17.3629C13.4686 17.1845 13.5689 16.9427 13.5695 16.6904V5.02413C13.5689 4.77175 13.4686 4.52998 13.2895 4.35151C13.1111 4.17311 12.8699 4.07254 12.6172 4.07178Z" fill="black"/>
<path opacity="0.2" d="M11.9029 4.78613H5.38379C3.91146 6.87521 3.30069 9.45144 3.67972 11.979C4.05812 14.5065 5.39649 16.7909 7.41611 18.357H11.9029C12.1556 18.3563 12.3969 18.2557 12.5759 18.0773C12.7543 17.8988 12.8547 17.657 12.8553 17.4046V5.73848C12.8547 5.48611 12.7543 5.24428 12.5759 5.06587C12.3969 4.88746 12.1556 4.78689 11.9029 4.78613Z" fill="black"/>
<path opacity="0.2" d="M11.9029 4.78613H5.38375C4.11522 6.58423 3.48097 8.75286 3.58001 10.9509C3.67905 13.149 4.50569 15.2518 5.93104 16.9285H11.9029C12.1556 16.9278 12.3969 16.8272 12.5753 16.6487C12.7543 16.4703 12.8546 16.2285 12.8553 15.9761V5.73848C12.8546 5.48611 12.7543 5.24428 12.5753 5.06587C12.3969 4.88746 12.1556 4.78689 11.9029 4.78613Z" fill="black"/>
<path opacity="0.2" d="M11.1886 4.78613H5.38375C4.11522 6.58423 3.48097 8.75286 3.58001 10.9509C3.67905 13.149 4.50569 15.2518 5.93104 16.9285H11.1886C11.4413 16.9278 11.6826 16.8272 11.861 16.6487C12.0401 16.4703 12.1404 16.2285 12.141 15.9761V5.73848C12.1404 5.48611 12.0401 5.24428 11.861 5.06587C11.6826 4.88746 11.4413 4.78689 11.1886 4.78613Z" fill="black"/>
<path d="M1.66518 4.78613H11.1887C11.4414 4.78613 11.6833 4.88645 11.8623 5.06504C12.0407 5.24371 12.141 5.48592 12.141 5.73848V15.2619C12.141 15.387 12.1163 15.5108 12.0687 15.6264C12.0204 15.7419 11.9506 15.8469 11.8623 15.9353C11.7734 16.0237 11.6687 16.0939 11.5531 16.1418C11.4376 16.1896 11.3138 16.2143 11.1887 16.2143H1.66518C1.41249 16.2143 1.17059 16.1139 0.991548 15.9353C0.813141 15.7567 0.71283 15.5145 0.71283 15.2619V5.73848C0.71283 5.48592 0.813141 5.24364 0.991548 5.06504C1.17059 4.88645 1.41249 4.78613 1.66518 4.78613Z" fill="#C43E1C"/>
<path d="M6.45171 6.92957C7.15454 6.88227 7.85102 7.08588 8.41735 7.50403C8.64972 7.71145 8.83194 7.96897 8.95004 8.25715C9.06813 8.54533 9.11955 8.85662 9.09924 9.16747C9.10749 9.57082 8.9894 9.96655 8.7621 10.3C8.531 10.6688 8.19768 10.9629 7.80341 11.1468C7.35199 11.356 6.85931 11.4594 6.36218 11.4489H4.99842V14.0648H3.59973V6.92957H6.45171ZM4.99842 10.2711H6.20219C6.58376 10.299 6.96217 10.1862 7.26628 9.95398C7.38692 9.87633 7.48405 9.76713 7.54754 9.63818C7.61103 9.5093 7.63833 9.36549 7.62563 9.22238C7.62563 8.43314 7.16596 8.03849 6.24726 8.03849H4.99842V10.2711Z" fill="#F9F7F7"/>
</svg>
