<svg viewBox="0 0 200 120" fill="none" xmlns="http://www.w3.org/2000/svg">
<path d="M21.7998 80.1002C22.3998 81.3002 27.8998 91.9002 35.6998 96.5002C35.7998 96.5002 35.7998 96.5002 35.8998 96.5002L48.4998 85.0002C48.5998 84.9002 48.5998 84.8002 48.4998 84.7002C47.0998 83.9002 38.4998 78.4002 33.9998 69.3002C33.9998 69.2002 33.7998 69.2002 33.6998 69.2002L21.8998 79.9002C21.7998 79.9002 21.7998 80.0002 21.7998 80.1002Z" fill="#A5B9D1"/>
<path d="M33.3 87.5C27.7 89.4 22.1 91.4 16.6 93.3C16.4 93.4 16.2 93.3 16.1 93.1C12.3 86.8 10 79.4 9.5 71.5C9.5 71.3 9.6 71.1 9.8 71.1C15 69.4 20.2 67.6 25.4 65.9C25.7 65.8 25.9 66 26 66.3C26.9 73.9 29.6 81 33.6 87C33.7 87.1 33.6 87.4 33.3 87.5Z" fill="#2B579A"/>
<path d="M24.2 72.6C20.5 73.8 16.8 75.1 13.1 76.3C12.8 76.4 12.5 76.3 12.5 76.1C12.5 75.9 12.7 75.6 13 75.5C16.7 74.3 20.4 73 24.1 71.8C24.4 71.7 24.7 71.8 24.7 72C24.7 72.3 24.5 72.5 24.2 72.6Z" fill="white"/>
<path d="M25.0998 76.4999C21.2998 77.7999 17.5998 78.9999 13.8998 80.2999C13.5998 80.3999 13.2998 80.2999 13.1998 80.0999C13.0998 79.8999 13.3998 79.5999 13.6998 79.4999C17.3998 78.1999 21.1998 76.9999 24.8998 75.6999C25.1998 75.5999 25.4998 75.6999 25.5998 75.8999C25.5998 76.0999 25.3998 76.3999 25.0998 76.4999Z" fill="white"/>
<path d="M26.5 80.1001C22.7 81.4001 18.9 82.7001 15.1 83.9001C14.8 84.0001 14.5 83.9001 14.4 83.7001C14.3 83.5001 14.5 83.3001 14.8 83.2001C18.6 81.9001 22.4 80.7001 26.1 79.4001C26.4 79.3001 26.7 79.4001 26.8 79.6001C27 79.8001 26.8 80.0001 26.5 80.1001Z" fill="white"/>
<path d="M28.4 83.5C25.2 84.6 22 85.7 18.8 86.8C18.5 86.9 18.2 86.8 18.1 86.6C18 86.4 18.1 86.2 18.4 86.1C21.6 85 24.8 83.9 28 82.8C28.3 82.7 28.6 82.8 28.7 83C28.8 83.2 28.6 83.4 28.4 83.5Z" fill="white"/>
<path d="M169.7 39.5C169.7 40.1 181.5 83.3 185.1 96.5C185.6 98.4 184.2 100.3 182.2 100.3H161.5L169.7 39.5Z" fill="url(#paint0_linear_1808_3765)"/>
<path d="M166.7 100.3H38.2002C36.5002 100.3 35.2002 99.0001 35.2002 97.3001V22.1001C35.2002 20.4001 36.5002 19.1001 38.2002 19.1001H166.7C168.4 19.1001 169.7 20.4001 169.7 22.1001V97.3001C169.7 99.0001 168.3 100.3 166.7 100.3Z" fill="#E1DFDD"/>
<path d="M40.8003 94.4999V24.8999H164V94.4999H40.8003Z" fill="url(#paint1_linear_1808_3765)"/>
<path d="M172.4 27.1996C165.9 25.6996 159.4 29.6996 157.9 36.1996C156.4 42.5996 160.3 48.9996 166.6 50.6996C173.1 52.3997 179.7 48.5996 181.4 42.1996C181.4 42.0996 181.4 41.8997 181.2 41.8997L169.9 39.0996C169.8 39.0996 169.7 38.8996 169.7 38.7996L172.5 27.4996C172.6 27.3996 172.5 27.1996 172.4 27.1996Z" fill="#0078D4"/>
<path d="M175.2 26.2998L172.4 37.5998C172.4 37.6998 172.4 37.8998 172.6 37.8998L183.9 40.6998C184 40.6998 184.2 40.6998 184.2 40.4998C185.7 34.1998 181.8 27.7998 175.6 26.0998C175.4 25.9998 175.2 26.0998 175.2 26.2998Z" fill="#99C9EE"/>
<path d="M167.8 67.0998C167.1 66.2998 166.5 65.7998 166 65.6998C165 65.4998 162.1 66.2998 161.1 66.4998C160.7 66.5998 160.3 66.8998 160 67.2998C159.5 68.0998 155.4 75.7998 155 78.9998C154.4 83.1998 157.2 83.7998 157.9 83.8998C158.5 83.9998 161.7 81.1998 162.8 80.4998C164 79.5998 164.7 79.7998 165.4 79.9998C166 80.0998 166.8 80.1998 170.1 80.6998C173.4 81.1998 174.2 81.3998 174.8 81.3998C175.5 81.4998 176.3 81.5998 177.1 82.6998C178 83.6998 180.3 87.3998 181 87.4998C181.6 87.5998 184.5 87.8998 185 83.6998C185.4 80.4998 183.4 71.7998 183.1 70.8998C183 70.3998 182.7 70.0998 182.3 69.7998C181.4 69.2998 178.8 67.6998 177.8 67.4998C177.3 67.3998 176.6 67.5998 175.8 68.2998L167.8 67.0998Z" fill="#FFF1CC"/>
<path d="M184 72.4996C183.9 71.9996 183.6 71.5996 183.1 71.2996C182.1 70.7996 179.3 69.2996 178.2 69.0996C177.3 68.9996 176.9 69.6996 175.9 70.4996C174.8 71.7996 174.4 71.9996 173.6 71.8996C173.4 71.8996 172.2 71.6996 171.2 71.4996C170.2 71.2996 169.1 71.1996 168.8 71.0996C168 70.9996 167.7 70.5996 167 68.9996C166.3 67.8996 166.1 67.0996 165.2 66.8996C164.1 66.6996 161 67.2996 159.9 67.4996C159.4 67.5996 159 67.9996 158.7 68.3996C158.1 69.2996 153.7 77.8996 153.2 81.4996C152.6 86.1996 155.6 86.8996 156.3 86.9996C157 87.0996 160.4 83.9996 161.7 83.1996C163 82.2996 163.7 82.4996 164.5 82.5996C165.1 82.6996 166.1 82.7996 169.6 83.3996C173.2 83.9996 174.1 84.0996 174.7 84.1996C175.5 84.2996 176.3 84.3996 177.3 85.6996C178.3 86.7996 180.8 90.8996 181.5 90.9996C182.2 91.0996 185.3 91.3996 185.9 86.6996C186.4 83.1996 184.3 73.4996 184 72.4996Z" fill="#FFB900"/>
<path d="M168.3 77.8998L167 77.6998L167.2 76.3998C167.2 76.1998 167.1 75.9998 166.9 75.8998L166.3 75.7998C166.1 75.7998 165.9 75.8998 165.9 76.0998L165.7 77.3998L164.4 77.1998C164.2 77.1998 164 77.2998 164 77.4998L163.9 78.0998C163.9 78.2998 164 78.4998 164.2 78.5998L165.5 78.7998L165.3 80.0998C165.3 80.2998 165.4 80.4998 165.6 80.5998L166.2 80.6998C166.4 80.6998 166.6 80.5998 166.6 80.3998L166.8 79.0998L168.1 79.2998C168.3 79.2998 168.5 79.1998 168.5 78.9998L168.6 78.3998C168.7 78.0998 168.5 77.8998 168.3 77.8998Z" fill="white"/>
<path d="M174.163 81.485C173.063 81.285 172.363 80.285 172.463 79.185C172.563 78.185 173.563 77.385 174.563 77.485H174.663C175.763 77.685 176.463 78.685 176.363 79.785C176.163 80.885 175.263 81.685 174.163 81.485Z" fill="white"/>
<path d="M180.1 73.6997C179.6 73.6997 179.1 73.2997 179.1 72.6997C179.1 72.1997 179.4 71.6997 180 71.6997C180.5 71.6997 181 72.0997 181 72.6997C181.1 73.1997 180.7 73.5997 180.1 73.6997C180.2 73.6997 180.1 73.6997 180.1 73.6997Z" fill="white"/>
<path d="M177.4 74.8998C176.9 74.7998 176.5 74.2998 176.6 73.7998C176.7 73.2998 177.1 72.8998 177.6 72.9998C178.1 73.0998 178.5 73.5998 178.4 74.0998C178.4 74.5998 178 74.9998 177.4 74.8998Z" fill="white"/>
<path d="M178.9 77.6997C178.4 77.6997 177.9 77.2997 177.9 76.6997C177.9 76.1997 178.2 75.6997 178.8 75.6997C179.3 75.6997 179.8 76.0997 179.8 76.6997C179.9 77.1997 179.5 77.6997 178.9 77.6997C179 77.6997 179 77.6997 178.9 77.6997Z" fill="white"/>
<path d="M181.3 76.4999C180.8 76.3999 180.4 75.8999 180.5 75.3999C180.6 74.8999 181 74.4999 181.5 74.5999C182 74.6999 182.4 75.1999 182.3 75.6999C182.3 76.1999 181.8 76.5999 181.3 76.4999Z" fill="white"/>
<path d="M162.663 73.5846C161.563 73.3846 160.863 72.3846 160.963 71.2846C161.063 70.2846 162.063 69.4846 163.063 69.5846H163.163C164.263 69.7846 164.963 70.7846 164.863 71.8846C164.663 72.9846 163.763 73.6846 162.663 73.5846Z" fill="white"/>
<path d="M119.9 54.6998C119.9 55.5998 119.8 56.5998 119.7 57.4998C119.7 57.7998 119.6 57.9998 119.6 58.2998C119.4 59.1998 119.1 60.0998 118.8 60.9998C117.4 64.5998 114.8 67.5998 111.5 69.5998C108.9 71.1998 105.8 72.0998 102.6 72.0998C99.3002 72.0998 96.3002 71.1998 93.6002 69.5998C90.4002 67.6998 87.8002 64.6998 86.4002 61.1998C86.0002 60.2998 85.7002 59.2998 85.5002 58.2998C85.5002 57.9998 85.4002 57.7998 85.4002 57.4998C85.2002 56.5998 85.2002 55.6998 85.2002 54.6998C85.2002 45.0998 93.0002 37.2998 102.6 37.2998C112.2 37.2998 119.9 45.0998 119.9 54.6998Z" fill="#FFF1CC"/>
<path d="M94.6998 64.4998C94.5998 66.1998 94.1998 67.8998 93.4998 69.4998C93.4998 69.5998 93.4998 69.5998 93.3998 69.5998C90.1998 67.6998 87.5998 64.6998 86.1998 61.1998C85.7998 60.2998 85.4998 59.2998 85.2998 58.2998C85.8998 57.5998 86.5998 56.8998 87.1998 56.3998C88.3998 55.4998 89.4998 54.8998 90.7998 54.5998C91.3998 54.3998 91.9998 54.2998 92.6998 54.2998C93.2998 55.0998 93.8998 56.1998 94.1998 58.3998C94.6998 60.4998 94.7998 62.4998 94.6998 64.4998Z" fill="#9A6541"/>
<path d="M119.5 58.2999C119.3 59.1999 119 60.0999 118.7 60.9999C117.3 64.5999 114.7 67.5999 111.4 69.5999C111.4 69.5999 111.4 69.4999 111.3 69.4999C110.6 67.8999 110.2 66.1999 110.1 64.4999C110 62.4999 110.2 60.4999 110.5 58.4999C110.8 56.2999 111.5 55.1999 112 54.3999C112.7 54.4999 113.4 54.5999 114.1 54.7999C115.2 55.0999 116.3 55.5999 117.4 56.4999C118.2 56.9999 118.9 57.5999 119.5 58.2999Z" fill="#9A6541"/>
<path d="M119.6 57.5C119.6 57.8 119.5 58 119.5 58.3C119.3 59.2 119 60.1 118.7 61C117.3 64.6 114.7 67.6 111.4 69.6C108.8 71.2 105.7 72.1 102.5 72.1C99.1998 72.1 96.1998 71.2 93.4998 69.6C90.2998 67.7 87.6998 64.7 86.2998 61.2C85.8998 60.3 85.5998 59.3 85.3998 58.3C85.3998 58 85.2998 57.8 85.2998 57.5L86.0998 56.8C88.0998 55 90.7998 54 93.4998 54H111.6C114.3 54 117 55 119 56.8L119.6 57.5Z" fill="#0078D4"/>
<path d="M109.7 54.3499V54.1499H94.2002V54.3499C94.5002 55.6499 95.2002 56.7499 96.3002 57.6499C97.4002 58.4499 98.6002 58.9499 100 58.9499H103.7C104.5 58.9499 105.3 58.8499 106 58.5499C106.7 58.2499 107.4 57.8499 107.9 57.2499C109 56.3499 109.5 55.3499 109.7 54.3499Z" fill="white"/>
<path d="M96.9998 56.8498C97.8998 57.5498 98.9998 57.9498 100.2 57.9498H103.9C105.3 57.9498 106.5 57.4498 107.5 56.4498C108.2 55.7498 108.6 54.9498 108.9 54.0498H95.2998C95.4998 55.2498 96.0998 56.1498 96.9998 56.8498Z" fill="#9A6541"/>
<path d="M101.15 49.8502C101.35 49.9502 101.55 50.0502 101.75 50.1502C101.95 50.1502 102.25 50.2502 102.45 50.1502C102.75 50.0502 102.95 49.9502 103.05 49.7502C103.05 49.7502 103.15 49.6502 103.05 49.6502C103.05 49.6502 103.05 49.5502 102.95 49.5502C102.95 49.5502 102.85 49.5502 102.75 49.5502H102.65C102.45 49.6502 102.15 49.6502 101.75 49.5502C101.55 49.5502 101.35 49.4502 101.25 49.3502C101.05 49.2502 100.95 49.2502 100.85 49.1502C100.75 49.0502 100.65 49.0502 100.55 49.1502C100.45 49.1502 100.45 49.2502 100.55 49.3502C100.75 49.4502 100.95 49.6502 101.15 49.8502Z" fill="#9A6541"/>
<path d="M107.65 53.25C107.65 52.55 107.75 46.25 107.75 46.25L96.6498 46.65V53.25C96.6498 53.95 95.5498 54.15 95.5498 54.15C96.2498 54.95 99.1498 56.15 102.25 55.85C105.65 55.85 107.45 54.75 108.45 54.05C108.45 54.05 107.65 54.15 107.65 53.25Z" fill="#9A6541"/>
<path d="M106.85 47.7498C107.05 48.0498 107.35 48.1498 107.65 48.1498C107.95 48.1498 108.25 47.9498 108.45 47.7498C108.65 47.4498 108.75 47.1498 108.75 46.8498C108.75 46.4498 108.65 46.1498 108.35 45.9498C108.15 45.7498 107.85 45.5498 107.55 45.5498C107.25 45.5498 106.95 45.7498 106.75 45.9498C106.55 46.2498 106.45 46.5498 106.45 46.8498C106.55 47.1498 106.65 47.4498 106.85 47.7498Z" fill="#9A6541"/>
<path d="M95.5498 46.8498C95.5498 47.2498 95.6498 47.5498 95.9498 47.7498C96.1498 48.0498 96.4498 48.1498 96.7498 48.1498C97.0498 48.1498 97.3498 48.0498 97.5498 47.7498C97.7498 47.4498 97.8498 47.1498 97.8498 46.8498C97.8498 46.4498 97.7498 46.1498 97.4498 45.9498C97.2498 45.7498 96.9498 45.5498 96.6498 45.5498C96.3498 45.5498 96.0498 45.6498 95.8498 45.9498C95.6498 46.1498 95.5498 46.5498 95.5498 46.8498Z" fill="#9A6541"/>
<path d="M96.6498 45.5498V48.9498C96.6498 50.2498 97.2498 51.5498 98.2498 52.4498C99.2498 53.3498 100.35 53.7498 101.65 53.7498L103.25 53.6498C104.55 53.6498 105.65 53.0498 106.55 52.1498C107.45 51.2498 107.75 50.2498 107.75 48.8498L107.65 45.4498C107.65 44.0498 107.05 42.8498 106.05 41.9498C105.05 40.9498 104.05 40.5498 102.65 40.5498H101.35C99.9498 40.6498 98.8498 41.2498 97.8498 42.2498C96.9498 43.1498 96.5498 44.1498 96.6498 45.5498Z" fill="#9A6541"/>
<path d="M102.35 42.25L102.75 51.65L107.15 51.15L106.85 42.55L102.35 42.25Z" fill="url(#paint2_radial_1808_3765)"/>
<path opacity="0.75" d="M107.2 45.6V46.6C107.2 47.3 107 47.8 106.5 48.3C106 48.8 105.5 49 104.8 49.1C103.7 49.2 103.5 48.6 102 48.6C100.7 48.6 100 49.2 99.2001 49.1C98.7001 49 98.2001 48.8 97.8001 48.3C97.4001 47.9 97.2001 47.4 97.2001 46.8V45.5H96.6001L96.7001 48.9C96.7001 50.2 97.2001 51.4 98.2001 52.3C99.2001 53.2 100.1 53.6 101.2 53.6H103.2C104.7 53.6 105.6 53 106.5 52C107.4 51 107.8 49.9 107.8 48.5L107.7 45.5L107.2 45.6Z" fill="url(#paint3_linear_1808_3765)"/>
<path d="M102.85 48.3499C103.05 48.2499 103.25 48.1499 103.45 47.9499C103.55 47.7499 103.65 47.5499 103.65 47.3499C103.65 46.9499 103.45 46.6499 103.15 46.4499C102.75 46.2499 102.55 45.9499 102.45 45.6499L101.95 46.3499C101.55 46.8499 101.45 47.1499 101.45 47.4499C101.45 47.7499 101.55 48.0499 101.85 48.3499C102.05 48.5499 102.25 48.6499 102.55 48.6499C102.65 48.4499 102.85 48.3499 102.85 48.3499Z" fill="#9A6541"/>
<path d="M103.4 49.8999C103.1 50.2999 102.6 50.4999 102.1 50.4999C101.8 50.4999 101.6 50.3999 101.4 50.1999C101.2 49.9999 101 49.7999 101 49.5999C101 49.4999 101 49.4999 101.1 49.3999H101.2C101.6 49.5999 101.9 49.6999 102.2 49.6999C102.5 49.7999 102.9 49.6999 103.3 49.5999C103.3 49.6999 103.4 49.6999 103.4 49.8999C103.4 49.7999 103.4 49.8999 103.4 49.8999Z" fill="#9A6541"/>
<path d="M100.3 46.7C100.466 46.7 100.6 46.4314 100.6 46.1C100.6 45.7686 100.466 45.5 100.3 45.5C100.134 45.5 100 45.7686 100 46.1C100 46.4314 100.134 46.7 100.3 46.7Z" fill="#33312D"/>
<path d="M104.3 46.7C104.466 46.7 104.6 46.4314 104.6 46.1C104.6 45.7686 104.466 45.5 104.3 45.5C104.134 45.5 104 45.7686 104 46.1C104 46.4314 104.134 46.7 104.3 46.7Z" fill="#33312D"/>
<path d="M119.7 79.6002H85.0999C84.1999 79.6002 83.3999 78.8002 83.3999 77.9002C83.3999 77.0002 84.1999 76.2002 85.0999 76.2002H119.7C120.6 76.2002 121.4 77.0002 121.4 77.9002C121.4 78.8002 120.7 79.6002 119.7 79.6002Z" fill="#53ADE5"/>
<path d="M36.2001 50.1L13.1001 44.5L17.1001 28L40.2001 33.6L36.2001 50.1Z" fill="url(#paint4_linear_1808_3765)"/>
<path d="M17.094 27.9272L13.0854 44.4478L36.2143 50.0598L40.2229 33.5392L17.094 27.9272Z" fill="white"/>
<path d="M37.6997 44.1003L37.2997 43.7003C35.3997 41.7003 32.5997 41.0003 29.9997 41.9003L25.5997 43.5003L24.6997 47.3003L36.2997 50.1003L37.6997 44.1003Z" fill="url(#paint5_linear_1808_3765)"/>
<path d="M34.6998 39.9001C36.3014 39.9001 37.5998 38.6017 37.5998 37.0001C37.5998 35.3985 36.3014 34.1001 34.6998 34.1001C33.0982 34.1001 31.7998 35.3985 31.7998 37.0001C31.7998 38.6017 33.0982 39.9001 34.6998 39.9001Z" fill="#FFB900"/>
<path d="M29.3001 42.6003L26.1001 39.2003C24.2001 37.2003 21.4001 36.5003 18.8001 37.4003L14.4001 39.0003L13.1001 44.5003L36.2001 50.1003L29.3001 42.6003Z" fill="#8BC53F"/>
<path d="M38.5999 33.2002C39.4999 33.4002 40.0999 34.3002 39.8999 35.3002L36.6999 48.5002C36.4999 49.4002 35.5999 50.0002 34.5999 49.8002L14.7999 45.0002C13.8999 44.8002 13.2999 43.9002 13.4999 42.9002L16.6999 29.7002C16.8999 28.8002 17.7999 28.2002 18.7999 28.4002L38.5999 33.2002ZM38.9999 31.5002L19.1999 26.7002C17.3999 26.3002 15.4999 27.4002 15.0999 29.2002L11.8999 42.4002C11.4999 44.2002 12.5999 46.1002 14.3999 46.5002L34.1999 51.3002C35.9999 51.7002 37.8999 50.6002 38.2999 48.8002L41.4999 35.6002C41.8999 33.8002 40.7999 32.0002 38.9999 31.5002Z" fill="#3393DD"/>
<defs>
<linearGradient id="paint0_linear_1808_3765" x1="174.957" y1="69.9125" x2="163.114" y2="69.9125" gradientUnits="userSpaceOnUse">
<stop stop-color="#E1DFDD"/>
<stop offset="0.456" stop-color="#D4D2D0"/>
<stop offset="1" stop-color="#C8C6C4"/>
</linearGradient>
<linearGradient id="paint1_linear_1808_3765" x1="102.445" y1="-2.9545" x2="102.445" y2="190.231" gradientUnits="userSpaceOnUse">
<stop stop-color="#CCE4F6"/>
<stop offset="1" stop-color="#66AEE5"/>
</linearGradient>
<radialGradient id="paint2_radial_1808_3765" cx="0" cy="0" r="1" gradientUnits="userSpaceOnUse" gradientTransform="translate(102.66 47.5654) rotate(177.894) scale(3.09853 2.71977)">
<stop stop-color="#59453A"/>
<stop offset="1" stop-color="#9A6541" stop-opacity="0"/>
</radialGradient>
<linearGradient id="paint3_linear_1808_3765" x1="102.175" y1="51.9309" x2="102.183" y2="45.7885" gradientUnits="userSpaceOnUse">
<stop offset="0.0143947" stop-color="#48372D"/>
<stop offset="0.4807" stop-color="#59453A"/>
<stop offset="1" stop-color="#9A6541"/>
</linearGradient>
<linearGradient id="paint4_linear_1808_3765" x1="14.6349" y1="32.6824" x2="38.7244" y2="45.2448" gradientUnits="userSpaceOnUse">
<stop stop-color="#E1DFDD"/>
<stop offset="0.3956" stop-color="#DDDBD9"/>
<stop offset="0.8251" stop-color="#D0CECC"/>
<stop offset="1" stop-color="#C8C6C4"/>
</linearGradient>
<linearGradient id="paint5_linear_1808_3765" x1="25.4612" y1="43.5985" x2="37.0174" y2="46.4025" gradientUnits="userSpaceOnUse">
<stop offset="0.338" stop-color="#82A555"/>
<stop offset="0.5219" stop-color="#86B44B"/>
<stop offset="0.7704" stop-color="#8AC142"/>
<stop offset="1" stop-color="#8BC53F"/>
</linearGradient>
</defs>
</svg>
