<svg viewBox="0 0 192 192" fill="none" xmlns="http://www.w3.org/2000/svg">
<rect width="192" height="192" rx="96" fill="#FAFAFA"/>
<path fill-rule="evenodd" clip-rule="evenodd" d="M96 96C111.464 96 124 83.464 124 68C124 52.536 111.464 40 96 40C80.536 40 68 52.536 68 68C68 83.464 80.536 96 96 96ZM48 116.747C48.0001 109.704 53.7098 104 60.7496 104H131.251C138.29 104 144 109.703 144 116.746L144 119C144 130.267 138.175 138.701 129.24 144.141C120.453 149.49 108.642 152 96 152C83.3582 152 71.5472 149.49 62.7605 144.141C53.825 138.701 48 130.267 48 119L48 116.747Z" fill="#8F8F8F"/>
</svg>
