<svg width="23" height="21" viewBox="0 0 23 21" fill="none" xmlns="http://www.w3.org/2000/svg">
<path d="M21.9041 0.5H6.66646C6.4139 0.5 6.17162 0.600378 5.99302 0.778975C5.81443 0.957572 5.71411 1.19979 5.71411 1.45235V5.49984L14.2853 7.99976L22.8564 5.49984V1.45235C22.8564 1.19979 22.7561 0.957572 22.5775 0.778975C22.3989 0.600378 22.1566 0.5 21.9041 0.5Z" fill="#41A5EE"/>
<path d="M22.8564 5.50049H5.71411V10.5003L14.2853 13.0002L22.8564 10.5003V5.50049Z" fill="#2B7CD3"/>
<path d="M22.8564 10.5005H5.71411V15.5003L14.2853 18.0002L22.8564 15.5003V10.5005Z" fill="#185ABD"/>
<path d="M22.8564 15.5H5.71411V19.5475C5.71411 19.8001 5.81443 20.0423 5.99302 20.2209C6.17162 20.3995 6.41383 20.4998 6.66646 20.4998H21.9041C22.1566 20.4998 22.3988 20.3995 22.5774 20.2209C22.7561 20.0423 22.8564 19.8001 22.8564 19.5475V15.5Z" fill="#103F91"/>
<path opacity="0.1" d="M11.9044 4.07178H5.71411V17.6428H11.9044C12.1567 17.642 12.3985 17.5414 12.577 17.363C12.7554 17.1846 12.856 16.9427 12.8567 16.6904V5.02413C12.856 4.77175 12.7554 4.52998 12.5769 4.35151C12.3985 4.17311 12.1567 4.07254 11.9044 4.07178Z" fill="black"/>
<path opacity="0.2" d="M11.1901 4.78613H5.71411V18.3571H11.1901C11.4424 18.3564 11.6843 18.2558 11.8627 18.0773C12.0411 17.8989 12.1417 17.6571 12.1425 17.4047V5.73848C12.1417 5.48611 12.0411 5.24434 11.8627 5.06587C11.6843 4.88746 11.4424 4.78689 11.1901 4.78613Z" fill="black"/>
<path opacity="0.2" d="M11.1901 4.78613H5.71411V16.9286H11.1901C11.4424 16.9278 11.6843 16.8273 11.8627 16.6488C12.0411 16.4704 12.1417 16.2286 12.1425 15.9762V5.73848C12.1417 5.48611 12.0411 5.24434 11.8627 5.06587C11.6843 4.88746 11.4424 4.78689 11.1901 4.78613Z" fill="black"/>
<path opacity="0.2" d="M10.4759 4.78613H5.71411V16.9286H10.4759C10.7282 16.9278 10.97 16.8273 11.1484 16.6488C11.3269 16.4704 11.4274 16.2286 11.4282 15.9762V5.73848C11.4274 5.48611 11.3269 5.24434 11.1484 5.06587C10.97 4.88746 10.7282 4.78689 10.4759 4.78613Z" fill="black"/>
<path d="M10.4759 4.78613H0.95235C0.426399 4.78613 0 5.21253 0 5.73848V15.262C0 15.7879 0.426399 16.2143 0.95235 16.2143H10.4759C11.0019 16.2143 11.4282 15.7879 11.4282 15.262V5.73848C11.4282 5.21253 11.0019 4.78613 10.4759 4.78613Z" fill="#185ABD"/>
<path d="M8.53568 14.0718H7.25L5.75005 9.14341L4.17868 14.0718H2.893L1.46448 6.9292H2.75015L3.75012 11.929L5.25007 7.07205H6.32146L7.74999 11.929L8.74996 6.9292H9.9642L8.53568 14.0718Z" fill="white"/>
</svg>
